<svg xmlns="http://www.w3.org/2000/svg" xmlns:xlink="http://www.w3.org/1999/xlink" style="display: none" fill="currentColor"><symbol id="icon" viewBox="0 0 32 32"><path d="M15 14h-5a2 2 0 0 1-2-2V4a2 2 0 0 1 .59-1.42A3.6 3.6 0 0 1 10 2h5v2h-5v8h5ZM4 6h2v8H4zm0-4h2v2H4zm23.45 17.11-6-3a1 1 0 0 0-.9 0l-6 3A1 1 0 0 0 14 20v7a1 1 0 0 0 .55.89l6 3a1 1 0 0 0 .9 0l6-3A1 1 0 0 0 28 27v-7a1 1 0 0 0-.55-.89m-6.45-1L24.76 20 21 21.88 17.24 20Zm-5 3.5 4 2v4.76l-4-2Zm6 6.76v-4.75l4-2v4.76ZM23 2h-4a2 2 0 0 0-2 2v10h2v-4h4v4h2V4a2 2 0 0 0-2-2m-4 6V4h4v4Z"/><path fill="none" d="M0 0h32v32H0z"/></symbol></svg>