<svg xmlns="http://www.w3.org/2000/svg" xmlns:xlink="http://www.w3.org/1999/xlink" style="display: none" fill="currentColor"><symbol id="icon" viewBox="0 0 32 32"><path d="m29.976 15.783-2-9a1 1 0 0 0-.421-.615l-6-4A1 1 0 0 0 21 2H11a1 1 0 0 0-.555.168l-6 4a1 1 0 0 0-.421.615l-2 9a1 1 0 0 0 .018.504l3 10a1 1 0 0 0 .67.671l10 3h.006a1 1 0 0 0 .564 0h.005l10-3a1 1 0 0 0 .671-.67l3-10a1 1 0 0 0 .018-.505m-19.05.833-3.91-7.819 7.282 2.648ZM16 12.497 19.589 18H12.41ZM19.382 20 16 26.764 12.618 20Zm-1.68-8.555 7.281-2.648-3.91 7.82Zm.488-2.305 3.096-4.747 3.515 2.343ZM16 8.836 12.846 4h6.308Zm-2.19.304L7.2 6.736l3.514-2.343Zm-4.844 8.03-4.802-1.801 1.201-5.402Zm5.104 10.207-6.502-1.95 3.128-4.798Zm7.233-6.748 3.129 4.797-6.502 1.951Zm5.332-10.662 1.2 5.402-4.802 1.8ZM4.537 17.645l4.595 1.722-2.793 4.283Zm21.124 6.005-2.793-4.283 4.595-1.722Z"/><path fill="none" d="M0 0h32v32H0z"/></symbol></svg>