<svg xmlns="http://www.w3.org/2000/svg" xmlns:xlink="http://www.w3.org/1999/xlink" style="display: none" fill="currentColor"><symbol id="icon" viewBox="0 0 32 32"><path d="M26 22a3.86 3.86 0 0 0-2 .57l-3.09-3.1a6 6 0 0 0 0-6.94L24 9.43a3.86 3.86 0 0 0 2 .57 4 4 0 1 0-4-4 3.86 3.86 0 0 0 .57 2l-3.1 3.09a6 6 0 0 0-6.94 0L9.43 8A3.86 3.86 0 0 0 10 6a4 4 0 1 0-4 4 3.86 3.86 0 0 0 2-.57l3.09 3.1a6 6 0 0 0 0 6.94L8 22.57A3.86 3.86 0 0 0 6 22a4 4 0 1 0 4 4 3.86 3.86 0 0 0-.57-2l3.1-3.09a6 6 0 0 0 6.94 0l3.1 3.09a3.86 3.86 0 0 0-.57 2 4 4 0 1 0 4-4m-10-2a4 4 0 1 1 4-4 4 4 0 0 1-4 4"/><path fill="none" d="M0 0h32v32H0z"/></symbol></svg>