<svg xmlns="http://www.w3.org/2000/svg" xmlns:xlink="http://www.w3.org/1999/xlink" style="display: none" fill="currentColor"><symbol id="icon" viewBox="0 0 32 32"><path d="M28 4H4a2 2 0 0 0-2 2v20a2 2 0 0 0 2 2h24a2 2 0 0 0 2-2V6a2 2 0 0 0-2-2m0 22H4V6h24Z"/><path d="M21 20h-8a3.5 3.5 0 0 0-.88-1.86l3.8-6.64-1.74-1-3.78 6.62a3.4 3.4 0 0 0-.9-.12 3.5 3.5 0 1 0 3.15 5H21ZM9.5 22a1.5 1.5 0 1 1 1.5-1.5A1.5 1.5 0 0 1 9.5 22M19 8h7v2h-7zm0 4h4v2h-4z"/><path fill="none" d="M0 0h32v32H0z"/></symbol></svg>