<svg xmlns="http://www.w3.org/2000/svg" xmlns:xlink="http://www.w3.org/1999/xlink" style="display: none" fill="currentColor"><symbol id="icon" viewBox="0 0 32 32"><path d="M20 17v-2a2 2 0 0 0-2-2h-8a2 2 0 0 0-2 2v2a2 2 0 0 0 2 2h8a2 2 0 0 0 2-2m-10-2h8v2h-8Zm13.42 9.48A2 2 0 0 0 21 23.06l-7.73 2.07a2 2 0 0 0-1.42 2.44l.52 1.93a2 2 0 0 0 1.9 1.5 3 3 0 0 0 .52-.07l7.73-2.07a2 2 0 0 0 1.41-2.45ZM14.27 29l-.51-1.94L21.48 25l.52 1.92ZM13.24 6.86 21 8.93a2.2 2.2 0 0 0 .51.07 2 2 0 0 0 1.94-1.48L24 5.58a2 2 0 0 0-1.41-2.45l-7.8-2.07a2 2 0 0 0-2.45 1.41l-.52 1.93a2 2 0 0 0 1.42 2.44Zm1-3.86L22 5.07 21.48 7l-7.72-2.07ZM14 21h2v2h-2zm0-12h2v2h-2z"/><path fill="none" d="M0 0h32v32H0z"/></symbol></svg>