<svg xmlns="http://www.w3.org/2000/svg" xmlns:xlink="http://www.w3.org/1999/xlink" style="display: none" fill="currentColor"><symbol id="icon" viewBox="0 0 32 32"><path d="M16 30v-2a12.002 12.002 0 0 0 3.692-23.421l.616-1.904A14.002 14.002 0 0 1 16 30"/><path fill="#090909" d="M7.7 4.7a14.7 14.7 0 0 0-3 3.1L6.3 9a13.3 13.3 0 0 1 2.6-2.7Zm-3.1 7.6-1.9-.6A12.5 12.5 0 0 0 2 16h2a11.5 11.5 0 0 1 .6-3.7m7.1-9.6.6 1.9A11.5 11.5 0 0 1 16 4V2a12.5 12.5 0 0 0-4.3.7"/><path d="M15.402 24.248a12 12 0 0 0-1.718-3.335l1.613-1.183a14 14 0 0 1 2.005 3.893Zm-4.382-5.981a12 12 0 0 0-3.347-1.694l.612-1.905a14 14 0 0 1 3.907 1.978Z"/><path fill="none" d="M0 0h32v32H0z"/></symbol></svg>