<svg xmlns="http://www.w3.org/2000/svg" xmlns:xlink="http://www.w3.org/1999/xlink" style="display: none" fill="currentColor"><symbol id="icon" viewBox="0 0 32 32"><path d="M13 11H7a3 3 0 0 0-3 3v2h2v-2a1 1 0 0 1 1-1h6a1 1 0 0 1 1 1v2h2v-2a3 3 0 0 0-3-3m-3-1a4 4 0 1 0-4-4 4 4 0 0 0 4 4m0-6a2 2 0 1 1-2 2 2 2 0 0 1 2-2m10 0h10v2H20zm0 4h10v2H20zm0 4h6v2h-6zM5 30H3a2 2 0 0 1-2-2v-6a2 2 0 0 1 2-2h3v2H3v2h2a2 2 0 0 1 2 2v2a2 2 0 0 1-2 2m-2-4v2h2v-2Zm10 4h-2a2 2 0 0 1-2-2v-6a2 2 0 0 1 2-2h2a2 2 0 0 1 2 2v6a2 2 0 0 1-2 2m-2-8v6h2v-6Zm10 8h-2a2 2 0 0 1-2-2v-6a2 2 0 0 1 2-2h2a2 2 0 0 1 2 2v6a2 2 0 0 1-2 2m-2-8v6h2v-6Zm10 8h-2a2 2 0 0 1-2-2v-6a2 2 0 0 1 2-2h2a2 2 0 0 1 2 2v6a2 2 0 0 1-2 2m-2-8v6h2v-6Z"/><path fill="none" d="M0 0h32v32H0z"/></symbol></svg>