<svg xmlns="http://www.w3.org/2000/svg" xmlns:xlink="http://www.w3.org/1999/xlink" style="display: none" fill="currentColor"><symbol id="icon" viewBox="0 0 32 32"><path d="M26 20h-4v2h4v2h-3v2h3v2h-4v2h4a2.003 2.003 0 0 0 2-2v-6a2 2 0 0 0-2-2m2-4h2A14 14 0 0 0 16 2v2a12 12 0 0 1 12 12"/><path d="M26 16A10 10 0 0 0 16 6v10ZM16 28a11.96 11.96 0 0 1-10.584-6.345q-.1-.19-.195-.384-.082-.17-.157-.342A13 13 0 0 1 4.19 18l-1.968.413A14 14 0 0 0 2.7 20.3l-.025.009A13.96 13.96 0 0 0 16 30ZM5.591 10 3.86 9a14.1 14.1 0 0 0-1.638 4.587l1.968.347A12.2 12.2 0 0 1 5.59 10m6.226-5.235-.683-1.878a14 14 0 0 0-4.182 2.44L8.236 6.86a12 12 0 0 1 3.58-2.094"/><path fill="none" d="M0 0h32v32H0z"/></symbol></svg>