<svg xmlns="http://www.w3.org/2000/svg" xmlns:xlink="http://www.w3.org/1999/xlink" style="display: none" fill="currentColor"><symbol id="icon" viewBox="0 0 32 32"><path d="m10 13 1.4-1.4 3.6 3.6V2h2v13.2l3.6-3.6L22 13l-6 6z"/><path d="M20 2.8V5c3 1.5 5 4.5 5 8q0 3-1.8 5.4s-.2.3-.3.4L16 26.9l-6.9-8.1c-.1-.1-.3-.4-.3-.4Q7 16 7 13c0-3.5 2-6.6 5-8V2.8C7.9 4.4 5 8.3 5 13c0 2.4.8 4.7 2.2 6.6 0 0 .3.4.3.5L16 30l8.4-10c0-.1.3-.4.3-.4 1.4-1.9 2.2-4.2 2.2-6.6.1-4.7-2.8-8.6-6.9-10.2"/><path fill="none" d="M0 0h32v32H0z"/></symbol></svg>