<svg xmlns="http://www.w3.org/2000/svg" xmlns:xlink="http://www.w3.org/1999/xlink" style="display: none" fill="currentColor"><symbol id="icon" viewBox="0 0 32 32"><circle cx="16" cy="20.5" r="1.5"/><path d="M17 17h-2v-4h2c1.1 0 2-.9 2-2s-.9-2-2-2h-2c-1.1 0-2 .9-2 2v.5h-2V11c0-2.2 1.8-4 4-4h2c2.2 0 4 1.8 4 4s-1.8 4-4 4z"/><path d="m16 30-8.4-9.9c0-.1-.3-.5-.3-.5C5.8 17.7 5 15.4 5 13 5 6.9 9.9 2 16 2s11 4.9 11 11c0 2.4-.8 4.7-2.2 6.6l-.3.4zM8.8 18.4s.2.3.3.4l6.9 8.1 6.9-8.1c0-.1.3-.4.3-.4Q25 16 25 13c0-5-4-9-9-9s-9 4-9 9q0 3 1.8 5.4"/><path fill="none" d="M0 0h32v32H0z"/></symbol></svg>