<svg xmlns="http://www.w3.org/2000/svg" xmlns:xlink="http://www.w3.org/1999/xlink" style="display: none" fill="currentColor"><symbol id="icon" viewBox="0 0 32 32"><path d="M30 23v-2h-2v-2h-2v2h-3v-2h-2v2h-2v2h2v3h-2v2h2v2h2v-2h3v2h2v-2h2v-2h-2v-3Zm-4 3h-3v-3h3Z"/><path d="M4.83 20.356A24.95 24.95 0 0 0 15 22.964v-2a22.9 22.9 0 0 1-10.866-3.272A12 12 0 0 1 4 16a12 12 0 0 1 .133-1.69 22.93 22.93 0 0 1 23.734 0A12 12 0 0 1 28 16h2a14 14 0 1 0-14 14v-2a12.01 12.01 0 0 1-11.17-7.645M16 4a12.01 12.01 0 0 1 11.17 7.647 24.9 24.9 0 0 0-22.34 0A12.01 12.01 0 0 1 16 4"/><path fill="none" d="M0 0h32v32H0z"/></symbol></svg>