<svg xmlns="http://www.w3.org/2000/svg" xmlns:xlink="http://www.w3.org/1999/xlink" style="display: none" fill="currentColor"><symbol id="icon" viewBox="0 0 32 32"><path d="m21.56 15.1-3.48-4.35a2 2 0 0 0-1.56-.75H4a2 2 0 0 0-2 2v16a2 2 0 0 0 2 2h16a2 2 0 0 0 2-2V16.35a2 2 0 0 0-.44-1.25M9 12h6v3H9Zm6 16H9v-6h6Zm2 0v-6a2 2 0 0 0-2-2H9a2 2 0 0 0-2 2v6H4V12h3v3a2 2 0 0 0 2 2h6a2 2 0 0 0 2-2v-2.4l3 3.75V28Z"/><path d="M27 21h-2V7H11V5h14a2 2 0 0 1 2 2Z"/><path d="M32 14h-2V2H18V0h12a2 2 0 0 1 2 2Z"/><path fill="none" d="M0 0h32v32H0z"/></symbol></svg>