<svg xmlns="http://www.w3.org/2000/svg" xmlns:xlink="http://www.w3.org/1999/xlink" style="display: none" fill="currentColor"><symbol id="icon" viewBox="0 0 32 32"><path d="m29.537 13.76-3.297-3.297a1.586 1.586 0 0 0-2.24 0L10 24.467V30h5.533l14.004-14a1.586 1.586 0 0 0 0-2.24M14.704 28H12v-2.704l9.44-9.441 2.705 2.704ZM25.56 17.145l-2.704-2.704 2.267-2.267 2.704 2.704ZM11 17h2v-7h3V8H8v2h3z"/><path d="M8 20H4V4h16v4h2V4a2 2 0 0 0-2-2H4a2 2 0 0 0-2 2v16a2 2 0 0 0 2 2h4Z"/><path fill="none" d="M0 0h32v32H0z"/></symbol></svg>