<svg xmlns="http://www.w3.org/2000/svg" xmlns:xlink="http://www.w3.org/1999/xlink" style="display: none" fill="currentColor"><symbol id="icon" viewBox="0 0 32 32"><path d="M26 4H6a2.003 2.003 0 0 0-2 2v20a2.003 2.003 0 0 0 2 2h20a2 2 0 0 0 2-2V6a2 2 0 0 0-2-2M6 6h20v10h-2v2h2v2h-2v2h2v2h-2v2h-2v-2h-2v2h-2v-2h-2v2h-2v-2h-2v2h-2v-2H8v2H6Z"/><path d="M8 20h2v2H8zm4 0h2v2h-2zm4 0h2v2h-2zm4 0h2v2h-2zM8 16h2v2H8zm8 0h2v2h-2zm4 0h2v2h-2zm0-4h2v2h-2zm0-4h2v2h-2z"/><path fill="none" d="M0 0h32v32H0z"/></symbol></svg>