<svg xmlns="http://www.w3.org/2000/svg" xmlns:xlink="http://www.w3.org/1999/xlink" style="display: none" fill="currentColor"><symbol id="icon" viewBox="0 0 32 32"><path d="M28 12H4a2 2 0 0 0-2 2v14a2 2 0 0 0 2 2h24a2 2 0 0 0 2-2V14a2.003 2.003 0 0 0-2-2m-8 16h-8v-1a1 1 0 0 1 1-1h6a1 1 0 0 1 1 1Zm8 0h-6v-1a3.003 3.003 0 0 0-3-3h-6a3.003 3.003 0 0 0-3 3v1H4V14h24.002Z"/><path d="M16 23a4 4 0 1 1 4-4 4.004 4.004 0 0 1-4 4m0-6a2 2 0 1 0 2 2 2 2 0 0 0-2-2M30 4v4a2.003 2.003 0 0 1-2 2h-4a2.003 2.003 0 0 1-2-2V4a2.003 2.003 0 0 1 2-2h4a2.003 2.003 0 0 1 2 2m-2 4 .002-4H24v4Zm-8-4v4a2.003 2.003 0 0 1-2 2h-4a2 2 0 0 1-2-2V4a2 2 0 0 1 2-2h4a2.003 2.003 0 0 1 2 2m-2 4 .002-4H14v4Zm-8-4v4a2 2 0 0 1-2 2H4a2 2 0 0 1-2-2V4a2 2 0 0 1 2-2h4a2 2 0 0 1 2 2M8 8l.002-4H4v4Z"/><path fill="none" d="M0 0h32v32H0z"/></symbol></svg>