<svg xmlns="http://www.w3.org/2000/svg" width="498" height="660" viewBox="0 0 498 660" fill="none">
  <defs>
    <linearGradient id="paint0_linear_26228_22498" x1="142.499" y1="934.999" x2="49.4991" y2="45.4986" gradientUnits="userSpaceOnUse">
      <stop stop-color="#DCBCFF" stop-opacity="0"/>
      <stop offset="1" stop-color="#DCBCFF" stop-opacity="0.3"/>
    </linearGradient>
  </defs>
  <path d="M112.57 59.9521C111.189 58.9788 107.812 57.3634 104.472 53.6311C103.757 53.1264 101.664 53.4881 96.8444 52.6159C92.0755 51.7798 87.1011 49.4979 83.2334 47.3835C79.3657 45.269 75.3086 43.0974 71.4961 42.859C67.6325 42.5846 63.8293 63.9394 62.4488 62.9661C61.9231 63.8202 60.7934 65.8568 58.9942 68.9516C56.4052 73.7095 52.8882 80.1092 48.5512 87.9979C48.8035 87.64 49.1579 87.3545 49.4254 87.0837C50.4289 85.8775 51.3456 84.6859 52.277 83.582C52.6736 83.0195 53.0188 82.4213 53.4304 81.946C53.7188 81.537 54.0734 81.2511 54.4851 80.7758C54.6694 82.3602 54.2517 83.0611 53.0345 83.8104C52.9113 83.8767 52.7011 83.9577 52.6801 84.0961C51.9926 85.8313 50.9261 87.4525 50.4582 89.4191C51.2126 89.109 51.3566 88.9046 51.2661 88.3815C51.2209 88.12 51.6328 87.6444 51.798 87.3015C51.9992 86.9076 52.1491 86.4778 52.3504 86.0838C53.0118 86.0142 53.37 86.2662 53.178 86.9728C52.8418 87.884 52.5924 88.7804 52.2562 89.6916C52.1481 89.845 52.1214 90.2086 52.1726 90.2447C52.9664 90.4216 52.4676 90.9119 52.3535 91.2908C52.1523 91.6848 51.9508 92.0792 51.6985 92.4371L51.7345 92.386C51.7345 92.386 52.1708 92.3101 52.5195 92.2498C52.3845 92.767 52.3363 93.2697 52.2013 93.7869C51.8887 93.796 51.6122 93.7538 51.3867 93.748C50.903 94.3255 50.4043 94.8156 50.5401 95.6002C50.6817 96.1594 50.3 96.8092 50.1592 97.5518C49.5187 97.4831 49.155 97.4563 48.5656 97.4235C48.9379 96.4612 49.2589 95.4629 49.6823 94.5367C50.0127 93.851 50.5928 93.571 51.2994 93.7631C51.1729 93.2911 51.1334 92.8043 51.5962 92.365C50.98 92.6961 50.3641 93.0269 49.7119 93.4091C49.8888 92.6152 50.0808 91.9087 50.2216 91.1661C50.2787 90.9766 50.1976 90.7658 50.2035 90.5403C49.5244 91.2863 48.9533 91.8791 48.3824 92.4718L45.9529 97.1121" fill="url(#paint0_linear_26228_22498)"/>
</svg>