<svg xmlns="http://www.w3.org/2000/svg" xmlns:xlink="http://www.w3.org/1999/xlink" style="display: none" fill="currentColor"><symbol id="icon" viewBox="0 0 32 32"><path d="M16 10a8.6 8.6 0 0 0-7.965 6A8.6 8.6 0 0 0 16 22a8.6 8.6 0 0 0 7.965-6A8.6 8.6 0 0 0 16 10m0 10a4 4 0 1 1 4-4 4.005 4.005 0 0 1-4 4"/><path d="M16 2a14 14 0 1 0 14 14A14 14 0 0 0 16 2m0 22a10.65 10.65 0 0 1-9.97-7.758L5.97 16l.06-.242A10.65 10.65 0 0 1 16 8a10.65 10.65 0 0 1 9.97 7.758l.06.242-.06.242A10.65 10.65 0 0 1 16 24"/><circle cx="16" cy="16" r="2"/><path fill="none" d="M16 20a4 4 0 1 1 4-4 4.005 4.005 0 0 1-4 4m0-6a2 2 0 1 0 2 2 2 2 0 0 0-2-2"/><path fill="none" d="M16 24a10.655 10.655 0 0 1-9.97-7.758L5.97 16l.06-.242A10.655 10.655 0 0 1 16 8a10.655 10.655 0 0 1 9.97 7.758l.06.242-.06.242A10.655 10.655 0 0 1 16 24m-7.965-8A8.6 8.6 0 0 0 16 22a8.6 8.6 0 0 0 7.965-6A8.6 8.6 0 0 0 16 10a8.6 8.6 0 0 0-7.965 6"/><path fill="none" d="M0 0h32v32H0z"/></symbol></svg>