<svg xmlns="http://www.w3.org/2000/svg" xmlns:xlink="http://www.w3.org/1999/xlink" style="display: none" fill="currentColor"><symbol id="icon" viewBox="0 0 32 32"><path d="m16 23.414-4.707-4.707 1.414-1.414L16 20.586 27.293 9.293l1.414 1.414zM12.707 8.707l-1.414-1.414L7 11.586 4.414 9l4.293-4.293-1.414-1.414-5 5a1 1 0 0 0 0 1.414l7 7 1.414-1.414L8.414 13z"/><path d="M16 30C8.28 30 2 23.72 2 16h2c0 6.617 5.383 12 12 12s12-5.383 12-12h2c0 7.72-6.28 14-14 14m8.308-22.66A11.94 11.94 0 0 0 16 4c-.936 0-1.868.108-2.77.321l-.46-1.946A14 14 0 0 1 16 2a13.93 13.93 0 0 1 9.692 3.898z"/><path fill="none" d="M0 0h32v32H0z"/></symbol></svg>