<svg xmlns="http://www.w3.org/2000/svg" xmlns:xlink="http://www.w3.org/1999/xlink" style="display: none" fill="currentColor"><symbol id="icon" viewBox="0 0 32 32"><path d="m29.707 19.293-3-3a1 1 0 0 0-1.414 0L16 25.586V30h4.414l9.293-9.293a1 1 0 0 0 0-1.414M19.586 28H18v-1.586l5-5L24.586 23ZM26 21.586 24.414 20 26 18.414 27.586 20ZM30 4h-7v2h3.586L19 13.586l-4.293-4.293a1 1 0 0 0-1.414 0L6 16.586 7.414 18 14 11.414l4.293 4.293a1 1 0 0 0 1.414 0L28 7.414V11h2Z"/><path d="M4 2H2v26a2 2 0 0 0 2 2h8v-2H4Z"/><path fill="none" d="M0 0h32v32H0z"/></symbol></svg>