<svg xmlns="http://www.w3.org/2000/svg" xmlns:xlink="http://www.w3.org/1999/xlink" style="display: none" fill="currentColor"><symbol id="icon" viewBox="0 0 32 32"><path d="M17 19h4v4h-4zm-6 0h4v4h-4zm6 6h4v4h-4zm-6 0h4v4h-4z"/><path d="M24.5 25H24v-2h.5a5.496 5.496 0 0 0 .377-10.98l-.836-.056-.09-.834a7.998 7.998 0 0 0-15.902 0l-.09.834-.836.057A5.496 5.496 0 0 0 7.5 23H8v2h-.5a7.496 7.496 0 0 1-1.322-14.876 10 10 0 0 1 19.644 0A7.496 7.496 0 0 1 24.5 25"/><path fill="none" d="M0 0h32v32H0z"/></symbol></svg>