<svg xmlns="http://www.w3.org/2000/svg" xmlns:xlink="http://www.w3.org/1999/xlink" style="display: none" fill="currentColor"><symbol id="icon" viewBox="0 0 32 32"><path d="M11 19v2H5v-2h2v-5H5v-2h2v-1h2v8zm8 0h-4v-2h2c1.103 0 2-.897 2-2v-2c0-1.103-.897-2-2-2h-4v2h4v2h-2c-1.103 0-2 .897-2 2v4h6zm6-8h-4v2h4v2h-3v2h3v2h-4v2h4c1.103 0 2-.897 2-2v-6c0-1.103-.897-2-2-2M2 4v4h2V4h4V2H4a2 2 0 0 0-2 2m26-2h-4v2h4v4h2V4a2 2 0 0 0-2-2M4 28v-4H2v4a2 2 0 0 0 2 2h4v-2zm24-4v4h-4v2h4a2 2 0 0 0 2-2v-4z"/><path fill="none" d="M0 0h32v32H0z"/></symbol></svg>