<svg xmlns="http://www.w3.org/2000/svg" xmlns:xlink="http://www.w3.org/1999/xlink" style="display: none" fill="currentColor"><symbol id="icon" viewBox="0 0 32 32"><path d="m8.438 6.145 3.013-1.78 1.018 1.72-3.013 1.782zM6 12H4V9.9c0-.7.4-1.4 1-1.7l1.5-.9 1 1.7-1.5.9zm-2 2h2v4H4zm2.5 10.7L5 23.8c-.6-.4-1-1-1-1.7V20h2v2.1l1.5.9zm1.932 1.126 1.017-1.721 3.013 1.78-1.017 1.722zM17.5 27.1 16 28l-1.5-.9-1 1.7 1.5.9c.3.2.7.3 1 .3.4 0 .7-.1 1-.3l1.5-.9zm2.022-1.193 3.013-1.78 1.018 1.72-3.013 1.782zM25.2 24.9l-1-1.7 1.8-1V20h2v2.1c0 .7-.4 1.4-1 1.7zM26 14h2v4h-2zm2-2h-2V9.9l-1.8-1 1-1.7 1.8 1c.6.4 1 1 1 1.7zm-8.549-5.96 1.019-1.72 3.013 1.78-1.018 1.722zM17.5 4.9 16 4l-1.5.9-1-1.7 1.5-.9c.3-.2.6-.3 1-.3s.7.1 1 .3l1.5.9z"/><path fill="none" d="M0 0h32v32H0z"/></symbol></svg>