<svg xmlns="http://www.w3.org/2000/svg" xmlns:xlink="http://www.w3.org/1999/xlink" style="display: none" fill="currentColor"><symbol id="icon" viewBox="0 0 32 32"><path d="M23.216 4H26V2h-7v6h2V5.096A11.96 11.96 0 0 1 28 16c0 6.617-5.383 12-12 12v2c7.72 0 14-6.28 14-14 0-5.009-2.632-9.512-6.784-12"/><path d="M16 20a1.5 1.5 0 1 0 0 3 1.5 1.5 0 0 0 0-3M15 9h2v9h-2z"/><path d="M16 4V2C8.28 2 2 8.28 2 16c0 4.977 2.607 9.494 6.784 12H6v2h7v-6h-2v2.903A11.97 11.97 0 0 1 4 16C4 9.383 9.383 4 16 4"/><path fill="none" d="M0 0h32v32H0z"/></symbol></svg>