<svg xmlns="http://www.w3.org/2000/svg" xmlns:xlink="http://www.w3.org/1999/xlink" style="display: none" fill="currentColor"><symbol id="icon" viewBox="0 0 32 32"><path d="M32 26v-2h-2.101a5 5 0 0 0-.732-1.753l1.49-1.49-1.414-1.414-1.49 1.49A5 5 0 0 0 26 20.101V18h-2v2.101a5 5 0 0 0-1.753.732l-1.49-1.49-1.414 1.414 1.49 1.49A5 5 0 0 0 20.101 24H18v2h2.101c.13.637.384 1.229.732 1.753l-1.49 1.49 1.414 1.414 1.49-1.49a5 5 0 0 0 1.753.732V32h2v-2.101a5 5 0 0 0 1.753-.732l1.49 1.49 1.414-1.414-1.49-1.49A5 5 0 0 0 29.899 26zm-7 2c-1.654 0-3-1.346-3-3s1.346-3 3-3 3 1.346 3 3-1.346 3-3 3m-5-11h-8a2 2 0 0 1-2-2V4a2 2 0 0 1 2-2h8a2 2 0 0 1 2 2v11a2 2 0 0 1-2 2m-8-2h8V4h-8z"/><path d="M17 21H8a2 2 0 0 1-2-2V7h2v12h9z"/><path d="M13 25H4c-1.103 0-2-.897-2-2V11h2v12h9z"/><path fill="none" d="M0 0h32v32H0z"/></symbol></svg>