<svg xmlns="http://www.w3.org/2000/svg" xmlns:xlink="http://www.w3.org/1999/xlink" style="display: none" fill="currentColor"><symbol id="icon" viewBox="0 0 32 32"><path d="M16 30a1.1 1.1 0 0 1-.42-.09A1 1 0 0 1 15 29V18.41L8.41 25 7 23.59 14.59 16 7 8.41 8.41 7 15 13.59V3a1 1 0 0 1 .58-.91 1 1 0 0 1 1.07.15l7 6A1 1 0 0 1 24 9a1 1 0 0 1-.29.75L17.41 16l6.3 6.29A1 1 0 0 1 24 23a1 1 0 0 1-.35.72l-7 6A1 1 0 0 1 16 30m1-11.59v8.42l4.53-3.89Zm0-13.24v8.42l4.53-4.53Z"/><path fill="none" d="M0 0h32v32H0z"/></symbol></svg>