<svg xmlns="http://www.w3.org/2000/svg" xmlns:xlink="http://www.w3.org/1999/xlink" style="display: none" fill="currentColor"><symbol id="icon" viewBox="0 0 32 32"><path d="M26 30h-7c-1.103 0-2-.897-2-2v-2h2v2h7v-7h-2v-2h2c1.103 0 2 .897 2 2v7c0 1.103-.897 2-2 2"/><path d="M12 24h2v-6.586L22.582 26 24 24.586 15.414 16H22v-2H12z"/><path d="M8 27H4a2 2 0 0 1-2-2V5a2 2 0 0 1 2-2h7.586A2 2 0 0 1 13 3.586L16.414 7H28a2 2 0 0 1 2 2v7h-2V9H15.586l-4-4H4v20h4z"/><path fill="none" d="M0 0h32v32H0z"/></symbol></svg>