<svg xmlns="http://www.w3.org/2000/svg" xmlns:xlink="http://www.w3.org/1999/xlink" style="display: none" fill="currentColor"><symbol id="icon" viewBox="0 0 32 32"><path d="M20 6c0 1.859 1.28 3.41 3 3.858V14c0 1.654-1.346 3-3 3h-8c-1.13 0-2.162.391-3 1.026V9.858c1.72-.447 3-2 3-3.858 0-2.206-1.794-4-4-4S4 3.794 4 6c0 1.859 1.28 3.41 3 3.858v12.284c-1.72.447-3 2-3 3.858 0 2.206 1.794 4 4 4s4-1.794 4-4c0-1.858-1.28-3.41-3-3.858V22c0-1.654 1.346-3 3-3h8c2.757 0 5-2.243 5-5V9.858c1.72-.447 3-2 3-3.858 0-2.206-1.794-4-4-4s-4 1.794-4 4M6 6c0-1.102.897-2 2-2s2 .898 2 2c0 1.103-.897 2-2 2s-2-.897-2-2m4 20c0 1.103-.897 2-2 2s-2-.897-2-2 .897-2 2-2 2 .897 2 2M26 6c0 1.103-.897 2-2 2s-2-.897-2-2 .898-2 2-2 2 .898 2 2"/><path fill="none" d="M0 0h32v32H0z"/></symbol></svg>