<svg xmlns="http://www.w3.org/2000/svg" xmlns:xlink="http://www.w3.org/1999/xlink" style="display: none" fill="currentColor"><symbol id="icon" viewBox="0 0 32 32"><path d="M28 14h-1V7c0-1.1-.9-2-2-2h-6v2h6v7h-1c-1.1 0-2 .9-2 2v9H9.9c-.4-1.4-1.5-2.5-2.9-2.9V7h6.2l-2.6 2.6L12 11l5-5-5-5-1.4 1.4L13.2 5H7c-1.1 0-2 .9-2 2v15.1c-1.7.4-3 2-3 3.9 0 2.2 1.8 4 4 4 1.9 0 3.4-1.3 3.9-3H22v1c0 1.1.9 2 2 2h4c1.1 0 2-.9 2-2V16c0-1.1-.9-2-2-2M6 28c-1.1 0-2-.9-2-2s.9-2 2-2 2 .9 2 2-.9 2-2 2m18 0V16h4v12z"/><path fill="none" d="M0 0h32v32H0z"/></symbol></svg>