<svg xmlns="http://www.w3.org/2000/svg" xmlns:xlink="http://www.w3.org/1999/xlink" style="display: none" fill="currentColor"><symbol id="icon" viewBox="0 0 32 32"><path d="M27 11h2v4h-2zM3 11h2v4H3zm17 9h2v2h-2zm-10 0h2v2h-2z"/><path d="M21 4H11a5.006 5.006 0 0 0-5 5v14a2 2 0 0 0 2 2v3h2v-3h12v3h2v-3a2.003 2.003 0 0 0 2-2V9a5.006 5.006 0 0 0-5-5m3 6v6H8v-6ZM11 6h10a2.995 2.995 0 0 1 2.816 2H8.184A2.995 2.995 0 0 1 11 6M8 23v-5h16.001l.001 5Z"/><path fill="none" d="M0 0h32v32H0z"/></symbol></svg>