<svg xmlns="http://www.w3.org/2000/svg" xmlns:xlink="http://www.w3.org/1999/xlink" style="display: none" fill="currentColor"><symbol id="icon" viewBox="0 0 32 32"><path d="M23 31h-.028a1 1 0 0 1-.912-.658l-3.136-8.625-2.005 4.677A1 1 0 0 1 16 27h-4v-2h3.34l2.74-6.394c.163-.377.549-.616.948-.606a1 1 0 0 1 .912.658l3.136 8.626 2.005-4.678A1 1 0 0 1 26 22h4v2h-3.34l-2.74 6.394A1 1 0 0 1 23 31"/><path d="M9 25H4V10h24v9h2v-9c0-1.103-.897-2-2-2h-6V4c0-1.103-.897-2-2-2h-8c-1.103 0-2 .897-2 2v4H4c-1.103 0-2 .897-2 2v15c0 1.103.897 2 2 2h5zm3-21h8v4h-8z"/><path fill="none" d="M0 0h32v32H0z"/></symbol></svg>