<svg xmlns="http://www.w3.org/2000/svg" xmlns:xlink="http://www.w3.org/1999/xlink" style="display: none" fill="currentColor"><symbol id="icon" viewBox="0 0 32 32"><path d="M24 2h2v7h-2z"/><rect width="3" height="3" x="23.5" y="11" rx="1.5"/><path d="M23.822 18h-8.739L11.864 5.965a4 4 0 0 0-7.727 2.07l4.408 16.482A2 2 0 0 0 10.477 26H19v2H4v2h15a2 2 0 0 0 2-2v-2h3a4.005 4.005 0 0 0 3.98-4.4 4.12 4.12 0 0 0-4.158-3.6M24 24H10.478L6.067 7.518a2 2 0 1 1 3.864-1.035L13.547 20H24a2 2 0 0 1 0 4"/><path fill="none" d="M0 0h32v32H0z"/></symbol></svg>