<svg xmlns="http://www.w3.org/2000/svg" xmlns:xlink="http://www.w3.org/1999/xlink" style="display: none" fill="currentColor"><symbol id="icon" viewBox="0 0 32 32"><path d="M26 12a4 4 0 1 0 0 8 4 4 0 0 0 0-8m0 6c-1.103 0-2-.897-2-2s.897-2 2-2 2 .897 2 2-.897 2-2 2m-11 3v2h2.586l-2.3 2.3A2.96 2.96 0 0 0 14 25c-1.654 0-3 1.346-3 3s1.346 3 3 3 3-1.346 3-3c0-.462-.114-.894-.3-1.285l2.3-2.301V27h2v-6zm-1 8a1.001 1.001 0 0 1 0-2 1.001 1.001 0 0 1 0 2m-2.586-17.586L10 12.83 12.172 15H7.816A2.995 2.995 0 0 0 5 13c-1.654 0-3 1.346-3 3s1.346 3 3 3a2.995 2.995 0 0 0 2.816-2h4.356L10 19.172l1.414 1.414L16 16zM5 17a1.001 1.001 0 0 1 0-2 1.001 1.001 0 0 1 0 2M19 5v2.586l-2.3-2.3c.187-.392.3-.824.3-1.286 0-1.654-1.346-3-3-3s-3 1.346-3 3 1.346 3 3 3a2.96 2.96 0 0 0 1.285-.3L17.586 9H15v2h6V5zm-6-1c0-.551.449-1 1-1s1 .449 1 1-.448 1-1 1-1-.449-1-1"/><path fill="none" d="M0 0h32v32H0z"/></symbol></svg>