<svg xmlns="http://www.w3.org/2000/svg" xmlns:xlink="http://www.w3.org/1999/xlink" style="display: none" fill="currentColor"><symbol id="icon" viewBox="0 0 32 32"><path d="M29 26H3a1 1 0 0 1-1-1V8a1 1 0 0 1 1-1h6.46l1.71-2.55A1 1 0 0 1 12 4h8a1 1 0 0 1 .83.45L22.54 7H29a1 1 0 0 1 1 1v17a1 1 0 0 1-1 1M4 24h24V9h-6a1 1 0 0 1-.83-.45L19.46 6h-6.92l-1.71 2.55A1 1 0 0 1 10 9H4Z"/><path d="M16 22a6 6 0 1 1 6-6 6 6 0 0 1-6 6m0-10a4 4 0 1 0 4 4 4 4 0 0 0-4-4"/><path fill="none" d="M0 0h32v32H0z"/></symbol></svg>