<svg xmlns="http://www.w3.org/2000/svg" xmlns:xlink="http://www.w3.org/1999/xlink" style="display: none" fill="currentColor"><symbol id="icon" viewBox="0 0 32 32"><path d="m29.509 17.689-6-3.55a1 1 0 0 0-1.018.001l-6 3.55a1 1 0 0 0-.491.86v6.9c0 .354.187.681.491.86l6 3.55a.99.99 0 0 0 1.018 0l6-3.55a1 1 0 0 0 .491-.86v-6.9a1 1 0 0 0-.491-.861M28 24.88l-5 2.958-5-2.958v-5.76l5-2.958 5 2.958z"/><circle cx="6" cy="6" r="1"/><circle cx="9" cy="6" r="1"/><path d="M28 2H4c-1.103 0-2 .897-2 2v20c0 1.103.897 2 2 2h9v-2H4V10h24v4h2V4c0-1.103-.897-2-2-2M4 8V4h24v4z"/><path fill="none" d="M0 0h32v32H0z"/></symbol></svg>