<svg xmlns="http://www.w3.org/2000/svg" xmlns:xlink="http://www.w3.org/1999/xlink" style="display: none" fill="currentColor"><symbol id="icon" viewBox="0 0 32 32"><path d="M24 28h6v2h-6z"/><circle cx="21" cy="29" r="1"/><circle cx="29" cy="25" r="1"/><path d="M26 26h-6v-2h6zm-2-6h6v2h-6z"/><circle cx="21" cy="21" r="1"/><path d="m21.493 14.13-8.5-4.815a1 1 0 0 0-.986 0l-8.5 4.815A1 1 0 0 0 3 15v10a1 1 0 0 0 .507.87l8.5 4.815.986-1.74L5 24.417v-8.834l7.5-4.248 7.5 4.248V18h2v-3a1 1 0 0 0-.507-.87"/><path d="M25 15h2V7a1 1 0 0 0-.507-.87l-8.5-4.815a1 1 0 0 0-.986 0l-8.5 4.815.986 1.74L17.5 3.334 25 7.583z"/><path fill="none" d="M0 0h32v32H0z"/></symbol></svg>