<svg xmlns="http://www.w3.org/2000/svg" xmlns:xlink="http://www.w3.org/1999/xlink" style="display: none" fill="currentColor"><symbol id="icon" viewBox="0 0 32 32"><path d="M32 14h-2V8.074l-5.504-3.21 1.008-1.728 6 3.5A1 1 0 0 1 32 7.5zm-12 8a1 1 0 0 1-.504-.136l-6-3.5A1 1 0 0 1 13 17.5v-7a1 1 0 0 1 .496-.864l6-3.5a1 1 0 0 1 1.008 0l6 3.5A1 1 0 0 1 27 10.5v7a1 1 0 0 1-.496.864l-6 3.5A1 1 0 0 1 20 22m-5-5.074 5 2.916 5-2.916v-5.852l-5-2.916-5 2.916z"/><circle cx="12.5" cy="24.5" r="1.5"/><path d="M19 30H6c-1.103 0-2-.897-2-2V4c0-1.103.897-2 2-2h13v2H6v24h13v-4h2v4c0 1.103-.897 2-2 2"/><path fill="none" d="M0 0h32v32H0z"/></symbol></svg>