<svg xmlns="http://www.w3.org/2000/svg" xmlns:xlink="http://www.w3.org/1999/xlink" style="display: none" fill="currentColor"><symbol id="icon" viewBox="0 0 32 32"><circle cx="7" cy="6" r="1"/><circle cx="11" cy="6" r="1"/><circle cx="28.5" cy="24.5" r="1.5"/><circle cx="23.5" cy="27.5" r="1.5"/><circle cx="18.5" cy="24.5" r="1.5"/><circle cx="18.5" cy="19.5" r="1.5"/><circle cx="23.5" cy="16.5" r="1.5"/><circle cx="28.5" cy="19.5" r="1.5"/><path d="M28 2H4a2 2 0 0 0-2 2v20a2 2 0 0 0 2 2h9v-2H4V10h24v4h2V4a2 2 0 0 0-2-2m0 6H4V4h24z"/><path fill="none" d="M0 0h32v32H0z"/></symbol></svg>