<svg xmlns="http://www.w3.org/2000/svg" xmlns:xlink="http://www.w3.org/1999/xlink" style="display: none" fill="currentColor"><symbol id="icon" viewBox="0 0 32 32"><path d="M30 30H4a2 2 0 0 1-2-2V2h2v26h26Z"/><circle cx="9" cy="6" r="3"/><circle cx="9" cy="22" r="3"/><circle cx="18" cy="14" r="3"/><path d="M9 17a3 3 0 1 1 3-3 3.003 3.003 0 0 1-3 3m0-4a1 1 0 1 0 1 1 1 1 0 0 0-1-1"/><circle cx="27" cy="6" r="3"/><circle cx="27" cy="22" r="3"/><path d="M27 17a3 3 0 1 1 3-3 3.003 3.003 0 0 1-3 3m0-4a1 1 0 1 0 1 1 1 1 0 0 0-1-1m-9 13a3 3 0 1 1 3-3 3.003 3.003 0 0 1-3 3m0-4a1 1 0 1 0 1 1 1 1 0 0 0-1-1m0-14a3 3 0 1 1 3-3 3.003 3.003 0 0 1-3 3m0-4a1 1 0 1 0 1 1 1 1 0 0 0-1-1"/><path fill="none" d="M0 0h32v32H0z"/></symbol></svg>