<svg xmlns="http://www.w3.org/2000/svg" xmlns:xlink="http://www.w3.org/1999/xlink" style="display: none" fill="currentColor"><symbol id="icon" viewBox="0 0 32 32"><path d="M30 17A15.017 15.017 0 0 0 15 2h-1v6.06A9.01 9.01 0 0 0 6.06 16H4v1a11.01 11.01 0 0 0 10 10.95V30h1a13.01 13.01 0 0 0 12.95-12H30ZM16 4.038A13.02 13.02 0 0 1 27.962 16H16Zm-2 6.042V16H8.08A7 7 0 0 1 14 10.08M6.055 18H14v7.939A9.01 9.01 0 0 1 6.055 18M16 27.955V18h9.955A11.02 11.02 0 0 1 16 27.955"/><path fill="none" d="M0 0h32v32H0z"/></symbol></svg>