<svg xmlns="http://www.w3.org/2000/svg" xmlns:xlink="http://www.w3.org/1999/xlink" style="display: none" fill="currentColor"><symbol id="icon" viewBox="0 0 32 32"><path d="m29.707 19.293-3-3a1 1 0 0 0-1.414 0L16 25.586V30h4.414l9.293-9.293a1 1 0 0 0 0-1.414M19.586 28H18v-1.586l5-5L24.586 23ZM26 21.586 24.414 20 26 18.414 27.586 20ZM18 18v-4h2v4zm-4 0v-6h2v6zm-4 0V8h2v10z"/><path d="M12 30H6a2 2 0 0 1-2-2V4a2 2 0 0 1 2-2h16a2 2 0 0 1 2 2v10h-2V4H6v24h6Z"/><path fill="none" d="M0 0h32v32H0z"/></symbol></svg>