<svg xmlns="http://www.w3.org/2000/svg" xmlns:xlink="http://www.w3.org/1999/xlink" style="display: none" fill="currentColor"><symbol id="icon" viewBox="0 0 32 32"><path d="M4 28v-2h2v-2H4V2H2v26a2 2 0 0 0 2 2h26v-2Z"/><path d="M8 24h2v2H8zm4 0h2v2h-2zm8 0h2v2h-2zm4 0h2v2h-2zm4 0h2v2h-2z"/><path d="M27.946 4.328 25.973 4C23.949 16.108 21.013 22 17 22s-6.949-5.892-8.973-18l-1.973.328C7.51 13.057 9.964 22.93 16 23.913V26h2v-2.087c6.037-.983 8.49-10.856 9.946-19.585"/><path fill="none" d="M0 0h32v32H0z"/></symbol></svg>