<svg xmlns="http://www.w3.org/2000/svg" xmlns:xlink="http://www.w3.org/1999/xlink" style="display: none" fill="currentColor"><symbol id="icon" viewBox="0 0 32 32"><path d="M30 23h-6a2 2 0 0 1-2-2V11a2 2 0 0 1 2-2h6v2h-6v10h6ZM20 12a3.003 3.003 0 0 0-3-3h-5v14h5a3.003 3.003 0 0 0 3-3v-2a2.98 2.98 0 0 0-.78-2 2.98 2.98 0 0 0 .78-2Zm-6-1h3a1 1 0 0 1 1 1v2a1 1 0 0 1-1 1h-3Zm4 9a1 1 0 0 1-1 1h-3v-4h3a1 1 0 0 1 1 1ZM8 9H4a2 2 0 0 0-2 2v12h2v-5h4v5h2V11a2 2 0 0 0-2-2m-4 7v-5h4v5Z"/><path fill="none" d="M0 0h32v32H0z"/></symbol></svg>