<svg xmlns="http://www.w3.org/2000/svg" xmlns:xlink="http://www.w3.org/1999/xlink" style="display: none" fill="currentColor"><symbol id="icon" viewBox="0 0 32 32"><path d="M28 2v5.722l-7.532 6.952-8.086-8.086a1.997 1.997 0 0 0-2.731-.09L4 11.442V2H2v26c0 1.103.897 2 2 2h24c1.103 0 2-.897 2-2V2zm0 8.444v11.762l-6.116-6.116zM10.968 8.002l8.03 8.03L15.783 19l-3.414-3.415a2 2 0 0 0-2.732-.09L4 20.425V14.1zM4 28v-4.916l6.955-6.085 3.414 3.414a1.99 1.99 0 0 0 2.77.056l3.274-3.022L28 25.034V28z"/><path fill="none" d="M0 0h32v32H0z"/></symbol></svg>