<svg xmlns="http://www.w3.org/2000/svg" xmlns:xlink="http://www.w3.org/1999/xlink" style="display: none" fill="currentColor"><symbol id="icon" viewBox="0 0 32 32"><path d="M16 2 2 13l6 17h16l6-17Zm2.582 19.265-5.986 1.33-1.423-7.824 4.91-4.21 5.442 4.082Zm.198 2.005L21.326 28H10.674l1.79-3.327Zm-9.19-9.776-3.85-.889L15 5.329v3.528ZM17 8.75V5.33l9.26 7.275-3.15.727ZM4.614 14.398l4.654 1.074 1.484 8.164-1.738 3.228Zm18.372 12.466-2.577-4.785 3.007-6.765 3.97-.916Z"/><path fill="none" d="M0 0h32v32H0z"/></symbol></svg>