<svg xmlns="http://www.w3.org/2000/svg" xmlns:xlink="http://www.w3.org/1999/xlink" style="display: none" fill="currentColor"><symbol id="icon" viewBox="0 0 32 32"><path d="M28 23v3.586l-5-5V15a1 1 0 0 0-.553-.894L17 11.381V5.828l2.586 2.586L21 7l-5-5-5 5 1.414 1.414L15 5.828v5.554l-5.447 2.723A1 1 0 0 0 9 15v6.586l-5 5V23H2v7h7v-2H5.414l4.783-4.783 5.356 2.678a1 1 0 0 0 .894 0l5.356-2.678L26.586 28H23v2h7v-7Zm-13 .382-4-2v-4.764l4 2Zm1-6.5L12.236 15 16 13.118 19.764 15Zm5 4.5-4 2v-4.764l4-2Z"/><path fill="none" d="M0 0h32v32H0z"/></symbol></svg>