<svg xmlns="http://www.w3.org/2000/svg" xmlns:xlink="http://www.w3.org/1999/xlink" style="display: none" fill="currentColor"><symbol id="icon" viewBox="0 0 32 32"><path d="M30 24a6 6 0 1 0-6 6 6.007 6.007 0 0 0 6-6m-2 0a3.95 3.95 0 0 1-.567 2.019l-5.452-5.452A3.95 3.95 0 0 1 24 20a4.005 4.005 0 0 1 4 4m-8 0a3.95 3.95 0 0 1 .567-2.019l5.452 5.452A3.95 3.95 0 0 1 24 28a4.005 4.005 0 0 1-4-4"/><path d="M14 2a12 12 0 1 0 2 23.82V24a8 8 0 0 1 8-8h1.82A11.935 11.935 0 0 0 14 2m-2 16.59-4-4L9.59 13 12 15.41 17.41 10 19 11.59Z"/><path fill="none" d="m12 18.591-4-4L9.591 13 12 15.409 17.409 10 19 11.591z"/><path fill="none" d="M0 0h32v32H0z"/></symbol></svg>