<svg xmlns="http://www.w3.org/2000/svg" xmlns:xlink="http://www.w3.org/1999/xlink" style="display: none" fill="currentColor"><symbol id="icon" viewBox="0 0 32 32"><path d="M14 2a12 12 0 1 0 3.393 23.506l3.924-7.85A2.99 2.99 0 0 1 24 16h1.82A11.935 11.935 0 0 0 14 2m-2 16.59-4-4L9.59 13 12 15.41 17.41 10 19 11.59Z"/><path d="M27.38 28h-6.762L24 21.236ZM24 18a1 1 0 0 0-.895.553l-5 10A1 1 0 0 0 19 30h10a1 1 0 0 0 .921-1.39l-5.026-10.057A1 1 0 0 0 24 18"/><path fill="none" d="m12 18.591-4-4L9.591 13 12 15.409 17.409 10 19 11.591z"/><path fill="none" d="M0 0h32v32H0z"/></symbol></svg>