<svg xmlns="http://www.w3.org/2000/svg" xmlns:xlink="http://www.w3.org/1999/xlink" style="display: none" fill="currentColor"><symbol id="icon" viewBox="0 0 32 32"><path d="m29.243 4.03-8-2a1 1 0 0 0-.615.042l-9.7 3.88L3.243 4.03A1 1 0 0 0 2 5v22a1 1 0 0 0 .757.97l8 2A1 1 0 0 0 11 30a1 1 0 0 0 .372-.072l9.7-3.88 7.686 1.922A1 1 0 0 0 30 27V5a1 1 0 0 0-.757-.97M28 11h-6V4.28l6 1.5Zm-18 8H4v-6h6Zm2-8V7.677l8-3.2V11Zm8 2v6h-8v-6Zm-8 8h8v3.323l-8 3.2Zm10-8h6v6h-6ZM10 7.78V11H4V6.28ZM4 21h6v6.72l-6-1.5Zm18 3.219V21h6v4.72Z"/><path fill="none" d="M0 0h32v32H0z"/></symbol></svg>