<svg xmlns="http://www.w3.org/2000/svg" xmlns:xlink="http://www.w3.org/1999/xlink" style="display: none" fill="currentColor"><symbol id="icon" viewBox="0 0 32 32"><path d="m31.707 20.293-3-3a1 1 0 0 0-1.414 0L18 26.586V31h4.414l9.293-9.293a1 1 0 0 0 0-1.414m-7.414 6L21.586 29H20v-1.586l2.707-2.707L25 22.414 26.586 24zM28 22.586 26.414 21 28 19.414 29.586 21zM20 20v-2h-4v-7h10v2h2V6c0-1.654-1.346-3-3-3H5C3.346 3 2 4.346 2 6v20c0 1.654 1.346 3 3 3h11v-9zm-6-2H4v-7h10zM5 5h20a1 1 0 0 1 1 1v3H4V6a1 1 0 0 1 1-1m9 22H5a1 1 0 0 1-1-1v-6h10z"/><path fill="none" d="M0 0h32v32H0z"/></symbol></svg>