<svg xmlns="http://www.w3.org/2000/svg" xmlns:xlink="http://www.w3.org/1999/xlink" style="display: none" fill="currentColor"><symbol id="icon" viewBox="0 0 32 32"><path d="M28 16v6H4V6h7V4H4a2 2 0 0 0-2 2v16a2 2 0 0 0 2 2h8v4H8v2h16v-2h-4v-4h8a2 2 0 0 0 2-2v-6ZM18 28h-4v-4h4Z"/><path d="M18 18h-.01a1 1 0 0 1-.951-.725L15.246 11H11V9h5a1 1 0 0 1 .962.725l1.074 3.76 3.009-9.78A1.01 1.01 0 0 1 22 3a.98.98 0 0 1 .949.684L24.72 9H30v2h-6a1 1 0 0 1-.949-.684l-1.013-3.04-3.082 10.018A1 1 0 0 1 18 18"/><path fill="none" d="M0 0h32v32H0z"/></symbol></svg>