<svg xmlns="http://www.w3.org/2000/svg" xmlns:xlink="http://www.w3.org/1999/xlink" style="display: none" fill="currentColor"><symbol id="icon" viewBox="0 0 32 32"><path d="M4 20v2h4.586L2 28.586 3.414 30 10 23.414V28h2v-8z"/><path d="M23 16c-1.57 0-3.012.516-4.181 1.392L14.6 13.175A6.92 6.92 0 0 0 16 9c0-3.86-3.14-7-7-7S2 5.14 2 9s3.14 7 7 7c1.57 0 3.018-.535 4.187-1.411l4.218 4.217A7 7 0 0 0 16 23c0 3.86 3.14 7 7 7s7-3.14 7-7-3.14-7-7-7M4 9c0-2.757 2.243-5 5-5s5 2.243 5 5-2.243 5-5 5-5-2.243-5-5"/><path fill="none" d="M0 0h32v32H0z"/></symbol></svg>