<svg xmlns="http://www.w3.org/2000/svg" xmlns:xlink="http://www.w3.org/1999/xlink" style="display: none" fill="currentColor"><symbol id="icon" viewBox="0 0 32 32"><path d="M27 13V5h-4V3h4c1.103 0 2 .898 2 2v8c0 1.523.88 2 2 2v2c-1.12 0-2 .45-2 2v8c0 1.103-.897 2-2 2h-4v-2h4v-8c0-1.684.88-2.564 2-2.858v-.268c-1.12-.294-2-1.19-2-2.874m-15-1h8v8h-8zm-7 1V5h4V3H5c-1.103 0-2 .898-2 2v8c0 1.523-.88 2-2 2v2c1.12 0 2 .45 2 2v8c0 1.103.897 2 2 2h4v-2H5v-8c0-1.684-.88-2.564-2-2.858v-.268c1.12-.294 2-1.19 2-2.874"/><path fill="none" d="M0 0h32v32H0z"/></symbol></svg>