<svg xmlns="http://www.w3.org/2000/svg" xmlns:xlink="http://www.w3.org/1999/xlink" style="display: none" fill="currentColor"><symbol id="icon" viewBox="0 0 32 32"><circle cx="16" cy="19" r="2"/><path d="M23.777 18.479A8.64 8.64 0 0 0 16 13a8.64 8.64 0 0 0-7.777 5.479L8 19l.223.522A8.64 8.64 0 0 0 16 25a8.64 8.64 0 0 0 7.777-5.478L24 19ZM16 23a4 4 0 1 1 4-4 4.005 4.005 0 0 1-4 4"/><path d="M27 3H5a2 2 0 0 0-2 2v22a2 2 0 0 0 2 2h22a2 2 0 0 0 2-2V5a2 2 0 0 0-2-2M5 5h22v4H5Zm0 22V11h22v16Z"/><path fill="none" d="M0 0h32v32H0z"/></symbol></svg>