<svg xmlns="http://www.w3.org/2000/svg" xmlns:xlink="http://www.w3.org/1999/xlink" style="display: none" fill="currentColor"><symbol id="icon" viewBox="0 0 32 32"><path d="M30 24v-2h-2.1c-.1-.6-.4-1.2-.7-1.8l1.5-1.5-1.4-1.4-1.5 1.5c-.5-.3-1.1-.6-1.8-.7V16h-2v2.1c-.6.1-1.2.4-1.8.7l-1.5-1.5-1.4 1.4 1.5 1.5c-.3.5-.6 1.1-.7 1.8H16v2h2.1c.1.6.4 1.2.7 1.8l-1.5 1.5 1.4 1.4 1.5-1.5c.5.3 1.1.6 1.8.7V30h2v-2.1c.6-.1 1.2-.4 1.8-.7l1.5 1.5 1.4-1.4-1.5-1.5c.3-.5.6-1.1.7-1.8zm-7 2c-1.7 0-3-1.3-3-3s1.3-3 3-3 3 1.3 3 3-1.3 3-3 3"/><path d="M14 28H6c-1.103 0-2-.897-2-2V6c0-1.103.897-2 2-2h20c1.103 0 2 .897 2 2v8h-2V6H6v20h8z"/><path fill="none" d="M0 0h32v32H0z"/></symbol></svg>