<svg xmlns="http://www.w3.org/2000/svg" xmlns:xlink="http://www.w3.org/1999/xlink" style="display: none" fill="currentColor"><symbol id="icon" viewBox="0 0 32 32"><path d="M10 13h12v2H10zm0 5h12v2H10z"/><path d="M30 6.414 28.586 5l-3.35 3.35a12 12 0 0 0-1.586-1.586L27 3.414 25.586 2l-3.61 3.61A11.98 11.98 0 0 0 5.61 21.976L2 25.586 3.414 27l3.35-3.35a12 12 0 0 0 1.586 1.586L5 28.586 6.414 30l3.61-3.61A11.98 11.98 0 0 0 26.39 10.024ZM16 26a10 10 0 1 1 10-10 10.01 10.01 0 0 1-10 10"/><path fill="none" d="M0 0h32v32H0z"/></symbol></svg>