<svg xmlns="http://www.w3.org/2000/svg" xmlns:xlink="http://www.w3.org/1999/xlink" style="display: none" fill="currentColor"><symbol id="icon" viewBox="0 0 32 32"><path d="M29.755 21.345A1 1 0 0 0 29 21h-2v-2c0-1.102-.897-2-2-2h-4c-1.103 0-2 .898-2 2v2h-2a1 1 0 0 0-.99 1.142l1 7A1 1 0 0 0 18 30h10a1 1 0 0 0 .99-.858l1-7a1 1 0 0 0-.235-.797M21 19h4v2h-4zm6.133 9h-8.266l-.714-5h9.694zM10 20h2v10h-2z"/><path d="m16.78 17.875-1.906-2.384-1.442-3.605A2.99 2.99 0 0 0 10.646 10H5c-1.654 0-3 1.346-3 3v7c0 1.103.897 2 2 2h1v8h2V20H4v-7a1 1 0 0 1 1-1h5.646c.411 0 .776.247.928.629l1.645 3.996 2 2.5zM4 5c0-2.206 1.794-4 4-4s4 1.794 4 4-1.794 4-4 4-4-1.794-4-4m2 0c0 1.103.897 2 2 2s2-.897 2-2-.897-2-2-2-2 .897-2 2"/><path fill="none" d="M0 0h32v32H0z"/></symbol></svg>