<svg xmlns="http://www.w3.org/2000/svg" xmlns:xlink="http://www.w3.org/1999/xlink" style="display: none" fill="currentColor"><symbol id="icon" viewBox="0 0 32 32"><circle cx="11" cy="8" r="1"/><circle cx="11" cy="16" r="1"/><circle cx="11" cy="24" r="1"/><path d="M24 3H8a2 2 0 0 0-2 2v22a2 2 0 0 0 2 2h10v-2H8v-6h18V5a2 2 0 0 0-2-2m0 16H8v-6h16Zm0-8H8V5h16Z"/><path d="M29 24.415 27.586 23 25 25.587 22.414 23 21 24.415 23.586 27 21 29.586 22.414 31 25 28.414 27.586 31 29 29.586 26.414 27z"/><path fill="none" d="M0 0h32v32H0z"/></symbol></svg>