<svg xmlns="http://www.w3.org/2000/svg" xmlns:xlink="http://www.w3.org/1999/xlink" style="display: none" fill="currentColor"><symbol id="icon" viewBox="0 0 32 32"><path d="M25 12V3h-2v2h-3v2h3v5h-3v2h8v-2zM8.5 5C10.43 5 12 6.57 12 8.5S10.43 12 8.5 12 5 10.43 5 8.5 6.57 5 8.5 5m0-2a5.5 5.5 0 1 0 0 11 5.5 5.5 0 0 0 0-11m15 17c1.93 0 3.5 1.57 3.5 3.5S25.43 27 23.5 27 20 25.43 20 23.5s1.57-3.5 3.5-3.5m0-2a5.5 5.5 0 1 0 0 11 5.5 5.5 0 0 0 0-11M6 19v2h3.586L4 26.586 5.414 28 11 22.414V26h2v-7z"/><path fill="none" d="M0 0h32v32H0z"/></symbol></svg>