<svg xmlns="http://www.w3.org/2000/svg" xmlns:xlink="http://www.w3.org/1999/xlink" style="display: none" fill="currentColor"><symbol id="icon" viewBox="0 0 32 32"><path d="m16.496 18.132-7-4a1 1 0 0 0-.992 0l-7 4A1 1 0 0 0 1 19v8a1 1 0 0 0 .504.868l7 4a1 1 0 0 0 .992 0l7-4A1 1 0 0 0 17 27v-8a1 1 0 0 0-.504-.868M9 16.152 13.984 19 9 21.848 4.016 19zm-6 4.571 5 2.857v5.697L3 26.42zm7 8.554V23.58l5-2.857v5.697zM28 19v5c0 1.103-.897 2-2 2h-3.172l1.586-1.586L23 23l-4 4 4 4 1.414-1.414L22.828 28H26c2.206 0 4-1.794 4-4v-5zm-10.496-3.989-2-1.143A1 1 0 0 1 15 13v-2h2v1.42l1.496.855zm8-.593L24 15.277V13h-2v2.277l-1.504-.86-.992 1.737 3 1.714a1 1 0 0 0 .992 0l3-1.714zm2.992.593-.992-1.736L29 12.42V11h2v2a1 1 0 0 1-.504.868zm-3-6.285-.992-1.737-1.504.86-1.504-.86-.992 1.737L22 9.58V11h2V9.58zm5-4.594-3-1.715-.992 1.737 1.48.846-1.48.846.992 1.736L29 6.723V9h2V5a1 1 0 0 0-.504-.868m-5.992-1.121L23 2.151l-1.504.86-.992-1.737 2-1.142a1 1 0 0 1 .992 0l2 1.143zm-5.008 1.143-.992-1.736-3 1.714A1 1 0 0 0 15 5v4h2V6.723l1.504.86.992-1.737L18.016 5zM9 1 7.586 2.414 9.172 4H6C3.794 4 2 5.794 2 8v5h2V8c0-1.102.897-2 2-2h3.172L7.586 7.586 9 9l4-4z"/><path fill="none" d="M0 0h32v32H0z"/></symbol></svg>