<svg xmlns="http://www.w3.org/2000/svg" xmlns:xlink="http://www.w3.org/1999/xlink" style="display: none" fill="currentColor"><symbol id="icon" viewBox="0 0 32 32"><path d="M28 30H4a2 2 0 0 1-2-2V4a2 2 0 0 1 2-2h24a2 2 0 0 1 2 2v24a2 2 0 0 1-2 2M4 4v24h24V4Z"/><path d="M13 7h2v7h-2zM8 7h2v7H8zm14 7h-2a2 2 0 0 1-2-2V9a2 2 0 0 1 2-2h2a2 2 0 0 1 2 2v3a2 2 0 0 1-2 2m-2-5v3h2V9Zm2 9h2v7h-2zM8 18h2v7H8zm9 7h-2a2 2 0 0 1-2-2v-3a2 2 0 0 1 2-2h2a2 2 0 0 1 2 2v3a2 2 0 0 1-2 2m-2-5v3h2v-3Z"/><path fill="none" d="M0 0h32v32H0z"/></symbol></svg>