<svg xmlns="http://www.w3.org/2000/svg" xmlns:xlink="http://www.w3.org/1999/xlink" style="display: none" fill="currentColor"><symbol id="icon" viewBox="0 0 32 32"><circle cx="22" cy="24" r="2"/><path d="M29.777 23.479A8.64 8.64 0 0 0 22 18a8.64 8.64 0 0 0-7.777 5.479L14 24l.223.522A8.64 8.64 0 0 0 22 30a8.64 8.64 0 0 0 7.777-5.478L30 24ZM22 28a4 4 0 1 1 4-4 4.005 4.005 0 0 1-4 4M7 17h5v2H7zm0-5h12v2H7zm0-5h12v2H7z"/><path d="M22 2H4a2.006 2.006 0 0 0-2 2v24a2.006 2.006 0 0 0 2 2h8v-2H4V4h18v11h2V4a2.006 2.006 0 0 0-2-2"/><path fill="none" d="M0 0h32v32H0z"/></symbol></svg>