<svg xmlns="http://www.w3.org/2000/svg" xmlns:xlink="http://www.w3.org/1999/xlink" style="display: none" fill="currentColor"><symbol id="icon" viewBox="0 0 32 32"><path d="M7 30a5 5 0 1 1 5-5 5.006 5.006 0 0 1-5 5m0-8a3 3 0 1 0 3 3 3.003 3.003 0 0 0-3-3"/><path d="M24 26H14v-2h10v-7H8a2 2 0 0 1-2-2V8a2 2 0 0 1 2-2h10v2H8v7h16a2 2 0 0 1 2 2v7a2 2 0 0 1-2 2"/><path d="M28 12h-6a2 2 0 0 1-2-2V4a2 2 0 0 1 2-2h6a2 2 0 0 1 2 2v6a2 2 0 0 1-2 2m-6-8v6h6V4Z"/><path fill="none" d="M0 0h32v32H0z"/></symbol></svg>