<svg xmlns="http://www.w3.org/2000/svg" xmlns:xlink="http://www.w3.org/1999/xlink" style="display: none" fill="currentColor"><symbol id="icon" viewBox="0 0 32 32"><path d="M12 11h2v6h-2zm-5 2h2v4H7zM2 7h2v10H2z"/><path d="m30 28.586-7.552-7.552A10.95 10.95 0 0 0 25 14c0-6.065-4.935-11-11-11-2.403 0-4.685.76-6.601 2.2l1.2 1.6A8.92 8.92 0 0 1 14 5c4.963 0 9 4.037 9 9s-4.037 9-9 9a8.93 8.93 0 0 1-7.2-3.6l-1.6 1.202A10.92 10.92 0 0 0 14 25c2.673 0 5.126-.96 7.034-2.552L28.586 30z"/><path fill="none" d="M0 0h32v32H0z"/></symbol></svg>