<svg xmlns="http://www.w3.org/2000/svg" xmlns:xlink="http://www.w3.org/1999/xlink" style="display: none" fill="currentColor"><symbol id="icon" viewBox="0 0 32 32"><path d="M25 29c-1.654 0-3-1.346-3-3s1.346-3 3-3 3 1.346 3 3-1.346 3-3 3m0-4a1.001 1.001 0 0 0 0 2 1.001 1.001 0 0 0 0-2"/><circle cx="20" cy="21" r="2"/><path d="M15 19c-1.654 0-3-1.346-3-3s1.346-3 3-3 3 1.346 3 3-1.346 3-3 3m0-4a1.001 1.001 0 0 0 0 2 1.001 1.001 0 0 0 0-2"/><path d="M13 27H4a2 2 0 0 1-2-2V5a2 2 0 0 1 2-2h7.586A2 2 0 0 1 13 3.586L16.414 7H28a2 2 0 0 1 2 2v7h-2V9H15.586l-4-4H4v20h9z"/><path fill="none" d="M0 0h32v32H0z"/></symbol></svg>