<svg xmlns="http://www.w3.org/2000/svg" xmlns:xlink="http://www.w3.org/1999/xlink" style="display: none" fill="currentColor"><symbol id="icon" viewBox="0 0 32 32"><path d="M4 20v2h4.586L2 28.586 3.414 30 10 23.414V28h2v-8z"/><path d="M15 28v-2a9.013 9.013 0 0 0 8.945-8H16a2 2 0 0 1-2-2V8.055A9.013 9.013 0 0 0 6 17H4A11.013 11.013 0 0 1 15 6a1 1 0 0 1 1 1v9h9a1 1 0 0 1 1 1 11.013 11.013 0 0 1-11 11"/><path d="M29.006 14h-9.011A1.996 1.996 0 0 1 18 12V3a1.01 1.01 0 0 1 1.02-1A11.013 11.013 0 0 1 30 12.98a1.004 1.004 0 0 1-.994 1.02M20 12h7.945A9.02 9.02 0 0 0 20 4.055Z"/><path fill="none" d="M0 0h32v32H0z"/></symbol></svg>