<svg xmlns="http://www.w3.org/2000/svg" xmlns:xlink="http://www.w3.org/1999/xlink" style="display: none" fill="currentColor"><symbol id="icon" viewBox="0 0 32 32"><path d="M29.39 14.527 17.474 2.609C17.067 2.203 16.533 2 16 2s-1.067.203-1.473.61L2.609 14.526C2.203 14.933 2 15.467 2 16s.203 1.067.61 1.473l11.917 11.918c.406.406.94.609 1.473.609s1.067-.203 1.473-.61l11.918-11.917c.406-.406.609-.94.609-1.473s-.203-1.067-.61-1.473M16 28.036 3.965 16 16 3.964 28.036 16z"/><path fill="none" d="M32 32H0V0h32z"/></symbol></svg>