<svg xmlns="http://www.w3.org/2000/svg" xmlns:xlink="http://www.w3.org/1999/xlink" style="display: none" fill="currentColor"><symbol id="icon" viewBox="0 0 32 32"><path d="M28 2H4a2 2 0 0 0-2 2v24a2 2 0 0 0 2 2h24a2 2 0 0 0 2-2V4a2 2 0 0 0-2-2M8 6h2v8H8Zm11 18-1.414-1.414L22.172 18H10v8H8v-8a2 2 0 0 1 2-2h12.172l-4.586-4.586L19 10l7 7Z"/><path fill="none" d="M8 6h2v8H8Zm11 18-1.414-1.414L22.172 18H10v8H8v-8a2 2 0 0 1 2-2h12.172l-4.586-4.586L19 10l7 7Z"/><path fill="none" d="M0 0h32v32H0z"/></symbol></svg>