<svg xmlns="http://www.w3.org/2000/svg" xmlns:xlink="http://www.w3.org/1999/xlink" style="display: none" fill="currentColor"><symbol id="icon" viewBox="0 0 32 32"><path d="M28 2H4a2 2 0 0 0-2 2v24a2 2 0 0 0 2 2h24a2 2 0 0 0 2-2V4a2 2 0 0 0-2-2M6 7.414 7.414 6 14 12.586 12.586 14ZM26 16h-2V9.414l-6.536 6.536A4.97 4.97 0 0 0 16 19.485V26h-2v-6.515a6.95 6.95 0 0 1 2.05-4.95L22.586 8H16V6h10Z"/><path fill="none" d="M26 6v10h-2V9.414l-6.536 6.536A4.97 4.97 0 0 0 16 19.485V26h-2v-6.515a6.95 6.95 0 0 1 2.05-4.95L22.586 8H16V6Zm-12 6.586L7.414 6 6 7.414 12.586 14Z"/><path fill="none" d="M0 0h32v32H0z"/></symbol></svg>