<svg xmlns="http://www.w3.org/2000/svg" xmlns:xlink="http://www.w3.org/1999/xlink" style="display: none" fill="currentColor"><symbol id="icon" viewBox="0 0 32 32"><path fill="none" d="M26.586 17.586 22 22.172V14a8 8 0 0 0-16 0v12h2V14a6 6 0 0 1 12 0v8.172l-4.586-4.586L14 19l7 7 7-7Z"/><path d="M28 2H4a2 2 0 0 0-2 2v24a2 2 0 0 0 2 2h24a2 2 0 0 0 2-2V4a2 2 0 0 0-2-2m-7 24-7-7 1.414-1.414L20 22.172V14a6 6 0 0 0-12 0v12H6V14a8 8 0 0 1 16 0v8.172l4.586-4.586L28 19Z"/><path fill="none" d="M0 0h32v32H0z"/></symbol></svg>