<svg xmlns="http://www.w3.org/2000/svg" xmlns:xlink="http://www.w3.org/1999/xlink" style="display: none" fill="currentColor"><symbol id="icon" viewBox="0 0 32 32"><path d="m30 19-4 3.2V20a2 2 0 0 0-2-2h-8a2 2 0 0 0-2 2v6a2 2 0 0 0 2 2h8a2 2 0 0 0 2-2v-2.2l4 3.2Zm-14 7v-6h8l.002 6Z"/><path d="M12 28H8V4h8v6a2.006 2.006 0 0 0 2 2h6v3h2v-5a.91.91 0 0 0-.3-.7l-7-7A.9.9 0 0 0 18 2H8a2.006 2.006 0 0 0-2 2v24a2.006 2.006 0 0 0 2 2h4Zm6-23.6 5.6 5.6H18Z"/><path fill="none" d="M0 0h32v32H0z"/></symbol></svg>