<svg xmlns="http://www.w3.org/2000/svg" xmlns:xlink="http://www.w3.org/1999/xlink" style="display: none" fill="currentColor"><symbol id="icon" viewBox="0 0 32 32"><path d="M19.414 30H15v-4.414l5.034-5.034A5 5 0 0 1 20 20a5 5 0 1 1 4.448 4.966ZM17 28h1.586l5.206-5.206.54.124a3.035 3.035 0 1 0-2.25-2.25l.124.54L17 26.414Z"/><circle cx="25" cy="20" r="1"/><path d="M8 6h12v2H8zm0 4h12v2H8zm0 4h6v2H8zm0 10h4v2H8z"/><path d="M12 30H6a2 2 0 0 1-2-2V4a2 2 0 0 1 2-2h16a2 2 0 0 1 2 2v9h-2V4H6v24h6Z"/><path fill="none" d="M0 0h32v32H0z"/></symbol></svg>