<svg xmlns="http://www.w3.org/2000/svg" xmlns:xlink="http://www.w3.org/1999/xlink" style="display: none" fill="currentColor"><symbol id="icon" viewBox="0 0 32 32"><path d="M18 31H6c-1.1 0-2-.9-2-2V12h2v17h12z"/><path d="M22 27H10c-1.1 0-2-.9-2-2V8h2v17h12z"/><path d="M16 16h8v2h-8z"/><path d="m27.7 9.3-7-7c-.2-.2-.4-.3-.7-.3h-6c-1.1 0-2 .9-2 2v17c0 1.1.9 2 2 2h12c1.1 0 2-.9 2-2V10c0-.3-.1-.5-.3-.7M20 4.4l5.6 5.6H20zM26 21H14V4h4v6c0 1.1.9 2 2 2h6z"/><path fill="none" d="M0 0h32v32H0z"/></symbol></svg>