<svg xmlns="http://www.w3.org/2000/svg" xmlns:xlink="http://www.w3.org/1999/xlink" style="display: none" fill="currentColor"><symbol id="icon" viewBox="0 0 32 32"><path d="M26 17H16a2.003 2.003 0 0 0-2 2v6a2 2 0 0 0 2 2h4v-2h-4v-6h10v6h-2.535l-2.594 3.89L22.535 30l2-3H26a2 2 0 0 0 2-2v-6a2.003 2.003 0 0 0-2-2"/><path d="M22 14h2v-4c0-.3-.1-.5-.3-.7l-7-7c-.2-.2-.4-.3-.7-.3H6c-1.1 0-2 .9-2 2v24c0 1.1.9 2 2 2h6v-2H6V4h8v6c0 1.1.9 2 2 2h6zm-6-4V4.4l5.6 5.6z"/><path fill="none" d="M0 0h32v32H0z"/></symbol></svg>