<svg xmlns="http://www.w3.org/2000/svg" xmlns:xlink="http://www.w3.org/1999/xlink" style="display: none" fill="currentColor"><symbol id="icon" viewBox="0 0 32 32"><path d="M21 28v2h-2c-1.102 0-2-.897-2-2v-2h2v2zm5-2h2v2c0 1.103-.897 2-2 2h-2v-2h2zm-2-5v-2h2c1.103 0 2 .898 2 2v2h-2v-2zm-5 2h-2v-2c0-1.102.898-2 2-2h2v2h-2z"/><path d="M14 28H8V4h8v6c0 1.1.9 2 2 2h6v4h2v-6c0-.3-.1-.5-.3-.7l-7-7c-.2-.2-.4-.3-.7-.3H8c-1.1 0-2 .9-2 2v24c0 1.1.9 2 2 2h6zm4-23.6 5.6 5.6H18z"/><path fill="none" d="M0 0h32v32H0z"/></symbol></svg>