<svg xmlns="http://www.w3.org/2000/svg" xmlns:xlink="http://www.w3.org/1999/xlink" style="display: none" fill="currentColor"><symbol id="icon" viewBox="0 0 32 32"><circle cx="22" cy="24" r="2"/><path fill="none" d="M22 28a4 4 0 1 1 4-4 4.004 4.004 0 0 1-4 4m0-6a2 2 0 1 0 2 2 2.003 2.003 0 0 0-2-2"/><path d="M29.777 23.479A8.64 8.64 0 0 0 22 18a8.64 8.64 0 0 0-7.777 5.479L14 24l.223.522A8.64 8.64 0 0 0 22 30a8.64 8.64 0 0 0 7.777-5.478L30 24ZM22 28a4 4 0 1 1 4-4 4.005 4.005 0 0 1-4 4"/><path d="M12 28H8V4h8v6a2.006 2.006 0 0 0 2 2h6v4h2v-6a.91.91 0 0 0-.3-.7l-7-7A.9.9 0 0 0 18 2H8a2.006 2.006 0 0 0-2 2v24a2.006 2.006 0 0 0 2 2h4Zm6-23.6 5.6 5.6H18Z"/><path fill="none" d="M0 0h32v32H0z"/></symbol></svg>