<svg xmlns="http://www.w3.org/2000/svg" xmlns:xlink="http://www.w3.org/1999/xlink" style="display: none" fill="currentColor"><symbol id="icon" viewBox="0 0 32 32"><path d="M9 21h14v2H9zm2-7a2 2 0 1 0 2 2 1.98 1.98 0 0 0-2-2m10 0a2 2 0 1 0 2 2 1.98 1.98 0 0 0-2-2"/><path d="M28 8h-9.586l2.072-2.072A2 2 0 0 0 21 6a2 2 0 1 0-2-2 2 2 0 0 0 .072.514L15.586 8H4a2.003 2.003 0 0 0-2 2v16a2.003 2.003 0 0 0 2 2h24a2.003 2.003 0 0 0 2-2V10a2.003 2.003 0 0 0-2-2M4 26V10h24v16Z"/><path fill="none" d="M0 0h32v32H0z"/></symbol></svg>