<svg xmlns="http://www.w3.org/2000/svg" xmlns:xlink="http://www.w3.org/1999/xlink" style="display: none" fill="currentColor"><symbol id="icon" viewBox="0 0 32 32"><path d="M19.533 16.07c0-.964.877-1.445 1.788-1.445 1.049 0 1.479.653 1.479 1.925V22H25v-5.673c0-2.235-1.031-3.507-2.871-3.507-1.392 0-2.149.74-2.51 1.702h-.086v-1.496h-2.2V22h2.2zm-4.625 3.918H9.269v-3.06h4.986v-2.011H9.269v-2.905h5.639V10H7v12h7.908z"/><path d="M2 4v24a2 2 0 0 0 2 2h24a2 2 0 0 0 2-2V4a2 2 0 0 0-2-2H4a2 2 0 0 0-2 2m26 24H4V4h24z"/><path fill="none" d="M0 0h32v32H0z"/></symbol></svg>