<svg xmlns="http://www.w3.org/2000/svg" xmlns:xlink="http://www.w3.org/1999/xlink" style="display: none" fill="currentColor"><symbol id="icon" viewBox="0 0 32 32"><path d="M27.38 28h-6.762L24 21.236zM24 18a1 1 0 0 0-.895.553l-5 10A1 1 0 0 0 19 30h10a1 1 0 0 0 .921-1.39l-5.027-10.057A1 1 0 0 0 24 18m-8 5a1.5 1.5 0 1 0 0 3 1.5 1.5 0 0 0 0-3m-1-11h2v9h-2z"/><path d="M15 30H3a1 1 0 0 1-.887-1.461l13-25c.172-.331.53-.539.887-.539s.715.208.887.539l6 11.538-1.774.923L16 6.168 4.647 28H15z"/><path fill="none" d="M0 0h32v32H0z"/></symbol></svg>