<svg xmlns="http://www.w3.org/2000/svg" xmlns:xlink="http://www.w3.org/1999/xlink" style="display: none" fill="currentColor"><symbol id="icon" viewBox="0 0 32 32"><path d="m21.018 26.722.998 1.732 2.978-1.722V30h1.997v-3.268l3.01 1.74L31 26.74 27.99 25l3-1.735-.998-1.733-3.001 1.736V20h-1.997v3.267l-2.996-1.732L21 23.268 23.995 25zM16 23a1.5 1.5 0 1 0 0 3 1.5 1.5 0 0 0 0-3m-1-11h2v9h-2z"/><path d="M18 30H3a1 1 0 0 1-.887-1.461l13-25c.172-.331.53-.539.887-.539s.715.208.887.539l6.76 13-1.774.922L16 6.168 4.647 28H18z"/><path fill="none" d="M0 0h32v32H0z"/></symbol></svg>