<svg xmlns="http://www.w3.org/2000/svg" xmlns:xlink="http://www.w3.org/1999/xlink" style="display: none" fill="currentColor"><symbol id="icon" viewBox="0 0 32 32"><path fillRule="evenodd" d="m25 21 7 5-7 5z"/><path d="m20.17 19-2.59 2.59L19 23l4-4-4-4-1.42 1.41zm-8.34 0 2.59-2.59L13 15l-4 4 4 4 1.42-1.41z"/><circle cx="9" cy="8" r="1"/><circle cx="6" cy="8" r="1"/><path d="M21 26H4V12h24v7h2V6c0-1.102-.897-2-2-2H4c-1.103 0-2 .898-2 2v20c0 1.103.897 2 2 2h17zM4 6h24v4H4z"/><path fill="none" d="M0 0h32v32H0z"/></symbol></svg>