<svg xmlns="http://www.w3.org/2000/svg" xmlns:xlink="http://www.w3.org/1999/xlink" style="display: none" fill="currentColor"><symbol id="icon" viewBox="0 0 32 32"><path d="M12 10h14a2.003 2.003 0 0 0 2-2V4a2.003 2.003 0 0 0-2-2H12a2.003 2.003 0 0 0-2 2v1H6V2H4v23a2.003 2.003 0 0 0 2 2h4v1a2.003 2.003 0 0 0 2 2h14a2.003 2.003 0 0 0 2-2v-4a2.003 2.003 0 0 0-2-2H12a2.003 2.003 0 0 0-2 2v1H6v-8h4v1a2.003 2.003 0 0 0 2 2h14a2.003 2.003 0 0 0 2-2v-4a2.003 2.003 0 0 0-2-2H12a2.003 2.003 0 0 0-2 2v1H6V7h4v1a2.003 2.003 0 0 0 2 2m0-6h14l.001 4H12Zm0 20h14l.001 4H12Zm0-10h14l.001 4H12Z"/><path fill="none" d="M0 0h32v32H0z"/></symbol></svg>