<svg xmlns="http://www.w3.org/2000/svg" xmlns:xlink="http://www.w3.org/1999/xlink" style="display: none" fill="currentColor"><symbol id="icon" viewBox="0 0 32 32"><path d="M16 2a14 14 0 1 0 14 14A14 14 0 0 0 16 2m0 26a12 12 0 1 1 12-12 12 12 0 0 1-12 12"/><path d="M11.5 11a2.5 2.5 0 1 0 2.5 2.5 2.48 2.48 0 0 0-2.5-2.5m9 0a2.5 2.5 0 1 0 2.5 2.5 2.48 2.48 0 0 0-2.5-2.5M16 24a8 8 0 0 0 6.85-3.89l-1.71-1a6 6 0 0 1-10.28 0l-1.71 1A8 8 0 0 0 16 24"/><path fill="none" d="M0 0h32v32H0z"/></symbol></svg>