<svg xmlns="http://www.w3.org/2000/svg" xmlns:xlink="http://www.w3.org/1999/xlink" style="display: none" fill="currentColor"><symbol id="icon" viewBox="0 0 32 32"><path d="M28 20h-2v2h2v6H4v-6h2v-2H4a2 2 0 0 0-2 2v6a2 2 0 0 0 2 2h24a2 2 0 0 0 2-2v-6a2 2 0 0 0-2-2"/><circle cx="7" cy="25" r="1"/><path d="m22.707 7.293-5-5A1 1 0 0 0 17 2h-6a2 2 0 0 0-2 2v16a2 2 0 0 0 2 2h10a2 2 0 0 0 2-2V8a1 1 0 0 0-.293-.707M20.586 8H17V4.414ZM11 20V4h4v4a2 2 0 0 0 2 2h4v10Z"/><path fill="none" d="M0 0h32v32H0z"/></symbol></svg>