<svg xmlns="http://www.w3.org/2000/svg" xmlns:xlink="http://www.w3.org/1999/xlink" style="display: none" fill="currentColor"><symbol id="icon" viewBox="0 0 32 32"><path fill="#1c1c1c" d="M28 20v-3a4 4 0 0 0-8 0v3a2 2 0 0 0-2 2v6a2 2 0 0 0 2 2h8a2 2 0 0 0 2-2v-6a2 2 0 0 0-2-2m-6-3a2 2 0 0 1 4 0v3h-4Zm6 11h-8v-6h8Zm-13-1H4a2 2 0 0 1-2-2v-3a2 2 0 0 1 2-2h11v2H4v3h11Zm2-9H8a2 2 0 0 1-2-2v-3a2 2 0 0 1 2-2h11v2H8v3h9Zm5-9H4a2 2 0 0 1-2-2V4a2 2 0 0 1 2-2h18a2 2 0 0 1 2 2v3a2 2 0 0 1-2 2M4 7h18V4H4Z"/><path fill="none" d="M0 0h32v32H0z"/></symbol></svg>