<svg xmlns="http://www.w3.org/2000/svg" xmlns:xlink="http://www.w3.org/1999/xlink" style="display: none" fill="currentColor"><symbol id="icon" viewBox="0 0 32 32"><path d="M30 14a13 13 0 0 0-3.829-9.243L24.414 3 23 4.414l1.757 1.757a11.07 11.07 0 0 1 0 15.657L22 24.586 23.414 26l2.757-2.757A13 13 0 0 0 30 14"/><circle cx="17" cy="11" r="1"/><path d="M22 14a13 13 0 0 0-3.829-9.243L16.414 3 15 4.414l1.757 1.757a11.07 11.07 0 0 1 0 15.657L14 24.586 15.414 26l2.757-2.757A13 13 0 0 0 22 14"/><circle cx="25" cy="11" r="1"/><circle cx="9" cy="11" r="1"/><path d="m9.414 24 .757-.757a13.07 13.07 0 0 0 0-18.486L8 2.586 5.829 4.757a13.07 13.07 0 0 0 0 18.486l.757.757-4.293 4.293A1 1 0 0 0 3 30h10a1 1 0 0 0 .707-1.707ZM4 14a11 11 0 0 1 3.243-7.829L8 5.414l.757.757a11.07 11.07 0 0 1 0 15.657L8 22.586l-.757-.758A11 11 0 0 1 4 14m1.414 14L8 25.414 10.586 28Z"/><path fill="none" d="M0 0h32v32H0z"/></symbol></svg>