<svg xmlns="http://www.w3.org/2000/svg" xmlns:xlink="http://www.w3.org/1999/xlink" style="display: none" fill="currentColor"><symbol id="icon" viewBox="0 0 32 32"><path d="M28 8H16l-3.41-3.41A2 2 0 0 0 11.17 4H4a2 2 0 0 0-2 2v20a2 2 0 0 0 2 2h24a2 2 0 0 0 2-2V10a2 2 0 0 0-2-2m-6 18h-8v-1a1 1 0 0 1 1-1h6a1 1 0 0 1 1 1Zm6 0h-4v-1a3 3 0 0 0-3-3h-6a3 3 0 0 0-3 3v1H4V6h7.17l3.42 3.41.58.59H28Z"/><path d="M14 17a4 4 0 1 0 4-4 4 4 0 0 0-4 4m4-2a2 2 0 1 1-2 2 2 2 0 0 1 2-2"/><path fill="none" d="M0 0h32v32H0z"/></symbol></svg>