<svg xmlns="http://www.w3.org/2000/svg" xmlns:xlink="http://www.w3.org/1999/xlink" style="display: none" fill="currentColor"><symbol id="icon" viewBox="0 0 32 32"><path d="M20 6c0 1.858 1.28 3.41 3 3.858V15H9V9.858c1.72-.447 3-2 3-3.858 0-2.206-1.794-4-4-4S4 3.794 4 6c0 1.858 1.28 3.41 3 3.858V15c0 1.103.897 2 2 2h6v5.142c-1.72.447-3 2-3 3.858 0 2.206 1.794 4 4 4s4-1.794 4-4c0-1.858-1.28-3.41-3-3.858V17h6c1.103 0 2-.897 2-2V9.858c1.72-.447 3-2 3-3.858 0-2.206-1.794-4-4-4s-4 1.794-4 4M6 6c0-1.103.897-2 2-2s2 .897 2 2-.897 2-2 2-2-.897-2-2m12 20c0 1.103-.897 2-2 2s-2-.897-2-2 .897-2 2-2 2 .897 2 2m8-20c0 1.103-.897 2-2 2s-2-.897-2-2 .897-2 2-2 2 .897 2 2"/><path fill="none" d="M0 0h32v32H0z"/></symbol></svg>