<svg xmlns="http://www.w3.org/2000/svg" xmlns:xlink="http://www.w3.org/1999/xlink" style="display: none" fill="currentColor"><symbol id="icon" viewBox="0 0 32 32"><path d="M31 16a2 2 0 0 0-.586-1.414l-5.793-5.793 2.868-2.868a2 2 0 1 0-1.414-1.414L23.207 7.38l-5.793-5.793a2 2 0 0 0-2.828 0L8.793 7.379 5.925 4.51a2 2 0 1 0-1.414 1.414l2.868 2.868-5.793 5.793a2 2 0 0 0 0 2.828l5.793 5.793-2.868 2.868a2 2 0 1 0 1.414 1.414l2.868-2.868 5.793 5.793a2 2 0 0 0 2.828 0l5.793-5.793 2.868 2.868a2 2 0 1 0 1.414-1.414l-2.868-2.868 5.793-5.793A2 2 0 0 0 31 16m-7.793 5.793L20.414 19 19 20.414l2.793 2.793L16 29l-5.793-5.793L13 20.414 11.586 19l-2.793 2.793L3 16l5.793-5.793L11.586 13 13 11.586l-2.793-2.793L16 3l5.794 5.793L19 11.586 20.414 13l2.794-2.793L29 16Z"/><path fill="none" d="M0 0h32v32H0z"/></symbol></svg>