<svg xmlns="http://www.w3.org/2000/svg" xmlns:xlink="http://www.w3.org/1999/xlink" style="display: none" fill="currentColor"><symbol id="icon" viewBox="0 0 32 32"><path d="M26 10h-2.762A4.487 4.487 0 0 0 16 4.707 4.487 4.487 0 0 0 8.762 10H6a2.003 2.003 0 0 0-2 2v4a2.003 2.003 0 0 0 2 2v10a2.003 2.003 0 0 0 2 2h16a2.003 2.003 0 0 0 2-2V18a2.003 2.003 0 0 0 2-2v-4a2.003 2.003 0 0 0-2-2m-9-2.5a2.5 2.5 0 1 1 2.5 2.5H17ZM12.5 5A2.503 2.503 0 0 1 15 7.5V10h-2.5a2.5 2.5 0 0 1 0-5M6 12h9v4H6Zm2 6h7v10H8Zm16.001 10H17V18h7ZM17 16v-4h9l.001 4Z"/><path fill="none" d="M0 0h32v32H0z"/></symbol></svg>