<svg xmlns="http://www.w3.org/2000/svg" xmlns:xlink="http://www.w3.org/1999/xlink" style="display: none" fill="currentColor"><symbol id="icon" viewBox="0 0 32 32"><path d="m15 22-1.41 1.41L16.17 26H4V8H2v18c0 1.103.897 2 2 2h12.17l-2.58 2.59L15 32l5-5z"/><circle cx="11" cy="16" r="1"/><path d="M24 20H8c-1.103 0-2-.897-2-2v-4c0-1.103.897-2 2-2h16c1.103 0 2 .897 2 2v4c0 1.103-.897 2-2 2M8 14v4h16v-4z"/><path d="M28 4H15.83l2.58-2.59L17 0l-5 5 5 5 1.41-1.41L15.83 6H28v18h2V6c0-1.102-.897-2-2-2"/><path fill="none" d="M0 0h32v32H0z"/></symbol></svg>