<svg xmlns="http://www.w3.org/2000/svg" xmlns:xlink="http://www.w3.org/1999/xlink" style="display: none" fill="currentColor"><symbol id="icon" viewBox="0 0 32 32"><path d="M10 30H8v-3H4v3H2v-3a2 2 0 0 1 2-2h4a2 2 0 0 1 2 2Zm20 0h-2v-3h-4v3h-2v-3a2 2 0 0 1 2-2h4a2 2 0 0 1 2 2Zm-10 0h-2v-3h-4v3h-2v-3a2 2 0 0 1 2-2h4a2 2 0 0 1 2 2Z"/><circle cx="16" cy="22" r="2"/><circle cx="6" cy="22" r="2"/><circle cx="26" cy="22" r="2"/><circle cx="21" cy="18" r="2"/><circle cx="11" cy="18" r="2"/><path d="M26 14H6a2 2 0 0 1-2-2V4a2 2 0 0 1 2-2h20a2 2 0 0 1 2 2v8a2 2 0 0 1-2 2M6 4v8h20V4Z"/><path fill="none" d="M0 0h32v32H0z"/></symbol></svg>