<svg xmlns="http://www.w3.org/2000/svg" xmlns:xlink="http://www.w3.org/1999/xlink" style="display: none" fill="currentColor"><symbol id="icon" viewBox="0 0 32 32"><path d="M17 11h-6a3 3 0 0 0-3 3v4h2v-4a1 1 0 0 1 1-1h6a1 1 0 0 1 1 1v1h2v-1a3 3 0 0 0-3-3m-7-5a4 4 0 1 0 4-4 4 4 0 0 0-4 4m6 0a2 2 0 1 1-2-2 2 2 0 0 1 2 2m6 21h-6a2 2 0 0 1-2-2v-6a2 2 0 0 1 2-2h6a2 2 0 0 1 2 2v6a2 2 0 0 1-2 2m-6-8v6h6v-6ZM8 30H4a2 2 0 0 1-2-2V4a2 2 0 0 1 2-2h4v2H4v24h4Zm20 0h-4v-2h4V4h-4V2h4a2 2 0 0 1 2 2v24a2 2 0 0 1-2 2"/><path fill="none" d="M0 0h32v32H0z"/></symbol></svg>