<svg xmlns="http://www.w3.org/2000/svg" xmlns:xlink="http://www.w3.org/1999/xlink" style="display: none" fill="currentColor"><symbol id="icon" viewBox="0 0 32 32"><path d="M30 24v-2h-2.101a5 5 0 0 0-.732-1.753l1.49-1.49-1.414-1.414-1.49 1.49A5 5 0 0 0 24 18.101V16h-2v2.101a5 5 0 0 0-1.753.732l-1.49-1.49-1.414 1.414 1.49 1.49A5 5 0 0 0 18.101 22H16v2h2.101a5 5 0 0 0 .732 1.753l-1.49 1.49 1.414 1.414 1.49-1.49a5 5 0 0 0 1.753.732V30h2v-2.101a5 5 0 0 0 1.753-.732l1.49 1.49 1.414-1.414-1.49-1.49A5 5 0 0 0 27.899 24Zm-7 2a3 3 0 1 1 3-3 3.003 3.003 0 0 1-3 3"/><path d="M28 4H4a2 2 0 0 0-2 2v20a2 2 0 0 0 2 2h10v-2H4V12h24v3h2V6a2 2 0 0 0-2-2m0 6H4V6h24Z"/><circle cx="20" cy="8" r="1"/><circle cx="23" cy="8" r="1"/><circle cx="26" cy="8" r="1"/><path fill="none" d="M0 0h32v32H0z"/></symbol></svg>