<svg xmlns="http://www.w3.org/2000/svg" xmlns:xlink="http://www.w3.org/1999/xlink" style="display: none" fill="currentColor"><symbol id="icon" viewBox="0 0 32 32"><circle cx="21.5" cy="7.5" r="1.5"/><path d="M14.414 20H9v-5.414l6.03-6.03A5 5 0 0 1 15 8a6 6 0 1 1 6 6 5 5 0 0 1-.556-.03ZM11 18h2.586l6.17-6.17.518.095A4 4 0 0 0 21 12a4.05 4.05 0 1 0-3.925-3.273l.095.517-6.17 6.17Zm17 2h-9v2h9v6H4v-6h2v-2H4a2 2 0 0 0-2 2v6a2 2 0 0 0 2 2h24a2 2 0 0 0 2-2v-6a2 2 0 0 0-2-2"/><circle cx="7" cy="25" r="1"/><path fill="none" d="M0 0h32v32H0z"/></symbol></svg>