<svg xmlns="http://www.w3.org/2000/svg" xmlns:xlink="http://www.w3.org/1999/xlink" style="display: none" fill="currentColor"><symbol id="icon" viewBox="0 0 32 32"><path d="M20 16c0-.7-.2-1.4-.6-2l3.3-3.3-1.4-1.4-3.3 3.3c-.6-.4-1.3-.6-2-.6s-1.4.2-2 .6l-3.3-3.3-1.4 1.4 3.3 3.3c-.4.6-.6 1.3-.6 2s.2 1.4.6 2l-3.3 3.3 1.4 1.4 3.3-3.3c.6.4 1.3.6 2 .6s1.4-.2 2-.6l3.3 3.3 1.4-1.4-3.3-3.3c.4-.6.6-1.3.6-2m-4 2c-1.1 0-2-.9-2-2s.9-2 2-2 2 .9 2 2-.9 2-2 2"/><path d="M26 17h6v-2h-2.1C29.4 7.7 23.4 2 16 2 8.3 2 2 8.3 2 16s6.3 14 14 14c5.2 0 9.7-2.8 12.1-7l-1.7-1c-2.1 3.6-5.9 6-10.4 6-6.6 0-12-5.4-12-12S9.4 4 16 4c6.3 0 11.4 4.9 11.9 11H26z"/><path fill="none" d="M0 0h32v32H0z"/></symbol></svg>