<svg xmlns="http://www.w3.org/2000/svg" xmlns:xlink="http://www.w3.org/1999/xlink" style="display: none" fill="currentColor"><symbol id="icon" viewBox="0 0 32 32"><path d="m22.17 16-2.58 2.58L21 20l4-4-4-4-1.42 1.41zm-6.67 5-1.915-.577L16.5 11l1.915.577zm-5.67-5 2.58-2.58L11 12l-4 4 4 4 1.42-1.41z"/><circle cx="19" cy="28" r="1"/><path d="M22 29v-2c2.757 0 5-2.243 5-5V10c0-2.757-2.243-5-5-5h-6V3h6c3.86 0 7 3.14 7 7v12c0 3.86-3.14 7-7 7"/><circle cx="13" cy="4" r="1"/><path d="M16 29h-6c-3.86 0-7-3.14-7-7V10c0-3.86 3.14-7 7-7v2c-2.757 0-5 2.243-5 5v12c0 2.757 2.243 5 5 5h6z"/><path fill="none" d="M0 0h32v32H0z"/></symbol></svg>