<svg xmlns="http://www.w3.org/2000/svg" xmlns:xlink="http://www.w3.org/1999/xlink" style="display: none" fill="currentColor"><symbol id="icon" viewBox="0 0 32 32"><path d="M22 3v2H9.574L3.15 16.012l3.641 6.553L7.57 20l1.914.58-1.741 5.742L2 24.581l.58-1.914s1.292.385 2.376.712l-3.83-6.894a1 1 0 0 1 .01-.989l7-12A1 1 0 0 1 9 3zm1 26a1 1 0 0 0 .864-.496l7-12a1 1 0 0 0 .01-.99l-3.83-6.893c1.084.327 2.375.712 2.375.712L30 7.42l-5.74-1.742-1.742 5.741L24.43 12l.778-2.565 3.64 6.553L22.427 27H10v2zm-2-13c0-2.757-2.243-5-5-5s-5 2.243-5 5 2.243 5 5 5 5-2.243 5-5m-2 0c0 1.654-1.346 3-3 3s-3-1.346-3-3 1.346-3 3-3 3 1.346 3 3"/><path fill="none" d="M0 0h32v32H0z"/></symbol></svg>