<svg xmlns="http://www.w3.org/2000/svg" xmlns:xlink="http://www.w3.org/1999/xlink" style="display: none" fill="currentColor"><symbol id="icon" viewBox="0 0 32 32"><path d="M26 15h5v2h-5zm0 8h5v2h-5zm-8-5.82-2.59-2.59L14 16l4 4 6-6-1.41-1.41zm0 8-2.59-2.59L14 24l4 4 6-6-1.41-1.41zM11 25H8.5A5.507 5.507 0 0 1 3 19.5a5.51 5.51 0 0 1 5.123-5.48L9 14l.05-.87A7.98 7.98 0 0 1 17 6a7.96 7.96 0 0 1 7.169 4.445l1.791-.89A9.95 9.95 0 0 0 17 4a9.976 9.976 0 0 0-9.822 8.124C3.655 12.754 1 15.849 1 19.5 1 23.636 4.364 27 8.5 27H11z"/><path fill="none" d="M0 0h32v32H0z"/></symbol></svg>