<svg xmlns="http://www.w3.org/2000/svg" xmlns:xlink="http://www.w3.org/1999/xlink" style="display: none" fill="currentColor"><symbol id="icon" viewBox="0 0 32 32"><path d="M23.586 21.414 27.166 25l-3.582 3.587L25 30l5-5-5-5zm-3.172 0L16.834 25l3.582 3.587L19 30l-5-5 5-5zM22 6h2v8h-2zm-4 0h2v8h-2zm-4 8h-2c-1.103 0-2-.897-2-2V8c0-1.103.897-2 2-2h2c1.103 0 2 .897 2 2v4c0 1.103-.897 2-2 2m-2-6v4h2V8zM6 6h2v8H6z"/><path d="M10 28H4c-1.103 0-2-.897-2-2V4c0-1.103.897-2 2-2h22c1.103 0 2 .897 2 2v12h-2V4H4v22h6z"/><path fill="none" d="M0 0h32v32H0z"/></symbol></svg>