<svg xmlns="http://www.w3.org/2000/svg" xmlns:xlink="http://www.w3.org/1999/xlink" style="display: none" fill="currentColor"><symbol id="icon" viewBox="0 0 32 32"><path d="M17 27v-6h-2v4.6L5.4 16 15 6.4V11h2V5h10v8h2V5c0-1.1-.9-2-2-2H5c-1.1 0-2 .9-2 2v22c0 1.1.9 2 2 2h12zM5 5h8.6L5 13.6zm0 22v-8.6l8.6 8.6zm21.6-8-3.7-3.7q-.3-.3-.6-.3h-3.5c-.6-1.6-2.3-2.4-3.8-1.8-.9.3-1.6 1-1.8 1.9-.5 1.6.4 3.3 2 3.7 1.5.5 3.1-.3 3.7-1.8h3l3.8 3.8c.1.1.3.2.5.2h3.9v-2zM16 17c-.6 0-1-.4-1-1s.4-1 1-1 1 .4 1 1-.4 1-1 1m8.8 6c-.4-1.2-1.5-2-2.8-2s-3 1.3-3 3 1.4 3 3 3 2.4-.8 2.8-2H30v-2zM22 25c-.5 0-1-.5-1-1s.5-1 1-1 1 .5 1 1-.4 1-1 1m4 2h4v2h-4zm2-12h2v2h-2z"/><path fill="none" d="M0 0h32v32H0z"/></symbol></svg>