<svg xmlns="http://www.w3.org/2000/svg" xmlns:xlink="http://www.w3.org/1999/xlink" style="display: none" fill="currentColor"><symbol id="icon" viewBox="0 0 32 32"><path d="m29.9 16.4-6 12c-.2.3-.5.6-.9.6H10c-.6 0-1-.4-1-1s.4-1 1-1h12.4l5.5-11-5.5-11H10c-.6 0-1-.4-1-1s.4-1 1-1h13q.6 0 .9.6l6 12q.15.45 0 .9zM10 22c0 .6.4 1 1 1h11v-2H11c-.6 0-1 .4-1 1m8-7H7c-.6 0-1 .4-1 1s.4 1 1 1h11zm4-4V9H11c-.6 0-1 .4-1 1s.4 1 1 1zM3 15c-.6 0-1 .4-1 1s.4 1 1 1 1-.4 1-1-.4-1-1-1m3 6c-.6 0-1 .4-1 1s.4 1 1 1 1-.4 1-1-.4-1-1-1m0-10c.6 0 1-.4 1-1s-.4-1-1-1-1 .4-1 1 .4 1 1 1"/><path fill="none" d="M0 0h32v32H0z"/></symbol></svg>