<svg xmlns="http://www.w3.org/2000/svg" xmlns:xlink="http://www.w3.org/1999/xlink" style="display: none" fill="currentColor"><symbol id="icon" viewBox="0 0 32 32"><path d="m22.5 28.4-.9-1.8c4-2.1 6.5-6.2 6.5-10.6 0-6.6-5.4-12-12-12-1.3 0-2.5.2-3.7.6l-.6-1.9c1.3-.5 2.7-.7 4.2-.7 7.7 0 14 6.3 14 14 0 5.2-2.9 10-7.5 12.4"/><path d="m20.5 23.8-1-1.7c2.2-1.2 3.5-3.6 3.5-6.1 0-3.9-3.1-7-7-7-.6 0-1.2.1-1.8.2l-.5-1.9c.8-.2 1.5-.3 2.3-.3 5 0 9 4 9 9 0 3.2-1.7 6.2-4.5 7.8m-11 4.6C4.9 26 2 21.2 2 16c0-1.5.2-2.9.7-4.3l1.9.6C4.2 13.5 4 14.7 4 16c0 4.5 2.5 8.6 6.5 10.6z"/><path d="M11.5 23.8C8.7 22.2 7 19.2 7 16c0-.8.1-1.5.3-2.2l1.9.5c-.1.5-.2 1.1-.2 1.7 0 2.5 1.3 4.8 3.5 6.1z"/><path d="M20 16c0-2.2-1.8-4-4-4-.7 0-1.4.2-2 .6L8.9 7.5c.1-.2.1-.3.1-.5 0-1.1-.9-2-2-2s-2 .9-2 2 .9 2 2 2c.2 0 .3 0 .5-.1l5.1 5.1c-.4.6-.6 1.3-.6 2 0 1.9 1.3 3.4 3 3.9v7.4c-.6.3-1 1-1 1.7 0 1.1.9 2 2 2s2-.9 2-2c0-.7-.4-1.4-1-1.7v-7.4c1.7-.5 3-2 3-3.9m-4 2c-1.1 0-2-.9-2-2s.9-2 2-2 2 .9 2 2-.9 2-2 2"/><path fill="none" d="M0 0h32v32H0z"/></symbol></svg>