<svg xmlns="http://www.w3.org/2000/svg" xmlns:xlink="http://www.w3.org/1999/xlink" style="display: none" fill="currentColor"><symbol id="icon" viewBox="0 0 32 32"><path d="M11 28H9c-3.86 0-7-3.14-7-7v-2h2v2c0 2.757 2.243 5 5 5h2zm17.17-2-2.58 2.58L27 30l4-4-4-4-1.42 1.41zM22 31l-1.915-.577L23 21l1.915.577zm-5.17-5 2.58-2.58L18 22l-4 4 4 4 1.42-1.41zM30 19h-2v-7a5 5 0 0 0-5-5h-4V5h4a7 7 0 0 1 7 7z"/><circle cx="3" cy="4" r="1"/><path d="M6 3h10v2H6z"/><circle cx="3" cy="12" r="1"/><path d="M6 11h10v2H6zm-4 4h10v2H2z"/><circle cx="15" cy="8" r="1"/><path d="M2 7h10v2H2z"/><circle cx="15" cy="16" r="1"/><path fill="none" d="M0 0h32v32H0z"/></symbol></svg>