<svg xmlns="http://www.w3.org/2000/svg" xmlns:xlink="http://www.w3.org/1999/xlink" style="display: none" fill="currentColor"><symbol id="icon" viewBox="0 0 32 32"><circle cx="9" cy="26" r="1"/><path d="M4 24v4c0 1.1.9 2 2 2h12v-2H6v-4h12v-2H6c-1.1 0-2 .9-2 2m0-11v5c0 1.1.9 2 2 2h8v-2H6v-5z"/><circle cx="9" cy="16" r="1"/><path d="M28 19v-5c0-1.1-.9-2-2-2h-8v2h8v5zm0-11V4c0-1.1-.9-2-2-2H14v2h12v4H14v2h12c1.1 0 2-.9 2-2"/><path d="M23.41 22 10 8.59V2H2v8h6.59L22 23.41V30h8v-8zM8 8H4V4h4zm20 20h-4v-4h4z"/><path fill="none" d="M0 0h32v32H0z"/></symbol></svg>