<svg xmlns="http://www.w3.org/2000/svg" xmlns:xlink="http://www.w3.org/1999/xlink" style="display: none" fill="currentColor"><symbol id="icon" viewBox="0 0 32 32"><path d="M24.4 10c.3.5.7.9 1.3 1.2l1.3.6 1.3-.6c1-.5 1.7-1.6 1.7-2.7V4h-3V2h5v6.5c0 1.9-1.1 3.7-2.9 4.5l-2.2 1-2.1-1c-1.3-.6-2.2-1.7-2.6-3z"/><path d="M16 6h8v2h-8zm0-4h8v2h-8z"/><path d="M28 16v6H4V6h10V4H4c-1.1 0-2 .9-2 2v16c0 1.1.9 2 2 2h8v4H8v2h16v-2h-4v-4h8c1.1 0 2-.9 2-2v-6zM18 28h-4v-4h4z"/><path fill="none" d="M0 0h32v32H0z"/></symbol></svg>