<svg xmlns="http://www.w3.org/2000/svg" xmlns:xlink="http://www.w3.org/1999/xlink" style="display: none" fill="currentColor"><symbol id="icon" viewBox="0 0 32 32"><path d="M10 17h4v4h-4zm7-7h4v4h-4zm0 7h4v4h-4z"/><path d="M19.758 26.65 16 28.842 5 22.426V18H3v5c0 .355.189.685.496.864l12 7a1 1 0 0 0 1.008 0l4.282-2.498zm8.746-18.514-4.269-2.49-1.029 1.715L27 9.574v12.852l-3.787 2.209 1.029 1.715 4.262-2.486c.307-.179.496-.509.496-.864V9c0-.355-.189-.685-.496-.864M5 9.574l11-6.417 3.751 2.188L20.78 3.63l-4.276-2.494a1 1 0 0 0-1.008 0l-12 7A1 1 0 0 0 3 9v5h2z"/><path fill="none" d="M0 0h32v32H0z"/></symbol></svg>