<svg xmlns="http://www.w3.org/2000/svg" xmlns:xlink="http://www.w3.org/1999/xlink" style="display: none" fill="currentColor"><symbol id="icon" viewBox="0 0 32 32"><path d="M9 13h2v6H9zm12 0h2v6h-2zm-8-2h2v13h-2zm4-2h2v13h-2z"/><circle cx="22" cy="5" r="2"/><circle cx="10" cy="27" r="2"/><path d="M22.092 28H14v-2h8.092L28 16l-2.7-4.568 1.723-1.018 2.7 4.568c.37.628.37 1.408 0 2.036l-5.91 10a2.01 2.01 0 0 1-1.721.982M4.977 21.586l-2.7-4.568a2 2 0 0 1 0-2.036l5.91-10A2.01 2.01 0 0 1 9.909 4H18v2H9.91L4 16l2.7 4.568z"/><path fill="none" d="M0 0h32v32H0z"/></symbol></svg>