<svg xmlns="http://www.w3.org/2000/svg" xmlns:xlink="http://www.w3.org/1999/xlink" style="display: none" fill="currentColor"><symbol id="icon" viewBox="0 0 32 32"><path d="M30 30h-2v-2a1 1 0 0 0-1-1h-6a1 1 0 0 0-1 1v2h-2v-2c0-1.654 1.346-3 3-3h6c1.654 0 3 1.346 3 3zm-6-6c-2.206 0-4-1.794-4-4s1.794-4 4-4 4 1.794 4 4-1.794 4-4 4m0-6c-1.102 0-2 .897-2 2s.898 2 2 2 2-.897 2-2-.897-2-2-2M8 20h2v2H8zm4 0h6v2h-6zm-4-4h2v2H8zm4 0h6v2h-6zm-4-4h2v2H8zm4 0h6v2h-6z"/><path d="M21 5h-3V4c0-1.103-.897-2-2-2h-6c-1.102 0-2 .897-2 2v1H5c-1.102 0-2 .897-2 2v19c0 1.103.898 2 2 2h9v-2H5V7h3v2h10V7h3v7h2V7c0-1.103-.897-2-2-2m-5 2h-6V4h6z"/><path fill="none" d="M0 0h32v32H0z"/></symbol></svg>