<svg xmlns="http://www.w3.org/2000/svg" xmlns:xlink="http://www.w3.org/1999/xlink" style="display: none" fill="currentColor"><symbol id="icon" viewBox="0 0 32 32"><path d="M20 13h-8a1 1 0 0 0-.832 1.555l4 6a1 1 0 0 0 1.664 0l4-6A1 1 0 0 0 20 13m-4 5.197L13.868 15h4.264z"/><path d="M16 23a7 7 0 0 1-4.42-1.58l-1.42 1.42c.03.026.057.056.088.082A9 9 0 0 0 16 25c4.963 0 9-4.038 9-9h-2c0 3.86-3.14 7-7 7"/><circle cx="23" cy="12" r="1"/><circle cx="9" cy="20" r="1"/><path d="M16 9c1.61 0 3.177.562 4.422 1.578L21.84 9.16c-.038-.033-.071-.07-.11-.103A9.02 9.02 0 0 0 16 7c-4.963 0-9 4.038-9 9h2c0-3.86 3.14-7 7-7"/><path d="M16 30C8.28 30 2 23.72 2 16S8.28 2 16 2s14 6.28 14 14-6.28 14-14 14m0-26C9.383 4 4 9.383 4 16s5.383 12 12 12 12-5.383 12-12S22.617 4 16 4"/><path fill="none" d="M0 0h32v32H0z"/></symbol></svg>