<svg xmlns="http://www.w3.org/2000/svg" xmlns:xlink="http://www.w3.org/1999/xlink" style="display: none" fill="currentColor"><symbol id="icon" viewBox="0 0 32 32"><path d="M28 30H4c-1.1 0-2-.9-2-2V16h2v12h24V4H16V2h12c1.1 0 2 .9 2 2v24c0 1.1-.9 2-2 2m-5.5-17.9-6-3q-.45-.15-.9 0l-6 3q-.45.3-.6.9v7q0 .6.6.9l6 3q.45.15.9 0l6-3q.45-.3.6-.9v-7c0-.4-.2-.7-.5-.9zm-6.5-1 3.8 1.9-3.8 1.9-3.8-1.9zm-5 3.5 4 2v4.8l-4-2zm6 6.8v-4.8l4-2v4.8zM0 10h5v2H0zM12 0v5h-2V0zM3.4 2l3.5 3.5-1.4 1.4L2 3.4z"/><path fill="none" d="M0 0h32v32H0z"/></symbol></svg>