<svg xmlns="http://www.w3.org/2000/svg" xmlns:xlink="http://www.w3.org/1999/xlink" style="display: none" fill="currentColor"><symbol id="icon" viewBox="0 0 32 32"><path d="M9 21H3c-1.103 0-2-.897-2-2v-6c0-1.103.897-2 2-2h6c1.103 0 2 .897 2 2v6c0 1.103-.897 2-2 2m-6-8v6h6v-6zm13 17q-.543 0-1.076-.04c-4.352-.332-8.36-2.732-10.723-6.42l1.685-1.08a12.06 12.06 0 0 0 9.19 5.505Q15.533 28 16 28zm7 0-2.1-1c-1.7-.8-2.9-2.6-2.9-4.5V18h10v6.5c0 1.9-1.1 3.7-2.9 4.5zm-3-10v4.5c0 1.2.7 2.2 1.7 2.7l1.3.6 1.3-.6c1-.5 1.7-1.6 1.7-2.7V20zm7.303-8c.453 1.282.697 2.621.697 4h2c0-1.37-.199-2.708-.584-4zM27 10h-3c-1.103 0-2-.897-2-2V5c0-1.103.897-2 2-2h3c1.103 0 2 .897 2 2v3c0 1.103-.897 2-2 2m-3-5v3h3V5zm-4-2.416A14 14 0 0 0 16 2 13.95 13.95 0 0 0 4.202 8.46l1.684 1.08A11.96 11.96 0 0 1 20 4.698z"/><path fill="none" d="M0 0h32v32H0z"/></symbol></svg>