<svg xmlns="http://www.w3.org/2000/svg" xmlns:xlink="http://www.w3.org/1999/xlink" style="display: none" fill="currentColor"><symbol id="icon" viewBox="0 0 32 32"><path d="M25 21c-2.8 0-5-2.2-5-5s2.2-5 5-5 5 2.2 5 5-2.2 5-5 5m0-8c-1.7 0-3 1.3-3 3s1.3 3 3 3 3-1.3 3-3-1.3-3-3-3m-11-2V6c0-1.1-.9-2-2-2h-2v2h2v5c0 2.1 1.1 3.9 2.7 5-1.6 1.1-2.7 2.9-2.7 5v5h-2v2h2c1.1 0 2-.9 2-2v-5c0-2.2 1.8-4 4-4v-2c-2.2 0-4-1.8-4-4M2 30v-6h6v6zm2-4v2h2v-2zm-2-7v-6h6v6zm2-4v2h2v-2zM2 8V2h6v6zm2-4v2h2V4z"/><path fill="none" d="M0 0h32v32H0z"/></symbol></svg>