<svg xmlns="http://www.w3.org/2000/svg" xmlns:xlink="http://www.w3.org/1999/xlink" style="display: none" fill="currentColor"><symbol id="icon" viewBox="0 0 32 32"><path d="M4 10h4a2 2 0 0 0 2-2V4a2 2 0 0 0-2-2H4a2 2 0 0 0-2 2v4a2 2 0 0 0 2 2m0-6h4v4H4zm24 18h-4a2 2 0 0 0-2 2v4a2 2 0 0 0 2 2h4a2 2 0 0 0 2-2v-4a2 2 0 0 0-2-2m0 6h-4v-4h4zm-6.586-15.414L20 14l6 6 6-6-1.414-1.414L27 16.172V7a2 2 0 0 0-2-2H12v2h13v9.172zM7 15.828l3.586 3.586L12 18l-6-6-6 6 1.414 1.414L5 15.828V25a2 2 0 0 0 2 2h13v-2H7z"/><path fill="none" d="M0 0h32v32H0z"/></symbol></svg>