<svg xmlns="http://www.w3.org/2000/svg" xmlns:xlink="http://www.w3.org/1999/xlink" style="display: none" fill="currentColor"><symbol id="icon" viewBox="0 0 32 32"><path d="M23.9 10c-.6-.6-1.5-1-2.4-1s-1.8.4-2.4 1l-1.4-1.4c1-1 2.4-1.6 3.8-1.6s2.9.6 3.8 1.6z"/><circle cx="24" cy="5" r="1"/><circle cx="19" cy="5" r="1"/><path d="M15 0h13c1.1 0 2 .9 2 2v10c0 1.1-.9 2-2 2h-3.5l-1.7 3-1.8-1 2.3-4H28V2H15v10h5v2h-5c-1.1 0-2-.9-2-2V2c0-1.1.9-2 2-2m5 19v6c0 .6-.4 1-1 1h-5v2h5c1.7 0 3-1.3 3-3v-6zm-4.6 1.4c-.8 1-2.1 1.6-3.4 1.6s-2.6-.6-3.4-1.6L7 21.6C8.2 23 10 24 12 24s3.8-.9 5-2.4z"/><circle cx="15.5" cy="17.5" r="1.5"/><circle cx="8.5" cy="17.5" r="1.5"/><path d="M10.1 26H5c-.6 0-1-.4-1-1V14c0-.6.4-1 1-1h5v-2H5c-1.7 0-3 1.3-3 3v11c0 1.7 1.3 3 3 3h4l2.3 4 1.7-1z"/><path fill="none" d="M0 0h32v32H0z"/></symbol></svg>