<svg xmlns="http://www.w3.org/2000/svg" xmlns:xlink="http://www.w3.org/1999/xlink" style="display: none" fill="currentColor"><symbol id="icon" viewBox="0 0 32 32"><path d="M16 21c-2.757 0-5-2.243-5-5s2.243-5 5-5 5 2.243 5 5-2.243 5-5 5m0-8c-1.654 0-3 1.346-3 3s1.346 3 3 3 3-1.346 3-3-1.346-3-3-3m11 12a2 2 0 1 0-4 0 2 2 0 0 0 4 0M5 7a2 2 0 1 0 4 0 2 2 0 0 0-4 0m25 9c0-7.72-6.28-14-14-14a13.9 13.9 0 0 0-5.386 1.077l.772 1.846A11.9 11.9 0 0 1 16 4c6.28 0 11.45 4.85 11.96 11H23v2h7zm-8.614 12.923-.772-1.846A11.9 11.9 0 0 1 16 28C9.72 28 4.55 23.15 4.04 17H9v-2H2v1c0 7.72 6.28 14 14 14 1.864 0 3.677-.362 5.386-1.077"/><path fill="none" d="M0 0h32v32H0z"/></symbol></svg>