<svg xmlns="http://www.w3.org/2000/svg" xmlns:xlink="http://www.w3.org/1999/xlink" style="display: none" fill="currentColor"><symbol id="icon" viewBox="0 0 32 32"><path d="M28 2H18c-1.1 0-2 .9-2 2v6c0 1.1.9 2 2 2h2.4l1.7 3 1.7-1-2.3-4H18V4h10v6h-3v2h3c1.1 0 2-.9 2-2V4c0-1.1-.9-2-2-2M14.7 31 13 30l3.5-6H22c1.1 0 2-.9 2-2v-5h2v5c0 2.2-1.8 4-4 4h-4.4z"/><circle cx="10" cy="17" r="1"/><circle cx="14" cy="17" r="1"/><circle cx="18" cy="17" r="1"/><path d="M12 26H6c-2.2 0-4-1.8-4-4V12c0-2.2 1.8-4 4-4h8v2H6c-1.1 0-2 .9-2 2v10c0 1.1.9 2 2 2h6z"/><path fill="none" d="M0 0h32v32H0z"/></symbol></svg>