<svg xmlns="http://www.w3.org/2000/svg" xmlns:xlink="http://www.w3.org/1999/xlink" style="display: none" fill="currentColor"><symbol id="icon" viewBox="0 0 32 32"><path d="m28.504 8.136-12-7a1 1 0 0 0-1.008 0l-12 7A1 1 0 0 0 3 9v14a1 1 0 0 0 .496.864l12 7a1 1 0 0 0 1.008 0l12-7A1 1 0 0 0 29 23V9a1 1 0 0 0-.496-.864M16 3.158 26.016 9l-2.378 1.387L18 7.134a1 1 0 0 0-1 0l-6.5 3.75a1 1 0 0 0-.423.503L5.984 9zm-4 11.666 3 1.75v3.83l-3-1.731zm4 .018-4-2.333v-.181l5.5-3.174 4.148 2.394zm1 1.732 6-3.5v5.599l-5.5 3.173-.5-.289zM5 10.741l5 2.917v5.592a1 1 0 0 0 .5.866l4.5 2.596v5.547L5 22.426zm12 17.518v-4.393a1 1 0 0 0 1 0l6.5-3.75a1 1 0 0 0 .5-.866v-7.342l2-1.167v11.685z"/><path fill="none" d="M0 0h32v32H0z"/></symbol></svg>