<svg xmlns="http://www.w3.org/2000/svg" xmlns:xlink="http://www.w3.org/1999/xlink" style="display: none" fill="currentColor"><symbol id="icon" viewBox="0 0 32 32"><circle cx="23" cy="15" r="1"/><circle cx="8" cy="15" r="1"/><circle cx="21" cy="10" r="1"/><circle cx="15" cy="23" r="1"/><path d="M21 19a2 2 0 0 0-.512.074l-1.781-1.781-.026.026A3 3 0 0 0 19 16a3.003 3.003 0 0 0-3-3 3 3 0 0 0-1.319.319l.026-.026-1.781-1.781a2.035 2.035 0 1 0-1.414 1.414l1.781 1.781.026-.026A3 3 0 0 0 13 16a3.003 3.003 0 0 0 3 3 3 3 0 0 0 1.319-.319l-.026.026 1.781 1.781A1.996 1.996 0 1 0 21 19m-5-2a1 1 0 1 1 1-1 1 1 0 0 1-1 1"/><path d="M16 31a1 1 0 0 1-.504-.136l-12-7A1 1 0 0 1 3 23V9a1 1 0 0 1 .496-.864l12-7a1 1 0 0 1 1.008 0l12 7-1.008 1.728L16 3.158 5 9.574v12.852l11 6.417 11-6.417V15h2v8a1 1 0 0 1-.496.864l-12 7A1 1 0 0 1 16 31"/><path fill="none" d="M0 0h32v32H0z"/></symbol></svg>