<svg xmlns="http://www.w3.org/2000/svg" xmlns:xlink="http://www.w3.org/1999/xlink" style="display: none" fill="currentColor"><symbol id="icon" viewBox="0 0 32 32"><path d="M29.947 13.936h-2c-.737 0-1.375.405-1.722 1H6.015l2.625-7h7.307v-2H8.64a2.01 2.01 0 0 0-1.873 1.297l-2.514 6.703H1.947v2h2v9c0 1.102.897 2 2 2v3h2v-3h16v3h2v-3c1.102 0 2-.898 2-2v-9h2zm-24 11v-3h3v-2h-3v-3h20v3h-3v2h3v3z"/><path d="M11.979 19.941h8v2h-8zM29.537 2.526l-6.59 6.59-2.59-2.59-1.41 1.41 4 4 8-8z"/><path fill="none" d="M0 0h32v32H0z"/></symbol></svg>