<svg xmlns="http://www.w3.org/2000/svg" xmlns:xlink="http://www.w3.org/1999/xlink" style="display: none" fill="currentColor"><symbol id="icon" viewBox="0 0 32 32"><path d="M30 20H4c-1.1 0-2-.9-2-2V6c0-1.1.9-2 2-2h24c1.1 0 2 .9 2 2v10h-2V6H4v12h26zM2 22h28v2H2zm0 4h28v2H2zm14-10c-2.2 0-4-1.8-4-4s1.8-4 4-4 4 1.8 4 4-1.8 4-4 4m0-6c-1.1 0-2 .9-2 2s.9 2 2 2 2-.9 2-2-.9-2-2-2m8 0c-1.1 0-2 .9-2 2s.9 2 2 2 2-.9 2-2-.9-2-2-2M8 10c-1.1 0-2 .9-2 2s.9 2 2 2 2-.9 2-2-.9-2-2-2"/><path fill="none" d="M0 0h32v32H0z"/></symbol></svg>