<svg xmlns="http://www.w3.org/2000/svg" xmlns:xlink="http://www.w3.org/1999/xlink" style="display: none" fill="currentColor"><symbol id="icon" viewBox="0 0 32 32"><path d="M20 16c-.092 0-.18.021-.27.027l-.892-2.674A2.98 2.98 0 0 0 20 11c0-1.654-1.346-3-3-3s-3 1.346-3 3c0 .38.078.741.208 1.076l-2.722 2.333A2.97 2.97 0 0 0 10 14c-1.654 0-3 1.346-3 3s1.346 3 3 3a2.99 2.99 0 0 0 2.412-1.232l3.603 1.08c-.002.052-.015.1-.015.152 0 2.206 1.794 4 4 4s4-1.794 4-4-1.794-4-4-4m-3-6c.551 0 1 .449 1 1s-.449 1-1 1-1-.449-1-1 .449-1 1-1m-7 8c-.551 0-1-.449-1-1s.449-1 1-1 1 .449 1 1-.449 1-1 1m2.985-1.148a3 3 0 0 0-.193-.928l2.722-2.333a2.96 2.96 0 0 0 1.43.403l.885 2.656a4 4 0 0 0-1.236 1.284zM20 22c-1.103 0-2-.897-2-2s.897-2 2-2 2 .898 2 2-.897 2-2 2"/><path d="M27.496 9.864 16 3.158 7.504 8.114 6.496 6.386l9-5.25a1 1 0 0 1 1.008 0l12 7zm-10.992 21-1.008-1.728L27 22.426V12h2v11a1 1 0 0 1-.496.864zm-4.008-1.75-9-5.25A1 1 0 0 1 3 23V9h2v13.426l8.504 4.96z"/><path fill="none" d="M0 0h32v32H0z"/></symbol></svg>