<svg xmlns="http://www.w3.org/2000/svg" xmlns:xlink="http://www.w3.org/1999/xlink" style="display: none" fill="currentColor"><symbol id="icon" viewBox="0 0 32 32"><path d="M16 23c-.2 0-.4 0-.5-.1l-5-3c-.3-.2-.5-.5-.5-.9v-6c0-.4.2-.7.5-.9l5-3c.1-.1.3-.1.5-.1s.4 0 .5.1l5 3c.3.2.5.5.5.9v6c0 .4-.2.7-.5.9l-5 3c-.1.1-.3.1-.5.1m-4-4.6 4 2.4 4-2.4v-4.9l-4-2.4-4 2.4z"/><path d="M16 31c-.2 0-.3 0-.5-.1l-12-7c-.3-.2-.5-.5-.5-.9V9c0-.4.2-.7.5-.9l12-7c.2-.1.3-.1.5-.1s.3 0 .5.1l12 7-1 1.7L16 3.2 5 9.6v12.9l11 6.4 11-6.4V15h2v8c0 .4-.2.7-.5.9l-12 7c-.2.1-.3.1-.5.1"/><path fill="none" d="M0 0h32v32H0z"/></symbol></svg>