<svg xmlns="http://www.w3.org/2000/svg" xmlns:xlink="http://www.w3.org/1999/xlink" style="display: none" fill="currentColor"><symbol id="icon" viewBox="0 0 32 32"><path d="M29 18c-1.1 0-2-.9-2-2s.9-2 2-2 2 .9 2 2-.9 2-2 2M24 4c0-1.1-.9-2-2-2s-2 .9-2 2 .9 2 2 2 2-.9 2-2m0 24c0-1.1-.9-2-2-2s-2 .9-2 2 .9 2 2 2 2-.9 2-2m1-13h-4.11A6.97 6.97 0 0 0 23 10V8h-2v2c0 2.76-2.24 5-5 5H9v2h7c2.76 0 5 2.24 5 5v2h2v-2c0-1.96-.81-3.73-2.11-5H25zm-13.37 5.29-.04.02-1.31.77-1.28.76-5-2.96v-5.76l5-2.96 1.28.76 1.31.77.04.02 1.71 1.02 1.02-1.72-1.71-1.02-.04-.02-1.33-.78-1.77-1.05C9.35 8.05 9.18 8 9 8s-.35.05-.51.14l-6 3.55c-.3.18-.49.51-.49.86v6.9c0 .35.19.68.49.86l6 3.55c.16.09.33.14.51.14s.35-.05.51-.14l1.77-1.05 1.33-.78.04-.02 1.71-1.02-1.02-1.72z"/><path fill="none" d="M0 0h32v32H0z"/></symbol></svg>