<svg xmlns="http://www.w3.org/2000/svg" xmlns:xlink="http://www.w3.org/1999/xlink" style="display: none" fill="currentColor"><symbol id="icon" viewBox="0 0 32 32"><path d="M29.992 19h-2v-7a5 5 0 0 0-5-5h-8.995V5h8.995a7 7 0 0 1 7 7zm-18 9h-3c-3.86 0-7-3.14-7-7v-5h2v5c0 2.757 2.243 5 5 5h3zm-2-14h-4c-1.103 0-2-.897-2-2v-2h2v2h4V2h2v10c0 1.103-.897 2-2 2M28.15 26l-2.58 2.58L26.98 30l4-4-4-4-1.42 1.41zm-11.34 0 2.58-2.58L17.98 22l-4 4 4 4 1.42-1.41zm5.17 5-1.915-.577L22.98 21l1.915.577z"/><path fill="none" d="M0 0h32v32H0z"/></symbol></svg>