<svg xmlns="http://www.w3.org/2000/svg" xmlns:xlink="http://www.w3.org/1999/xlink" style="display: none" fill="currentColor"><symbol id="icon" viewBox="0 0 32 32"><path d="M21 3H11c-1.1 0-2 .9-2 2v22c0 1.1.9 2 2 2h10c1.1 0 2-.9 2-2V5c0-1.1-.9-2-2-2M11 5h10v6H11zm0 8h10v6H11zm0 14v-6h10v6zM2 10v16c0 1.1.9 2 2 2h3v-2H4v-4h3v-2H4v-4h3v-2H4v-4h3V8H4c-1.1 0-2 .9-2 2m26-2h-3v2h3v4h-3v2h3v4h-3v2h3v4h-3v2h3c1.1 0 2-.9 2-2V10c0-1.1-.9-2-2-2M14 9c-.55 0-1-.45-1-1s.45-1 1-1 1 .45 1 1-.45 1-1 1m0 8c-.55 0-1-.45-1-1s.45-1 1-1 1 .45 1 1-.45 1-1 1m0 8c-.55 0-1-.45-1-1s.45-1 1-1 1 .45 1 1-.45 1-1 1"/><path fill="none" d="M32 0v32H0V0z"/></symbol></svg>