<svg xmlns="http://www.w3.org/2000/svg" xmlns:xlink="http://www.w3.org/1999/xlink" style="display: none" fill="currentColor"><symbol id="icon" viewBox="0 0 32 32"><path d="m12.5 7.5-1.4-1.4 3.5-3.5c.8-.8 2.1-.8 2.8 0l3.5 3.5-1.4 1.4L16 4zm7 17 1.4 1.4-3.5 3.5c-.8.8-2.1.8-2.8 0l-3.5-3.5 1.4-1.4L16 28zm5-12 1.4-1.4 3.5 3.5c.8.8.8 2.1 0 2.8l-3.5 3.5-1.4-1.4L28 16zm-17 7-1.4 1.4-3.5-3.5c-.8-.8-.8-2.1 0-2.8l3.5-3.5 1.4 1.4L4 16z"/><path d="M26 24c-.2 0-.3 0-.5.1L19.4 18c.8-1.2.8-2.8 0-4l6.1-6.1c.2.1.3.1.5.1 1.1 0 2-.9 2-2s-.9-2-2-2-2 .9-2 2c0 .2 0 .3.1.5L18 12.6c-1.2-.8-2.8-.8-4 0L7.9 6.5c.1-.2.1-.3.1-.5 0-1.1-.9-2-2-2s-2 .9-2 2 .9 2 2 2c.2 0 .3 0 .5-.1l6.1 6.1c-.8 1.2-.8 2.8 0 4l-6.1 6.1c-.2-.1-.3-.1-.5-.1-1.1 0-2 .9-2 2s.9 2 2 2 2-.9 2-2c0-.2 0-.3-.1-.5l6.1-6.1c1.2.8 2.8.8 4 0l6.1 6.1c0 .2-.1.3-.1.5 0 1.1.9 2 2 2s2-.9 2-2-.9-2-2-2m-10-6c-1.1 0-2-.9-2-2s.9-2 2-2 2 .9 2 2-.9 2-2 2"/><path fill="none" d="M0 0h32v32H0z"/></symbol></svg>