<svg xmlns="http://www.w3.org/2000/svg" xmlns:xlink="http://www.w3.org/1999/xlink" style="display: none" fill="currentColor"><symbol id="icon" viewBox="0 0 32 32"><path d="M28 12c1.1 0 2-.9 2-2V4c0-1.1-.9-2-2-2h-4c-1.1 0-2 .9-2 2v6c0 1.1.9 2 2 2h1v4h-3v2h8v-2h-3v-4zm-4-8h4v6h-4zm-3 18.4L19.6 21 16 24.6 12.4 21 11 22.4l3.6 3.6-3.6 3.6 1.4 1.4 3.6-3.6 3.6 3.6 1.4-1.4-3.6-3.6zM12 18h3v3h2v-3h3v-2h-8zm-2-6V4c0-1.1-.9-2-2-2H3v2h5v2H4c-1.1 0-2 .9-2 2v2c0 1.1.9 2 2 2h1v4H2v2h8v-2H7v-4zM4 8h4v2H4z"/><path fill="none" d="M0 0h32v32H0z"/></symbol></svg>