<svg xmlns="http://www.w3.org/2000/svg" xmlns:xlink="http://www.w3.org/1999/xlink" style="display: none" fill="currentColor"><symbol id="icon" viewBox="0 0 32 32"><path d="M10 18h8v2h-8zm18-5.18v3.62c0 6.11-5.45 9.3-9.44 11.63-.72.42-1.41.82-2.02 1.22l-.54.35-.54-.35c-.61-.39-1.3-.79-2.02-1.22C9.46 25.74 4 22.55 4 16.44V4c0-1.1.9-2 2-2h21v2H6v9h6v2H6v1.44c0 4.96 4.68 7.7 8.45 9.9.54.32 1.07.62 1.55.92.49-.3 1.01-.61 1.55-.92 2.75-1.6 5.97-3.5 7.52-6.33h-5.08v-2h5.83c.11-.5.17-1.01.17-1.56v-3.62a2.99 2.99 0 0 1-2-2.82c0-1.65 1.35-3 3-3s3 1.35 3 3c0 1.3-.84 2.4-2 2.82zM28 10c0-.55-.45-1-1-1s-1 .45-1 1 .45 1 1 1 1-.45 1-1m-6 3h-8v2h8zm-4-5h-8v2h8z"/><path fill="none" d="M0 0h32v32H0z"/></symbol></svg>