<svg xmlns="http://www.w3.org/2000/svg" xmlns:xlink="http://www.w3.org/1999/xlink" style="display: none" fill="currentColor"><symbol id="icon" viewBox="0 0 32 32"><path d="M30 18H20v6.468a5.02 5.02 0 0 0 2.861 4.52L25 30l2.139-1.013A5.02 5.02 0 0 0 30 24.467zm-5 9.786-1.283-.607A3.01 3.01 0 0 1 22 24.468V20h6v4.468a3.01 3.01 0 0 1-1.717 2.71zM17 18H5a2 2 0 0 0-2 2v5a2 2 0 0 0 2 2h12v-2H5v-5h12zM27 4h-5a2 2 0 0 0-2 2v9h2V6h5v9h2V6a2 2 0 0 0-2-2M15 4H5a2 2 0 0 0-2 2v7a2 2 0 0 0 2 2h10a2 2 0 0 0 2-2V6a2 2 0 0 0-2-2M5 13V6h10v7z"/><path fill="none" d="M0 0h32v32H0z"/></symbol></svg>