<svg xmlns="http://www.w3.org/2000/svg" xmlns:xlink="http://www.w3.org/1999/xlink" style="display: none" fill="currentColor"><symbol id="icon" viewBox="0 0 32 32"><path d="M29 13h-2V9.574L16 3.158l-3 1.75V13h-2V4.333a1 1 0 0 1 .496-.863l4-2.334a1 1 0 0 1 1.008 0l12 7A1 1 0 0 1 29 9zM7 16h2V6H7zm8 12.272-10.001-5.84V9H3v14.006a1 1 0 0 0 .496.864L13.993 30zM26 17l-1.414 1.414L28.17 22l-3.585 3.586L26 27l5-5zm-11 5 5 5 1.414-1.414L17.83 22l3.585-3.586L20 17z"/><path fill="none" d="M0 0h32v32H0z"/></symbol></svg>