<svg xmlns="http://www.w3.org/2000/svg" xmlns:xlink="http://www.w3.org/1999/xlink" style="display: none" fill="currentColor"><symbol id="icon" viewBox="0 0 32 32"><path d="M5 25a2 2 0 1 0 2 2 2.006 2.006 0 0 0-2-2m11 0a2 2 0 1 0 2 2 2.006 2.006 0 0 0-2-2m11 0a2 2 0 1 0 2 2 2.006 2.006 0 0 0-2-2m1-2h-2V11a2.006 2.006 0 0 0-2-2h-2V7h2a4.01 4.01 0 0 1 4 4ZM15 12h2v11h-2zM6 23H4V11a4.01 4.01 0 0 1 4-4h2v2H8a2.006 2.006 0 0 0-2 2ZM16 2l-1.3 2.634-2.906.42 2.103 2.052L13.4 10 16 8.634 18.6 10l-.497-2.894 2.103-2.049-2.906-.423Z"/><path fill="none" d="M0 0h32v32H0z"/></symbol></svg>