<svg xmlns="http://www.w3.org/2000/svg" xmlns:xlink="http://www.w3.org/1999/xlink" style="display: none" fill="currentColor"><symbol id="icon" viewBox="0 0 32 32"><path d="m31 29.586-8.548-8.547A10.98 10.98 0 0 1 14 24.999C7.935 25 3 20.066 3 14S7.935 3 14 3s11 4.935 11 11a10.9 10.9 0 0 1-.997 4.583l1.818.834A12.9 12.9 0 0 0 27 14c0-7.168-5.832-13-13-13S1 6.832 1 14s5.832 13 13 13a12.93 12.93 0 0 0 8.44-3.146L29.586 31z"/><path d="M17 15c-.807 0-1.537.324-2.077.844l-2.96-1.48c.015-.12.037-.24.037-.364s-.022-.243-.037-.363l2.96-1.48c.54.52 1.27.843 2.077.843 1.654 0 3-1.346 3-3s-1.346-3-3-3-3 1.346-3 3c0 .125.022.243.037.363l-2.96 1.48A3 3 0 0 0 9 11c-1.654 0-3 1.346-3 3s1.346 3 3 3c.806 0 1.537-.324 2.077-.844l2.96 1.48c-.015.12-.037.24-.037.364 0 1.654 1.346 3 3 3s3-1.346 3-3-1.346-3-3-3m0-6a1 1 0 1 1-.002 2.002A1 1 0 0 1 17 9m-8 6a1 1 0 1 1 .002-2.002A1 1 0 0 1 9 15m8 4a1 1 0 1 1 .002-2.002A1 1 0 0 1 17 19"/><path fill="none" d="M0 0h32v32H0z"/></symbol></svg>