<svg xmlns="http://www.w3.org/2000/svg" xmlns:xlink="http://www.w3.org/1999/xlink" style="display: none" fill="currentColor"><symbol id="icon" viewBox="0 0 32 32"><path d="M2 17h15.172l-3.586 3.586L15 22l6-6-6-6-1.414 1.414L17.172 15H2z"/><path d="m28.504 8.136-12-7a1 1 0 0 0-1.008 0l-12 7A1 1 0 0 0 3 9v3h2V9.574l11-6.416 11 6.416v12.852l-11 6.416L4.273 22l-1.008 1.728 12.231 7.136a1 1 0 0 0 1.008 0l12-7A1 1 0 0 0 29 23V9a1 1 0 0 0-.496-.864"/><path fill="none" d="M0 0h32v32H0z"/></symbol></svg>