<svg xmlns="http://www.w3.org/2000/svg" xmlns:xlink="http://www.w3.org/1999/xlink" style="display: none" fill="currentColor"><symbol id="icon" viewBox="0 0 32 32"><path d="M4 22H2V4a2 2 0 0 1 2-2h18v2H4Zm17-5a3 3 0 1 0-3-3 3.003 3.003 0 0 0 3 3m0-4a1 1 0 1 1-1 1 1 1 0 0 1 1-1"/><path d="M28 7H9a2.003 2.003 0 0 0-2 2v19a2.003 2.003 0 0 0 2 2h19a2.003 2.003 0 0 0 2-2V9a2.003 2.003 0 0 0-2-2m0 21H9v-6l4-3.997 5.586 5.586a2 2 0 0 0 2.828 0L23 22.003 28 27Zm0-3.828-3.586-3.586a2 2 0 0 0-2.828 0L20 22.172l-5.586-5.586a2 2 0 0 0-2.828 0L9 19.172V9h19Z"/><path fill="none" d="M0 0h32v32H0z"/></symbol></svg>