<svg xmlns="http://www.w3.org/2000/svg" xmlns:xlink="http://www.w3.org/1999/xlink" style="display: none" fill="currentColor"><symbol id="icon" viewBox="0 0 32 32"><path d="M27.38 28h-6.762L24 21.236ZM24 18a1 1 0 0 0-.895.553l-5 10A1 1 0 0 0 19 30h10a1 1 0 0 0 .921-1.39l-5.026-10.057A1 1 0 0 0 24 18"/><path d="M18.746 22.8A9.999 9.999 0 1 1 14 4v10l6.097 6.097 1.22-2.44A2.99 2.99 0 0 1 24 16h1.82A11.993 11.993 0 1 0 14 26a12 12 0 0 0 3.394-.497Z"/><path fill="none" d="M0 0h32v32H0z"/></symbol></svg>