<svg xmlns="http://www.w3.org/2000/svg" xmlns:xlink="http://www.w3.org/1999/xlink" style="display: none" fill="currentColor"><symbol id="icon" viewBox="0 0 32 32"><path d="M14 26a12 12 0 0 1 0-24Zm3.826-21.236a10 10 0 0 1 3.242 2.168L22.48 5.52a12 12 0 0 0-3.89-2.602ZM26 14a11.9 11.9 0 0 0-.917-4.59l-1.847.764A9.9 9.9 0 0 1 24 14Zm1.38 14h-6.762L24 21.236ZM24 18a1 1 0 0 0-.895.553l-5 10A1 1 0 0 0 19 30h10a1 1 0 0 0 .921-1.39l-5.026-10.057A1 1 0 0 0 24 18"/><path fill="none" d="M0 0h32v32H0z"/></symbol></svg>