<svg xmlns="http://www.w3.org/2000/svg" xmlns:xlink="http://www.w3.org/1999/xlink" style="display: none" fill="currentColor"><symbol id="icon" viewBox="0 0 32 32"><path d="M18.324 11.733v1.29H17v1.737h1.324V22h2.201v-7.24h1.84v-1.737h-1.84v-1.995h1.84V9.274H20.8c-1.616 0-2.476.877-2.476 2.46M10 11.82h1.582v8.357H10V22h5.452v-1.823h-1.6V11.82h1.6V9.997H10z"/><path d="M21 30H11c-4.963 0-9-4.037-9-9V11c0-4.963 4.037-9 9-9h10c4.963 0 9 4.037 9 9v10c0 4.963-4.037 9-9 9M11 4c-3.86 0-7 3.14-7 7v10c0 3.86 3.14 7 7 7h10c3.86 0 7-3.14 7-7V11c0-3.86-3.14-7-7-7z"/><path fill="none" d="M0 0h32v32H0z"/></symbol></svg>