<svg xmlns="http://www.w3.org/2000/svg" xmlns:xlink="http://www.w3.org/1999/xlink" style="display: none" fill="currentColor"><symbol id="icon" viewBox="0 0 32 32"><path d="M30 19h-4v-4h-2v9H8V8h9V6h-4V2h-2v4H8a2 2 0 0 0-2 2v3H2v2h4v6H2v2h4v3a2 2 0 0 0 2 2h3v4h2v-4h6v4h2v-4h3a2.003 2.003 0 0 0 2-2v-3h4Z"/><path d="M21 21H11V11h10Zm-8-2h6v-6h-6Zm18-6h-2A10.01 10.01 0 0 0 19 3V1a12.013 12.013 0 0 1 12 12"/><path d="M26 13h-2a5.006 5.006 0 0 0-5-5V6a7.01 7.01 0 0 1 7 7"/><path fill="none" d="M0 0h32v32H0z"/></symbol></svg>