<svg xmlns="http://www.w3.org/2000/svg" xmlns:xlink="http://www.w3.org/1999/xlink" style="display: none" fill="currentColor"><symbol id="icon" viewBox="0 0 32 32"><path d="M12 17h8c1.1 0 2-.9 2-2V4c0-1.1-.9-2-2-2h-8c-1.1 0-2 .9-2 2v11c0 1.1.9 2 2 2m0-13h8v11h-8zM8 19h5v2H8c-1.1 0-2-.9-2-2V8h2zm-4 4h5v2H4c-1.1 0-2-.9-2-2V12h2zm23-3c-1.6 0-3.1 1.4-4 2.4-.9-1-2.4-2.4-4-2.4-2.6 0-4 2-4 4s1.4 4 4 4 3.1-1.4 4-2.4c.9 1 2.4 2.4 4 2.4 2.6 0 4-2 4-4s-1.4-4-4-4m-8 6c-1.5 0-2-1.1-2-2s.5-2 2-2 2 1.1 2.8 2c-.7.9-1.9 2-2.8 2m8 0c-.9 0-2-1.1-2.8-2 .7-.9 1.9-2 2.8-2 1.5 0 2 1.1 2 2s-.5 2-2 2"/><path fill="none" d="M0 0h32v32H0z"/></symbol></svg>