<svg xmlns="http://www.w3.org/2000/svg" xmlns:xlink="http://www.w3.org/1999/xlink" style="display: none" fill="currentColor"><symbol id="icon" viewBox="0 0 32 32"><path d="M20 6a9.9 9.9 0 0 0-3.997.84 10 10 0 0 1 2.245 1.36 8 8 0 1 1 0 15.601 10 10 0 0 1-2.245 1.36A9.998 9.998 0 1 0 20 6"/><path d="M12 16a8.01 8.01 0 0 0 6.248 7.8 9.986 9.986 0 0 0 0-15.6A8.01 8.01 0 0 0 12 16"/><path fill="none" d="M12 16a8.01 8.01 0 0 1 6.248-7.8 10 10 0 0 0-2.245-1.36 9.99 9.99 0 0 0 0 18.32 10 10 0 0 0 2.245-1.36A8.01 8.01 0 0 1 12 16"/><path d="M10 16a10.01 10.01 0 0 1 6.003-9.16 10 10 0 1 0 0 18.32A10.01 10.01 0 0 1 10 16"/><path fill="none" d="M0 0h32v32H0z"/></symbol></svg>