<svg xmlns="http://www.w3.org/2000/svg" xmlns:xlink="http://www.w3.org/1999/xlink" style="display: none" fill="currentColor"><symbol id="icon" viewBox="0 0 32 32"><path d="M20 6a9.95 9.95 0 0 0-4.003.84 9.99 9.99 0 0 1 0 18.32A9.999 9.999 0 1 0 20 6"/><path fill="none" d="M20 16a8.01 8.01 0 0 0-6.248-7.8 10 10 0 0 1 2.245-1.36 9.99 9.99 0 0 1 0 18.32 10 10 0 0 1-2.245-1.36A8.01 8.01 0 0 0 20 16"/><path d="M10 16a9.98 9.98 0 0 0 3.752 7.8 7.994 7.994 0 0 0 0-15.6A9.98 9.98 0 0 0 10 16"/><path d="M12 24a8 8 0 1 1 1.752-15.8 10 10 0 0 1 2.245-1.36 10 10 0 1 0 0 18.32 10 10 0 0 1-2.245-1.36A8 8 0 0 1 12 24"/><path fill="none" d="M0 0h32v32H0z"/></symbol></svg>