<svg xmlns="http://www.w3.org/2000/svg" xmlns:xlink="http://www.w3.org/1999/xlink" style="display: none" fill="currentColor"><symbol id="icon" viewBox="0 0 32 32"><path fill="none" d="M16 9.075a7.994 7.994 0 0 1 0 13.85 7.994 7.994 0 0 1 0-13.85m0-2.237a9.995 9.995 0 0 0 0 18.324 9.995 9.995 0 0 0 0-18.324"/><path d="M10 16a10 10 0 0 1 6-9.162 10 10 0 1 0 0 18.324A10 10 0 0 1 10 16"/><path d="M16 9.075a7.994 7.994 0 0 0 0 13.85 7.994 7.994 0 0 0 0-13.85"/><path d="M20 6a10 10 0 0 0-4 .838 9.995 9.995 0 0 1 0 18.324A9.999 9.999 0 1 0 20 6"/><path fill="none" d="M0 0h32v32H0z"/></symbol></svg>