<svg xmlns="http://www.w3.org/2000/svg" xmlns:xlink="http://www.w3.org/1999/xlink" style="display: none" fill="currentColor"><symbol id="icon" viewBox="0 0 32 32"><path d="M4 20v2h4.586L2 28.586 3.414 30 10 23.414V28h2v-8zm25-8-2-6h-2v10h2v-6l2 6h2V6h-2zm-7.666-6h-2.667A1.67 1.67 0 0 0 17 7.667v6.667A1.67 1.67 0 0 0 18.666 16h2.667A1.67 1.67 0 0 0 23 14.334V7.667A1.67 1.67 0 0 0 21.334 6M21 14h-2V8h2ZM9 7.667V10a2 2 0 0 0 2 2h2v2H9v2h4.334A1.67 1.67 0 0 0 15 14.334V12a2 2 0 0 0-2-2h-2V8h4V6h-4.334A1.67 1.67 0 0 0 9 7.667M5 14H3v-2H1v2.334A1.67 1.67 0 0 0 2.667 16h2.667A1.67 1.67 0 0 0 7 14.334V6H5Z"/><path fill="none" d="M0 0h32v32H0z"/></symbol></svg>