<svg xmlns="http://www.w3.org/2000/svg" xmlns:xlink="http://www.w3.org/1999/xlink" style="display: none" fill="currentColor"><symbol id="icon" viewBox="0 0 32 32"><path d="M22.951 20h-2.184c-.414-1.161-1.514-2-2.816-2s-2.402.839-2.816 2H8.951v2h6.184c.414 1.161 1.514 2 2.816 2s2.402-.839 2.816-2h2.184zm-5 2a1.001 1.001 0 0 1 0-2 1.001 1.001 0 0 1 0 2m5-10h-6.184c-.414-1.161-1.514-2-2.816-2s-2.402.839-2.816 2H8.951v2h2.184c.414 1.161 1.514 2 2.816 2s2.402-.839 2.816-2h6.184zm-9 2a1.001 1.001 0 0 1 0-2 1.001 1.001 0 0 1 0 2" class="cls-3"/><path d="M29.9 18.99 27.305 7.803a2 2 0 0 0-1.124-1.37l-9.407-4.255a2 2 0 0 0-1.648 0L5.72 6.432a2 2 0 0 0-1.124 1.371L2.003 18.99a2 2 0 0 0 .39 1.705l6.886 8.559a2 2 0 0 0 1.558.746h10.228a2 2 0 0 0 1.558-.746l6.886-8.559a2 2 0 0 0 .39-1.705M21.064 28H10.837l-6.886-8.559L6.544 8.254 15.951 4l9.407 4.255 2.593 11.186z"/><path fill="none" d="M0 0h32v32H0z"/></symbol></svg>