<svg xmlns="http://www.w3.org/2000/svg" xmlns:xlink="http://www.w3.org/1999/xlink" style="display: none" fill="currentColor"><symbol id="icon" viewBox="0 0 32 32"><path d="M19 21h-6c-1.103 0-2-.897-2-2v-6c0-1.103.897-2 2-2h6c1.103 0 2 .897 2 2v6c0 1.103-.897 2-2 2m-6-8v6h6v-6z"/><path d="M30 16c0-7.72-6.28-14-14-14S2 8.28 2 16s6.28 14 14 14c2.777 0 5.417-.796 7.701-2.308.395.191.832.308 1.299.308 1.654 0 3-1.346 3-3 0-.467-.117-.904-.308-1.299A13.85 13.85 0 0 0 30 16M4 16C4 9.383 9.383 4 16 4s12 5.383 12 12c0 2.248-.615 4.388-1.774 6.268A3 3 0 0 0 25 22c-1.654 0-3 1.346-3 3 0 .438.1.85.268 1.226A11.86 11.86 0 0 1 16 28C9.383 28 4 22.617 4 16m21 10a1.001 1.001 0 0 1 0-2 1.001 1.001 0 0 1 0 2"/><path fill="none" d="M0 0h32v32H0z"/></symbol></svg>