<svg xmlns="http://www.w3.org/2000/svg" xmlns:xlink="http://www.w3.org/1999/xlink" style="display: none" fill="currentColor"><symbol id="icon" viewBox="0 0 32 32"><path d="m20.044 27.294-3.082-10.018-1.013 3.04A1 1 0 0 1 15 21H9v-2h5.28l1.771-5.316A.98.98 0 0 1 17 13c.437.005.822.29.955.706l3.01 9.778 1.073-3.759A1 1 0 0 1 23 19h5v2h-4.246l-1.793 6.275a1 1 0 0 1-.951.725H21a1 1 0 0 1-.956-.706"/><path d="M16 28H6c-1.103 0-2-.897-2-2V6c0-1.103.897-2 2-2h20c1.103 0 2 .897 2 2v9h-2V6H6v20h10z"/><path fill="none" d="M0 0h32v32H0z"/></symbol></svg>