<svg xmlns="http://www.w3.org/2000/svg" xmlns:xlink="http://www.w3.org/1999/xlink" style="display: none" fill="currentColor"><symbol id="icon" viewBox="0 0 32 32"><path d="M16 24a1 1 0 0 1-.474-.12l-13-7 .948-1.76L16 21.864l12.526-6.744.948 1.76-13 7A1 1 0 0 1 16 24"/><path d="M16 30a1 1 0 0 1-.474-.12l-13-7 .948-1.76L16 27.864l12.526-6.744.948 1.76-13 7A1 1 0 0 1 16 30M29.474 9.12 16 1.864v2.272L26.89 10 16 15.864v2.272l13.474-7.255a1 1 0 0 0 0-1.761m-25.06.294L8 5.828V14h2V5.828l3.586 3.586L15 8 9 2 3 8z"/><path fill="none" d="M0 0h32v32H0z"/></symbol></svg>