<svg xmlns="http://www.w3.org/2000/svg" xmlns:xlink="http://www.w3.org/1999/xlink" style="display: none" fill="currentColor"><symbol id="icon" viewBox="0 0 32 32"><path d="m29.707 19.293-3-3a1 1 0 0 0-1.414 0L16 25.586V30h4.414l9.293-9.293a1 1 0 0 0 0-1.414M19.586 28H18v-1.586l5-5L24.586 23ZM26 21.586 24.414 20 26 18.414 27.586 20ZM20 13v-2h-2.142a4 4 0 0 0-.425-1.019l1.517-1.517-1.414-1.414-1.517 1.517A4 4 0 0 0 15 8.142V6h-2v2.142a4 4 0 0 0-1.019.425L10.464 7.05 9.05 8.464l1.517 1.517A4 4 0 0 0 10.142 11H8v2h2.142a4 4 0 0 0 .425 1.019L9.05 15.536l1.414 1.414 1.517-1.517a4 4 0 0 0 1.019.425V18h2v-2.142a4 4 0 0 0 1.019-.425l1.517 1.517 1.414-1.414-1.517-1.517A4 4 0 0 0 17.858 13Zm-6 1a2 2 0 1 1 2-2 2.003 2.003 0 0 1-2 2"/><path d="M12 30H6a2 2 0 0 1-2-2V4a2 2 0 0 1 2-2h16a2 2 0 0 1 2 2v10h-2V4H6v24h6Z"/><path fill="none" d="M0 0h32v32H0z"/></symbol></svg>