<svg xmlns="http://www.w3.org/2000/svg" xmlns:xlink="http://www.w3.org/1999/xlink" style="display: none" fill="currentColor"><symbol id="icon" viewBox="0 0 32 32"><path d="M8 30H2v-6h6Zm-4-2h2v-2H4Zm15 2h-6v-6h6Zm-4-2h2v-2h-2Zm15 2h-6v-6h6Zm-4-2h2v-2h-2ZM16 10a4 4 0 1 1 4-4 4.005 4.005 0 0 1-4 4m0-6a2 2 0 1 0 2 2 2 2 0 0 0-2-2m10 12h-5a4.005 4.005 0 0 1-4-4h-2a4.005 4.005 0 0 1-4 4H6a2 2 0 0 0-2 2v4h2v-4h5a5.97 5.97 0 0 0 4-1.54V22h2v-5.54A5.97 5.97 0 0 0 21 18h5v4h2v-4a2 2 0 0 0-2-2"/><path fill="none" d="M0 0h32v32H0z"/></symbol></svg>