<svg xmlns="http://www.w3.org/2000/svg" xmlns:xlink="http://www.w3.org/1999/xlink" style="display: none" fill="currentColor"><symbol id="icon" viewBox="0 0 32 32"><path fill="none" d="m16 7 1.912 3.667 4.088.506-3 2.753.6 4.074-3.6-2.292L12.4 18l.6-4.074-3-2.753 4.2-.506z"/><path d="M16 2A11.013 11.013 0 0 0 5 13a10.9 10.9 0 0 0 2.216 6.6s.3.395.349.452L16 30l8.439-9.953c.044-.053.345-.447.345-.447l.001-.003A10.9 10.9 0 0 0 27 13 11.013 11.013 0 0 0 16 2m3.6 16L16 15.709 12.4 18l.6-4.074-3-2.753 4.2-.507L16 7l1.912 3.667 4.088.506-3 2.753Z"/><path fill="none" d="M0 0h32v32H0z"/></symbol></svg>