<svg xmlns="http://www.w3.org/2000/svg" xmlns:xlink="http://www.w3.org/1999/xlink" style="display: none" fill="currentColor"><symbol id="icon" viewBox="0 0 32 32"><path d="m16 30-8.436-9.949a35 35 0 0 1-.348-.451A10.9 10.9 0 0 1 5 13a11 11 0 0 1 22 0 10.9 10.9 0 0 1-2.215 6.597l-.001.003s-.3.394-.345.447ZM8.813 18.395s.233.308.286.374L16 26.908l6.91-8.15c.044-.055.278-.365.279-.366A8.9 8.9 0 0 0 25 13a9 9 0 0 0-18 0 8.9 8.9 0 0 0 1.813 5.395"/><path d="M21 18h-2v-8h-6v8h-2v-8a2 2 0 0 1 2-2h6a2 2 0 0 1 2 2Z"/><path d="M15 16h2v2h-2zm0-4h2v2h-2z"/><path fill="none" d="M0 0h32v32H0z"/></symbol></svg>