<svg xmlns="http://www.w3.org/2000/svg" xmlns:xlink="http://www.w3.org/1999/xlink" style="display: none" fill="currentColor"><symbol id="icon" viewBox="0 0 32 32"><path fill="none" d="M18.303 9a2.66 2.66 0 0 0-1.908.806l-.393.405-.397-.405a2.66 2.66 0 0 0-3.816 0 2.8 2.8 0 0 0 0 3.896L16.002 18l4.209-4.298a2.8 2.8 0 0 0 0-3.896A2.66 2.66 0 0 0 18.303 9"/><path d="M16 2A11.013 11.013 0 0 0 5 13a10.9 10.9 0 0 0 2.216 6.6s.3.395.349.452L16 30l8.439-9.953c.044-.053.345-.447.345-.447l.001-.003A10.9 10.9 0 0 0 27 13 11.013 11.013 0 0 0 16 2m4.21 11.702L16.003 18l-4.213-4.298a2.8 2.8 0 0 1 0-3.896 2.66 2.66 0 0 1 3.816 0l.397.405.393-.405a2.66 2.66 0 0 1 3.816 0 2.8 2.8 0 0 1 0 3.896"/><path fill="none" d="M0 0h32v32H0z"/></symbol></svg>