<svg xmlns="http://www.w3.org/2000/svg" xmlns:xlink="http://www.w3.org/1999/xlink" style="display: none" fill="currentColor"><symbol id="icon" viewBox="0 0 32 32"><path d="M16 2C9.935 2 5 6.936 5 13c0 2.393.766 4.673 2.216 6.6 0 0 .3.394.348.451L16 30l8.439-9.953c.044-.053.345-.447.345-.447l.001-.003A10.9 10.9 0 0 0 27 13c0-6.064-4.935-11-11-11m-.5 4a1.5 1.5 0 1 1 0 3 1.5 1.5 0 0 1 0-3M20 20h-8v-2h3v-5h-2v-2h4v7h3z"/><path fill="none" d="M15.5 6a1.5 1.5 0 1 1 0 3 1.5 1.5 0 0 1 0-3M20 20h-8v-2h3v-5h-2v-2h4v7h3z"/><path fill="none" d="M0 0h32v32H0z"/></symbol></svg>