<svg xmlns="http://www.w3.org/2000/svg" xmlns:xlink="http://www.w3.org/1999/xlink" style="display: none" fill="currentColor"><symbol id="icon" viewBox="0 0 32 32"><circle cx="9" cy="7" r="1"/><path d="M27 22v-4a2 2 0 0 0-2-2h-8v-4h9a2 2 0 0 0 2-2V4a2 2 0 0 0-2-2H6a2 2 0 0 0-2 2v6a2 2 0 0 0 2 2h9v4H7a2 2 0 0 0-2 2v4H4a2 2 0 0 0-2 2v4a2 2 0 0 0 2 2h4a2 2 0 0 0 2-2v-4a2 2 0 0 0-2-2H7v-4h8v4h-1a2 2 0 0 0-2 2v4a2 2 0 0 0 2 2h4a2 2 0 0 0 2-2v-4a2 2 0 0 0-2-2h-1v-4h8v4h-1a2 2 0 0 0-2 2v4a2 2 0 0 0 2 2h4a2 2 0 0 0 2-2v-4a2 2 0 0 0-2-2zM8 28H4v-4h4zm10-4v4h-4v-4zM6 10V4h20v6zm22 18h-4v-4h4z"/><path fill="none" d="M0 0h32v32H0z"/></symbol></svg>