<svg xmlns="http://www.w3.org/2000/svg" xmlns:xlink="http://www.w3.org/1999/xlink" style="display: none" fill="currentColor"><symbol id="icon" viewBox="0 0 32 32"><path d="m21.91 20.586-5-11a1.001 1.001 0 0 0-1.82 0l-5 11a1 1 0 0 0 1.82.828l1.999-4.396 6.498 4.787a1 1 0 0 0 1.504-1.22M16 12.417l2.499 5.498-3.744-2.759z"/><path d="M16 30C8.28 30 2 23.72 2 16S8.28 2 16 2s14 6.28 14 14-6.28 14-14 14m0-26C9.383 4 4 9.383 4 16s5.383 12 12 12 12-5.383 12-12S22.617 4 16 4"/><path fill="none" d="M0 0h32v32H0z"/></symbol></svg>