<svg xmlns="http://www.w3.org/2000/svg" xmlns:xlink="http://www.w3.org/1999/xlink" style="display: none" fill="currentColor"><symbol id="icon" viewBox="0 0 32 32"><path d="M9.042 19.166a2.521 2.521 0 1 1-2.52-2.521h2.52Zm1.271 0a2.521 2.521 0 0 1 5.042 0v6.313a2.521 2.521 0 1 1-5.042 0Zm2.521-10.124a2.521 2.521 0 1 1 2.521-2.52v2.52Zm0 1.271a2.521 2.521 0 0 1 0 5.042H6.52a2.521 2.521 0 1 1 0-5.042Zm10.124 2.521a2.521 2.521 0 1 1 2.52 2.521h-2.52Zm-1.271 0a2.521 2.521 0 0 1-5.042 0V6.52a2.521 2.521 0 1 1 5.042 0Zm-2.521 10.124a2.521 2.521 0 1 1-2.521 2.52v-2.52Zm0-1.271a2.521 2.521 0 0 1 0-5.042h6.313a2.521 2.521 0 1 1 0 5.042Z"/><path fill="none" d="M0 0h32v32H0z"/></symbol></svg>