<svg xmlns="http://www.w3.org/2000/svg" xmlns:xlink="http://www.w3.org/1999/xlink" style="display: none" fill="currentColor"><symbol id="icon" viewBox="0 0 32 32"><path d="M11.548 25.752c9.056 0 14.01-7.503 14.01-14.01 0-.213 0-.425-.015-.636A10 10 0 0 0 28 8.556a9.8 9.8 0 0 1-2.828.776 4.94 4.94 0 0 0 2.164-2.724 9.9 9.9 0 0 1-3.126 1.195 4.929 4.929 0 0 0-8.392 4.491A13.98 13.98 0 0 1 5.67 7.15a4.93 4.93 0 0 0 1.525 6.573 4.9 4.9 0 0 1-2.235-.617v.063a4.926 4.926 0 0 0 3.95 4.827 4.9 4.9 0 0 1-2.223.084 4.93 4.93 0 0 0 4.6 3.42A9.88 9.88 0 0 1 4 23.54a13.94 13.94 0 0 0 7.547 2.209"/><path fill="none" d="M0 0h32v32H0z"/></symbol></svg>