<svg xmlns="http://www.w3.org/2000/svg" xmlns:xlink="http://www.w3.org/1999/xlink" style="display: none" fill="currentColor"><symbol id="icon" viewBox="0 0 32 32"><path d="M4 4v24h24V4zm8.1 5c.8 0 1.4.6 1.4 1.4s-.6 1.4-1.4 1.4-1.4-.6-1.4-1.4c.1-.8.7-1.4 1.4-1.4m9.4 13.2c-1.4 0-2.1-.8-2.1-2 0-.3 0-.7.1-1l.7-2.4c.1-.2.1-.5.1-.7 0-.8-.5-1.3-1.2-1.3-1 0-1.6.7-1.9 2L15.9 22h-2.3l.4-1.7c-.7 1.1-1.6 1.8-2.8 1.8-1.4 0-2.1-.8-2.1-2 0-.3 0-.7.1-1l1.1-4.3H8.7l.5-1.8h3.9l-1.5 6.1c-.1.3-.1.6-.1.9 0 .4.2.5.5.6.2 0 1.6 0 2.4-1.8l1-4.1h-1.6l.5-1.8h3.5l-.5 2.1c.6-1.2 1.9-2.2 3.1-2.2 1.3 0 2.4.9 2.4 2.7 0 .5-.1 1-.2 1.5l-.7 2.4c-.1.2-.1.4-.1.6 0 .4.2.6.5.6s.7-.2 1.2-1.5l.9.4c-.7 1.9-1.7 2.7-2.9 2.7"/><path fill="none" d="M0 0h32v32H0z"/></symbol></svg>