<svg xmlns="http://www.w3.org/2000/svg" xmlns:xlink="http://www.w3.org/1999/xlink" style="display: none" fill="currentColor"><symbol id="icon" viewBox="0 0 32 32"><path fillRule="evenodd" d="m8.509 15.185 5.06 2.467c.973.475.823 1.906-.228 2.168l-5.462 1.362c-.681.17-1.354-.3-1.434-.998a10 10 0 0 1 .456-4.33 1.16 1.16 0 0 1 1.608-.67M10.535 25.6l3.766-4.183c.724-.805 2.059-.265 2.02.817l-.196 5.627a1.16 1.16 0 0 1-1.353 1.104 10.1 10.1 0 0 1-4.033-1.632 1.16 1.16 0 0 1-.204-1.733m8.929-5.566 5.353 1.74c.666.216.991.97.69 1.602a10.1 10.1 0 0 1-2.677 3.43 1.16 1.16 0 0 1-1.724-.28l-2.984-4.775c-.574-.918.312-2.052 1.342-1.717m5.444-3.415-5.411 1.552c-1.041.298-1.887-.866-1.282-1.764l3.149-4.667a1.16 1.16 0 0 1 1.727-.224 10 10 0 0 1 2.56 3.522 1.162 1.162 0 0 1-.743 1.581M12.264 3.489c-.974.26-1.903.605-2.782 1.024A1.16 1.16 0 0 0 8.98 6.14l5.289 9.16c.593 1.028 2.164.607 2.164-.58V4.143a1.16 1.16 0 0 0-1.248-1.158c-.97.077-1.947.243-2.921.504"/><path fill="none" d="M0 0h32v32H0z"/></symbol></svg>