<svg xmlns="http://www.w3.org/2000/svg" xmlns:xlink="http://www.w3.org/1999/xlink" style="display: none" fill="currentColor"><symbol id="icon" viewBox="0 0 32 32"><path d="m25 18-1.414 1.414L26.167 22H18a4 4 0 0 0 0 8h2v-2h-2a2 2 0 0 1 0-4h8.167l-2.583 2.587L25 28l5-5Z"/><path d="M10 22H4L3.997 6.906l11.434 7.916a1 1 0 0 0 1.138 0L28 6.91V16h2V6a2.003 2.003 0 0 0-2-2H4a2 2 0 0 0-2 1.997V22a2.003 2.003 0 0 0 2 2h6ZM25.799 6 16 12.784 6.201 6Z"/><path fill="none" d="M0 0h32v32H0z"/></symbol></svg>