<svg xmlns="http://www.w3.org/2000/svg" xmlns:xlink="http://www.w3.org/1999/xlink" style="display: none" fill="currentColor"><symbol id="icon" viewBox="0 0 32 32"><path d="m16 24-6.09-8.6A8.14 8.14 0 0 1 16 2a8.08 8.08 0 0 1 8 8.13 8.2 8.2 0 0 1-1.8 5.13Zm0-20a6.07 6.07 0 0 0-6 6.13 6.2 6.2 0 0 0 1.49 4L16 20.52 20.63 14A6.24 6.24 0 0 0 22 10.13 6.07 6.07 0 0 0 16 4"/><circle cx="16" cy="9" r="2"/><path d="M28 12h-2v2h2v14H4V14h2v-2H4a2 2 0 0 0-2 2v14a2 2 0 0 0 2 2h24a2 2 0 0 0 2-2V14a2 2 0 0 0-2-2"/><path fill="none" d="M0 0h32v32H0z"/></symbol></svg>