<svg xmlns="http://www.w3.org/2000/svg" xmlns:xlink="http://www.w3.org/1999/xlink" style="display: none" fill="currentColor"><symbol id="icon" viewBox="0 0 32 32"><path d="M22 19h2v5h-2z"/><path d="M23 31a8 8 0 1 1 8-8 8 8 0 0 1-8 8m0-14a6 6 0 1 0 6 6 6 6 0 0 0-6-6"/><circle cx="23" cy="26" r="1"/><path d="M20 2H4a2 2 0 0 0-2 2v4a2 2 0 0 0 2 2v18a2 2 0 0 0 2 2h8v-2H6v-2h5V12H6v-2h12v3h2v-3a2 2 0 0 0 2-2V4a2 2 0 0 0-2-2M9 14v10H6V14ZM4 8V4h16v4Z"/><path fill="none" d="M0 0h32v32H0z"/></symbol></svg>