<svg xmlns="http://www.w3.org/2000/svg" xmlns:xlink="http://www.w3.org/1999/xlink" style="display: none" fill="currentColor"><symbol id="icon" viewBox="0 0 32 32"><path d="M26 16a9.9 9.9 0 0 0-1.14-4.618l-1.495 1.496A7.95 7.95 0 0 1 24 16Zm-2.586-6L22 8.586 17.285 13.3A3 3 0 0 0 16 13a3 3 0 1 0 3 3 3 3 0 0 0-.3-1.285ZM16 17a1 1 0 1 1 1-1 1 1 0 0 1-1 1m0-9a8 8 0 0 1 3.122.635l1.496-1.496A9.986 9.986 0 0 0 6 16h2a8.01 8.01 0 0 1 8-8"/><path d="M16 30a14 14 0 1 1 14-14 14.016 14.016 0 0 1-14 14m0-26a12 12 0 1 0 12 12A12.014 12.014 0 0 0 16 4"/><path fill="none" d="M0 0h32v32H0z"/></symbol></svg>