<svg xmlns="http://www.w3.org/2000/svg" xmlns:xlink="http://www.w3.org/1999/xlink" style="display: none" fill="currentColor"><symbol id="icon" viewBox="0 0 32 32"><path d="M30 20a13.85 13.85 0 0 0-2.23-7.529l-1.444 1.445A11.9 11.9 0 0 1 28 20ZM28 9.414 26.586 8l-8.567 8.567A3.95 3.95 0 0 0 16 16a4 4 0 1 0 4 4 3.95 3.95 0 0 0-.567-2.02ZM16 22a2 2 0 1 1 2-2 2 2 0 0 1-2 2m0-14a11.9 11.9 0 0 1 6.083 1.674l1.454-1.453A13.977 13.977 0 0 0 2 20h2A12.014 12.014 0 0 1 16 8"/><path fill="none" d="M0 0h32v32H0z"/></symbol></svg>