<svg xmlns="http://www.w3.org/2000/svg" xmlns:xlink="http://www.w3.org/1999/xlink" style="display: none" fill="currentColor"><symbol id="icon" viewBox="0 0 32 32"><path d="M28 12h-8v2h8v14h-8v2h8c1.103 0 2-.897 2-2V14c0-1.102-.897-2-2-2"/><path d="m19 16-1.414 1.414L20.172 20H16c-2.206 0-4-1.794-4-4v-2h-2v2c0 3.309 2.692 6 6 6h4.172l-2.586 2.586L19 26l5-5z"/><path d="M12 28H6V8h16V4c0-1.103-.897-2-2-2H6c-1.103 0-2 .897-2 2v24c0 1.103.897 2 2 2h6zM6 4h14v2H6z"/><path fill="none" d="M0 0h32v32H0z"/></symbol></svg>