<svg xmlns="http://www.w3.org/2000/svg" xmlns:xlink="http://www.w3.org/1999/xlink" style="display: none" fill="currentColor"><symbol id="icon" viewBox="0 0 32 32"><path d="M27 19c1.654 0 3-1.346 3-3s-1.346-3-3-3a2.995 2.995 0 0 0-2.816 2h-5.77l7.3-7.3c.392.186.824.3 1.286.3 1.654 0 3-1.346 3-3s-1.346-3-3-3a2.995 2.995 0 0 0-2.816 2H7.816A2.995 2.995 0 0 0 5 2C3.346 2 2 3.346 2 5s1.346 3 3 3c.462 0 .894-.113 1.285-.3l7.3 7.3h-5.77A2.995 2.995 0 0 0 5 13c-1.654 0-3 1.346-3 3s1.346 3 3 3a2.995 2.995 0 0 0 2.816-2h5.77l-7.3 7.3A3 3 0 0 0 5 24c-1.654 0-3 1.346-3 3s1.346 3 3 3a2.995 2.995 0 0 0 2.816-2h16.368A2.995 2.995 0 0 0 27 30c1.654 0 3-1.346 3-3s-1.346-3-3-3c-.462 0-.894.114-1.285.3l-7.3-7.3h5.77A2.995 2.995 0 0 0 27 19m0-4a1 1 0 0 1 0 2 1 1 0 0 1 0-2M7.816 6h16.368q.051.147.117.285l-8.3 8.3-8.301-8.3q.065-.138.116-.285M27 4a1 1 0 0 1 0 2 1 1 0 0 1 0-2M4 5a1 1 0 0 1 2 0 1 1 0 0 1-2 0m1 12a1 1 0 0 1 0-2 1 1 0 0 1 0 2m19.184 9H7.816a3 3 0 0 0-.117-.285l8.301-8.3 8.3 8.3a3 3 0 0 0-.116.285M5 28a1 1 0 0 1 0-2 1 1 0 0 1 0 2m23-1a1 1 0 0 1-2 0 1 1 0 0 1 2 0"/><path fill="none" d="M0 0h32v32H0z"/></symbol></svg>