<svg xmlns="http://www.w3.org/2000/svg" xmlns:xlink="http://www.w3.org/1999/xlink" style="display: none" fill="currentColor"><symbol id="icon" viewBox="0 0 32 32"><path d="M20 25h-6c-1.66 0-3 1.34-3 3v2h2v-2c0-.55.45-1 1-1h6c.55 0 1 .45 1 1v2h2v-2c0-1.66-1.34-3-3-3m-7-5c0 2.21 1.79 4 4 4s4-1.79 4-4-1.79-4-4-4-4 1.79-4 4m6 0c0 1.1-.9 2-2 2s-2-.9-2-2 .9-2 2-2 2 .9 2 2m3-2c1.1 0 2 .9 2 2s-.9 2-2 2v2c2.21 0 4-1.79 4-4s-1.79-4-4-4zm3 7h-1v2h1c.55 0 1 .45 1 1v2h2v-2c0-1.66-1.34-3-3-3M6 4h16v10h2V4c0-1.1-.9-2-2-2H6c-1.1 0-2 .9-2 2v24c0 1.1.9 2 2 2h3v-2H6z"/><path fill="none" d="M0 0h32v32H0z"/></symbol></svg>