<svg xmlns="http://www.w3.org/2000/svg" xmlns:xlink="http://www.w3.org/1999/xlink" style="display: none" fill="currentColor"><symbol id="icon" viewBox="0 0 32 32"><path fill="#171717" d="M16 20a4 4 0 1 1 4-4 4.005 4.005 0 0 1-4 4m0-6a2 2 0 1 0 2 2 2 2 0 0 0-2-2"/><path fill="#171717" d="M24 24H8a2 2 0 0 1-2-2V10a2 2 0 0 1 2-2h16a2 2 0 0 1 2 2v12a2 2 0 0 1-2 2M8 10v12h16V10Z"/><path fill="#171717" d="M28 28H4a2 2 0 0 1-2-2V6a2 2 0 0 1 2-2h24a2 2 0 0 1 2 2v20a2 2 0 0 1-2 2M4 6v20h24V6Z"/><path fill="none" d="M32 32H0V0h32z"/></symbol></svg>