<svg xmlns="http://www.w3.org/2000/svg" xmlns:xlink="http://www.w3.org/1999/xlink" style="display: none" fill="currentColor"><symbol id="icon" viewBox="0 0 32 32"><path d="M28 18h-2V6H13V4h13c1.103 0 2 .897 2 2zM18 28H6c-1.103 0-2-.897-2-2V13h2v13h12zm8-7-1.793 1.793-5.508-5.508c.187-.39.3-.823.3-1.285 0-1.654-1.345-3-3-3a2.96 2.96 0 0 0-1.284.3L9.433 8.02C9.784 7.423 10 6.74 10 6c0-2.205-1.794-4-4-4S2 3.794 2 6s1.794 4 4 4c.74 0 1.424-.215 2.019-.567l5.282 5.282c-.188.39-.301.823-.301 1.285 0 1.654 1.346 3 3 3a2.96 2.96 0 0 0 1.285-.3l5.508 5.507L21 26l5 5 5-5zM4 6c0-1.102.897-2 2-2s2 .898 2 2-.897 2-2 2-2-.897-2-2m11 10c0-.551.449-1 1-1s1 .449 1 1-.448 1-1 1-1-.449-1-1m8.829 10L26 23.829 28.171 26 26 28.171z"/><path fill="none" d="M0 0h32v32H0z"/></symbol></svg>