<svg xmlns="http://www.w3.org/2000/svg" xmlns:xlink="http://www.w3.org/1999/xlink" style="display: none" fill="currentColor"><symbol id="icon" viewBox="0 0 32 32"><path d="M18.8 27c-.3-.9-1-1.5-1.8-1.8V22c5-.5 9-4.8 9-9.9s-4.5-10-10-10S6 6.5 6 12s3.9 9.5 9 10v3.2c-.9.3-1.5 1-1.8 1.8H4v2h9.2c.4 1.2 1.5 2 2.8 2s2.4-.8 2.8-2H28v-2zM8 12c0-4.4 3.6-8 8-8s8 3.6 8 8-3.6 8-8 8-8-3.6-8-8m8 17c-.6 0-1-.5-1-1s.4-1 1-1 1 .5 1 1-.5 1-1 1m3.3-12.3L15 12.4V6h2v5.6l3.7 3.7z"/><path fill="none" d="M0 0h32v32H0z"/></symbol></svg>