<svg xmlns="http://www.w3.org/2000/svg" xmlns:xlink="http://www.w3.org/1999/xlink" style="display: none" fill="currentColor"><symbol id="icon" viewBox="0 0 32 32"><path d="M30 3.414 28.586 2l-3.432 3.432A13.93 13.93 0 0 0 16 2C8.28 2 2 8.28 2 16c0 3.5 1.3 6.697 3.432 9.154L2 28.586 3.414 30l3.432-3.432A13.93 13.93 0 0 0 16 30c7.72 0 14-6.28 14-14 0-3.5-1.3-6.697-3.432-9.154zM4 16C4 9.383 9.383 4 16 4a11.94 11.94 0 0 1 7.74 2.845L6.846 23.741A11.94 11.94 0 0 1 4 16m24 0c0 6.617-5.383 12-12 12a11.94 11.94 0 0 1-7.74-2.845L25.155 8.259A11.94 11.94 0 0 1 28 16"/><path fill="none" d="M0 0h32v32H0z"/></symbol></svg>