<svg xmlns="http://www.w3.org/2000/svg" xmlns:xlink="http://www.w3.org/1999/xlink" style="display: none" fill="currentColor"><symbol id="icon" viewBox="0 0 32 32"><path d="M6 3h4v2H6v8c0 1.2-.542 2.266-1.382 3C5.458 16.734 6 17.8 6 19v8h4v2H6c-1.103 0-2-.897-2-2v-8c0-1.102-.897-2-2-2v-2c1.103 0 2-.897 2-2V5c0-1.102.897-2 2-2m22 10V5c0-1.102-.897-2-2-2h-4v2h4v8c0 1.2.543 2.266 1.382 3A3.98 3.98 0 0 0 26 19v8h-4v2h4c1.103 0 2-.897 2-2v-8c0-1.102.897-2 2-2v-2c-1.103 0-2-.897-2-2"/><path fill="none" d="M0 0h32v32H0z"/></symbol></svg>