<svg xmlns="http://www.w3.org/2000/svg" xmlns:xlink="http://www.w3.org/1999/xlink" style="display: none" fill="currentColor"><symbol id="icon" viewBox="0 0 32 32"><path d="M28 12a2 2 0 0 0 2-2V4a2 2 0 0 0-2-2H4a2 2 0 0 0-2 2v6a2 2 0 0 0 2 2h11v4H9a2 2 0 0 0-2 2v4H4a2 2 0 0 0-2 2v4a2 2 0 0 0 2 2h8a2 2 0 0 0 2-2v-4a2 2 0 0 0-2-2H9v-4h14v4h-3a2 2 0 0 0-2 2v4a2 2 0 0 0 2 2h8a2 2 0 0 0 2-2v-4a2 2 0 0 0-2-2h-3v-4a2 2 0 0 0-2-2h-6v-4ZM12 28H4v-4h8Zm16 0h-8v-4h8ZM4 4h24v6H4Z"/><path fill="none" d="M0 0h32v32H0z"/></symbol></svg>