<svg xmlns="http://www.w3.org/2000/svg" xmlns:xlink="http://www.w3.org/1999/xlink" style="display: none" fill="currentColor"><symbol id="icon" viewBox="0 0 32 32"><path d="M20.834 16.808c-2.441 0-3.834.911-3.834 2.75 0 1.6 1.032 2.648 2.854 2.648 1.34 0 2.321-.601 2.613-1.753h.103c.137.928.722 1.547 1.668 1.547h1.22v-1.753h-.894v-4.23c0-2.046-1.289-3.198-3.713-3.198-1.805 0-2.854.688-3.507 1.72l1.307 1.169c.43-.62 1.014-1.135 2.045-1.135 1.17 0 1.668.585 1.668 1.582v.653zm1.53 2.51c0 .843-.79 1.29-1.77 1.29-.86 0-1.36-.361-1.36-1.084v-.292c0-.705.569-1.1 1.72-1.1h1.41zM9.272 17.427h3.129c2.218 0 3.559-1.478 3.559-3.713 0-2.218-1.341-3.714-3.56-3.714H7.004v12h2.269zm0-5.45h2.923c.876 0 1.41.464 1.41 1.341v.791c0 .877-.534 1.358-1.41 1.358H9.272z"/><path d="M2 4v24a2 2 0 0 0 2 2h24a2 2 0 0 0 2-2V4a2 2 0 0 0-2-2H4a2 2 0 0 0-2 2m26 24H4V4h24z"/><path fill="none" d="M0 0h32v32H0z"/></symbol></svg>