<svg xmlns="http://www.w3.org/2000/svg" xmlns:xlink="http://www.w3.org/1999/xlink" style="display: none" fill="currentColor"><symbol id="icon" viewBox="0 0 32 32"><path d="M26 18c-1.858 0-3.41 1.28-3.858 3H2v2h20.142c.447 1.72 2 3 3.858 3 2.206 0 4-1.794 4-4s-1.794-4-4-4m0 6c-1.103 0-2-.897-2-2s.897-2 2-2 2 .898 2 2-.897 2-2 2m0-18c-1.858 0-3.41 1.28-3.858 3H2v2h20.142c.447 1.72 2 3 3.858 3 2.206 0 4-1.794 4-4s-1.794-4-4-4m0 6c-1.103 0-2-.897-2-2s.897-2 2-2 2 .898 2 2-.897 2-2 2"/><path fill="none" d="M0 0h32v32H0z"/></symbol></svg>