<svg xmlns="http://www.w3.org/2000/svg" xmlns:xlink="http://www.w3.org/1999/xlink" style="display: none" fill="currentColor"><symbol id="icon" viewBox="0 0 32 32"><path d="M18 28c-3.593 0-6.967-1.59-9.257-4.363l1.542-1.274A9.98 9.98 0 0 0 18 26c5.514 0 10-4.486 10-10S23.514 6 18 6a9.98 9.98 0 0 0-7.715 3.637L8.743 8.363A11.97 11.97 0 0 1 18 4c6.617 0 12 5.383 12 12s-5.383 12-12 12"/><path d="m23 16-7-7-1.414 1.414L19.172 15H2v2h17.172l-4.586 4.586L16 23z"/><path fill="none" d="M0 0h32v32H0z"/></symbol></svg>