<svg xmlns="http://www.w3.org/2000/svg" xmlns:xlink="http://www.w3.org/1999/xlink" style="display: none" fill="currentColor"><symbol id="icon" viewBox="0 0 32 32"><path d="M29 20.52c0-4.62-3.78-5.14-6.82-5.56-3.31-.46-5.18-.86-5.18-3.71 0-2.39 2.51-3.24 4.65-3.24 2.32 0 4.14.86 5.57 2.63l1.56-1.26C27.26 7.5 25.32 6.41 23 6.1V3h-2v3.02c-3.62.22-6 2.26-6 5.22 0 4.73 3.83 5.26 6.91 5.69 3.25.45 5.09.84 5.09 3.58 0 3.03-3.13 3.48-5 3.48-3.43 0-4.88-.96-6.22-2.63l-1.56 1.26c1.77 2.19 3.73 3.17 6.78 3.34V29h2v-3.04c3.73-.3 6-2.33 6-5.44M3 11h8v2H3zm0 8h8v2H3zm2-4h8v2H5z"/><path fill="none" d="M0 0h32v32H0z"/></symbol></svg>