<svg xmlns="http://www.w3.org/2000/svg" xmlns:xlink="http://www.w3.org/1999/xlink" style="display: none" fill="currentColor"><symbol id="icon" viewBox="0 0 32 32"><path d="m16 21 1.4 1.4-2.6 2.6H23v2h-8.2l2.6 2.6L16 31l-5-5zm-8.738 2.323 7.99-7.99 1.415 1.414-7.99 7.99z"/><path d="M23 22h-2v-5c0-.3.1-.5.3-.7l4.1-4.1c1.7-1.7 2.6-4 2.6-6.4V4h-1.9c-2.4 0-4.7.9-6.4 2.6l-4.1 4.1q-.15.3-.6.3H7.5l-2.6 3.3 5.3.8-.3 2-7-1c-.4-.1-.7-.3-.8-.6s-.1-.7.1-1l4-5c.2-.4.5-.5.8-.5h7.6l3.8-3.8c2-2.1 4.8-3.2 7.7-3.2H28c1.1 0 2 .9 2 2v1.9c0 2.9-1.1 5.7-3.2 7.8L23 17.4z"/><path fill="none" d="M0 0h32v32H0z"/></symbol></svg>