<svg xmlns="http://www.w3.org/2000/svg" xmlns:xlink="http://www.w3.org/1999/xlink" style="display: none" fill="currentColor"><symbol id="icon" viewBox="0 0 32 32"><path d="m27 25.586-2-2V21h-2v3.414L25.586 27z"/><path d="M24 31c-3.86 0-7-3.14-7-7s3.14-7 7-7 7 3.14 7 7-3.14 7-7 7m0-12c-2.757 0-5 2.243-5 5s2.243 5 5 5 5-2.243 5-5-2.243-5-5-5m4-4h2V5c0-1.103-.897-2-2-2h-3v2h3z"/><circle cx="9" cy="13" r="2"/><circle cx="16" cy="13" r="2"/><circle cx="23" cy="13" r="2"/><path d="M7 23H4c-1.103 0-2-.897-2-2V5c0-1.103.897-2 2-2h3v2H4v16h3z"/><path fill="none" d="M0 0h32v32H0z"/></symbol></svg>