<svg xmlns="http://www.w3.org/2000/svg" xmlns:xlink="http://www.w3.org/1999/xlink" style="display: none" fill="currentColor"><symbol id="icon" viewBox="0 0 32 32"><path d="m23 27.178-2.59-2.59L19 26l4 4 7-7-1.41-1.412zM14 16h-3v-.169a4.02 4.02 0 0 1 1.942-3.43l1.142-.687L13.054 10l-1.14.686A6.03 6.03 0 0 0 9 15.831V21a1 1 0 0 0 1 1h4a1 1 0 0 0 1-1v-4a1 1 0 0 0-1-1m8 0h-3v-.169a4.02 4.02 0 0 1 1.942-3.43l1.142-.687L21.054 10l-1.14.686A6.03 6.03 0 0 0 17 15.831V21a1 1 0 0 0 1 1h4a1 1 0 0 0 1-1v-4a1 1 0 0 0-1-1M12 28H6c-1.103 0-2-.897-2-2V6c0-1.103.897-2 2-2h20c1.103 0 2 .897 2 2v11h-2V6H6v20h6z"/><path fill="none" d="M0 0h32v32H0z"/></symbol></svg>