<svg xmlns="http://www.w3.org/2000/svg" xmlns:xlink="http://www.w3.org/1999/xlink" style="display: none" fill="currentColor"><symbol id="icon" viewBox="0 0 32 32"><path d="M30 15H17V2h-2v13H2v2h13v13h2V17h13zM5 30a3 3 0 1 1 3-3 3.003 3.003 0 0 1-3 3m0-4a1 1 0 1 0 1 1 1 1 0 0 0-1-1"/><path d="M8 8a3 3 0 1 1 3-3 3.003 3.003 0 0 1-3 3m0-4a1 1 0 1 0 1 1 1 1 0 0 0-1-1m14 9a3 3 0 1 1 3-3 3.003 3.003 0 0 1-3 3m0-4a1 1 0 1 0 1 1 1 1 0 0 0-1-1"/><circle cx="11" cy="11" r="2"/><circle cx="11" cy="21" r="2"/><circle cx="21" cy="21" r="2"/><circle cx="22" cy="28" r="2"/><circle cx="28" cy="24" r="2"/><circle cx="4" cy="11" r="2"/><circle cx="28" cy="4" r="2"/><path fill="none" d="M0 0h32v32H0z"/></symbol></svg>