<svg xmlns="http://www.w3.org/2000/svg" xmlns:xlink="http://www.w3.org/1999/xlink" style="display: none" fill="currentColor"><symbol id="icon" viewBox="0 0 32 32"><path d="M12 28h-2c-3.86 0-7-3.14-7-7v-2h2v2c0 2.757 2.243 5 5 5h2zm16-9h-9a2.003 2.003 0 0 0-2 2v5a2 2 0 0 0 2 2h3v-2h-3v-5h9v5h-2.535l-2.594 3.89L24.535 31l2-3H28a2 2 0 0 0 2-2v-5a2.003 2.003 0 0 0-2-2m1-4v-4c0-3.86-3.14-7-7-7h-3v2h3c2.757 0 5 2.243 5 5v4zM6 10h3v2H6z"/><path d="M12.606 6.436 10.081 2.75A2 2 0 0 0 8.519 2H4c-1.103 0-2 .898-2 2v10c0 1.103.897 2 2 2h7c1.103 0 2-.897 2-2V7.625c0-.453-.156-.896-.394-1.19M4 14V4h4v3a1 1 0 0 0 1 1h2v6z"/><path fill="none" d="M0 0h32v32H0z"/></symbol></svg>