<svg xmlns="http://www.w3.org/2000/svg" xmlns:xlink="http://www.w3.org/1999/xlink" style="display: none" fill="currentColor"><symbol id="icon" viewBox="0 0 32 32"><path d="m29.508 22.255-2.078-3.74-1.748.97 2.078 3.742a1.85 1.85 0 0 1-.023 1.853c-.34.576-.941.92-1.61.92H18.83l2.58-2.59L20 22l-5 5 5 5 1.41-1.41L18.83 28h7.298a3.83 3.83 0 0 0 3.332-1.906 3.83 3.83 0 0 0 .048-3.84ZM5.873 26a1.85 1.85 0 0 1-1.61-.92 1.85 1.85 0 0 1-.022-1.853l4.11-7.4 1.049 3.52 1.912-.567L9.303 12l-6.78 2.008.567 1.912 3.493-1.03-4.09 7.365a3.83 3.83 0 0 0 .047 3.84A3.83 3.83 0 0 0 5.873 28H12v-2zM25.51 9.654l-1.048 3.519L19.35 3.97C18.664 2.737 17.412 2 16 2s-2.665.737-3.35 1.971L9.57 9.515l1.749.97 3.08-5.543C14.725 4.352 15.324 4 16 4s1.274.353 1.602.942l5.092 9.167-3.494-1.03-.566 1.913L25.414 17l2.008-6.78z"/><path fill="none" d="M0 0h32v32H0z"/></symbol></svg>