<svg xmlns="http://www.w3.org/2000/svg" xmlns:xlink="http://www.w3.org/1999/xlink" style="display: none" fill="currentColor"><symbol id="icon" viewBox="0 0 32 32"><path d="M17.179 17.496c0-2.837 1.53-4.676 4.16-4.676 2.803 0 4.092 2.063 4.092 4.521v.722h-5.966v.224c0 1.29.74 2.166 2.184 2.166 1.083 0 1.736-.516 2.287-1.22l1.186 1.323c-.74 1.015-2.046 1.65-3.714 1.65-2.647 0-4.23-1.839-4.23-4.71m2.287-.928v.137h3.679v-.155c0-1.238-.637-2.08-1.771-2.08-1.152 0-1.909.86-1.909 2.098ZM9.27 22H7V10h5.416c2.183 0 3.541 1.444 3.541 3.714 0 1.65-.756 2.905-2.235 3.403L16.181 22h-2.527l-2.235-4.625h-2.15zm3.12-6.533c.878 0 1.41-.481 1.41-1.358v-.791c0-.877-.532-1.341-1.41-1.341H9.469v3.49z"/><path d="M21 30H11c-4.963 0-9-4.037-9-9V11c0-4.963 4.037-9 9-9h10c4.963 0 9 4.037 9 9v10c0 4.963-4.037 9-9 9M11 4c-3.86 0-7 3.14-7 7v10c0 3.86 3.14 7 7 7h10c3.86 0 7-3.14 7-7V11c0-3.86-3.14-7-7-7z"/><path fill="none" d="M0 0h32v32H0z"/></symbol></svg>