<svg xmlns="http://www.w3.org/2000/svg" xmlns:xlink="http://www.w3.org/1999/xlink" style="display: none" fill="currentColor"><symbol id="icon" viewBox="0 0 32 32"><path d="m29.707 19.293-3-3a1 1 0 0 0-1.414 0L16 25.586V30h4.414l9.293-9.293a1 1 0 0 0 0-1.414M19.586 28H18v-1.586l5-5L24.586 23ZM26 21.586 24.414 20 26 18.414 27.586 20ZM8 16h10v2H8zm0-6h12v2H8z"/><path d="M26 4a2 2 0 0 0-2-2H4a2 2 0 0 0-2 2v13a10.98 10.98 0 0 0 5.824 9.707L13 29.467V27.2l-4.234-2.258A8.99 8.99 0 0 1 4 17V4h20v9h2Z"/><path fill="none" d="M0 0h32v32H0z"/></symbol></svg>