<svg xmlns="http://www.w3.org/2000/svg" xmlns:xlink="http://www.w3.org/1999/xlink" style="display: none" fill="currentColor"><symbol id="icon" viewBox="0 0 32 32"><path d="M27 19.001A4.006 4.006 0 0 0 23 15H9a2.003 2.003 0 0 1-2-2V9.857A4 4 0 0 0 9.858 7h12.284a4 4 0 1 0 0-2H9.858A3.992 3.992 0 1 0 5 9.858v3.141A4.006 4.006 0 0 0 9.001 17H23a2.003 2.003 0 0 1 2 2.001V22h-3v3H9.858a4 4 0 1 0 0 2H22v3h8v-8h-3ZM26 4a2 2 0 1 1-2 2 2 2 0 0 1 2-2M4 6a2 2 0 1 1 2 2 2 2 0 0 1-2-2m2 22a2 2 0 1 1 2-2 2 2 0 0 1-2 2m22-4v4h-4v-4Z"/><path fill="none" d="M0 0h32v32H0z"/></symbol></svg>