<svg xmlns="http://www.w3.org/2000/svg" xmlns:xlink="http://www.w3.org/1999/xlink" style="display: none" fill="currentColor"><symbol id="icon" viewBox="0 0 32 32"><path d="M9 21a1 1 0 0 1-1-1v-8a1 1 0 0 1 1-1h11.172a2 2 0 0 1 1.414.586L26 16l-4.414 4.414a2 2 0 0 1-1.414.586z"/><path d="M21 30H11c-4.963 0-9-4.037-9-9V11c0-4.963 4.037-9 9-9h10c4.963 0 9 4.037 9 9v10c0 4.963-4.037 9-9 9M11 4c-3.86 0-7 3.14-7 7v10c0 3.86 3.14 7 7 7h10c3.86 0 7-3.14 7-7V11c0-3.86-3.14-7-7-7z"/><path fill="none" d="M0 0h32v32H0z"/></symbol></svg>