<svg xmlns="http://www.w3.org/2000/svg" xmlns:xlink="http://www.w3.org/1999/xlink" style="display: none" fill="currentColor"><symbol id="icon" viewBox="0 0 32 32"><circle cx="7" cy="19" r="1"/><circle cx="16" cy="11" r="1"/><circle cx="25" cy="19" r="1"/><circle cx="10" cy="14" r="1"/><path d="M30 20h-2c0-1.262-.195-2.504-.579-3.693l1.904-.615C29.773 17.08 30 18.53 30 20m-.15-11.022-2.436 2.436A2 2 0 0 1 26 12a2.002 2.002 0 0 1-1.414-3.414l2.437-2.437A4 4 0 0 0 26 6c-2.206 0-4 1.795-4 4 0 .74.215 1.425.567 2.02l-4.548 4.548a3.95 3.95 0 0 0-2.02-.567c-2.205 0-4 1.794-4 4s1.795 4 4 4 4-1.795 4-4c0-.74-.214-1.424-.566-2.02l4.548-4.547a3.95 3.95 0 0 0 2.019.567c2.206 0 4-1.795 4-4a4 4 0 0 0-.15-1.023M16 22c-1.103 0-2-.897-2-2s.897-2 2-2 2 .898 2 2-.897 2-2 2M4 20H2C2 12.28 8.28 6 16 6c1.47 0 2.92.227 4.307.675l-.614 1.904A12 12 0 0 0 16 8C9.383 8 4 13.383 4 20"/><path fill="none" d="M0 0h32v32H0z"/></symbol></svg>