<svg xmlns="http://www.w3.org/2000/svg" xmlns:xlink="http://www.w3.org/1999/xlink" style="display: none" fill="currentColor"><symbol id="icon" viewBox="0 0 32 32"><path d="M30 8h-4.1c-.5-2.3-2.5-4-4.9-4s-4.4 1.7-4.9 4H2v2h14.1c.5 2.3 2.5 4 4.9 4s4.4-1.7 4.9-4H30zm-9 4c-1.7 0-3-1.3-3-3s1.3-3 3-3 3 1.3 3 3-1.3 3-3 3M2 24h4.1c.5 2.3 2.5 4 4.9 4s4.4-1.7 4.9-4H30v-2H15.9c-.5-2.3-2.5-4-4.9-4s-4.4 1.7-4.9 4H2zm9-4c1.7 0 3 1.3 3 3s-1.3 3-3 3-3-1.3-3-3 1.3-3 3-3"/><path fill="none" d="M0 0h32v32H0z"/></symbol></svg>