<svg xmlns="http://www.w3.org/2000/svg" xmlns:xlink="http://www.w3.org/1999/xlink" style="display: none" fill="currentColor"><symbol id="icon" viewBox="0 0 32 32"><path d="M16 2a14 14 0 1 0 14 14A14 14 0 0 0 16 2m-6 20H8V10h2Zm14-1a1 1 0 0 1-1.486.874l-9-5a1 1 0 0 1 0-1.748l9-5A1 1 0 0 1 24 11Z"/><path d="M22 19.301v-6.602L16.059 16z"/><path fill="none" d="M23 22a1 1 0 0 1-.486-.126l-9-5a1 1 0 0 1 0-1.748l9-5A1 1 0 0 1 24 11v10a1 1 0 0 1-1 1m-6.94-6L22 19.3v-6.6ZM10 22H8V10h2z"/><path fill="none" d="M0 0h32v32H0z"/></symbol></svg>