<svg xmlns="http://www.w3.org/2000/svg" xmlns:xlink="http://www.w3.org/1999/xlink" style="display: none" fill="currentColor"><symbol id="icon" viewBox="0 0 32 32"><path d="M6 24h2v2H6zm2 2h2v2H8zm2 2h2v2h-2zm0-4h2v2h-2zm-4 4h2v2H6zm15 2a1 1 0 0 1-.894-1.447l2-4a1 1 0 1 1 1.788.894l-2 4A1 1 0 0 1 21 30"/><path d="M24.8 9.136a8.994 8.994 0 0 0-17.6 0A6.497 6.497 0 0 0 8.5 22h8.882l-1.276 2.553a1 1 0 1 0 1.789.894L19.618 22H23.5a6.497 6.497 0 0 0 1.3-12.864M23.5 20h-15a4.498 4.498 0 0 1-.356-8.981l.816-.064.099-.812a6.994 6.994 0 0 1 13.883 0l.099.812.815.064A4.498 4.498 0 0 1 23.5 20"/><path fill="none" d="M0 0h32v32H0z"/></symbol></svg>