<svg xmlns="http://www.w3.org/2000/svg" xmlns:xlink="http://www.w3.org/1999/xlink" style="display: none" fill="currentColor"><symbol id="icon" viewBox="0 0 32 32"><path d="M28 20h-2v2h2v6H4v-6h2v-2H4a2 2 0 0 0-2 2v6a2 2 0 0 0 2 2h24a2 2 0 0 0 2-2v-6a2 2 0 0 0-2-2"/><circle cx="7" cy="25" r="1"/><path d="M16 22a1 1 0 0 1-.447-.105l-10-5 .894-1.79L16 19.883l9.553-4.776.894 1.789-10 5A1 1 0 0 1 16 22"/><path d="M16 16a1 1 0 0 1-.447-.105l-10-5a1 1 0 0 1 0-1.79l10-5a1 1 0 0 1 .894 0l10 5a1 1 0 0 1 0 1.79l-10 5A1 1 0 0 1 16 16m-7.764-6L16 13.882 23.764 10 16 6.118Z"/><path fill="none" d="M0 0h32v32H0z"/></symbol></svg>