<svg xmlns="http://www.w3.org/2000/svg" xmlns:xlink="http://www.w3.org/1999/xlink" style="display: none" fill="currentColor"><symbol id="icon" viewBox="0 0 32 32"><path d="M29.391 14.527 17.473 2.609A2.08 2.08 0 0 0 16 2c-.533 0-1.067.203-1.473.609L2.609 14.527C2.203 14.933 2 15.466 2 16s.203 1.067.609 1.473L14.526 29.39c.407.407.941.61 1.474.61s1.067-.203 1.473-.609L29.39 17.474c.407-.407.61-.94.61-1.474s-.203-1.067-.609-1.473M16 28.036 3.965 16 16 3.964 28.036 16z"/><path fill="none" d="M0 0h32v32H0z"/></symbol></svg>