<svg xmlns="http://www.w3.org/2000/svg" xmlns:xlink="http://www.w3.org/1999/xlink" style="display: none" fill="currentColor"><symbol id="icon" viewBox="0 0 32 32"><path d="M24 21c-.5 0-1-.2-1.4-.6l-3-3c-.4-.4-.6-.9-.6-1.4s.2-1 .6-1.4l3-3c.4-.4.9-.6 1.4-.6s1 .2 1.4.6l3 3c.4.4.6.9.6 1.4s-.2 1-.6 1.4l-3 3c-.4.4-.9.6-1.4.6m0-8-3 3 3 3 3-3zm-8 0c-.5 0-1-.2-1.4-.6l-3-3C11.2 9 11 8.5 11 8s.2-1 .6-1.4l3-3c.4-.4.9-.6 1.4-.6s1 .2 1.4.6l3 3c.4.4.6.9.6 1.4s-.2 1-.6 1.4l-3 3c-.4.4-.9.6-1.4.6m0-8-3 3 3 3 3-3zm0 24c-.5 0-1-.2-1.4-.6l-3-3c-.4-.4-.6-.9-.6-1.4s.2-1 .6-1.4l3-3c.4-.4.9-.6 1.4-.6s1 .2 1.4.6l3 3c.4.4.6.9.6 1.4s-.2 1-.6 1.4l-3 3c-.4.4-.9.6-1.4.6m0-8-3 3 3 3 3-3zm-8 0c-.5 0-1-.2-1.4-.6l-3-3C3.2 17 3 16.5 3 16s.2-1 .6-1.4l3-3c.4-.4.9-.6 1.4-.6s1 .2 1.4.6l3 3c.4.4.6.9.6 1.4s-.2 1-.6 1.4l-3 3c-.4.4-.9.6-1.4.6m0-8-3 3 3 3 3-3z"/><path fill="none" d="M0 0h32v32H0z"/></symbol></svg>