<svg xmlns="http://www.w3.org/2000/svg" xmlns:xlink="http://www.w3.org/1999/xlink" style="display: none" fill="currentColor"><symbol id="icon" viewBox="0 0 32 32"><path d="M30 26V14H13v12h5v2H2v2h28v-2h-5v-2Zm-5-2v-3h3v3Zm-2-3v3h-3v-3Zm-3-2v-3h3v3Zm8 0h-3v-3h3Zm-10-3v3h-3v-3Zm-3 8v-3h3v3Zm8 4h-3v-2h3ZM9.333 14.981A4 4 0 1 1 16 12h-2a2 2 0 1 0-3.333 1.49ZM11 2h2v4h-2zm-9 9h4v2H2zm2.222-5.364 1.414-1.414L8.464 7.05 7.05 8.464zM16.95 8.464 15.535 7.05l2.829-2.828 1.414 1.414z"/><path fill="none" d="M0 0h32v32H0z"/></symbol></svg>