<svg xmlns="http://www.w3.org/2000/svg" xmlns:xlink="http://www.w3.org/1999/xlink" style="display: none" fill="currentColor"><symbol id="icon" viewBox="0 0 32 32"><path d="M19 10a3 3 0 1 1 3-3 3.003 3.003 0 0 1-3 3m0-4a1 1 0 1 0 1 1 1 1 0 0 0-1-1m0 13a3 3 0 1 1 3-3 3.003 3.003 0 0 1-3 3m0-4a1 1 0 1 0 1 1 1 1 0 0 0-1-1m8 4a3 3 0 1 1 3-3 3.003 3.003 0 0 1-3 3m0-4a1 1 0 1 0 1 1 1 1 0 0 0-1-1m-8 13a3 3 0 1 1 3-3 3.003 3.003 0 0 1-3 3m0-4a1 1 0 1 0 1 1 1 1 0 0 0-1-1M12 2h2v28h-2zM7 28a3 3 0 1 1 3-3 3.003 3.003 0 0 1-3 3m0-4a1 1 0 1 0 1 1 1 1 0 0 0-1-1m0-5a3 3 0 1 1 3-3 3.003 3.003 0 0 1-3 3m0-4a1 1 0 1 0 1 1 1 1 0 0 0-1-1m0-5a3 3 0 1 1 3-3 3.003 3.003 0 0 1-3 3m0-4a1 1 0 1 0 1 1 1 1 0 0 0-1-1"/><path fill="none" d="M0 0h32v32H0z"/></symbol></svg>