<svg xmlns="http://www.w3.org/2000/svg" xmlns:xlink="http://www.w3.org/1999/xlink" style="display: none" fill="currentColor"><symbol id="icon" viewBox="0 0 32 32"><path d="M21 20v10l9-5z"/><circle cx="14" cy="14" r="2"/><path d="M14 20a6 6 0 1 1 6-6 6.007 6.007 0 0 1-6 6m0-10a4 4 0 1 0 4 4 4.005 4.005 0 0 0-4-4"/><path d="M25.951 12.91h-.006A12.05 12.05 0 1 0 17 25.605v-2.066a9.981 9.981 0 1 1 6.624-6.81l1.924.544A12 12 0 0 0 26 14q0-.55-.049-1.09"/><path fill="none" d="M0 0h32v32H0z"/></symbol></svg>