<svg xmlns="http://www.w3.org/2000/svg" xmlns:xlink="http://www.w3.org/1999/xlink" style="display: none" fill="currentColor"><symbol id="icon" viewBox="0 0 32 32"><path d="M30 18h-6a2 2 0 0 1-2-2V6a2 2 0 0 1 2-2h6v2h-6v10h6Z"/><circle cx="18" cy="4" r="2"/><path d="M10 20.184V12H8v8.184a3 3 0 1 0 2 0"/><path d="M9 30a6.993 6.993 0 0 1-5-11.89V7a5 5 0 0 1 10 0v11.11A6.993 6.993 0 0 1 9 30M9 4a3.003 3.003 0 0 0-3 3v11.983l-.332.299a5 5 0 1 0 6.664 0L12 18.983V7a3.003 3.003 0 0 0-3-3"/><path fill="none" d="M0 0h32v32H0z"/></symbol></svg>