<svg xmlns="http://www.w3.org/2000/svg" xmlns:xlink="http://www.w3.org/1999/xlink" style="display: none" fill="currentColor"><symbol id="icon" viewBox="0 0 32 32"><path d="M20.8 14H15V9.6C15 7.5 13.8 6 12 6h-1C9.5 6 9.2 7.5 9.1 8.4c0 .1 0 .3-.1.5l-.6 4.3-2 3.9H2v13h16.3c3.7 0 6.7-3 6.7-6.7v-5.1c0-2.4-1.9-4.3-4.2-4.3M4 28v-9h2v9zm19-4.7c0 2.6-2.1 4.7-4.7 4.7H8v-9.8l2.4-4.5.6-4.5c0-.2.1-.4.1-.5 0-.2.1-.5.1-.6h.8c1 0 1 1.4 1 1.6V16h7.8c1.2 0 2.2 1 2.2 2.2zM27 9h-6V4.4c0-2-1.2-3.4-3-3.4h-.8c-1.8 0-2 1.9-2.1 2.6L14.9 6h2l.1-1 .1-1.2c0-.5.1-.7.1-.8h.8c.9 0 1 .9 1 1.4V11h8c1.2 0 2 .8 2 2v5c0 1.7-.9 3.4-2.1 4.2l1.1 1.7c1.8-1.2 2.9-3.5 2.9-5.9v-5c.1-2.4-1.5-4-3.9-4"/><path fill="none" d="M0 0h32v32H0z"/></symbol></svg>