<svg xmlns="http://www.w3.org/2000/svg" xmlns:xlink="http://www.w3.org/1999/xlink" style="display: none" fill="currentColor"><symbol id="icon" viewBox="0 0 32 32"><path d="M20.8 14H15V9.6C15 7.5 13.8 6 12 6h-1C9.5 6 9.2 7.5 9.1 8.4c0 .1 0 .3-.1.5l-.6 4.3L7 16v14h11.3c3.7 0 6.7-3 6.7-6.7v-5.1c0-2.3-1.9-4.2-4.2-4.2M2 30V17h3v13zM26.8 9H21V4.6C21 2.5 19.8 1 18 1h-1c-1.5 0-1.8 1.5-1.9 2.3 0 .2 0 .3-.1.5l-.1 1.1c1.3 1 2.1 2.6 2.1 4.6V12h3.8c3.4 0 6.2 2.8 6.2 6.2v5.1c0 .4 0 .8-.1 1.1 2.4-1 4.1-3.4 4.1-6.1v-5.1c0-2.3-1.9-4.2-4.2-4.2"/><path fill="none" d="M0 0h32v32H0z"/></symbol></svg>