<svg xmlns="http://www.w3.org/2000/svg" xmlns:xlink="http://www.w3.org/1999/xlink" style="display: none" fill="currentColor"><symbol id="icon" viewBox="0 0 32 32"><circle cx="16" cy="24" r="1"/><path d="M30 12c0-1.824-1.234-3.35-2.906-3.829L7.209 2.207A4 4 0 0 0 6 2C3.794 2 2 3.794 2 6c0 .603.144 1.169.384 1.682l8.101 18.678A6.01 6.01 0 0 0 16 30a6 6 0 0 0 5.242-3.089l8.002-12.59A3.97 3.97 0 0 0 30 12m-14 6a6 6 0 0 0-5.447 3.5L5.538 9.953c.153.018.304.047.462.047 2.206 0 4-1.794 4-4 0-.32-.047-.625-.118-.923L23.27 9.093A3.98 3.98 0 0 0 22 12c0 2.147 1.703 3.89 3.827 3.982l-4.06 6.381C21.053 19.85 18.74 18 16 18m12-6c0 1.103-.897 2-2 2s-2-.897-2-2 .897-2 2-2 2 .898 2 2M6 4c1.103 0 2 .898 2 2s-.897 2-2 2-2-.897-2-2 .897-2 2-2m10 24c-2.206 0-4-1.794-4-4s1.794-4 4-4 4 1.794 4 4-1.794 4-4 4"/><path fill="none" d="M0 0h32v32H0z"/></symbol></svg>