<svg xmlns="http://www.w3.org/2000/svg" xmlns:xlink="http://www.w3.org/1999/xlink" style="display: none" fill="currentColor"><symbol id="icon" viewBox="0 0 32 32"><path d="m23.1 16 6.3-6.3c.8-.8.8-2 0-2.8l-4.2-4.2c-.8-.8-2-.8-2.8 0L16 8.9 9.7 2.6c-.8-.8-2-.8-2.8 0L2.6 6.8c-.8.8-.8 2 0 2.8L8.9 16 2 22.9V30h7.1l6.9-6.9 6.3 6.3c.8.8 2 .8 2.8 0l4.2-4.2c.8-.8.8-2 0-2.8zm.7-12L28 8.2l-6.3 6.3-4.2-4.2zM8.2 28H4v-4.2l6.3-6.3 4.2 4.2zm15.6 0L4 8.2 8.2 4l3.5 3.5-2.1 2.1L11 11l2.1-2.1 4.2 4.2-2.1 2.1 1.4 1.4 2.1-2.1 4.2 4.2-1.9 2.2 1.4 1.4 2.1-2.1 3.5 3.5z"/><path fill="none" d="M0 0h32v32H0z"/></symbol></svg>