<svg xmlns="http://www.w3.org/2000/svg" xmlns:xlink="http://www.w3.org/1999/xlink" style="display: none" fill="currentColor"><symbol id="icon" viewBox="0 0 32 32"><path d="M27.85 29H30l-6-15h-2.35l-6 15h2.15l1.6-4h6.85Zm-7.65-6 2.62-6.56L25.45 23ZM18 7V5h-7V2H9v3H2v2h10.74a14.7 14.7 0 0 1-3.19 6.18A13.5 13.5 0 0 1 7.26 9h-2.1a16.5 16.5 0 0 0 3 5.58A16.8 16.8 0 0 1 3 18l.75 1.86A18.5 18.5 0 0 0 9.53 16a16.9 16.9 0 0 0 5.76 3.84L16 18a14.5 14.5 0 0 1-5.12-3.37A17.64 17.64 0 0 0 14.8 7Z"/><path fill="none" d="M0 0h32v32H0z"/></symbol></svg>