<svg xmlns="http://www.w3.org/2000/svg" xmlns:xlink="http://www.w3.org/1999/xlink" style="display: none" fill="currentColor"><symbol id="icon" viewBox="0 0 32 32"><path d="M23 17v-2h-2.1c-.1-.6-.4-1.2-.7-1.8l1.5-1.5-1.4-1.4-1.5 1.5c-.5-.3-1.1-.6-1.8-.7V9h-2v2.1c-.6.1-1.2.4-1.8.7l-1.5-1.5-1.4 1.4 1.5 1.5c-.3.5-.6 1.1-.7 1.8H9v2h2.1c.1.6.4 1.2.7 1.8l-1.5 1.5 1.4 1.4 1.5-1.5c.5.3 1.1.6 1.8.7V23h2v-2.1c.6-.1 1.2-.4 1.8-.7l1.5 1.5 1.4-1.4-1.5-1.5c.3-.5.6-1.1.7-1.8zm-7 2c-1.7 0-3-1.3-3-3s1.3-3 3-3 3 1.3 3 3-1.3 3-3 3"/><path d="M16 2v2c6.6 0 12 5.4 12 12s-5.4 12-12 12v2c7.7 0 14-6.3 14-14S23.7 2 16 2M8.2 25.1 7 26.7c1.2 1 2.6 1.9 4.2 2.4l.7-1.9c-1.4-.5-2.6-1.2-3.7-2.1m-4-7.1-2 .4c.3 1.6.9 3.2 1.7 4.6l1.7-1c-.7-1.2-1.2-2.6-1.4-4m1.4-8L3.9 9c-.8 1.4-1.4 3-1.6 4.6l2 .3c.1-1.4.6-2.7 1.3-3.9m6.2-5.2-.7-1.9C9.6 3.5 8.2 4.3 7 5.3l1.3 1.5c1-.8 2.2-1.5 3.5-2"/><path fill="none" d="M0 0h32v32H0z"/></symbol></svg>