<svg xmlns="http://www.w3.org/2000/svg" xmlns:xlink="http://www.w3.org/1999/xlink" style="display: none" fill="currentColor"><symbol id="icon" viewBox="0 0 32 32"><path d="M24 30v-4.1c2.3-.5 4-2.5 4-4.9s-1.7-4.4-4-4.9V2h-2v14.1c-2.3.5-4 2.5-4 4.9s1.7 4.4 4 4.9V30zm-4-9c0-1.7 1.3-3 3-3s3 1.3 3 3-1.3 3-3 3-3-1.3-3-3M8 2v4.1c-2.3.5-4 2.5-4 4.9s1.7 4.4 4 4.9V30h2V15.9c2.3-.5 4-2.5 4-4.9s-1.7-4.4-4-4.9V2zm4 9c0 1.7-1.3 3-3 3s-3-1.3-3-3 1.3-3 3-3 3 1.3 3 3"/><path fill="none" d="M0 0h32v32H0z"/></symbol></svg>