<svg xmlns="http://www.w3.org/2000/svg" xmlns:xlink="http://www.w3.org/1999/xlink" style="display: none" fill="currentColor"><symbol id="icon" viewBox="0 0 32 32"><circle cx="16" cy="22.5" r="1.5"/><path d="M17 19h-2v-4h2c1.103 0 2-.897 2-2s-.897-2-2-2h-2c-1.103 0-2 .897-2 2v.5h-2V13c0-2.206 1.794-4 4-4h2c2.206 0 4 1.794 4 4s-1.794 4-4 4z"/><path d="M29.391 14.527 17.473 2.609A2.08 2.08 0 0 0 16 2c-.533 0-1.067.203-1.473.609L2.609 14.527C2.203 14.933 2 15.466 2 16s.203 1.067.609 1.473L14.526 29.39c.407.407.941.61 1.474.61s1.067-.203 1.473-.609L29.39 17.474c.407-.407.61-.94.61-1.474s-.203-1.067-.609-1.473M16 28.036 3.965 16 16 3.964 28.036 16z"/><path fill="none" d="M0 0h32v32H0z"/></symbol></svg>