<svg xmlns="http://www.w3.org/2000/svg" xmlns:xlink="http://www.w3.org/1999/xlink" style="display: none" fill="currentColor"><symbol id="icon" viewBox="0 0 32 32"><path d="M30 19.4 28.6 18 25 21.6 21.4 18 20 19.4l3.6 3.6-3.6 3.6 1.4 1.4 3.6-3.6 3.6 3.6 1.4-1.4-3.6-3.6z"/><path d="M16 26h-4v-8h4v-2h-4c-1.1 0-2 .9-2 2v8H6V6h4v4c0 1.1.9 2 2 2h8c1.1 0 2-.9 2-2V6.4l4 4V16h2v-6c0-.3-.1-.5-.3-.7l-5-5c-.2-.2-.4-.3-.7-.3H6c-1.1 0-2 .9-2 2v20c0 1.1.9 2 2 2h10zM12 6h8v4h-8z"/><path fill="none" d="M0 0h32v32H0z"/></symbol></svg>