<svg xmlns="http://www.w3.org/2000/svg" xmlns:xlink="http://www.w3.org/1999/xlink" style="display: none" fill="currentColor"><symbol id="icon" viewBox="0 0 32 32"><path fill="none" d="M28 9V7h-3V5h-2v2h-3v2h3v3h-3v2h3v2h2v-2h3v-2h-3V9z"/><path d="M31 3H17a1 1 0 0 0-1 1v13a1 1 0 0 0 1 1h14a1 1 0 0 0 1-1V4a1 1 0 0 0-1-1m-3 6h-3v3h3v2h-3v2h-2v-2h-3v-2h3V9h-3V7h3V5h2v2h3ZM15 30h-2v-4a2.947 2.947 0 0 0-3-3H6a2.947 2.947 0 0 0-3 3v4H1v-4a4.95 4.95 0 0 1 5-5h4a4.95 4.95 0 0 1 5 5ZM8 11a3 3 0 0 1 0 6 3 3 0 0 1 0-6m0-2a5 5 0 0 0 0 10A5 5 0 0 0 8 9"/><path fill="none" d="M0 0h32v32H0z"/></symbol></svg>