<svg xmlns="http://www.w3.org/2000/svg" xmlns:xlink="http://www.w3.org/1999/xlink" style="display: none" fill="currentColor"><symbol id="icon" viewBox="0 0 32 32"><path d="M19 3h10c1.104 0 2 .897 2 2v6a2 2 0 0 1-2 2h-2.423l-1.731 3-1.733-1 2.31-4H29V5H19v6h3v2h-3c-1.103 0-2-.896-2-2V5c0-1.103.897-2 2-2m-4 27h-2v-5a3.003 3.003 0 0 0-3-3H6a3.003 3.003 0 0 0-3 3v5H1v-5a5.006 5.006 0 0 1 5-5h4a5.006 5.006 0 0 1 5 5zM8 10a3 3 0 1 1 0 6 3 3 0 0 1 0-6m0-2a5 5 0 1 0 0 10A5 5 0 0 0 8 8"/><path fill="none" d="M32 32H0V0h32z"/></symbol></svg>