<svg xmlns="http://www.w3.org/2000/svg" xmlns:xlink="http://www.w3.org/1999/xlink" style="display: none" fill="currentColor"><symbol id="icon" viewBox="0 0 32 32"><path d="m25.334 11.95 1.206-1.206a1.18 1.18 0 0 1 1.259-.258l1.47.586A1.17 1.17 0 0 1 30 12.15v2.692A1.17 1.17 0 0 1 28.823 16l-.05-.001C18.478 15.358 16.4 6.636 16.007 3.297a1.17 1.17 0 0 1 1.032-1.29A1 1 0 0 1 17.175 2h2.6a1.16 1.16 0 0 1 1.076.732l.587 1.47a1.16 1.16 0 0 1-.253 1.26l-1.206 1.206s.694 4.7 5.355 5.282M16 30h-2v-5a3.003 3.003 0 0 0-3-3H7a3.003 3.003 0 0 0-3 3v5H2v-5a5.006 5.006 0 0 1 5-5h4a5.006 5.006 0 0 1 5 5ZM9 10a3 3 0 1 1-3 3 3 3 0 0 1 3-3m0-2a5 5 0 1 0 5 5 5 5 0 0 0-5-5"/><path fill="none" d="M0 0h32v32H0z"/></symbol></svg>