<svg xmlns="http://www.w3.org/2000/svg" xmlns:xlink="http://www.w3.org/1999/xlink" style="display: none" fill="currentColor"><symbol id="icon" viewBox="0 0 32 32"><path d="M19 20h7v-2h-9v10a2.003 2.003 0 0 0 2 2h3v-2h-3zm-7 10H9v-2h3V15.566l-3.515-2.109 1.03-1.714 3.514 2.108A2.01 2.01 0 0 1 14 15.566V28a2 2 0 0 1-2 2M30 6.41 28.59 5 25 8.59 21.41 5 20 6.41 23.59 10 20 13.59 21.41 15 25 11.41 28.59 15 30 13.59 26.41 10z"/><path d="M17.308 2.285A9.5 9.5 0 0 0 15 2a8.03 8.03 0 0 0-6.921 4.001L8 6a6 6 0 0 0 0 12v-2a4 4 0 0 1 0-8 3 3 0 0 1 .387.04l.863.113.309-.667A6.02 6.02 0 0 1 15 4c.608 0 1.182.085 1.731.215z"/><path fill="none" d="M0 0h32v32H0z"/></symbol></svg>