<svg xmlns="http://www.w3.org/2000/svg" xmlns:xlink="http://www.w3.org/1999/xlink" style="display: none" fill="currentColor"><symbol id="icon" viewBox="0 0 32 32"><path d="m13 8-5 5 1.41 1.41L12 11.83V28H9v2h3a2 2 0 0 0 2-2V11.83l2.59 2.58L18 13z"/><path d="M22 30h-3a2 2 0 0 1-2-2V17h6a4 4 0 0 0 3.981-4.396A4.15 4.15 0 0 0 22.785 9h-1.583l-.177-.779C20.452 5.696 18.031 4 15 4a6.02 6.02 0 0 0-5.442 3.486l-.308.667-.863-.114A3 3 0 0 0 8 8a4 4 0 0 0 0 8v2A6 6 0 0 1 8 6l.079.001A8.03 8.03 0 0 1 15 2c3.679 0 6.692 1.978 7.752 5h.033a6.164 6.164 0 0 1 6.187 5.414A6 6 0 0 1 23 19h-4v9h3z"/><path fill="none" d="M0 0h32v32H0z"/></symbol></svg>