<svg xmlns="http://www.w3.org/2000/svg" xmlns:xlink="http://www.w3.org/1999/xlink" style="display: none" fill="currentColor"><symbol id="icon" viewBox="0 0 32 32"><path d="M18.586 18.414 16 15.834l-2.588 2.582L12 17l4-4 4 4z"/><path d="M1.586 17.414C1.196 17.024 1 16.512 1 16s.195-1.024.586-1.414l13-13C14.976 1.196 15.488 1 16 1s1.024.195 1.414.586l13 13c.39.39.586.902.586 1.414s-.195 1.024-.586 1.414l-13 13c-.39.39-.902.586-1.414.586s-1.024-.195-1.414-.586zM16 3 3 16l13 13 13-13z"/><path fill="none" d="M0 0h32v32H0z"/></symbol></svg>