<svg xmlns="http://www.w3.org/2000/svg" xmlns:xlink="http://www.w3.org/1999/xlink" style="display: none" fill="currentColor"><symbol id="icon" viewBox="0 0 32 32"><path d="M23.414 22 10 8.586V2H2v8h6.586L22 23.414V30h8v-8ZM8 8H4V4h4Zm20 20h-4v-4h4Z"/><path d="M30 6a3.992 3.992 0 0 0-7.858-1H13v2h9.142A4 4 0 0 0 25 9.858V19h2V9.858A3.996 3.996 0 0 0 30 6m-4 2a2 2 0 1 1 2-2 2 2 0 0 1-2 2m-7 17H9.858A4 4 0 0 0 7 22.142V13H5v9.142A3.992 3.992 0 1 0 9.858 27H19ZM6 28a2 2 0 1 1 2-2 2 2 0 0 1-2 2"/><path fill="none" d="M0 0h32v32H0z"/></symbol></svg>