<svg xmlns="http://www.w3.org/2000/svg" xmlns:xlink="http://www.w3.org/1999/xlink" style="display: none" fill="currentColor"><symbol id="icon" viewBox="0 0 32 32"><path d="m25.707 17.293-5-5A1 1 0 0 0 20 12h-6a2 2 0 0 0-2 2v14a2 2 0 0 0 2 2h10a2 2 0 0 0 2-2V18a1 1 0 0 0-.293-.707M23.586 18H20v-3.586ZM14 28V14h4v4a2 2 0 0 0 2 2h4v8Z"/><path d="M8 27H4a2 2 0 0 1-2-2V5a2 2 0 0 1 2-2h7.586A2 2 0 0 1 13 3.586L16.414 7H28a2 2 0 0 1 2 2v8h-2V9H15.586l-4-4H4v20h4Z"/><path fill="none" d="M0 0h32v32H0z"/></symbol></svg>