<svg xmlns="http://www.w3.org/2000/svg" xmlns:xlink="http://www.w3.org/1999/xlink" style="display: none" fill="currentColor"><symbol id="icon" viewBox="0 0 32 32"><path fill="none" d="M14.875 8h2.25v11h-2.25ZM16 25a1.5 1.5 0 1 1 1.5-1.5A1.5 1.5 0 0 1 16 25"/><path d="M30.85 15.449 23.888 3.532A1.07 1.07 0 0 0 22.964 3H9.036a1.07 1.07 0 0 0-.923.532L1.15 15.45a1.09 1.09 0 0 0 0 1.102l6.964 11.917a1.07 1.07 0 0 0 .923.532h13.928a1.07 1.07 0 0 0 .923-.532L30.85 16.55a1.09 1.09 0 0 0 0-1.102M14.876 8h2.25v11h-2.25ZM16 25a1.5 1.5 0 1 1 1.5-1.5A1.5 1.5 0 0 1 16 25"/><path fill="none" d="M0 0h32v32H0z"/></symbol></svg>