<svg xmlns="http://www.w3.org/2000/svg" xmlns:xlink="http://www.w3.org/1999/xlink" style="display: none" fill="currentColor"><symbol id="icon" viewBox="0 0 32 32"><path fill="none" d="M16 20a1.5 1.5 0 1 1 1.5-1.5A1.5 1.5 0 0 1 16 20m-1.125-5h2.25V6h-2.25Z"/><path d="M27.35 4H4.65l-.001.003L15.998 25.83h.004l11.35-21.826ZM14.874 6h2.25v9h-2.25ZM16 20a1.5 1.5 0 1 1 1.5-1.5A1.5 1.5 0 0 1 16 20"/><path d="M29.855 2.481a1 1 0 0 1 .032.98l-13 25a1 1 0 0 1-1.774 0l-13-25A1 1 0 0 1 3 2h26a1 1 0 0 1 .855.481M4.649 4.003 15.998 25.83h.004l11.35-21.826L27.348 4H4.651Z"/><path fill="none" d="M0 0h32v32H0z"/></symbol></svg>