<svg xmlns="http://www.w3.org/2000/svg" xmlns:xlink="http://www.w3.org/1999/xlink" style="display: none" fill="currentColor"><symbol id="icon" viewBox="0 0 32 32"><path d="M26.002 4H5.998A2 2 0 0 0 4 5.998v20.004A2 2 0 0 0 5.998 28h20.004A2 2 0 0 0 28 26.002V5.998A2 2 0 0 0 26.002 4M14.875 8h2.25v10h-2.25ZM16 24a1.5 1.5 0 1 1 1.5-1.5A1.5 1.5 0 0 1 16 24"/><path fill="none" d="M14.875 8h2.25v10h-2.25ZM16 24a1.5 1.5 0 1 1 1.5-1.5A1.5 1.5 0 0 1 16 24"/><path fill="none" d="M0 0h32v32H0z"/></symbol></svg>