<svg xmlns="http://www.w3.org/2000/svg" xmlns:xlink="http://www.w3.org/1999/xlink" style="display: none" fill="currentColor"><symbol id="icon" viewBox="0 0 32 32"><path d="M29 23h-4v-2h2.382L19.5 5.236l-1.105 2.211-1.79-.894 2-4c.17-.339.532-.553.895-.553s.725.214.894.553l9.5 19A1 1 0 0 1 29 23"/><circle cx="14" cy="25" r="1.25"/><path d="M13 15h2v7h-2z"/><path d="M25 30H3a1 1 0 0 1-.886-1.464l11-21c.173-.33.53-.536.886-.536s.713.206.886.536l11 21A1 1 0 0 1 25 30M4.653 28h18.694L14 10.155z"/><path fill="none" d="M0 0h32v32H0z"/></symbol></svg>