<svg xmlns="http://www.w3.org/2000/svg" xmlns:xlink="http://www.w3.org/1999/xlink" style="display: none" fill="currentColor"><symbol id="icon" viewBox="0 0 32 32"><path d="M17 28V17h1a2 2 0 0 0 2-2v-4a2 2 0 0 0-2-2h-4a2 2 0 0 0-2 2v4a2 2 0 0 0 2 2h1v11H2v2h28v-2Zm-3-17h4l.002 4H14Z"/><path d="M9.333 18.217a7 7 0 0 1 0-10.434l1.333 1.49a5 5 0 0 0 0 7.453Zm13.334 0-1.334-1.49a5 5 0 0 0 0-7.454l1.334-1.49a7 7 0 0 1 0 10.434"/><path d="M6.4 21.8a11.002 11.002 0 0 1 0-17.6l1.2 1.6a9 9 0 0 0 0 14.401Zm19.2 0-1.2-1.6a9 9 0 0 0 0-14.401l1.2-1.6a11.002 11.002 0 0 1 0 17.601"/><path fill="none" d="M0 0h32v32H0z"/></symbol></svg>