<svg xmlns="http://www.w3.org/2000/svg" xmlns:xlink="http://www.w3.org/1999/xlink" style="display: none" fill="currentColor"><symbol id="icon" viewBox="0 0 32 32"><path d="m20 20.18-1.59-1.59L17 20l3 3 5-5-1.41-1.41z"/><path d="M15 23h-4a1 1 0 0 1-1-1V10a1 1 0 0 1 1-1h10a1 1 0 0 1 1 1v6h-2v-5h-8v10h3z"/><path d="M16 1a1 1 0 0 0-.504.136l-12 7A1 1 0 0 0 3 9v14a1 1 0 0 0 .496.864l12 7a1 1 0 0 0 1.008 0l11-6.417-1.008-1.727L16 28.842 5 22.426V9.575l11-6.417 11 6.416V17h2V9a1 1 0 0 0-.496-.864l-12-7A1 1 0 0 0 16 1"/><path fill="none" d="M0 0h32v32H0z"/></symbol></svg>