<svg xmlns="http://www.w3.org/2000/svg" xmlns:xlink="http://www.w3.org/1999/xlink" style="display: none" fill="currentColor"><symbol id="icon" viewBox="0 0 32 32"><path d="M6 30h20a2 2 0 0 0 2-2v-6a2 2 0 0 0-2-2H6a2 2 0 0 0-2 2v6a2 2 0 0 0 2 2m0-8h20v6H6Z"/><circle cx="9" cy="25" r="1"/><circle cx="16" cy="14.5" r="1.5"/><path d="M10.783 10.333a7 7 0 0 1 10.434 0l-1.49 1.333a5 5 0 0 0-7.453 0Z"/><path d="M7.2 7.4a11.002 11.002 0 0 1 17.6 0l-1.6 1.2a9 9 0 0 0-14.401 0Z"/><path fill="none" d="M0 0h32v32H0z"/></symbol></svg>