<svg xmlns="http://www.w3.org/2000/svg" xmlns:xlink="http://www.w3.org/1999/xlink" style="display: none" fill="currentColor"><symbol id="icon" viewBox="0 0 32 32"><path d="M25 28a5.006 5.006 0 0 1-5-5h2a3 3 0 1 0 3-3H6v-2h19a5 5 0 0 1 0 10m-2-13H10v-2h13a3 3 0 1 0-3-3h-2a5 5 0 1 1 5 5"/><path d="M11 23h2v2h-2zm2 2h2v2h-2zm2 2h2v2h-2zm0-4h2v2h-2zm-4 4h2v2h-2zM6 4h2v2H6zm2 2h2v2H8zm2 2h2v2h-2zm0-4h2v2h-2zM6 8h2v2H6zM2 26h2v2H2zm2 2h2v2H4zm2 2h2v2H6zm0-4h2v2H6zm-4 4h2v2H2z"/><path fill="none" d="M0 0h32v32H0z"/></symbol></svg>