<svg xmlns="http://www.w3.org/2000/svg" xmlns:xlink="http://www.w3.org/1999/xlink" style="display: none" fill="currentColor"><symbol id="icon" viewBox="0 0 32 32"><path d="m21.684 19.051-2.517.84L13 15.486V7.369l2.555-1.704-1.11-1.664L12 5.631l-2.445-1.63-1.11 1.664L11 7.369v6.688l-5-3.571V8H4v2.279l-2.316.772.632 1.898 2.517-.839 5.447 3.891-5.447 3.89-2.517-.84-.632 1.898L4 21.721V24h2v-2.485l5-3.571v6.687l-2.555 1.704 1.11 1.664L12 26.368l2.445 1.631 1.11-1.664L13 24.631v-6.688l5 3.572V24h2v-2.279l2.316-.772z"/><path fill="none" d="M23.75 10h-1.5V6h1.5ZM23 11a1 1 0 1 0 1 1 1 1 0 0 0-1-1"/><path d="M29.912 13.936 23.628 2.37a.718.718 0 0 0-1.256 0l-6.283 11.564A.72.72 0 0 0 16.72 15h12.56a.72.72 0 0 0 .631-1.065M22.25 6h1.5v4h-1.5Zm.75 7a1 1 0 1 1 1-1 1 1 0 0 1-1 1"/><path fill="none" d="M0 0h32v32H0z"/></symbol></svg>