<svg xmlns="http://www.w3.org/2000/svg" xmlns:xlink="http://www.w3.org/1999/xlink" style="display: none" fill="currentColor"><symbol id="icon" viewBox="0 0 32 32"><path d="M16 27c-3.6 0-7.1-1.8-9.2-5H12v-2H4v8h2v-3.7c2.5 3 6.1 4.7 10 4.7zm15-4v-2h-2.1c-.1-.6-.4-1.2-.7-1.8l1.5-1.5-1.4-1.4-1.5 1.5c-.5-.3-1.1-.6-1.8-.7V15h-2v2.1c-.6.1-1.2.4-1.8.7l-1.5-1.5-1.4 1.4 1.5 1.5c-.3.5-.6 1.1-.7 1.8H17v2h2.1c.1.6.4 1.2.7 1.8l-1.5 1.5 1.4 1.4 1.5-1.5c.5.3 1.1.6 1.8.7V29h2v-2.1c.6-.1 1.2-.4 1.8-.7l1.5 1.5 1.4-1.4-1.5-1.5c.3-.5.6-1.1.7-1.8zm-7 2c-1.7 0-3-1.3-3-3s1.3-3 3-3 3 1.3 3 3-1.3 3-3 3m-4-15h5.2C21.9 4.9 15.1 3.5 10 6.8c-3.1 2-5 5.5-5 9.2H3C3 8.8 8.8 3 16 3c3.9 0 7.5 1.7 10 4.7V4h2v8h-8z"/><path fill="none" d="M0 0h32v32H0z"/></symbol></svg>