<svg xmlns="http://www.w3.org/2000/svg" xmlns:xlink="http://www.w3.org/1999/xlink" style="display: none" fill="currentColor"><symbol id="icon" viewBox="0 0 32 32"><path d="M27 3h-8c-1.103 0-2 .898-2 2v22c0 1.103.897 2 2 2h8c1.103 0 2-.897 2-2V5c0-1.102-.897-2-2-2m0 6.92L20.85 5H27zM26.4 12 19 17.92V6.08zm.6 2.08.001 11.84-7.4-5.92zm-8 8L25.15 27H19zM13 3H5c-1.103 0-2 .898-2 2v22c0 1.103.897 2 2 2h8c1.103 0 2-.897 2-2V5c0-1.102-.897-2-2-2m0 6.92L6.85 5H13zM12.4 12 5 17.92V6.08zm.6 2.08.001 11.84-7.4-5.92zm-8 8L11.15 27H5z"/><path fill="none" d="M0 0h32v32H0z"/></symbol></svg>