<svg xmlns="http://www.w3.org/2000/svg" xmlns:xlink="http://www.w3.org/1999/xlink" style="display: none" fill="currentColor"><symbol id="icon" viewBox="0 0 32 32"><path d="M21.448 20A10.86 10.86 0 0 0 24 13a11 11 0 1 0-11 11 10.86 10.86 0 0 0 7-2.552L27.586 29 29 27.586ZM13 22a9 9 0 1 1 9-9 9.01 9.01 0 0 1-9 9"/><path d="M10 12H8v-2a2 2 0 0 1 2-2h2v2h-2Zm8 0h-2v-2h-2V8h2a2 2 0 0 1 2 2Zm-6 6h-2a2 2 0 0 1-2-2v-2h2v2h2Zm4 0h-2v-2h2v-2h2v2a2 2 0 0 1-2 2"/><path fill="none" d="M0 0h32v32H0z"/></symbol></svg>