<svg xmlns="http://www.w3.org/2000/svg" xmlns:xlink="http://www.w3.org/1999/xlink" style="display: none" fill="currentColor"><symbol id="icon" viewBox="0 0 32 32"><path d="M30 22h-5v-2h5v-3h-3c-1.103 0-2-.897-2-2v-3c0-1.103.897-2 2-2h5v2h-5v3h3c1.103 0 2 .897 2 2v3c0 1.103-.897 2-2 2m-9 0h-3c-1.103 0-2-.897-2-2v-8c0-1.103.897-2 2-2h3c1.103 0 2 .897 2 2v8c0 1.103-.897 2-2 2m-3-10v8h3v-8zm-6.054-2-4 12h2.108l4-12zM6 22H0v-2.303L3.798 14H0v-2h6v2.303L2.202 20H6z"/><path fill="none" d="M0 0h32v32H0z"/></symbol></svg>