<svg xmlns="http://www.w3.org/2000/svg" width="24" height="24" viewBox="32.332 35.2536 120.334 116.9674">
  <path
     d="M129.333 46.0642V46.0334V46.018V46.0642ZM129.379 46.0334V46.018L129.425 45.9872L129.471 46.018L129.379 46.0334ZM129.594 45.772V45.7566V45.7259L129.625 45.7566L129.594 45.772ZM130.685 46.0642L130.731 46.1872H130.639V46.0642H130.731H130.685ZM130.792 46.1103H130.823V46.1872H130.777L130.792 46.1103ZM130.854 46.1103V46.1872L130.792 46.1103H130.854ZM130.024 45.8488L130.132 45.8796L129.932 46.018L129.871 45.772L130.024 45.8488ZM130.316 46.0334L130.024 46.018V45.9872L130.316 45.9104V46.0334ZM130.976 46.1103H131.022H130.93L130.976 46.0642V46.1103ZM130.577 45.9872V46.1872H130.377L130.516 45.9258L130.577 45.9872ZM130.9 46.0334L130.93 46.0642H130.9V46.0334ZM130.9 46.018L130.854 46.0334L130.823 45.9872L130.854 45.9258L130.9 46.018ZM131.944 46.264L132.036 46.3563L132.205 46.4024L131.944 46.3563L131.775 46.2334L131.944 46.264ZM132.512 46.3102H132.466H132.405L132.512 46.264V46.3102ZM131.821 46.018L131.698 46.2334H131.437L131.161 46.1103L131.821 46.018ZM133.081 46.3563L133.004 46.3102L133.05 46.2948L133.081 46.3102V46.3563ZM133.342 46.3102H133.234L133.342 46.264V46.3102ZM133.587 46.2948H133.541L133.587 46.2334L133.664 46.264L133.587 46.2948ZM133.772 46.1872V46.2948L133.664 46.2334L133.772 46.1872ZM133.787 46.1872V46.1103H133.818L133.787 46.1872ZM134.647 45.8796L134.693 46.0334L134.202 46.2948L134.048 46.3102L134.647 45.8796ZM135.492 45.8488L135.461 45.9104L135.415 45.9258V45.8796L135.492 45.8488ZM135.492 45.772V45.7566L135.538 45.772H135.492ZM135.016 46.0334L135.231 45.9104L135.123 45.7259L135.461 45.7566L135.154 46.0642H134.693L135.016 46.0334ZM135.907 45.7566L135.86 45.772L135.799 45.7566H135.845H135.907ZM136.06 45.7566L136.014 45.772L135.907 45.7566L135.953 45.7259L136.06 45.7566ZM135.661 45.649L135.738 45.7259H135.599V45.6182L135.661 45.649ZM135.799 45.6182L135.845 45.6951L135.768 45.7259L135.738 45.6182H135.799ZM137.166 45.7259H137.105V45.6951L137.166 45.7259ZM137.043 45.649V45.7259L136.997 45.6182L137.043 45.649ZM138.41 45.5414H138.379V45.5106H138.41V45.5414ZM149.714 44.0959H149.776L149.822 44.2035L149.714 44.1574V44.0959ZM138.518 45.403L138.564 45.4644L138.518 45.4952V45.403ZM137.304 45.3415L137.212 45.3107L137.304 45.2646V45.3107V45.3415ZM150.313 43.8499V43.9267H150.221L150.313 43.8346V43.8499ZM136.659 45.157H136.767L136.797 45.3415L136.905 45.3876L136.92 45.4644L136.122 45.5106L136.306 45.2338L136.659 45.157ZM138.518 45.3415V45.403H138.456V45.3415H138.518ZM137.504 45.2031L137.55 45.2338L137.458 45.2646L137.427 45.2031H137.504ZM149.622 43.9267L149.714 44.0036L149.637 44.0344H149.622V43.9267ZM137.688 45.157V45.2031L137.627 45.157H137.688ZM138.456 45.2646L138.379 45.3415L138.456 45.2031V45.2646ZM149.514 43.9575V44.0344L149.776 44.2804L149.514 44.1574V43.9575ZM137.581 45.157H137.55L137.581 45.1415V45.157ZM150.221 43.7423L150.129 43.896L150.098 43.6807L150.16 43.6962L150.221 43.7423ZM138.302 45.2338L138.349 45.2646L138.134 45.4644L138.149 45.2646L138.302 45.2338ZM149.376 43.896L149.438 43.9575L149.361 44.0036L149.33 43.9267L149.376 43.896ZM138.226 45.157H138.21V45.1415H138.226V45.157ZM138.103 45.0954V45.2031L138.026 45.1415L138.072 45.0954H138.103ZM137.965 45.1415L138.026 45.2338L137.888 45.2646L137.965 45.0492V45.1415ZM149.898 43.6192L150.052 43.6807V43.7884H150.021L149.898 43.6192ZM149.253 43.8499H149.33L149.299 44.0036L149.207 43.9575L149.253 43.8499ZM138.149 44.9878L138.21 45.0492V45.0954L138.103 45.0492L138.149 44.9878ZM149.299 43.8346H149.253V43.7884H149.33L149.299 43.8346ZM149.361 43.7884L149.299 43.7423H149.361V43.7884ZM149.176 43.7884L149.207 43.8346L149.176 43.8499V43.7884ZM138.61 44.8494L138.564 44.8032H138.61V44.8494ZM149.176 43.5731H149.299L149.207 43.6346L149.176 43.5731ZM138.809 44.7263L138.855 44.8032H138.733V44.7263H138.809ZM149.299 43.5423V43.4962V43.5731H149.253L149.299 43.5423ZM148.854 43.5731H148.915L148.9 43.6346L148.823 43.6192L148.854 43.5731ZM140.161 44.8802H140.038L140.115 44.8032H140.161V44.8802ZM149.054 43.5731H149.008V43.5423L149.054 43.5731ZM150.052 43.1579L150.267 43.3116V43.6807L150.098 43.4194V43.6346L149.898 43.5731L150.052 43.1579ZM149.176 43.2963L149.207 43.4194L149.069 43.5423V43.3732L149.176 43.2963ZM149.484 43.1579H149.637L149.714 43.2963L149.438 43.2348L149.484 43.081V43.1579ZM149.054 43.1732L149.822 43.6192L149.622 43.5731L149.591 43.6962L149.898 43.7423L150.052 44.1728L149.637 43.8499L149.438 43.896L149.453 43.6192L149.299 43.6807L149.33 43.4962L149.176 43.2963H149.069L149.054 43.1732ZM139.193 44.4342H139.163L139.193 44.4188V44.4342ZM149.376 43.0348V43.1579L149.253 43.1271L149.299 43.081L149.376 43.0348ZM149.591 43.0348L149.745 43.1118L149.714 43.1579L149.484 42.9734L149.591 43.0348ZM140.821 44.3419V44.388L140.745 44.3419L140.76 44.3112L140.821 44.3419ZM139.531 44.2804L139.577 44.3112H139.424L139.454 44.2804H139.531ZM140.606 44.2804V44.3112V44.3419L140.484 44.4342L140.606 44.2804ZM140.745 44.2804L140.714 44.3419H140.637L140.683 44.3112L140.745 44.2804ZM134.432 43.5423L134.54 43.5731H134.448L134.432 43.5423ZM149.207 42.7735L149.376 42.8966L149.33 43.0042H149.253L149.207 42.7735ZM148.793 42.8966L148.915 43.0348L148.9 43.5423L148.654 42.9734L148.793 42.8966ZM148.793 42.6966H149.176L149.207 42.9272L149.008 42.7888L149.176 43.081L148.962 43.1271L148.793 42.6966ZM141.129 43.8499L141.236 43.896L141.067 44.0036L141.021 43.9267L141.129 43.8499ZM134.386 43.081L134.294 43.1271L134.232 43.081L134.386 43.0348V43.081ZM148.071 42.7735L148.132 42.9734L148.025 43.0042L147.948 42.7735H148.071ZM140.837 43.6346V43.5731V43.6192V43.6346ZM148.132 42.6504L148.332 42.6966L148.547 43.081L148.67 43.45L148.47 43.1118L148.27 43.081L148.132 42.6504ZM141.374 43.2655L141.42 43.2963V43.3116L141.344 43.2963L141.374 43.2655ZM141.082 43.3116V43.3732L140.96 43.2963L140.99 43.2655L141.082 43.3116ZM141.282 43.2963H141.236V43.2655H141.298L141.282 43.2963ZM141.175 43.2963L141.497 43.5731L141.221 43.6192L141.344 43.7423L141.129 43.6962L140.745 44.1728L140.883 43.896H140.576H140.745L140.683 44.0959L140.484 43.6962L140.714 43.4962L140.76 43.5423L140.745 43.5731H140.821V43.6807L140.883 43.7423L140.914 43.7884L140.821 43.4194L140.99 43.5423L141.175 43.3732L141.067 43.2348L141.175 43.2963ZM147.61 42.3275V42.3891V42.4814L147.548 42.266L147.61 42.3275ZM141.082 43.1579H141.129L141.175 43.2348H141.236L141.021 43.1732L141.082 43.1579ZM141.62 43.1118L141.651 43.0348V43.081L141.62 43.1118ZM147.825 42.1123L147.871 42.266L148.178 42.1431V42.3275L147.81 42.266L148.209 42.3736L148.316 42.589L147.871 42.4352L148.025 42.6504L147.948 42.6966L147.656 42.4814V42.3275L147.81 42.3891L147.595 42.1891L147.61 42.1431L147.702 42.266L147.825 42.1123ZM141.282 43.0348H141.236L141.221 43.0042H141.236L141.282 43.0348ZM148.316 41.9278L148.362 41.9892L148.209 41.9586L148.27 41.9278H148.316ZM148.132 41.9278L148.409 41.9892L148.716 42.3275L148.362 42.0662L148.716 42.5275L148.47 42.8504L148.516 42.5428L148.132 41.9278ZM141.282 43.0348V43.081V43.0042L141.236 42.9734L141.298 42.8966L141.605 43.0042L141.282 43.2655L141.082 43.1271L141.282 43.0348ZM141.344 42.8966L141.298 42.8504L141.374 42.7735V42.7888L141.344 42.8966ZM138.379 42.6504L138.349 42.6198H138.379V42.6504ZM138.149 42.6198L138.072 42.6504L138.226 42.5275L138.149 42.6198ZM141.42 42.5428H141.466L141.374 42.589L141.42 42.5275V42.5428ZM142.019 42.2352H141.989L142.019 42.1431L142.065 42.1891L142.019 42.2352ZM141.021 42.266H140.96V42.2352L141.021 42.1891V42.266ZM142.188 42.1123V42.1431H142.142V42.1123H142.188ZM144.031 41.3127H143.955L144.031 41.2204V41.3127ZM136.398 41.0667L136.536 41.3895L136.306 41.5434L135.86 41.082L136.398 41.0667ZM143.494 41.2819L143.571 41.3127L143.632 41.2819V41.3127L143.494 41.4203V41.2819ZM141.497 41.4818H141.466L141.543 41.3435L141.605 41.3895L141.497 41.4818ZM134.186 40.6207L134.048 40.5438L133.971 40.3594L134.186 40.6207ZM143.632 41.2204L143.571 41.2819L143.786 41.082V41.1282L143.632 41.2204ZM133.941 40.2824H133.971V40.3132L133.941 40.2824ZM142.956 41.082L142.987 41.1282L142.956 41.1743V41.082ZM142.91 41.1743L142.849 41.1282V41.082H142.91V41.1743ZM143.248 40.959V41.0051L143.187 40.959H143.217H143.248ZM142.926 40.959L142.956 41.0206L142.926 41.0667L142.91 41.0206L142.926 40.959ZM135.384 38.6679V38.6986L135.277 38.5602L135.354 38.6218L135.384 38.6679ZM138.026 38.8678V38.9446L137.919 38.9292L137.965 38.8678H138.026ZM135.246 38.3911L135.461 38.345L135.907 38.8062L135.599 38.9446L135.538 38.8062L135.384 38.7294L135.415 38.6679L135.246 38.4526H135.215L135.077 38.5602L134.97 38.4526L135.077 38.1604L135.246 38.3911ZM136.659 37.0379H136.582H136.69H136.659ZM136.797 37.0071L136.92 36.9148L136.905 36.961L136.797 37.0071ZM136.966 36.8842L137.074 36.7764H137.105L136.966 36.8842ZM137.381 36.6996L137.366 36.7303H137.32L137.381 36.6996ZM137.427 36.6996L137.611 36.6227L137.581 36.638L137.427 36.6996ZM141.758 42.0047L141.62 41.9892L141.605 41.9278L141.743 41.1743L142.065 40.959L142.588 41.0206L142.219 40.8822L142.48 40.5592L142.219 40.8052L141.989 40.7591L141.344 41.5434L141.298 41.5895L141.221 41.5434H141.129L141.282 41.8202L141.067 42.0047L140.99 41.9278L140.683 42.3891L141.067 42.6198L140.637 43.1732L139.762 43.6962V44.0036L138.994 44.3419L138.886 44.465L139.07 44.5419L138.932 44.6803V44.5419H138.886L138.855 44.6956L138.472 44.7263L138.41 44.9263L138.349 44.7263L137.734 45.0492L137.826 44.9263L137.581 44.8494L137.427 45.2338H137.212L137.105 44.9878V45.2646L136.905 45.1415L136.92 45.2646L136.797 45.3107L136.828 45.1415L137.55 44.6187L137.842 44.5726L137.965 44.8032V44.6956L138.149 44.8032V44.4188L138.809 44.0036L138.902 44.0959L139.07 43.6962L139.424 43.5731L139.408 43.1271L139.577 43.1118L139.408 42.9734L139.654 42.6504L139.716 42.3736L139.163 42.7274L139.07 42.4814L139.163 42.4352L139.224 42.5428L139.193 42.4352L139.07 42.3275L138.902 42.8966L138.379 42.3275L137.826 42.6504L137.627 42.589L137.872 42.4814L137.919 42.266H137.826L137.765 42.1123L137.888 41.9892L137.688 41.3435L137.919 41.0667L137.611 41.3435L137.627 41.5587L137.258 41.6202L136.659 41.0051L136.905 40.7591L136.966 40.836L137.074 40.9283L137.043 41.0206L137.427 40.959L137.258 40.8822L137.32 40.7744L137.212 40.836L136.905 40.7591H136.828L136.966 40.6207L136.767 40.5131L136.828 40.4976L136.843 40.39H136.905L136.92 40.3594H136.966L137.043 40.2824L136.843 40.39L136.69 40.5592L136.567 40.0364H136.767L136.997 39.5751L137.166 39.652L137.105 39.3444L137.366 39.2368V39.1138L137.55 39.1599L137.504 39.3136L138.072 38.9446L138.41 39.0062L138.61 38.7755L138.379 38.345L138.625 38.145L138.518 37.9298L137.965 38.345L137.888 38.0835L137.872 38.268L136.92 38.0066L136.905 37.7452L136.797 37.5607V37.4992V37.4684L137.043 37.4992L136.69 37.3147L136.46 37.084H136.69L137.074 36.838L137.366 36.8842L137.304 36.7303L137.765 36.6227H137.919V36.638L137.734 36.9148L137.872 37.0379L138.671 37.084L138.625 36.9148L138.41 36.961L138.349 36.4382L138.518 36.838L138.932 36.9148V36.7303L138.564 36.7611L138.61 36.469L138.349 36.4382L138.379 36.3151V36.2536H137.965L137.888 35.8539L137.304 35.1927L137.458 34.8543L138.21 34.8082L138.733 33.9779L138.686 34.1163L139.27 33.8548L139.193 34.024L139.301 34.1624L139.454 33.9318L139.224 33.824L139.823 33.7164L140.192 33.332L140.376 33.5012L140.238 33.7011L140.299 33.7779L140.53 33.5012L140.745 33.7779L141.221 33.7164L141.282 33.9318L141.129 33.9624L141.497 34.024L141.912 33.9318L143.094 34.2239L143.571 34.024L144.154 34.27L145.521 41.0206L146.182 40.8822V41.0667L147.026 41.8202L147.241 41.5587L147.287 41.5434L147.349 41.1743L147.702 41.0051L148.67 41.6971L149.637 42.7888L150.436 42.9272L150.666 43.6962L150.436 43.9267L150.482 43.4962L150.359 43.6962L150.436 43.5731L150.098 43.0348L149.776 43.5731L149.714 43.1271L149.883 43.081V43.0348L149.376 42.8504L149.176 42.589L148.854 42.6198V42.5428L148.962 42.5275L149.008 42.4352V42.3891L148.716 42.266L148.746 42.2352L148.962 42.3275L149.008 42.266L148.716 42.0815V42.1891L148.593 41.9586L148.47 42.0047V41.6663L148.409 41.9586L148.27 41.8663H148.148L147.702 41.1743L148.071 42.0047L147.871 41.9278L147.702 42.0047L147.656 41.6202L147.487 41.5587L147.548 41.8047L147.165 41.6202V41.8202L147.364 41.7279L147.656 41.9892L147.487 42.2352L146.059 41.5434L146.136 41.1743L146.243 41.4664L146.35 41.2819L146.105 41.1282L145.828 41.4664L145.444 41.4203L145.46 41.3435L145.414 41.2204L145.337 41.3435L144.4 41.4664L144.108 41.3435L144.154 40.959L143.955 41.3127L143.74 41.2204L143.786 41.1743L143.832 41.0667L143.571 41.082L143.632 41.0051L143.448 41.0667L143.601 40.959H143.371L143.524 40.7744L143.187 40.959L143.064 40.8052L142.987 41.0206V40.6976L142.68 41.0667L142.91 41.2204L142.803 41.2819L142.726 41.3435H142.987L142.833 41.4664V41.6971L142.542 41.8202L142.48 41.5895L142.434 41.9278L142.373 41.7279V41.9586L142.265 41.8663V41.9892L142.019 42.0662L141.912 42.3275L141.651 42.3736L141.605 42.1891L141.789 42.1431L141.881 41.9278L141.758 42.0047Z"
     fill="black"
     id="path104" />
</svg>
