<?xml version="1.0" encoding="UTF-8" standalone="no"?>
<svg
   width="24"
   height="24"
   viewBox="32.332 35.2536 120.334 116.9674"
   version="1.1"
   id="svg1"
   sodipodi:docname="ak.svg"
   inkscape:version="1.4.3 (0d15f75042, 2025-12-25)"
   xmlns:inkscape="http://www.inkscape.org/namespaces/inkscape"
   xmlns:sodipodi="http://sodipodi.sourceforge.net/DTD/sodipodi-0.dtd"
   xmlns="http://www.w3.org/2000/svg"
   xmlns:svg="http://www.w3.org/2000/svg">
  <defs
     id="defs1" />
  <sodipodi:namedview
     id="namedview1"
     pagecolor="#ffffff"
     bordercolor="#000000"
     borderopacity="0.25"
     inkscape:showpageshadow="2"
     inkscape:pageopacity="0.0"
     inkscape:pagecheckerboard="0"
     inkscape:deskcolor="#d1d1d1"
     inkscape:zoom="31"
     inkscape:cx="12.016129"
     inkscape:cy="12"
     inkscape:window-width="1920"
     inkscape:window-height="1043"
     inkscape:window-x="0"
     inkscape:window-y="0"
     inkscape:window-maximized="1"
     inkscape:current-layer="svg1" />
  <path
     d="m 32.025102,128.78215 v -0.17419 -0.0871 z m 0.260136,-0.17419 v -0.0871 l 0.260136,-0.17418 0.260136,0.17418 z m 1.215853,-1.47824 v -0.0871 -0.1736 l 0.175309,0.1736 z m 6.169748,1.65243 0.260136,0.69558 h -0.520272 v -0.69558 h 0.520272 z m 0.605098,0.26069 h 0.17531 v 0.43489 h -0.260136 z m 0.350619,0 v 0.43489 l -0.350619,-0.43489 z m -4.693759,-1.4788 0.610754,0.17417 -1.131026,0.78267 -0.344963,-1.39116 z m 1.651298,1.04392 -1.651298,-0.0871 v -0.17418 l 1.651298,-0.43432 z m 3.732386,0.43489 h 0.260136 -0.520272 l 0.260136,-0.2607 z m -2.256397,-0.69614 v 1.13102 h -1.131026 l 0.786063,-1.47825 z m 1.826608,0.26125 0.169653,0.17419 h -0.169653 z m 0,-0.0871 -0.260136,0.0871 -0.175309,-0.26125 0.175309,-0.34723 z m 5.903956,1.39116 0.520272,0.52198 0.955717,0.26069 -1.475989,-0.26069 -0.955717,-0.69502 z m 3.212114,0.26126 h -0.260136 -0.344963 l 0.605099,-0.26126 z m -3.907695,-1.65242 -0.695581,1.21812 h -1.475989 l -1.560816,-0.69616 z m 7.125464,1.91314 -0.435445,-0.26072 0.260136,-0.0871 0.175309,0.0871 z m 1.475989,-0.26072 h -0.610754 l 0.610754,-0.26126 z m 1.385507,-0.0871 h -0.260136 l 0.260136,-0.34722 0.435445,0.17305 z m 1.046199,-0.60849 v 0.60849 l -0.610754,-0.34722 z m 0.08483,0 v -0.43488 h 0.175309 z m 4.863412,-1.73952 0.260136,0.86976 -2.776669,1.47825 -0.87089,0.0871 z m 4.778586,-0.17417 -0.175309,0.34835 -0.260136,0.0871 v -0.26127 z m 0,-0.43432 v -0.0871 l 0.260136,0.0871 z m -2.691843,1.47825 1.215854,-0.69558 -0.610755,-1.04337 1.911435,0.17361 -1.736126,1.73952 h -2.607015 z m 5.038722,-1.56534 -0.265791,0.0871 -0.344963,-0.0871 h 0.260136 z m 0.865235,0 -0.260136,0.0871 -0.605099,-0.0871 0.260136,-0.17361 z m -2.256397,-0.60849 0.435445,0.43488 H 67.46015 v -0.60906 z m 0.780408,-0.17418 0.260136,0.43488 -0.435445,0.17418 -0.169654,-0.60906 z m 7.730563,0.60906 h -0.344963 v -0.17418 z m -0.695581,-0.43488 v 0.43488 l -0.260136,-0.60906 z m 7.730563,-0.60849 h -0.175309 v -0.17418 h 0.175309 z m 63.925596,-8.17449 h 0.35061 l 0.26014,0.6085 -0.61075,-0.26071 z m -63.314842,7.39182 0.260136,0.34722 -0.260136,0.17418 z m -6.865328,-0.34779 -0.520272,-0.17418 0.520272,-0.2607 v 0.2607 z m 73.56759,-8.43519 v 0.43432 h -0.52027 l 0.52027,-0.52084 z m -77.215149,7.39183 h 0.610754 l 0.169654,1.04337 0.610754,0.2607 0.08483,0.43431 -4.512794,0.26126 1.040544,-1.56534 z m 10.512887,1.04337 v 0.34779 H 83.61686 v -0.34779 z m -5.734302,-0.78267 0.260136,0.17361 -0.520272,0.17418 -0.175309,-0.34779 z m 68.528864,-7.21821 0.52028,0.43488 -0.43545,0.17417 h -0.0848 z m -67.48832,6.95751 v 0.2607 l -0.344963,-0.2607 z m 4.34314,0.60849 -0.435445,0.43488 0.435445,-0.78267 z m 62.53443,-7.39183 v 0.43488 l 1.48164,1.39117 -1.48164,-0.69559 z m -67.482669,6.78334 h -0.175309 l 0.175309,-0.0877 z m 71.480849,-8.00032 -0.52028,0.86919 -0.1753,-1.21755 0.35061,0.0876 z m -67.4035,8.43463 0.265791,0.17418 -1.215853,1.12989 0.08483,-1.12989 z m 62.62491,-7.56544 0.35062,0.34779 -0.43545,0.26071 -0.1753,-0.43488 z m -63.0547,7.13113 H 82.2257 v -0.0877 h 0.09048 z m -0.695581,-0.34836 v 0.60906 l -0.435445,-0.34836 0.260136,-0.2607 z m -0.780408,0.2607 0.344963,0.52197 -0.780408,0.17418 0.435445,-1.21812 z m 67.482669,-8.60881 0.87089,0.34779 v 0.60906 h -0.17531 z m -3.64756,1.30464 h 0.43545 l -0.17531,0.8692 -0.52028,-0.26071 z m -62.794565,6.43497 0.344963,0.34723 v 0.26127 l -0.605099,-0.26127 z m 63.054705,-6.52149 h -0.26014 v -0.26127 h 0.43545 z m 0.35061,-0.26127 -0.35061,-0.2607 h 0.35061 z m -1.04619,0 0.1753,0.26127 -0.1753,0.0865 z m -59.75211,6.00009 -0.260136,-0.26126 h 0.260136 z m 59.75211,-7.21764 h 0.69558 l -0.52028,0.34779 z m -58.626739,6.5215 0.260136,0.43488 h -0.689926 v -0.43488 z m 59.322319,-6.69568 v -0.2607 0.43488 h -0.26014 z m -2.51654,0.17418 h 0.34497 l -0.0848,0.34779 -0.43545,-0.0871 z m -49.160042,7.39182 h -0.695581 l 0.435445,-0.43544 h 0.260136 z m 50.291072,-7.39182 h -0.26014 v -0.17418 z m 5.64382,-2.34801 1.21585,0.8692 v 2.0873 l -0.95571,-1.47768 v 1.21698 l -1.13103,-0.34779 z m -4.95389,0.78267 0.1753,0.69615 -0.7804,0.69501 v -0.95628 z m 1.74178,-0.78267 h 0.86523 l 0.43545,0.78267 -1.56082,-0.34779 0.26014,-0.86976 z m -2.43171,0.0865 4.34314,2.52219 -1.13103,-0.2607 -0.17531,0.69614 1.73613,0.26071 0.87089,2.43453 -2.34688,-1.82604 -1.12537,0.2607 0.0848,-1.56534 -0.87089,0.34779 0.17531,-1.04337 -0.87089,-1.13046 h -0.6051 z m -55.765242,7.13114 h -0.169654 l 0.169654,-0.0871 z m 57.586192,-7.91378 v 0.69614 l -0.69558,-0.17418 0.26014,-0.2607 z m 1.21585,0 0.87089,0.43544 -0.1753,0.2607 -1.30068,-1.04337 z m -49.595489,7.39182 v 0.2607 l -0.42979,-0.2607 0.08483,-0.17362 z m -7.295119,-0.34779 0.260136,0.17417 h -0.865234 l 0.169653,-0.17417 z m 6.079266,0 v 0.17417 0.17362 l -0.689926,0.52196 z m 0.786063,0 -0.175309,0.34779 h -0.435445 l 0.260136,-0.17362 z m -35.700839,-4.17406 0.610754,0.17418 h -0.520272 z m 83.554548,-4.34766 0.95572,0.69615 -0.26013,0.60849 h -0.43545 z m -2.34122,0.69615 0.68993,0.78153 -0.0848,2.86998 -1.39116,-3.2172 z m 0,-1.13103 h 2.16592 l 0.1753,1.30407 -1.12537,-0.78267 0.95007,1.65243 -1.2102,0.2607 z m -43.340919,6.52206 0.605099,0.2607 -0.955717,0.60849 -0.260136,-0.43487 z m -38.132545,-4.34823 -0.520272,0.2607 -0.350618,-0.2607 0.87089,-0.26127 z m 77.390464,-1.73895 0.34496,1.13046 -0.6051,0.17418 -0.43544,-1.30464 z m -40.909217,4.86963 v -0.34779 0.2607 z m 41.254177,-5.56578 1.13103,0.26127 1.21585,2.17383 0.69558,2.08674 -1.13103,-1.91256 -1.13102,-0.17418 z m -38.21737,3.47847 0.26013,0.17418 v 0.0865 l -0.429786,-0.0865 z m -1.6513,0.2607 v 0.34836 l -0.689926,-0.43488 0.169654,-0.17418 z m 1.131026,-0.0865 H 99.33812 v -0.17417 h 0.350618 z m -0.605099,0 1.820953,1.56534 -1.560817,0.26071 0.695581,0.69614 -1.215853,-0.2607 -2.17157,2.69524 0.780408,-1.56534 h -1.736125 0.955717 l -0.350618,1.13046 -1.125371,-2.26036 1.30068,-1.13102 0.260136,0.2607 -0.08483,0.17417 h 0.42979 v 0.6085 l 0.350618,0.34835 0.175309,0.2607 -0.525927,-2.08674 0.955717,0.69502 1.046199,-0.95628 -0.610754,-0.78267 z m 36.390763,-5.47869 v 0.34836 0.52197 l -0.35062,-1.21812 z m -36.91669,4.69602 h 0.265791 l 0.260136,0.43489 h 0.344963 l -1.215853,-0.34836 z m 3.04246,-0.2607 0.17531,-0.43544 v 0.26127 z m 35.09008,-5.6523 0.26014,0.86919 1.73613,-0.69501 v 1.0428 l -2.08109,-0.34779 2.25639,0.6085 0.6051,1.21811 -2.51653,-0.86976 0.87089,1.21699 -0.43544,0.26126 -1.6513,-1.21698 v -0.87032 l 0.87089,0.34835 -1.21586,-1.13103 0.0848,-0.26013 0.52027,0.69501 z M 99.598256,111.6505 H 99.33812 l -0.08483,-0.17305 h 0.08483 z m 39.778184,-6.26023 0.26014,0.34722 -0.86524,-0.17305 0.34497,-0.17417 z m -1.04054,0 1.56647,0.34722 1.73613,1.91313 -2.00192,-1.47769 2.00192,2.60872 -1.39117,1.82604 0.26014,-1.73952 z m -38.737644,6.26023 v 0.26126 -0.43431 l -0.260136,-0.17418 0.350618,-0.43431 1.736122,0.60849 -1.826604,1.47768 -1.131026,-0.78267 z m 0.350618,-0.78154 -0.260136,-0.26127 0.429792,-0.43488 v 0.0865 z m -16.767462,-1.3923 -0.169654,-0.17304 h 0.169654 z m -1.30068,-0.17304 -0.435445,0.17304 0.87089,-0.69501 z m 18.497928,-0.43545 h 0.26014 l -0.52027,0.26127 0.26013,-0.34779 z m 3.38743,-1.73952 h -0.16966 l 0.16966,-0.52083 0.26013,0.26013 z m -5.643823,0.17418 h -0.344963 v -0.17418 l 0.344963,-0.2607 z m 6.599533,-0.86919 v 0.17418 h -0.26013 v -0.17418 z m 10.42241,-4.52184 h -0.42979 l 0.42979,-0.52197 z m -43.165611,-1.39117 0.780408,1.82548 -1.30068,0.87032 -2.522188,-2.60927 z m 40.128801,1.21699 0.43545,0.17417 0.34496,-0.17417 v 0.17418 l -0.78041,0.60849 z m -11.29329,1.13046 h -0.17531 l 0.43544,-0.78211 0.35062,0.26014 z M 59.46945,97.998444 58.689042,97.563565 58.253597,96.520759 Z m 53.41836,3.391386 -0.34496,0.34779 1.21585,-1.13046 v 0.26126 z M 58.083943,96.085314 h 0.169654 v 0.174178 z m 50.980997,4.521846 0.17531,0.26126 -0.17531,0.26071 z m -0.26013,0.52197 -0.34496,-0.26071 v -0.26126 h 0.34496 z m 1.91143,-1.217555 v 0.260705 l -0.34496,-0.260705 h 0.16965 z m -1.82095,0 0.16965,0.348355 -0.16965,0.2607 -0.0905,-0.2607 z M 66.244296,86.955106 v 0.173612 l -0.605098,-0.78267 0.435445,0.348356 z m 14.940855,1.13046 v 0.434314 l -0.605099,-0.08709 0.260136,-0.347225 z m -15.721263,-2.695801 1.215854,-0.260701 2.522188,2.608146 -1.74178,0.78267 -0.344963,-0.78267 -0.870891,-0.434314 0.17531,-0.34779 -0.955718,-1.21755 h -0.175309 l -0.780408,0.608492 -0.605099,-0.608492 0.605099,-1.652429 z m 7.9907,-7.652522 h -0.435445 0.610754 z m 0.780408,-0.174178 0.695581,-0.521969 -0.08483,0.261267 z m 0.955717,-0.695016 0.610754,-0.609623 h 0.175309 z m 2.346879,-1.043937 -0.08483,0.173613 h -0.260136 z m 0.260136,0 1.040544,-0.434879 -0.169654,0.08652 z m 24.492372,30.001038 -0.78041,-0.0876 -0.0848,-0.34723 0.78041,-4.26114 1.82095,-1.21755 2.95764,0.34836 -2.08675,-0.782674 1.47599,-1.826607 -1.47599,1.391162 -1.30068,-0.260702 -3.647556,4.435321 -0.260136,0.2607 -0.435445,-0.2607 h -0.520272 l 0.865235,1.56534 -1.215853,1.04337 -0.435445,-0.43488 -1.736125,2.60871 2.17157,1.30464 -2.431706,3.12955 -4.948239,2.95763 v 1.73839 l -4.343141,1.91313 -0.610754,0.69615 1.040544,0.43488 -0.780408,0.78267 v -0.78267 h -0.260136 l -0.175309,0.86919 -2.165915,0.17361 -0.350618,1.13103 -0.344963,-1.13103 -3.477905,1.82604 0.520272,-0.69501 -1.385507,-0.43488 -0.87089,2.17384 h -1.215853 l -0.605099,-1.39117 v 1.56535 l -1.131026,-0.69615 0.08483,0.69615 -0.695581,0.2607 0.175309,-0.95685 4.083004,-2.95651 1.651298,-0.2607 0.695581,1.30407 v -0.60849 l 1.040544,0.60849 v -2.17383 l 3.732386,-2.34801 0.525927,0.52196 0.950062,-2.26035 2.001917,-0.69615 -0.09048,-2.52219 0.955717,-0.0865 -0.955717,-0.78267 1.391163,-1.8266 0.350618,-1.56534 -3.127288,2.00078 -0.525927,-1.39116 0.525927,-0.26127 0.344963,0.60849 -0.175309,-0.60849 -0.695581,-0.60906 -0.950062,3.21834 -2.957633,-3.21834 -3.127287,1.82605 -1.125371,-0.34723 1.385507,-0.60849 0.265791,-1.21812 h -0.525927 l -0.344963,-0.86919 0.695581,-0.69615 -1.131026,-3.65151 1.306335,-1.56534 -1.74178,1.56534 0.09048,1.21698 -2.086743,0.34779 -3.387423,-3.47847 1.391162,-1.391163 0.344963,0.43488 0.610754,0.521968 -0.175309,0.521965 2.17157,-0.348352 -0.955717,-0.434314 0.350618,-0.609623 -0.610754,0.348356 -1.736125,-0.43488 h -0.435445 l 0.780408,-0.78267 -1.125371,-0.608492 0.344963,-0.08765 0.08483,-0.608492 h 0.350618 l 0.08483,-0.173047 h 0.260136 l 0.435445,-0.435445 -1.131026,0.608492 -0.865235,0.956848 -0.695581,-2.956502 h 1.131026 l 1.30068,-2.608712 0.955717,0.434879 -0.344963,-1.739518 1.475989,-0.608492 v -0.695581 l 1.040544,0.260702 -0.260136,0.869193 3.212114,-2.086743 1.911434,0.348356 1.131026,-1.304638 -1.306335,-2.434534 1.391162,-1.131026 -0.605099,-1.216984 -3.127287,2.34801 -0.435445,-1.478817 -0.09048,1.043372 -5.383684,-1.478251 -0.08483,-1.478251 -0.610754,-1.043372 v -0.34779 -0.174178 l 1.391162,0.174178 -1.996261,-1.043372 -1.30068,-1.304639 h 1.30068 l 2.17157,-1.391162 1.651298,0.261267 -0.350618,-0.870324 2.607015,-0.608492 h 0.87089 v 0.08652 l -1.046199,1.56534 0.780408,0.696147 4.518449,0.260701 -0.260136,-0.956848 -1.215853,0.261267 -0.344963,-2.956502 0.955717,2.260921 2.341224,0.434314 v -1.043375 l -2.081088,0.174178 0.260136,-1.651864 -1.475989,-0.174178 0.169654,-0.696146 v -0.347791 h -2.341224 l -0.435445,-2.260356 -3.302596,-3.739172 0.87089,-1.913696 4.252658,-0.260701 2.957633,-4.695455 -0.265791,0.78267 3.302596,-1.478817 -0.435445,0.956848 0.610754,0.78267 0.865235,-1.304073 -1.30068,-0.609623 3.387424,-0.608492 2.086743,-2.173832 1.040544,0.956848 -0.780408,1.130461 0.344963,0.434314 1.306335,-1.564775 1.215853,1.564775 2.691842,-0.347791 0.344963,1.218115 -0.865235,0.173047 2.08109,0.348356 2.34688,-0.521403 6.68436,1.651864 2.6975,-1.130461 3.29694,1.391162 7.73056,38.175523 3.73805,-0.782669 v 1.043369 l 4.77293,4.26114 1.21585,-1.47881 0.26013,-0.0865 0.35062,-2.08731 1.99626,-0.95685 5.47417,3.91335 5.46851,6.17371 4.51845,0.78267 1.30068,4.34879 -1.30068,1.30351 0.26014,-2.43453 -0.69559,1.13102 0.43545,-0.69614 -1.91143,-3.04416 -1.82096,3.04416 -0.35061,-2.52219 0.95571,-0.2607 v -0.26127 l -2.86715,-1.04281 -1.13102,-1.47825 -1.82096,0.17418 v -0.43545 l 0.61076,-0.0865 0.26013,-0.52197 v -0.2607 l -1.65129,-0.69615 0.16965,-0.17417 1.22151,0.52197 0.26013,-0.3478 -1.65129,-1.04337 v 0.6085 l -0.69559,-1.30351 -0.69558,0.2607 v -1.9137 l -0.34496,1.653 -0.78606,-0.52197 h -0.68993 l -2.52219,-3.91335 2.08675,4.69602 -1.13103,-0.43488 -0.95572,0.43488 -0.26013,-2.1744 -0.95572,-0.34779 0.34496,1.39116 -2.16591,-1.04337 v 1.13103 l 1.12537,-0.52197 1.6513,1.47768 -0.95572,1.39117 -8.07553,-3.91222 0.43545,-2.08731 0.6051,1.65186 0.6051,-1.04337 -1.38551,-0.86919 -1.56647,1.91256 -2.17157,-0.2607 0.0905,-0.43431 -0.26014,-0.69615 -0.43544,0.69615 -5.29886,0.69501 -1.6513,-0.69501 0.26014,-2.174401 -1.12537,2.000221 -1.21585,-0.52197 0.26013,-0.2607 0.26014,-0.60849 -1.47599,0.0865 0.34496,-0.43488 -1.04054,0.34835 0.86523,-0.609055 h -1.30068 l 0.86524,-1.043937 -1.90578,1.043937 -0.69558,-0.869759 -0.43545,1.218114 v -1.826606 l -1.73612,2.087306 1.30068,0.8692 -0.6051,0.34779 -0.43545,0.34835 h 1.47599 l -0.87089,0.69502 v 1.30464 l -1.64564,0.69614 -0.35062,-1.30463 -0.26013,1.91313 -0.34497,-1.13046 v 1.30463 l -0.61075,-0.52196 v 0.69501 l -1.39116,0.43545 -0.6051,1.47768 -1.47599,0.2607 -0.26014,-1.04337 1.04055,-0.26013 0.52027,-1.21755 z"
     fill="#000000"
     id="path104"
     style="stroke-width:5.65513" />
</svg>
