<svg width="24" height="24" viewBox="32.332 35.254 120.334 116.967" xmlns="http://www.w3.org/2000/svg" xmlns:svg="http://www.w3.org/2000/svg"><path d="M32.025 128.782v-.261zm.26-.174v-.087l.26-.174.26.174zm1.216-1.478v-.261l.175.174zm6.17 1.652.26.696h-.52v-.696h.52zm.605.26h.175v.436h-.26zm.35 0v.436l-.35-.435zm-4.693-1.478.61.174-1.13.783-.345-1.391zm1.651 1.044-1.651-.087v-.174l1.651-.435zm3.732.435h.26-.52l.26-.26zm-2.256-.696v1.13h-1.13l.785-1.478zm1.827.261.17.174h-.17zm0-.087-.26.087-.176-.261.176-.348zm5.904 1.391.52.522.956.26-1.476-.26-.956-.695zm3.212.261h-.605l.605-.261zm-3.908-1.652-.696 1.218h-1.476l-1.56-.696zm7.126 1.913-.436-.26.26-.088.176.087zm1.476-.26h-.611l.61-.262zm1.385-.088h-.26l.26-.347.435.173zm1.046-.608v.608l-.61-.347zm.085 0v-.435h.175zm4.863-1.74.26.87-2.776 1.478-.871.087zm4.78-.174-.176.348-.26.087v-.26zm0-.434v-.087l.26.087zm-2.693 1.478 1.216-.696-.61-1.043 1.91.174-1.735 1.74h-2.607zm5.039-1.565-.266.087-.345-.087h.26zm.865 0-.26.087-.605-.087.26-.174zm-2.256-.609.435.435h-.786v-.61zm.78-.174.26.435-.435.174-.17-.61zm7.73.609h-.344v-.174zm-.695-.435v.435l-.26-.61zm7.73-.608h-.175v-.175h.176zm63.926-8.175h.35l.261.609-.61-.261zm-63.315 7.392.26.347-.26.174zm-6.865-.348-.52-.174.52-.26v.26zm73.568-8.435v.434h-.52l.52-.52zm-77.215 7.392h.61l.17 1.043.61.26.086.435-4.513.261 1.04-1.565zm10.512 1.043v.348h-.35v-.348zm-5.734-.783.26.174-.52.174-.175-.348zm68.529-7.218.52.435-.435.174h-.085zm-67.488 6.958v.26l-.345-.26zm4.343.608-.436.435.436-.783zm62.534-7.392v.435l1.482 1.391-1.482-.695zm-67.482 6.784h-.176l.176-.088zm71.48-8-.52.869-.175-1.218.35.088zm-67.403 8.434.266.174-1.216 1.13.085-1.13zm62.625-7.565.35.347-.435.261-.175-.435zm-63.055 7.13h-.09v-.087h.09zm-.695-.348v.61l-.436-.349.26-.26zm-.78.261.344.522-.78.174.435-1.218zm67.482-8.609.87.348v.61h-.175zm-3.648 1.305h.436l-.176.87-.52-.262zm-62.794 6.435.345.347v.261l-.605-.26zm63.054-6.522h-.26v-.26h.436zm.351-.26-.35-.262h.35zm-1.046 0 .175.26-.175.087zm-59.752 6-.26-.262h.26zm59.752-7.218h.695l-.52.347zm-58.627 6.521.26.435h-.69v-.435zm59.322-6.696v-.26.435h-.26zm-2.516.175h.345l-.085.347-.435-.087zm-49.16 7.391h-.696l.436-.435h.26zm50.29-7.391h-.26v-.175zm5.645-2.348 1.216.869v2.087l-.956-1.478v1.217l-1.131-.347zm-4.954.782.175.696-.78.695v-.956zm1.742-.782h.865l.435.782-1.56-.348.26-.87zm-2.432.086 4.343 2.522-1.131-.26-.175.696 1.736.26.87 2.435-2.346-1.826-1.126.26.085-1.565-.87.348.175-1.043-.871-1.13h-.605zm-55.765 7.131h-.17l.17-.087zm57.586-7.914v.697l-.696-.175.26-.26zm1.216 0 .87.436-.175.26-1.3-1.043zm-49.596 7.392v.261l-.43-.26.085-.174zm-7.295-.348.26.175h-.865l.17-.175zm6.08 0v.348l-.69.522zm.785 0-.175.348h-.435l.26-.173zm-35.7-4.174.61.175h-.52zm83.554-4.347.956.696-.26.608h-.436zm-2.341.696.69.781-.085 2.87-1.391-3.217zm0-1.131h2.166l.175 1.304-1.125-.783.95 1.653-1.21.26zm-43.341 6.522.605.26-.956.61-.26-.436zM60.6 111.912l-.52.26-.35-.26.87-.262zm77.39-1.74.346 1.131-.605.174-.436-1.304zm-40.908 4.87v-.347.26zm41.254-5.565 1.13.26 1.217 2.175.695 2.086-1.13-1.912-1.132-.174zm-38.217 3.478.26.174v.087l-.43-.087zm-1.652.26v.35l-.69-.436.17-.174zm1.131-.086h-.26v-.174h.35zm-.605 0 1.821 1.566-1.56.26.695.696-1.216-.26-2.172 2.695.78-1.565h-1.735.955l-.35 1.13-1.126-2.26 1.301-1.131.26.26-.085.175h.43v.608l.35.348.176.261-.526-2.087.956.695 1.046-.956-.61-.782zm36.39-5.478v.87l-.35-1.218zm-36.916 4.696h.266l.26.435h.345l-1.216-.349zm3.043-.261.175-.436v.262zm35.09-5.652.26.869 1.736-.695v1.043l-2.081-.348 2.256.608.605 1.218-2.516-.87.87 1.218-.435.26-1.65-1.216v-.87l.87.348-1.216-1.131.085-.26.52.695zm-37.002 5.216h-.26l-.085-.173h.085zm39.778-6.26.26.347-.865-.173.345-.174zm-1.04 0 1.566.347 1.737 1.914-2.002-1.478 2.002 2.609-1.392 1.826.26-1.74zm-38.738 6.26v.262-.435l-.26-.174.35-.434 1.737.608-1.827 1.478-1.13-.783zm.35-.781-.26-.261.43-.435v.086zm-16.767-1.392-.17-.173h.17zm-1.3-.173-.436.173.871-.695zm18.498-.436h.26l-.52.261.26-.347zm3.387-1.74h-.17l.17-.52.26.26zm-5.644.175h-.345v-.174l.345-.261zm6.6-.87v.175h-.26v-.174zm10.422-4.521h-.43l.43-.522zM71.98 100.52l.78 1.825-1.3.87-2.523-2.609zm40.128 1.217.436.174.345-.174v.174l-.78.608zm-11.293 1.13h-.175l.435-.782.35.26zm-41.345-4.87-.78-.434-.435-1.043Zm53.419 3.392-.345.348 1.216-1.13v.26zm-54.804-5.305h.17v.174zm50.98 4.522.176.261-.175.261zm-.26.522-.344-.26v-.262h.345zm1.912-1.217v.26l-.345-.26h.17zm-1.82 0 .169.348-.17.26-.09-.26zM66.243 86.955v.174l-.605-.783.436.348zm14.941 1.13v.435l-.605-.087.26-.347zm-15.72-2.695 1.216-.26 2.522 2.607-1.742.783-.345-.783-.87-.434.175-.348-.956-1.217h-.175l-.78.608-.606-.608.605-1.653zm7.99-7.653h-.435.61zm.781-.174.696-.522-.085.261zm.956-.695.61-.61h.176zm2.347-1.044-.085.174h-.26zm.26 0 1.04-.435-.17.087zm24.492 30.001-.78-.087-.085-.348.78-4.26 1.821-1.218 2.958.348-2.087-.783 1.476-1.826-1.476 1.39-1.3-.26-3.648 4.435-.26.261-.436-.26h-.52l.865 1.565-1.216 1.043-.435-.435-1.736 2.61 2.171 1.305-2.431 3.13-4.949 2.957v1.738l-4.343 1.913-.61.697 1.04.434-.78.783v-.783h-.26l-.176.87-2.166.173-.35 1.131-.345-1.13-3.478 1.825.52-.695-1.385-.435-.871 2.174h-1.216l-.605-1.391v1.565l-1.131-.696.085.696-.696.261.175-.957 4.083-2.956 1.652-.261.695 1.304v-.608l1.04.608v-2.174l3.733-2.348.526.522.95-2.26 2.002-.696-.09-2.522.955-.087-.955-.783 1.39-1.826.351-1.566-3.127 2.001-.526-1.391.526-.261.345.608-.175-.608-.696-.61-.95 3.219-2.958-3.218-3.127 1.826-1.125-.347 1.385-.609.266-1.218h-.526l-.345-.87.696-.695-1.131-3.652 1.306-1.565-1.742 1.565.09 1.217-2.086.348-3.387-3.479 1.39-1.39.346.434.61.522-.175.522 2.172-.348-.956-.435.35-.61-.61.35-1.736-.436h-.436l.78-.782-1.125-.609.345-.088.085-.608h.35l.086-.173h.26l.435-.436-1.13.609-.866.957-.696-2.957h1.131l1.301-2.608.956.434-.345-1.74 1.476-.608v-.695l1.04.26-.26.87 3.212-2.087 1.912.348 1.13-1.304-1.306-2.435L84.573 84l-.605-1.218-3.128 2.348-.435-1.479-.09 1.044-5.384-1.479-.085-1.478-.611-1.043v-.522l1.391.174-1.996-1.043-1.3-1.305h1.3l2.172-1.391 1.65.261-.35-.87 2.607-.609h.871v.087l-1.046 1.565.78.696 4.519.261-.26-.957-1.216.261-.345-2.956.956 2.26 2.34.435v-1.043l-2.08.174.26-1.652-1.476-.174.17-.696v-.348H80.84l-.435-2.26-3.303-3.74.871-1.913 4.253-.26 2.957-4.696-.265.782 3.302-1.479-.435.957.61.783.866-1.304-1.301-.61 3.387-.608 2.087-2.174 1.04.957-.78 1.13.345.435 1.307-1.565 1.215 1.565 2.692-.348.345 1.218-.865.173 2.081.348 2.347-.521 6.684 1.652 2.698-1.13 3.297 1.39 7.73 38.176 3.738-.783v1.044l4.773 4.26 1.216-1.478.26-.086.351-2.088 1.996-.957 5.474 3.914 5.469 6.173 4.518.783 1.301 4.349-1.3 1.303.26-2.434-.696 1.13.435-.695-1.911-3.044-1.821 3.044-.35-2.522.955-.261v-.261l-2.867-1.043-1.131-1.478-1.821.174v-.436l.61-.086.26-.522V108l-1.65-.697.17-.174 1.22.522.26-.348-1.65-1.043v.608l-.696-1.303-.696.26v-1.913l-.345 1.653-.786-.522h-.69l-2.522-3.914 2.087 4.696-1.131-.435-.956.435-.26-2.174-.956-.348.345 1.391-2.166-1.043v1.13l1.126-.521 1.651 1.478-.956 1.39-8.075-3.911.435-2.088.605 1.652.605-1.043-1.385-.87-1.566 1.913-2.172-.26.09-.435-.26-.696-.435.696-5.299.695-1.651-.695.26-2.174-1.126 2-1.215-.522.26-.26.26-.61-1.476.087.345-.435-1.04.349.865-.61h-1.301l.865-1.043-1.906 1.044-.695-.87-.436 1.218v-1.827l-1.736 2.088 1.3.869-.604.348-.436.348h1.476l-.87.695v1.305l-1.646.696-.35-1.305-.261 1.913-.345-1.13v1.305l-.61-.522v.695l-1.392.435-.605 1.478-1.476.26-.26-1.043 1.04-.26.52-1.218z" style="stroke-width:5.65513"/></svg>