<svg width="24" height="24" viewBox="28.474 28.336 24.195 24.195" xmlns="http://www.w3.org/2000/svg" xmlns:svg="http://www.w3.org/2000/svg"><path d="M35.17 50.961h-.887l.748-.083zm9.558-21.056 1.468 9.226.388 1.247.443.887-.027.47.387.333-.526.47-.416 1.47.416 1.301-.25 1.607.36.444.029.415-9.891-.055-.139.554.859.887-.139.526.139.471-.582.526-.194-.055v.11h.139l-.388.222-1.468.139 1.052-.222-.249-.554h-.332l-.084-.36.084-.471-.36-.637-.5 1.828-.664-.36-.416.028-.11-6.705 1.773-13.41-.333-.47z"/></svg>