<?xml version="1.0" encoding="UTF-8" standalone="no"?>
<svg
   width="24"
   height="24"
   viewBox="28.4745 28.3359 24.1948 24.194800000000004"
   version="1.1"
   id="svg1"
   sodipodi:docname="al.svg"
   inkscape:version="1.4.3 (0d15f75042, 2025-12-25)"
   xmlns:inkscape="http://www.inkscape.org/namespaces/inkscape"
   xmlns:sodipodi="http://sodipodi.sourceforge.net/DTD/sodipodi-0.dtd"
   xmlns="http://www.w3.org/2000/svg"
   xmlns:svg="http://www.w3.org/2000/svg">
  <defs
     id="defs1" />
  <sodipodi:namedview
     id="namedview1"
     pagecolor="#ffffff"
     bordercolor="#000000"
     borderopacity="0.25"
     inkscape:showpageshadow="2"
     inkscape:pageopacity="0.0"
     inkscape:pagecheckerboard="0"
     inkscape:deskcolor="#d1d1d1"
     inkscape:zoom="31"
     inkscape:cx="12.016129"
     inkscape:cy="12"
     inkscape:window-width="1920"
     inkscape:window-height="947"
     inkscape:window-x="1920"
     inkscape:window-y="32"
     inkscape:window-maximized="1"
     inkscape:current-layer="svg1" />
  <path
     d="m 35.1692,50.9614 h -0.8865 l 0.748,-0.083 z m 9.5586,-21.0562 1.4684,9.226 0.3878,1.2466 0.4432,0.8867 -0.0276,0.4709 0.3879,0.3326 -0.5264,0.4709 -0.4156,1.4684 0.4156,1.3021 -0.2493,1.607 0.3601,0.4433 0.0277,0.4156 -9.8909,-0.0555 -0.1385,0.5542 0.8588,0.8866 -0.1386,0.5264 0.1386,0.471 -0.5818,0.5264 -0.194,-0.0554 v 0.1108 h 0.1386 L 36.8039,50.9614 35.3355,51.1 36.3883,50.8784 36.139,50.3242 h -0.3324 l -0.0832,-0.3601 0.0832,-0.4711 -0.3603,-0.6372 -0.4987,1.8286 -0.6649,-0.3602 -0.4156,0.0278 -0.1108,-6.7048 1.7732,-13.4096 -0.3325,-0.471 z"
     fill="#000000"
     id="path4" />
</svg>
