<svg xmlns="http://www.w3.org/2000/svg" width="24" height="24" viewBox="28.4745 28.3359 24.1948 24.194800000000004">
  <path
     d="M34.7459 50.5307H33.8594L34.6074 50.4477L34.7459 50.5307ZM44.3045 29.4745L45.7729 38.7005L46.1607 39.9471L46.6039 40.8338L46.5763 41.3047L46.9642 41.6373L46.4378 42.1082L46.0222 43.5766L46.4378 44.8787L46.1885 46.4857L46.5486 46.929L46.5763 47.3446L36.6854 47.2891L36.5469 47.8433L37.4057 48.7299L37.2671 49.2563L37.4057 49.7273L36.8239 50.2537L36.6299 50.1983V50.3091H36.7685L36.3806 50.5307L34.9122 50.6693L35.965 50.4477L35.7157 49.8935H35.3833L35.3001 49.5334L35.3833 49.0623L35.023 48.4251L34.5243 50.2537L33.8594 49.8935L33.4438 49.9213L33.333 43.2165L35.1062 29.8069L34.7737 29.3359L44.3045 29.4745Z"
     fill="black"
     id="path4" />
</svg>
