<?xml version="1.0" encoding="UTF-8" standalone="no"?>
<svg
   width="24"
   height="24"
   viewBox="29.794 29.668 322.872 321.233"
   version="1.1"
   id="svg1"
   sodipodi:docname="ar.svg"
   inkscape:version="1.4.3 (0d15f75042, 2025-12-25)"
   xmlns:inkscape="http://www.inkscape.org/namespaces/inkscape"
   xmlns:sodipodi="http://sodipodi.sourceforge.net/DTD/sodipodi-0.dtd"
   xmlns="http://www.w3.org/2000/svg"
   xmlns:svg="http://www.w3.org/2000/svg">
  <defs
     id="defs1" />
  <sodipodi:namedview
     id="namedview1"
     pagecolor="#ffffff"
     bordercolor="#000000"
     borderopacity="0.25"
     inkscape:showpageshadow="2"
     inkscape:pageopacity="0.0"
     inkscape:pagecheckerboard="0"
     inkscape:deskcolor="#d1d1d1"
     inkscape:zoom="31"
     inkscape:cx="12.016129"
     inkscape:cy="12.322581"
     inkscape:window-width="1920"
     inkscape:window-height="947"
     inkscape:window-x="1920"
     inkscape:window-y="32"
     inkscape:window-maximized="1"
     inkscape:current-layer="svg1" />
  <path
     d="m 41.906936,139.39106 -6.687976,136.7043 3.712269,5.56987 h 3.343988 l -0.368281,1.85909 13.361222,-1.85909 8.927122,3.34547 v 43.46153 h 191.29969 v -8.54411 l 4.46355,-2.60153 -1.11956,-9.28657 -4.46357,-4.08497 3.34399,-3.71374 v -7.80165 l -7.05626,-7.42896 4.83185,-1.48638 0.75129,-3.71521 -4.83185,-4.08645 11.5051,-10.40025 -2.22443,-4.83037 2.97572,-4.45619 -4.46357,-4.08791 13.37595,-4.4562 0.7513,-4.83037 -5.58314,-4.82742 7.05626,-3.34399 2.23915,-6.68797 h 4.44883 v -7.42749 l 4.09528,0.37123 5.56841,-3.34399 v -17.45945 l 2.9757,-7.43042 h 5.20012 l 0.73656,-7.05626 11.51982,-7.05774 -2.22441,-7.0592 5.93668,-3.71374 3.34399,-6.6865 H 322.36 l 2.22441,-2.22883 -2.59269,-15.97307 5.20012,-7.05921 0.36828,-4.82742 5.95142,-2.97276 -1.11958,-4.08644 1.85614,-4.08644 -2.5927,-6.31381 15.60036,-7.80165 -5.95141,-3.71522 2.60743,-2.971289 4.44883,1.113679 -2.5927,-8.172881 -42.35227,1.857607 5.20013,-10.029018 14.49552,-13.744234 v -6.686503 l -5.58314,-9.288037 H 173.39785 L 34.099387,52.09677 Z"
     fill="#000000"
     id="path100"
     style="stroke-width:14.7312" />
</svg>
