<svg width="24" height="24" viewBox="29.794 29.668 322.872 321.233" xmlns="http://www.w3.org/2000/svg" xmlns:svg="http://www.w3.org/2000/svg"><path d="m41.907 139.391-6.688 136.704 3.712 5.57h3.344l-.368 1.86 13.361-1.86 8.927 3.346v43.461h191.3v-8.544l4.464-2.601-1.12-9.287-4.464-4.085 3.344-3.714v-7.801l-7.056-7.43 4.832-1.486.751-3.715-4.832-4.086 11.506-10.4-2.225-4.831 2.976-4.456-4.464-4.088 13.376-4.456.751-4.83-5.583-4.828 7.057-3.344 2.239-6.688h4.449v-7.427l4.095.37 5.568-3.343v-17.46l2.976-7.43h5.2l.737-7.056 11.52-7.058-2.225-7.06 5.937-3.713 3.344-6.687h3.712l2.224-2.228-2.592-15.973 5.2-7.06.368-4.827 5.952-2.973-1.12-4.086 1.856-4.087-2.593-6.314 15.6-7.801-5.95-3.715 2.607-2.972 4.449 1.114-2.593-8.173-42.352 1.858 5.2-10.03 14.495-13.744v-6.686l-5.583-9.288h-144.13L34.099 52.097Z" style="stroke-width:14.7312"/></svg>