<svg xmlns="http://www.w3.org/2000/svg" width="24" height="24" viewBox="29.794 29.668 322.872 321.233">
  <path
     d="M329.863 36.5938L329.409 45.8737L329.661 46.2518H329.888L329.863 46.378L330.77 46.2518L331.376 46.4789V49.4292H344.362V48.8492L344.665 48.6726L344.589 48.0422L344.286 47.7649L344.513 47.5128V46.9832L344.034 46.4789L344.362 46.378L344.413 46.1258L344.085 45.8484L344.866 45.1424L344.715 44.8145L344.917 44.512L344.614 44.2345L345.522 43.932L345.573 43.6041L345.194 43.2764L345.673 43.0494L345.825 42.5954H346.127V42.0912L346.405 42.1164L346.783 41.8894V40.7042L346.985 40.1998H347.338L347.388 39.7208L348.17 39.2417L348.019 38.7625L348.422 38.5104L348.649 38.0565H348.901L349.052 37.9052L348.876 36.8209L349.229 36.3417L349.254 36.014L349.658 35.8122L349.582 35.5348L349.708 35.2574L349.532 34.8288L350.591 34.2992L350.187 34.047L350.364 33.8453L350.666 33.9209L350.49 33.3661L347.615 33.4922L347.968 32.8114L348.952 31.8784V31.4245L348.573 30.794H338.789L329.333 30.668L329.863 36.5938Z"
     fill="black"
     id="path100" />
</svg>
