<?xml version="1.0" encoding="UTF-8" standalone="no"?>
<svg
   width="24"
   height="24"
   viewBox="31.8589 28.332 219.07309999999998 205.53900000000002"
   version="1.1"
   id="svg1"
   sodipodi:docname="az.svg"
   inkscape:version="1.4.3 (0d15f75042, 2025-12-25)"
   xmlns:inkscape="http://www.inkscape.org/namespaces/inkscape"
   xmlns:sodipodi="http://sodipodi.sourceforge.net/DTD/sodipodi-0.dtd"
   xmlns="http://www.w3.org/2000/svg"
   xmlns:svg="http://www.w3.org/2000/svg">
  <defs
     id="defs1" />
  <sodipodi:namedview
     id="namedview1"
     pagecolor="#ffffff"
     bordercolor="#000000"
     borderopacity="0.25"
     inkscape:showpageshadow="2"
     inkscape:pageopacity="0.0"
     inkscape:pagecheckerboard="0"
     inkscape:deskcolor="#d1d1d1"
     inkscape:zoom="31"
     inkscape:cx="12.016129"
     inkscape:cy="12"
     inkscape:window-width="1920"
     inkscape:window-height="947"
     inkscape:window-x="1920"
     inkscape:window-y="32"
     inkscape:window-maximized="1"
     inkscape:current-layer="svg1" />
  <path
     d="m 232.43932,58.329597 2.03849,181.491483 -65.75136,-0.29252 -120.413356,-47.34587 3.801776,-8.47501 h 5.840262 l 2.629647,-4.96779 -0.876549,-5.84536 -5.840261,-2.63066 0.285387,-4.38478 -1.161936,-4.96779 v -2.92217 l 2.925227,-1.46058 3.791584,-4.09226 1.753097,-6.13686 -0.876548,-9.35257 4.382744,-5.84536 8.775681,-5.84536 -7.899132,-7.01341 -1.161937,-6.72292 -5.554874,-9.35156 -0.876549,-9.644074 2.334067,-2.923189 -2.629647,-11.690715 1.172129,-13.735317 -2.334066,-5.552835 1.161937,-3.507215 4.973905,-1.461594 5.840262,1.461594 3.801776,4.091241 3.506195,-0.584026 2.334066,-6.137881 1.753098,-30.102319 152.274885,2.04664 z"
     fill="#000000"
     id="path102"
     style="stroke-width:10.1924" />
</svg>
