<svg xmlns="http://www.w3.org/2000/svg" width="24" height="24" viewBox="31.8589 28.332 219.07309999999998 205.53900000000002">
  <path
     d="M248.732 32.8589L248.932 50.6654L242.481 50.6367L230.667 45.9915L231.04 45.16H231.613L231.871 44.6726L231.785 44.0991L231.212 43.841L231.24 43.4108L231.126 42.9234V42.6367L231.413 42.4934L231.785 42.0919L231.957 41.4898L231.871 40.5722L232.301 39.9987L233.162 39.4252L232.387 38.7371L232.273 38.0775L231.728 37.16L231.642 36.2138L231.871 35.927L231.613 34.78L231.728 33.4324L231.499 32.8876L231.613 32.5435L232.101 32.4001L232.674 32.5435L233.047 32.9449L233.391 32.8876L233.62 32.2854L233.792 29.332L248.732 29.5328V32.8589Z"
     fill="black"
     id="path102" />
</svg>
