<svg width="24" height="24" viewBox="31.859 28.332 219.073 205.539" xmlns="http://www.w3.org/2000/svg" xmlns:svg="http://www.w3.org/2000/svg"><path d="m232.44 58.33 2.038 181.491-65.752-.292-120.413-47.346 3.802-8.475h5.84l2.63-4.968-.877-5.845-5.84-2.631.285-4.385-1.162-4.968v-2.922l2.926-1.46 3.791-4.093 1.753-6.137-.876-9.352 4.383-5.846 8.775-5.845-7.899-7.013-1.162-6.723-5.555-9.352-.876-9.644 2.334-2.923-2.63-11.69 1.172-13.736-2.334-5.553 1.162-3.507 4.974-1.462 5.84 1.462 3.802 4.091 3.506-.584 2.334-6.138 1.753-30.102 152.275 2.047z" style="stroke-width:10.1924"/></svg>