<svg width="24" height="24" viewBox="28.332 30.799 423.381 413.073" xmlns="http://www.w3.org/2000/svg" xmlns:svg="http://www.w3.org/2000/svg"><path d="m272.084 436.792-4.047-.507-5.049-10.603h1.513zm-44.438-19.693 3.025.503v1.517l-5.049-2.02zm44.438-6.565 1.002 4.039h-4.027l-6.562-6.061zM207.45 384.78l1.002 3.031-5.049 3.028-3.536-6.059zm-10.098-1.008v1.008l-5.049-1.008 2.024-1.516zm18.172-1.011 9.607-.505 1.002 1.516-9.587 3.028-5.56-4.544zM201.89 76.258l1.513 85.335 201.485 168.653 12.613 22.22 9.606 6.058-14.145 17.166 1.002 18.685-7.563 6.059 4.538 15.148 7.583 3.537-.51 10.602-97.953 17.169-4.047-6.06 4.047 1.009-1.022-3.028-4.538 2.02-3.026-18.18-9.095-12.117-23.732-16.159-9.587.505-4.558-12.12-11.1 1.012-12.121-4.043-6.562-7.571-12.121-6.059-32.828-2.02-5.049-3.03V333.78l-9.587-2.524v-9.088l-14.145-10.605-8.585-14.644-13.123-13.127-3.025-14.14 4.047-1.009 2.514-9.09-5.049-5.555h-8.074l-6.562-7.572-7.583-17.673V217.14l4.558-1.515.491 9.09 9.096 6.564h3.536l-5.56-12.12-4.538-3.534-3.025-7.575 1.002-2.02 5.049-.505 2.514.505h16.68l1.512-4.544 7.564 4.544-6.051-4.544-5.56 4.04 2.535-4.547-8.094 4.546-4.028-4.546-5.049 4.546-8.074-5.049-4.558.503 2.534 11.11-2.534 2.524-14.636-11.107-2.534 4.04L99.4 196.94l5.048 4.546-9.606-15.654-20.687-21.712v-7.573l-3.536-12.12 2.004-14.136-6.051-13.132-13.123-11.107-.511-8.585 3.536-12.118 6.05-6.06-3.025 3.534 6.07-30.296-3.535-11.11-2.535-4.543.511-9.09H201.4Z" style="stroke-width:19.6456"/></svg>