<svg xmlns="http://www.w3.org/2000/svg" width="24" height="24" viewBox="28.332 30.7995 423.38100000000003 413.07349999999997">
  <path
     d="M441.822 50.1514L441.616 50.1256L441.359 49.5859H441.436L441.822 50.1514ZM439.56 49.149L439.714 49.1746V49.2518L439.457 49.149H439.56ZM441.822 48.8148L441.873 49.0204H441.668L441.334 48.7119L441.822 48.8148ZM438.532 47.5039L438.583 47.6582L438.326 47.8123L438.146 47.5039H438.532ZM438.018 47.4526V47.5039L437.761 47.4526L437.864 47.3754L438.018 47.4526ZM438.943 47.4011L439.432 47.3754L439.483 47.4526L438.995 47.6067L438.712 47.3754L438.943 47.4011ZM438.249 31.7995L438.326 36.1432L448.582 44.728L449.224 45.859L449.713 46.1674L448.993 47.0412L449.044 47.9923L448.659 48.3007L448.89 49.0718L449.276 49.2518L449.25 49.7915L444.264 50.6654L444.058 50.357L444.264 50.4083L444.212 50.2542L443.981 50.357L443.827 49.4316L443.364 48.8148L442.156 47.9923L441.668 48.018L441.436 47.4011L440.871 47.4526L440.254 47.2468L439.92 46.8614L439.303 46.553L437.632 46.4502L437.375 46.2959V44.9079L436.887 44.7794V44.3168L436.167 43.777L435.73 43.0316L435.062 42.3634L434.908 41.6436L435.114 41.5923L435.242 41.1296L434.985 40.8468H434.574L434.24 40.4614L433.854 39.5618V38.9706L434.086 38.8935L434.111 39.3562L434.574 39.6903H434.754L434.471 39.0734L434.24 38.8935L434.086 38.5079L434.137 38.4051L434.394 38.3794L434.522 38.4051H435.371L435.448 38.1738L435.833 38.4051L435.525 38.1738L435.242 38.3794L435.371 38.148L434.959 38.3794L434.754 38.148L434.497 38.3794L434.086 38.1224L433.854 38.148L433.983 38.7135L433.854 38.842L433.109 38.2766L432.98 38.4823L433.032 37.9424L433.289 38.1738L432.8 37.377L431.747 36.2718V35.8863L431.567 35.2694L431.669 34.5498L431.361 33.8814L430.693 33.316L430.667 32.879L430.847 32.2622L431.155 31.9537L431.001 32.1336L431.31 30.5915L431.13 30.026L431.001 29.7947L431.027 29.332H438.224L438.249 31.7995Z"
     fill="black"
     id="path98" />
</svg>
