<?xml version="1.0" encoding="UTF-8" standalone="no"?>
<svg
   width="24"
   height="24"
   viewBox="28.332 30.7995 423.38100000000003 413.07349999999997"
   version="1.1"
   id="svg1"
   sodipodi:docname="ca.svg"
   inkscape:version="1.4.3 (0d15f75042, 2025-12-25)"
   xmlns:inkscape="http://www.inkscape.org/namespaces/inkscape"
   xmlns:sodipodi="http://sodipodi.sourceforge.net/DTD/sodipodi-0.dtd"
   xmlns="http://www.w3.org/2000/svg"
   xmlns:svg="http://www.w3.org/2000/svg">
  <defs
     id="defs1" />
  <sodipodi:namedview
     id="namedview1"
     pagecolor="#ffffff"
     bordercolor="#000000"
     borderopacity="0.25"
     inkscape:showpageshadow="2"
     inkscape:pageopacity="0.0"
     inkscape:pagecheckerboard="0"
     inkscape:deskcolor="#d1d1d1"
     inkscape:zoom="31"
     inkscape:cx="12.016129"
     inkscape:cy="12"
     inkscape:window-width="1920"
     inkscape:window-height="947"
     inkscape:window-x="1920"
     inkscape:window-y="32"
     inkscape:window-maximized="1"
     inkscape:current-layer="svg1" />
  <path
     d="m 272.08406,436.79177 -4.04698,-0.50686 -5.04891,-10.60271 h 1.51271 z m -44.43826,-19.69272 3.02541,0.50293 v 1.51664 l -5.04891,-2.01957 z m 44.43826,-6.56554 1.00193,4.03913 h -4.02734 l -6.56162,-6.06066 z m -64.6339,-25.75337 1.00192,3.03131 -5.04891,3.02738 -3.5362,-6.05869 z m -10.09782,-1.00782 v 1.00782 l -5.04891,-1.00782 2.02349,-1.51664 z m 18.17214,-1.01175 9.60668,-0.50489 1.00193,1.51664 -9.58704,3.02738 -5.55969,-4.54402 z m -13.63402,-306.50223 1.51271,85.33444 201.48491,168.65324 12.61245,22.21913 9.60668,6.05869 -14.14481,17.16629 1.00193,18.6849 -7.56354,6.05869 4.53812,15.1487 7.58319,3.5362 -0.51079,10.60271 -97.95278,17.16826 -4.04699,-6.05869 4.04699,1.00781 -1.02157,-3.02738 -4.53812,2.01957 -3.02542,-18.18001 -9.0959,-12.11738 -23.73184,-16.15848 -9.58703,0.50489 -4.55777,-12.11935 -11.09975,1.01175 -12.12131,-4.04306 -6.56162,-7.5714 -12.12131,-6.05869 -32.82774,-2.01956 -5.04891,-3.03131 v -27.26805 l -9.58704,-2.52445 v -9.08804 l -14.1448,-10.60468 -8.58511,-14.6438 -13.12324,-13.12717 -3.02542,-14.14087 4.04699,-1.00782 2.51463,-9.09 -5.04891,-5.55577 h -8.07433 l -6.56161,-7.5714 -7.58319,-17.67315 v -11.61446 l 4.55777,-1.51467 0.49114,9.09 9.09589,6.56359 h 3.53621 l -5.5597,-12.11935 -4.53812,-3.53424 -3.02542,-7.57533 1.00192,-2.01956 5.04891,-0.50489 2.51464,0.50489 h 16.67908 l 1.51271,-4.54402 7.56354,4.54402 -6.05083,-4.54402 -5.5597,4.03913 2.53428,-4.54599 -8.09397,4.54599 -4.02734,-4.54599 -5.04891,4.54599 -8.07433,-5.04891 -4.55777,0.50292 2.53428,11.10957 -2.53428,2.52446 -14.63595,-11.10761 -2.534272,4.0411 1.02156,-10.60664 5.048912,4.54598 -9.606682,-15.65359 -20.686776,-21.71227 v -7.57337 l -3.536201,-12.11935 2.003847,-14.13695 -6.050833,-13.13109 -13.123237,-11.1076 -0.510785,-8.585114 3.536202,-12.117384 6.050834,-6.060656 -3.025417,3.534237 6.070479,-30.295425 -3.536202,-11.109566 -2.534277,-4.544019 0.510784,-9.090003 H 201.39932 Z"
     fill="#000000"
     id="path98"
     style="stroke-width:19.6456" />
</svg>
