<?xml version="1.0" encoding="UTF-8" standalone="no"?>
<svg
   width="24"
   height="24"
   viewBox="131.0 128.333 21.665999999999997 21.695999999999998"
   version="1.1"
   id="svg1"
   sodipodi:docname="ct.svg"
   inkscape:version="1.4.3 (0d15f75042, 2025-12-25)"
   xmlns:inkscape="http://www.inkscape.org/namespaces/inkscape"
   xmlns:sodipodi="http://sodipodi.sourceforge.net/DTD/sodipodi-0.dtd"
   xmlns="http://www.w3.org/2000/svg"
   xmlns:svg="http://www.w3.org/2000/svg">
  <defs
     id="defs1" />
  <sodipodi:namedview
     id="namedview1"
     pagecolor="#ffffff"
     bordercolor="#000000"
     borderopacity="0.25"
     inkscape:showpageshadow="2"
     inkscape:pageopacity="0.0"
     inkscape:pagecheckerboard="0"
     inkscape:deskcolor="#d1d1d1"
     inkscape:zoom="31"
     inkscape:cx="12.016129"
     inkscape:cy="12"
     inkscape:window-width="1920"
     inkscape:window-height="947"
     inkscape:window-x="1920"
     inkscape:window-y="32"
     inkscape:window-maximized="1"
     inkscape:current-layer="svg1" />
  <path
     d="m 139.3155,131.762 2.002,0.119 0.06,0.358 0.456,-0.04 0.02,-0.318 10.488,0.04 0.158,7.399 -0.099,1.592 -0.258,0.338 -0.158,0.994 -0.337,0.12 0.158,-0.239 -0.277,-0.139 h -0.873 l -0.793,0.378 -0.515,-0.517 -0.278,0.616 -0.912,-0.219 -0.099,0.398 -0.297,-0.159 -0.694,0.418 -0.635,-0.398 v -0.537 l -0.535,-0.259 0.456,0.617 -0.139,0.318 0.199,0.139 -0.238,0.179 -0.932,-0.139 -0.595,0.438 -0.139,-0.159 -0.218,0.079 -0.694,-0.278 -0.634,0.159 -0.317,0.199 -0.556,-0.159 -0.713,0.139 h -0.853 l -0.218,-0.279 -0.059,-0.437 -1.071,1.273 -0.456,0.099 -0.793,0.617 -0.317,0.139 -0.238,-0.278 -0.496,0.338 -0.139,-0.08 -0.357,0.438 -0.376,-0.119 -0.655,0.338 -1.407,0.895 -0.337,-0.02 -0.199,0.398 -0.079,-0.12 -0.634,0.339 -0.199,-0.199 -0.495,0.258 -0.833,-1.392 2.696,-1.591 -0.674,-1.154 0.774,-11.179 z"
     fill="#000000"
     id="path94" />
</svg>
