<svg xmlns="http://www.w3.org/2000/svg" width="24" height="24" viewBox="131.0 128.333 21.665999999999997 21.695999999999998">
  <path
     d="M137.482 132.239L139.484 132.358L139.544 132.716L140 132.676L140.02 132.358L150.508 132.398L150.666 139.797L150.567 141.389L150.309 141.727L150.151 142.721L149.814 142.841L149.972 142.602L149.695 142.463H148.822L148.029 142.841L147.514 142.324L147.236 142.94L146.324 142.721L146.225 143.119L145.928 142.96L145.234 143.378L144.599 142.98V142.443L144.064 142.184L144.52 142.801L144.381 143.119L144.58 143.258L144.342 143.437L143.41 143.298L142.815 143.736L142.676 143.577L142.458 143.656L141.764 143.378L141.13 143.537L140.813 143.736L140.257 143.577L139.544 143.716H138.691L138.473 143.437L138.414 143L137.343 144.273L136.887 144.372L136.094 144.989L135.777 145.128L135.539 144.85L135.043 145.188L134.904 145.108L134.547 145.546L134.171 145.427L133.516 145.765L132.109 146.66L131.772 146.64L131.573 147.038L131.494 146.918L130.86 147.257L130.661 147.058L130.166 147.316L129.333 145.924L132.029 144.333L131.355 143.179L132.129 132L137.482 132.239Z"
     fill="black"
     id="path94" />
</svg>
