<svg width="24" height="24" viewBox="131 128.333 21.666 21.696" xmlns="http://www.w3.org/2000/svg" xmlns:svg="http://www.w3.org/2000/svg"><path d="m139.316 131.762 2.001.119.06.358.456-.04.02-.318 10.488.04.158 7.399-.099 1.592-.258.338-.158.994-.337.12.159-.239-.278-.139h-.872l-.793.378-.515-.517-.278.616-.912-.219-.1.398-.296-.159-.694.418-.635-.398v-.537l-.535-.259.456.617-.14.318.2.139-.238.179-.932-.139-.595.438-.14-.159-.217.079-.694-.278-.634.159-.317.199-.556-.159-.713.139h-.853l-.218-.279-.06-.437-1.07 1.273-.456.099-.793.617-.317.139-.238-.278-.496.338-.14-.08-.356.438-.376-.119-.655.338-1.407.895-.337-.02-.2.398-.078-.12-.634.339-.2-.199-.494.258-.833-1.392 2.696-1.591-.674-1.154.774-11.179z"/></svg>