<?xml version="1.0" encoding="UTF-8" standalone="no"?>
<svg
   width="24"
   height="24"
   viewBox="146.507 128.332 200.16500000000002 218.534"
   version="1.1"
   id="svg1"
   sodipodi:docname="de.svg"
   inkscape:version="1.4.3 (0d15f75042, 2025-12-25)"
   xmlns:inkscape="http://www.inkscape.org/namespaces/inkscape"
   xmlns:sodipodi="http://sodipodi.sourceforge.net/DTD/sodipodi-0.dtd"
   xmlns="http://www.w3.org/2000/svg"
   xmlns:svg="http://www.w3.org/2000/svg">
  <defs
     id="defs1" />
  <sodipodi:namedview
     id="namedview1"
     pagecolor="#ffffff"
     bordercolor="#000000"
     borderopacity="0.25"
     inkscape:showpageshadow="2"
     inkscape:pageopacity="0.0"
     inkscape:pagecheckerboard="0"
     inkscape:deskcolor="#d1d1d1"
     inkscape:zoom="31"
     inkscape:cx="12.016129"
     inkscape:cy="12"
     inkscape:window-width="1920"
     inkscape:window-height="947"
     inkscape:window-x="1920"
     inkscape:window-y="32"
     inkscape:window-maximized="1"
     inkscape:current-layer="svg1" />
  <path
     d="m 244.91272,134.8957 -5.87887,5.31319 -1.67678,6.1617 -7.00009,10.07083 -5.3132,2.51518 -1.68689,6.44453 5.04047,5.03036 0.83839,5.87886 -3.08084,8.67688 11.20216,21.54572 3.91924,0.8384 3.63641,5.04046 3.35357,8.95971 -0.55556,13.43451 1.67678,14.82847 3.08085,1.95962 6.15159,11.19206 0.83839,9.51527 17.35375,18.74771 10.35368,0.84849 0.83839,2.51519 1.40406,16.51536 -1.40406,5.86876 -0.27274,-7.55566 -1.68689,-1.95961 h -5.86876 l 1.94952,6.1617 h -3.63641 l 6.16169,3.35357 -2.52528,1.95961 -8.66677,3.08085 -1.95961,2.24246 h 2.51518 l -2.51518,3.08085 10.35366,-3.08085 3.63641,3.35358 4.20207,-7.27282 1.67679,25.18212 -3.36368,-1.11112 -0.83839,1.11112 h -76.67773 l -8.67687,-197.29538 10.07083,-12.87895 12.04055,-5.3132 13.15168,0.28283 z"
     fill="#000000"
     id="path90"
     style="stroke-width:10.1011" />
</svg>
