<svg xmlns="http://www.w3.org/2000/svg" width="24" height="24" viewBox="146.507 128.332 200.16500000000002 218.534">
  <path
     d="M340.267 129.831L339.685 130.357L339.519 130.967L338.826 131.964L338.3 132.213L338.133 132.851L338.632 133.349L338.715 133.931L338.41 134.79L339.519 136.923L339.907 137.006L340.267 137.505L340.599 138.392L340.544 139.722L340.71 141.19L341.015 141.384L341.624 142.492L341.707 143.434L343.425 145.29L344.45 145.374L344.533 145.623L344.672 147.258L344.533 147.839L344.506 147.091L344.339 146.897H343.758L343.951 147.507H343.591L344.201 147.839L343.951 148.033L343.093 148.338L342.899 148.56H343.148L342.899 148.865L343.924 148.56L344.284 148.892L344.7 148.172L344.866 150.665L344.533 150.555L344.45 150.665H336.859L336 131.133L336.997 129.858L338.189 129.332L339.491 129.36L340.267 129.831Z"
     fill="black"
     id="path90" />
</svg>
