<svg width="24" height="24" viewBox="146.507 128.332 200.165 218.534" xmlns="http://www.w3.org/2000/svg" xmlns:svg="http://www.w3.org/2000/svg"><path d="m244.913 134.896-5.88 5.313-1.676 6.162-7 10.07-5.313 2.516-1.687 6.444 5.04 5.03.839 5.88-3.081 8.676 11.202 21.546 3.92.838 3.636 5.04 3.353 8.96-.555 13.435 1.677 14.828 3.08 1.96 6.152 11.192.838 9.515 17.354 18.748 10.354.849.838 2.515 1.404 16.515-1.404 5.869-.273-7.556-1.686-1.96h-5.87l1.95 6.162h-3.636l6.162 3.354-2.526 1.96-8.666 3.08-1.96 2.243h2.515l-2.515 3.08 10.354-3.08 3.636 3.353 4.202-7.272 1.677 25.182-3.364-1.111-.838 1.11h-76.678l-8.677-197.295 10.071-12.879 12.04-5.313 13.152.283z" style="stroke-width:10.1011"/></svg>