<svg xmlns="http://www.w3.org/2000/svg" width="24" height="24" viewBox="129.459 128.332 323.103 323.915">
  <path
     d="M444.507 150.665H444.455L444.56 150.639L444.507 150.665ZM445.634 150.561V150.665H445.398L445.451 150.639L445.634 150.561ZM445.896 150.561L445.634 150.665L445.739 150.534L445.896 150.561ZM444.507 150.534L444.56 150.561L444.455 150.534H444.507ZM447.023 150.325H446.892L447.076 150.298L447.023 150.325ZM446.499 150.325L446.421 150.298V150.22H446.499V150.325ZM446.211 150.22L446.29 150.351L445.923 150.561L446.08 150.325L446.263 150.351L446.211 150.22ZM446.394 150.22L446.29 150.325V150.194H446.368L446.394 150.22ZM446.866 150.22L446.788 150.194V150.167V150.194L446.866 150.22ZM447.574 150.194L447.338 150.167L447.679 150.089V150.167L447.574 150.194ZM446.761 150.325L446.735 150.351L446.604 150.063L446.709 150.167L446.761 150.325ZM447.993 150.063L447.679 150.167L448.019 149.879L447.993 150.063ZM448.36 149.748V149.827L448.177 149.853L448.36 149.722V149.748ZM448.622 149.722H448.596L448.622 149.591V149.722ZM448.832 149.486H448.806L448.937 149.381L448.832 149.486ZM447.652 148.28H447.574V148.176H447.679L447.652 148.28ZM447.495 148.123H447.574L447.548 148.176L447.443 148.123H447.495ZM449.67 148.673L449.068 149.381H448.989L449.67 148.464V148.254L450.011 148.045L449.67 148.673ZM450.09 147.809L450.064 147.861L450.195 147.651L450.168 147.704L450.09 147.809ZM450.247 146.97H450.195L450.221 146.839H450.247V146.97ZM446.735 146.603H446.499V146.498L446.604 146.42L446.735 146.603ZM446.421 146.393V146.524L446.29 146.42L446.368 146.393H446.421ZM445.896 146.367L445.792 146.42L445.739 146.367H445.896ZM446.263 146.393L446.211 146.42V146.289L446.263 146.367V146.393ZM444.56 144.454L444.796 144.533L444.455 144.454L444.324 144.218L444.56 144.454ZM444.219 143.904V143.982L444.193 143.746H444.219V143.904ZM444.665 144.323L444.586 144.244L444.35 143.746L444.56 143.773L444.665 144.323ZM444.193 143.589L444.114 143.72V143.379V143.432L444.193 143.589ZM443.223 141.65V141.676L442.961 141.335H443.04L443.223 141.65ZM443.223 140.968H443.171H443.223ZM450.195 142.121L449.88 141.361L449.408 139.972L449.67 140.444L450.195 142.121ZM448.832 139.003L448.806 138.793L448.832 138.924V139.003ZM448.832 137.719L448.806 138.164V138.793L448.517 137.85L448.806 137.561L448.832 137.719ZM442.961 137.09H443.04V137.142H442.961V137.09ZM442.961 137.037V136.959L443.04 137.037H442.961ZM442.018 135.805H441.939V135.779L441.992 135.701L442.018 135.805ZM436.252 133.892L436.147 134.049L435.937 133.892H436.121H436.252ZM436.593 134.102L436.409 134.181L436.252 134.076H436.514L437.405 133.63L436.593 134.102ZM437.615 133.604L437.458 133.63L437.746 133.473L437.615 133.604ZM432.216 131.402L430.277 131.507H430.145L431.849 131.324L432.321 131.402H432.216ZM443.223 140.968L443.852 140.077L443.747 139.737H443.616V140.077H443.407L443.38 139.632L442.961 139.448V139.606H443.066L442.909 139.71L443.302 139.92L443.04 140.444L442.62 140.051L442.83 140.392V140.549L442.489 139.868L443.04 138.059L443.171 137.194L442.961 136.932L443.171 136.959V136.618L442.935 136.33L442.752 135.701H442.018L441.52 134.888L441.022 134.521L441.074 134.102L440.655 133.892L440.288 133.237L439.344 132.66L438.899 132.765L438.794 132.608L438.218 132.818L438.375 133.001L438.086 132.896L438.06 133.001L438.375 133.132V133.237L438.322 133.289L437.955 133.237L436.881 133.735L436.933 133.578L436.514 133.787L435.57 133.892L435.492 133.735L435.335 133.289L435.57 133.892L435.675 133.473L435.57 133.237L434.679 132.346L435.308 132.791L435.492 132.687L435.23 132.765L435.204 132.346L434.994 132.451L434.548 132.189L435.073 131.953L434.994 131.822L434.627 131.979L434.444 131.822L434.208 131.953L434.444 132.005L434.548 132.346L433.605 131.822L432.347 131.376L432.819 131.481L433.002 131.324L433.133 131.507V131.324L433.5 131.507L433.395 131.193L433.186 131.062L432.661 131.219V131.062L432.399 131.036L432.137 131.376L431.666 131.324L430.46 131.481L431.299 131.193L430.958 130.957L431.089 130.8L430.932 130.616L430.801 131.088L430.486 130.721L430.591 131.062L430.25 131.481L429.516 131.665L430.014 131.088L429.805 130.905L429.936 130.38L429.333 129.778L429.412 129.332L436.619 129.647L436.96 130.564L444.324 131.219L444.56 131.874L444.874 131.848V130.616L445.058 130.459L446.604 130.8V131.376L446.394 131.062V131.324L446.709 131.534L447.102 133.735L448.019 136.12L448.832 137.43L449.146 138.007L448.963 138.217V138.793L449.408 139.946L448.832 138.793L448.937 137.561H448.465L448.491 137.09L448.177 136.959L448.596 138.295L449.566 140.549L449.67 141.126L450.09 142.148V142.095L449.749 141.991L450.247 142.331L450.562 143.379L450.247 146.734V146.289L449.88 147.206L449.775 148.045L449.487 148.438L449.566 148.621L449.435 148.438L449.277 148.464L449.408 148.516L449.435 148.673L449.277 148.595L449.251 148.438L448.622 148.726L448.177 148.621L447.574 148.883L447.338 148.673L447.233 148.438L447.443 148.123L447.574 148.28L447.862 148.464H447.757L448.019 148.385L447.338 147.966L447.233 147.389L446.735 146.524L445.949 146.158L445.634 146.262L445.896 146.027L445.634 145.948L445.477 145.555V145.712L445.294 144.533L445.215 144.349V144.533L444.874 144.454L445.477 143.72L445.163 143.877L445.058 144.218H444.717L444.665 143.039L445.032 142.751L444.455 142.96L444.114 142.619L444.455 143.406L444.01 143.275L443.302 141.807L443.276 141.44L442.935 141.204L442.83 141.047L443.04 141.204L442.961 141.126H443.223L443.066 140.995L443.276 140.968H443.223ZM448.334 142.121L447.548 142.908L448.124 143.537L448.596 143.773L448.832 142.829L448.701 142.436L448.334 142.121Z"
     fill="black"
     id="path88" />
</svg>
