<svg width="24" height="24" viewBox="129.459 128.332 323.103 323.915" xmlns="http://www.w3.org/2000/svg" xmlns:svg="http://www.w3.org/2000/svg"><path d="M350.926 430.457h-.683l1.38-.342zm14.81-1.367v1.367h-3.101l.696-.342zm3.443 0-3.443 1.367 1.38-1.722zm-18.253-.355.697.355-1.38-.355zm33.063-2.746h-1.722l2.418-.355zm-6.886 0-1.025-.355v-1.025h1.025zm-3.785-1.38 1.039 1.721-4.823 2.76 2.063-3.101 2.405.341zm2.405 0-1.366 1.38v-1.722h1.025zm6.203 0-1.025-.342v-.354.354zm9.303-.342-3.1-.354 4.48-1.025v1.025zm-10.683 1.722-.342.341-1.721-3.784 1.38 1.367zm16.19-3.443-4.127 1.367 4.468-3.785zm4.822-4.14v1.039l-2.405.341 2.405-1.721zm3.443-.341h-.342l.342-1.722zm2.76-3.101h-.342l1.721-1.38zm-15.507-15.848h-1.025v-1.367h1.38zm-2.063-2.063h1.038l-.341.696-1.38-.696zm28.582 7.227-7.911 9.304h-1.038l8.949-12.05v-2.76l4.48-2.746zm5.519-11.354-.342.684 1.722-2.76-.355.697zm2.063-11.025h-.683l.341-1.721h.342zm-46.15-4.823h-3.102v-1.38l1.38-1.024zm-4.127-2.76v1.722l-1.721-1.366 1.025-.355zm-6.899-.34-1.367.696-.696-.697zm4.823.34-.684.356v-1.722l.684 1.025zm-22.38-25.48 3.102 1.039-4.481-1.038-1.721-3.102zm-4.48-7.227v1.025l-.342-3.101h.342zm5.86 5.506-1.038-1.038-3.1-6.544 2.759.355zm-6.202-9.645-1.038 1.721v-4.48.696zm-12.747-25.48v.341l-3.442-4.48h1.038zm0-8.962h-.683zm91.619 15.151-4.14-9.987-6.202-18.253 3.443 6.203zm-17.911-40.973-.342-2.76.342 1.722zm0-16.873-.342 5.848v8.265l-3.798-12.392 3.798-3.797zm-77.15-8.266h1.038v.684h-1.038zm0-.696v-1.025l1.038 1.025zm-12.392-16.19h-1.038v-.341l.696-1.025zm-75.77-25.138-1.38 2.063-2.76-2.063h2.418zm4.48 2.76-2.418 1.037-2.063-1.38h3.443l11.709-5.86zm13.43-6.545-2.063.342 3.785-2.063zm-70.947-28.936-25.48 1.38h-1.735l22.392-2.405 6.203 1.025zM334.053 303.03l8.266-11.709-1.38-4.468h-1.721v4.468h-2.747l-.354-5.848-5.506-2.418v2.077h1.38l-2.064 1.366 5.165 2.76-3.443 6.886-5.52-5.165 2.76 4.481v2.064l-4.48-8.95 7.24-23.771 1.721-11.367-2.76-3.443 2.76.355v-4.481l-3.101-3.785-2.405-8.265h-9.645l-6.544-10.684-6.545-4.823.684-5.506-5.506-2.76-4.823-8.607-12.405-7.582-5.848 1.38-1.38-2.063-7.569 2.76 2.063 2.404-3.797-1.38-.342 1.38 4.14 1.722v1.38l-.697.683-4.823-.684-14.113 6.545.683-2.064-5.506 2.747-12.405 1.38-1.025-2.063-2.063-5.861 3.088 7.924 1.38-5.506-1.38-3.102-11.708-11.708 8.265 5.848 2.418-1.367-3.443 1.025-.341-5.506-2.76 1.38-5.86-3.443 6.898-3.101-1.038-1.722-4.823 2.063-2.404-2.063-3.102 1.722 3.102.683 1.366 4.48-12.392-6.885-16.53-5.86 6.202 1.379 2.404-2.063 1.722 2.405v-2.405l4.823 2.405-1.38-4.127-2.747-1.721-6.899 2.063v-2.063l-3.442-.342-3.443 4.468-6.19-.683-15.848 2.063 11.026-3.785-4.481-3.1 1.721-2.064-2.063-2.418-1.722 6.203-4.139-4.823 1.38 4.481-4.481 5.506-9.646 2.418 6.545-7.582-2.747-2.405 1.722-6.9-7.924-7.91 1.038-5.86 94.706 4.139 4.481 12.05 96.77 8.607 3.1 8.607 4.127-.341v-16.19l2.418-2.063 20.316 4.481v7.57l-2.76-4.127v3.443l4.14 2.76 5.164 28.923 12.05 31.34 10.684 17.215 4.126 7.582-2.405 2.76v7.57l5.848 15.15-7.57-15.15 1.38-16.19h-6.202l.342-6.19-4.127-1.721 5.506 17.556 12.747 29.62 1.367 7.582 5.519 13.43v-.697l-4.481-1.366 6.544 4.468 4.14 13.771-4.14 44.088v-5.848l-4.823 12.05-1.38 11.026-3.784 5.164 1.038 2.405-1.721-2.405-2.077.342 1.722.683.355 2.063-2.077-1.025-.341-2.063-8.266 3.785-5.848-1.38-7.924 3.443-3.1-2.76-1.38-3.088 2.759-4.14 1.721 2.064 3.785 2.418h-1.38l3.443-1.038-8.949-5.507-1.38-7.582-6.544-11.367-10.328-4.81-4.14 1.367 3.443-3.088-3.443-1.038-2.063-5.164v2.063l-2.405-15.493-1.038-2.418v2.418l-4.48-1.038 7.923-9.646-4.126 2.063-1.38 4.481h-4.481l-.683-15.493 4.822-3.784-7.582 2.746-4.481-4.48 4.481 10.341-5.848-1.721-9.303-19.291-.342-4.823-4.481-3.101-1.38-2.063 2.76 2.063-1.038-1.025h3.442l-2.063-1.722 2.76-.354zm67.164 15.151-10.33 10.342 7.57 8.266 6.202 3.1 3.102-12.404-1.722-5.165z" style="stroke-width:13.1409"/></svg>