<?xml version="1.0" encoding="UTF-8" standalone="no"?>
<svg
   width="24"
   height="24"
   viewBox="129.459 128.332 323.103 323.915"
   version="1.1"
   id="svg1"
   sodipodi:docname="fl.svg"
   inkscape:version="1.4.3 (0d15f75042, 2025-12-25)"
   xmlns:inkscape="http://www.inkscape.org/namespaces/inkscape"
   xmlns:sodipodi="http://sodipodi.sourceforge.net/DTD/sodipodi-0.dtd"
   xmlns="http://www.w3.org/2000/svg"
   xmlns:svg="http://www.w3.org/2000/svg">
  <defs
     id="defs1" />
  <sodipodi:namedview
     id="namedview1"
     pagecolor="#ffffff"
     bordercolor="#000000"
     borderopacity="0.25"
     inkscape:showpageshadow="2"
     inkscape:pageopacity="0.0"
     inkscape:pagecheckerboard="0"
     inkscape:deskcolor="#d1d1d1"
     inkscape:zoom="31"
     inkscape:cx="12.016129"
     inkscape:cy="11.645161"
     inkscape:window-width="1920"
     inkscape:window-height="947"
     inkscape:window-x="1920"
     inkscape:window-y="32"
     inkscape:window-maximized="1"
     inkscape:current-layer="svg1" />
  <path
     d="m 350.92636,430.45673 h -0.68333 l 1.3798,-0.34166 z m 14.80978,-1.36665 v 1.36665 h -3.10125 l 0.69646,-0.34166 z m 3.44291,0 -3.44291,1.36665 1.37979,-1.72146 z m -18.25269,-0.35481 0.69647,0.35481 -1.3798,-0.35481 z m 33.06246,-2.74644 h -1.72145 l 2.41792,-0.35481 z m -6.88582,0 -1.02499,-0.35481 v -1.02498 h 1.02499 z m -3.78457,-1.37979 1.03813,1.72145 -4.82271,2.75959 2.06312,-3.10125 2.40478,0.34166 z m 2.40478,0 -1.36665,1.37979 v -1.72145 h 1.02498 z m 6.20249,0 -1.02498,-0.34167 v -0.3548 0.3548 z m 9.30375,-0.34167 -3.10125,-0.3548 4.48104,-1.02499 v 1.02499 z m -10.68354,1.72146 -0.34166,0.34166 -1.72146,-3.78457 1.3798,1.36665 z m 16.18957,-3.44291 -4.12624,1.36665 4.4679,-3.78458 z m 4.8227,-4.13938 v 1.03813 l -2.40478,0.34166 2.40478,-1.72145 z m 3.44292,-0.34166 h -0.34167 l 0.34167,-1.72146 z m 2.75958,-3.10125 h -0.34166 l 1.72145,-1.3798 z m -15.50624,-15.84791 h -1.02499 v -1.36665 h 1.37979 z m -2.06312,-2.06312 h 1.03813 l -0.34166,0.69647 -1.3798,-0.69647 z m 28.58142,7.22749 -7.91081,9.30374 h -1.03813 l 8.94894,-12.05019 v -2.75958 l 4.48104,-2.74645 z m 5.51917,-11.35372 -0.34166,0.68332 1.72146,-2.75958 -0.35481,0.69646 z m 2.06312,-11.02521 h -0.68332 l 0.34166,-1.72145 h 0.34166 z m -46.15078,-4.8227 H 377.103 v -1.37979 l 1.37979,-1.02499 z m -4.12624,-2.75959 v 1.72146 l -1.72145,-1.36665 1.02498,-0.35481 z m -6.89896,-0.34166 -1.36665,0.69647 -0.69647,-0.69647 z m 4.8227,0.34166 -0.68332,0.35481 v -1.72146 l 0.68332,1.02499 z m -22.37892,-25.48017 3.10125,1.03813 -4.48105,-1.03813 -1.72145,-3.10125 z m -4.48104,-7.22748 v 1.02498 l -0.34167,-3.10124 h 0.34167 z m 5.86083,5.50603 -1.03813,-1.03813 -3.10125,-6.54416 2.75959,0.3548 z m -6.2025,-9.64541 -1.03813,1.72145 v -4.48104 0.69647 z m -12.74665,-25.48018 v 0.34167 l -3.44292,-4.48104 h 1.03813 z m 0,-8.96208 h -0.68333 z m 91.61824,15.15144 -4.13938,-9.98707 -6.2025,-18.25269 3.44291,6.2025 z m -17.91103,-40.97328 -0.34166,-2.75958 0.34166,1.72146 z m 0,-16.87289 -0.34166,5.84769 v 8.26562 l -3.79772,-12.39185 3.79772,-3.79772 z m -77.15013,-8.26562 h 1.03813 v 0.68333 h -1.03813 z m 0,-0.69646 v -1.02499 l 1.03813,1.02499 z M 318.2187,235.1832 h -1.03813 v -0.34166 l 0.69647,-1.02499 z m -75.77033,-25.13851 -1.3798,2.06312 -2.75958,-2.06312 h 2.41792 z m 4.48104,2.75958 -2.41793,1.03813 -2.06311,-1.37979 h 3.44291 l 11.70852,-5.86083 z m 13.42998,-6.54416 -2.06312,0.34167 3.78458,-2.06312 z m -70.94763,-28.93622 -25.48017,1.37979 h -1.7346 l 22.39207,-2.40478 6.20249,1.02499 z m 144.64171,125.70569 8.26561,-11.70853 -1.37979,-4.46789 h -1.72146 v 4.46789 h -2.74644 l -0.35481,-5.84769 -5.50603,-2.41792 v 2.07626 h 1.3798 l -2.06312,1.36665 5.16437,2.75959 -3.44292,6.88583 -5.51917,-5.16438 2.75959,4.48104 v 2.06312 l -4.48104,-8.94894 7.24062,-23.77185 1.72146,-11.36686 -2.75959,-3.44292 2.75959,0.35481 v -4.48105 l -3.10125,-3.78458 -2.40478,-8.26561 h -9.64541 l -6.54416,-10.68354 -6.54416,-4.82271 0.68333,-5.50603 -5.50603,-2.75958 -4.82271,-8.60728 -12.40499,-7.58229 -5.8477,1.37979 -1.37979,-2.06312 -7.56915,2.75959 2.06312,2.40478 -3.79771,-1.37979 -0.34167,1.37979 4.13938,1.72146 v 1.3798 l -0.69646,0.68333 -4.82271,-0.68333 -14.11331,6.54416 0.68333,-2.06312 -5.50603,2.74645 -12.405,1.37979 -1.02499,-2.06312 -2.06311,-5.86083 3.0881,7.92395 1.3798,-5.50603 -1.3798,-3.10125 -11.70852,-11.70853 8.26561,5.8477 2.41792,-1.36666 -3.44291,1.02499 -0.34166,-5.50603 -2.75959,1.3798 -5.86083,-3.44292 6.89896,-3.10124 -1.03813,-1.72146 -4.8227,2.06312 -2.40478,-2.06312 -3.10125,1.72146 3.10125,0.68332 1.36665,4.48104 -12.39185,-6.88582 -16.53123,-5.86083 6.20249,1.37979 2.40478,-2.06312 1.72146,2.40478 v -2.40478 l 4.8227,2.40478 -1.37979,-4.12624 -2.74644,-1.72145 -6.89897,2.06312 V 172.856 l -3.44291,-0.34166 -3.44291,4.4679 -6.18936,-0.68333 -15.8479,2.06312 11.0252,-3.78458 -4.48104,-3.10124 1.72145,-2.06312 -2.06311,-2.41793 -1.72146,6.2025 -4.13938,-4.8227 1.37979,4.48104 -4.48104,5.50603 -9.64541,2.41792 6.54416,-7.58229 -2.74644,-2.40478 1.72146,-6.89896 -7.92396,-7.91082 1.03813,-5.86083 94.70635,4.13938 4.48104,12.05019 96.76947,8.60728 3.10125,8.60728 4.12623,-0.34167 v -16.18957 l 2.41793,-2.06311 20.3158,4.48104 v 7.56915 l -2.75958,-4.12624 v 3.44291 l 4.13938,2.75959 5.16436,28.92308 12.05019,31.34101 10.68354,17.21456 4.12624,7.58228 -2.40478,2.75959 v 7.56915 l 5.84769,15.15144 -7.56915,-15.15144 1.37979,-16.18957 h -6.20249 l 0.34166,-6.18936 -4.12624,-1.72145 5.50603,17.55622 12.74666,29.61955 1.36665,7.58229 5.51917,13.42998 v -0.69646 l -4.48104,-1.36665 6.54416,4.4679 4.13938,13.77164 -4.13938,44.08767 v -5.8477 l -4.8227,12.05019 -1.3798,11.0252 -3.78457,5.16437 1.03813,2.40478 -1.72146,-2.40478 -2.07626,0.34166 1.72146,0.68333 0.3548,2.06312 -2.07626,-1.02499 -0.34166,-2.06312 -8.26561,3.78458 -5.8477,-1.3798 -7.92395,3.44291 -3.10125,-2.75958 -1.37979,-3.08811 2.75958,-4.13938 1.72146,2.06312 3.78457,2.41792 h -1.37979 l 3.44291,-1.03813 -8.94894,-5.50603 -1.37979,-7.58229 -6.54416,-11.36686 -10.32874,-4.80956 -4.13937,1.36665 3.44291,-3.08811 -3.44291,-1.03813 -2.06312,-5.16437 v 2.06312 l -2.40478,-15.4931 -1.03813,-2.41792 v 2.41792 l -4.48105,-1.03813 7.92396,-9.64541 -4.12624,2.06312 -1.37979,4.48104 h -4.48104 l -0.68333,-15.4931 4.8227,-3.78457 -7.58229,2.74644 -4.48104,-4.48104 4.48104,10.34188 -5.84769,-1.72146 -9.30374,-19.29082 -0.34167,-4.8227 -4.48104,-3.10125 -1.37979,-2.06312 2.75958,2.06312 -1.03813,-1.02499 h 3.44292 l -2.06312,-1.72145 2.75958,-0.35481 z m 67.16305,15.15144 -10.32873,10.34188 7.56915,8.26561 6.20249,3.10125 3.10125,-12.40499 -1.72145,-5.16437 z"
     fill="#000000"
     id="path88"
     style="stroke-width:13.1409" />
</svg>
