<svg width="24" height="24" viewBox="30.997 29.667 220.006 222.998" xmlns="http://www.w3.org/2000/svg" xmlns:svg="http://www.w3.org/2000/svg"><path d="m209.798 233.753-1.424-6.838 3.134-3.702-1.71 7.404zm-140.73-80.901-5.128-10.827-3.134-13.388L47.703 31.49l96.574 1.707-7.978 8.267-1.14 5.12 6.552 5.131 5.13 5.131 6.551 1.995 5.983 13.387 5.982 9.686 11.68 9.12 3.418 7.97 9.97 6.272v5.12l3.419 2.283-.569 2.56 3.134 1.43.855 3.701 9.4 5.13 4.844 13.954v5.984l8.26 6.272 2.28 7.404v8.832l12.25 5.984-2.564 2.273-1.425-.854-1.424 1.718 1.424 1.706-1.71 1.42-5.698-1.42 1.14 1.142-1.993 1.419 4.557.853-2.848 4.278-7.122-1.142 3.132 2.56-1.708 2.283 3.703-.853.286-1.43v1.43l-.856 5.13-3.133-3.423 1.708 1.994-5.126 2.283 2.28.853-.856 1.995 5.127-2.57-4.272 7.413-2.28-1.707 2.28 4.267-8.546-1.418 6.267 2.272 2.28 3.136-3.99 5.13-1.994-3.423-1.14.288v4.277l-1.423-.576 1.71 2.56 1.424-2.56-.571 5.131-3.419-3.136 2.28 3.136-2.28 1.42 2.28 1.428-1.995 2.283.57 3.126-1.71-.278 1.14 6.55-19.086-5.13-2.564 3.989 1.139 7.125-1.71 9.686-5.127.278-2.85-9.11-106.542-8.267-5.128-12.246-.57-5.409-3.133-4.565 3.133-16.801-3.988-13.11 5.128-16.236 5.412-5.13-3.703-3.127z" style="stroke-width:10.2823"/></svg>