<svg xmlns="http://www.w3.org/2000/svg" width="24" height="24" viewBox="30.9969 29.667 220.00609999999998 222.998">
  <path
     d="M46.4315 249.003L46.293 248.338L46.5978 247.978L46.4315 248.698V249.003ZM32.7449 241.135L32.2462 240.082L31.9414 238.78L30.667 229.332L40.0593 229.498L39.2834 230.302L39.1726 230.8L39.8098 231.299L40.3086 231.798L40.9458 231.992L41.5277 233.294L42.1094 234.236L43.2454 235.123L43.5778 235.898L44.5475 236.508V237.006L44.8799 237.228L44.8246 237.477L45.1294 237.616L45.2125 237.976L46.1267 238.475L46.5978 239.832V240.414L47.4011 241.024L47.6229 241.744V242.603L48.8142 243.185L48.5649 243.406L48.4263 243.323L48.2878 243.49L48.4263 243.656L48.2601 243.794L47.7059 243.656L47.8167 243.767L47.6229 243.905L48.0661 243.988L47.7891 244.404L47.0965 244.293L47.4011 244.542L47.235 244.764L47.5951 244.681L47.6229 244.542V244.681L47.5397 245.18L47.235 244.847L47.4011 245.041L46.9025 245.263L47.1242 245.346L47.041 245.54L47.5397 245.29L47.1242 246.011L46.9025 245.845L47.1242 246.26L46.293 246.122L46.9025 246.343L47.1242 246.648L46.7362 247.147L46.5423 246.814L46.4315 246.842V247.258L46.293 247.202L46.4593 247.451L46.5978 247.202L46.5423 247.701L46.2098 247.396L46.4315 247.701L46.2098 247.839L46.4315 247.978L46.2375 248.2L46.293 248.504L46.1267 248.477L46.2375 249.114L44.3813 248.615L44.1319 249.003L44.2427 249.696L44.0765 250.638L43.5778 250.665L43.3007 249.779L32.9389 248.975L32.4402 247.784L32.3847 247.258L32.08 246.814L32.3847 245.18L31.9969 243.905L32.4956 242.326L33.022 241.827L32.6618 241.523L32.7449 241.135Z"
     fill="black"
     id="path86" />
</svg>
