<?xml version="1.0" encoding="UTF-8" standalone="no"?>
<svg
   width="24"
   height="24"
   viewBox="30.9969 29.667 220.00609999999998 222.998"
   version="1.1"
   id="svg1"
   sodipodi:docname="ga.svg"
   inkscape:version="1.4.3 (0d15f75042, 2025-12-25)"
   xmlns:inkscape="http://www.inkscape.org/namespaces/inkscape"
   xmlns:sodipodi="http://sodipodi.sourceforge.net/DTD/sodipodi-0.dtd"
   xmlns="http://www.w3.org/2000/svg"
   xmlns:svg="http://www.w3.org/2000/svg">
  <defs
     id="defs1" />
  <sodipodi:namedview
     id="namedview1"
     pagecolor="#ffffff"
     bordercolor="#000000"
     borderopacity="0.25"
     inkscape:showpageshadow="2"
     inkscape:pageopacity="0.0"
     inkscape:pagecheckerboard="0"
     inkscape:deskcolor="#d1d1d1"
     inkscape:zoom="31"
     inkscape:cx="12.016129"
     inkscape:cy="10.129032"
     inkscape:window-width="1920"
     inkscape:window-height="947"
     inkscape:window-x="1920"
     inkscape:window-y="32"
     inkscape:window-maximized="1"
     inkscape:current-layer="svg1" />
  <path
     d="m 209.79767,233.75279 -1.4241,-6.83771 3.13404,-3.70161 -1.70994,7.40324 z M 69.068195,152.85181 63.940422,142.02456 60.806382,128.63703 47.702643,31.490045 l 96.574277,1.706859 -7.97803,8.266954 -1.13927,5.120576 6.55187,5.130858 5.1288,5.130859 6.55187,1.994762 5.98326,13.38753 5.9812,9.685909 11.68067,9.120384 3.41783,7.968768 9.97073,6.272196 v 5.12058 l 3.41783,2.28266 -0.56861,2.56029 3.13404,1.42924 0.85446,3.70162 9.40006,5.13086 4.84398,13.95304 v 5.98429 l 8.25976,6.27219 2.28061,7.40324 v 8.83248 l 12.24928,5.98429 -2.56337,2.27239 -1.42513,-0.85343 -1.42409,1.71714 1.42409,1.70686 -1.70891,1.41895 -5.69844,-1.41895 1.13927,1.14133 -1.9927,1.41895 4.55711,0.85343 -2.8482,4.27743 -7.1215,-1.14133 3.13198,2.56029 -1.70789,2.28266 3.70265,-0.85343 0.28585,-1.42923 v 1.42923 l -0.85549,5.13086 -3.13301,-3.424 1.70789,1.99477 -5.12675,2.28266 2.27958,0.85343 -0.85548,1.99476 5.12777,-2.57057 -4.27229,7.41353 -2.27958,-1.70686 2.27958,4.26715 -8.54663,-1.41896 6.26705,2.27239 2.27958,3.13609 -3.98952,5.13086 -1.99373,-3.424 -1.13928,0.2879 v 4.27743 l -1.4241,-0.57579 1.70995,2.56028 1.42409,-2.56028 -0.57066,5.13085 -3.41886,-3.13609 2.27958,3.13609 -2.27958,1.41896 2.27958,1.42924 -1.99476,2.28265 0.57066,3.12582 -1.70994,-0.27762 1.13928,6.54982 -19.08597,-5.13086 -2.56441,3.98952 1.13928,7.12563 -1.70891,9.6859 -5.12778,0.27763 -2.84922,-9.11011 -106.542942,-8.26695 -5.127774,-12.2462 -0.570667,-5.40848 -3.133011,-4.56533 3.133011,-16.80125 -3.987468,-13.10991 5.127773,-16.23573 5.412593,-5.13086 -3.703677,-3.12581 z"
     fill="#000000"
     id="path86"
     style="stroke-width:10.2823" />
</svg>
