<?xml version="1.0" encoding="UTF-8" standalone="no"?>
<svg
   width="24"
   height="24"
   viewBox="128.333 140.052 113.844 109.02000000000001"
   version="1.1"
   id="svg1"
   sodipodi:docname="hi.svg"
   inkscape:version="1.4.3 (0d15f75042, 2025-12-25)"
   xmlns:inkscape="http://www.inkscape.org/namespaces/inkscape"
   xmlns:sodipodi="http://sodipodi.sourceforge.net/DTD/sodipodi-0.dtd"
   xmlns="http://www.w3.org/2000/svg"
   xmlns:svg="http://www.w3.org/2000/svg">
  <defs
     id="defs1" />
  <sodipodi:namedview
     id="namedview1"
     pagecolor="#ffffff"
     bordercolor="#000000"
     borderopacity="0.25"
     inkscape:showpageshadow="2"
     inkscape:pageopacity="0.0"
     inkscape:pagecheckerboard="0"
     inkscape:deskcolor="#d1d1d1"
     inkscape:zoom="31"
     inkscape:cx="12.016129"
     inkscape:cy="12"
     inkscape:window-width="1920"
     inkscape:window-height="947"
     inkscape:window-x="1920"
     inkscape:window-y="32"
     inkscape:window-maximized="1"
     inkscape:current-layer="svg1" />
  <path
     d="m 225.26936,203.82938 8.0512,3.49451 8.58228,10.02683 -18.15238,13.6966 -4.91782,-3.22367 -3.21835,-15.48634 4.73725,-5.19399 -0.9825,-5.91094 z m -20.20767,-8.05651 -2.05529,0.17525 -0.89221,-0.53639 2.41111,-1.51889 z m -7.06339,-5.01342 h -1.965 l -1.69946,-3.40423 4.29114,0.53639 z m 6.26146,-6.0915 2.05528,2.95281 5.09839,-0.89222 5.0081,4.65758 -8.67787,3.04311 -6.08089,-7.25457 z m -13.41513,-4.29645 7.15367,1.34362 h 3.66447 l -11.98121,1.43392 z m -14.0418,-8.23708 3.57949,3.39892 0.53639,3.85034 -6.08089,-2.59168 -2.32614,1.78974 -3.48389,-5.91093 6.52699,-3.13338 z m -47.83986,-4.74788 -0.35582,-1.88002 3.30864,-2.68728 -0.27086,1.97031 z m 17.53101,-9.21958 -1.97031,7.87595 -7.15367,-3.5795 4.38142,-4.38673 z"
     fill="#000000"
     id="path84"
     style="stroke-width:5.31082" />
</svg>
