<svg width="24" height="24" viewBox="128.333 140.052 113.844 109.02" xmlns="http://www.w3.org/2000/svg" xmlns:svg="http://www.w3.org/2000/svg"><path d="m225.27 203.83 8.05 3.494 8.583 10.027-18.153 13.696-4.917-3.223-3.219-15.487 4.738-5.194-.983-5.91zm-20.208-8.057-2.056.175-.892-.536 2.411-1.52zm-7.064-5.014h-1.965l-1.7-3.404 4.292.537zm6.262-6.091 2.055 2.953 5.098-.892 5.009 4.657-8.678 3.043-6.081-7.254zm-13.415-4.297 7.153 1.344h3.665l-11.981 1.434zm-14.042-8.237 3.58 3.4.536 3.85-6.081-2.592-2.326 1.79-3.484-5.911 6.527-3.134zm-47.84-4.747-.356-1.88 3.309-2.688-.271 1.97zm17.531-9.22-1.97 7.876-7.154-3.58 4.381-4.386z" style="stroke-width:5.31082"/></svg>