<svg xmlns="http://www.w3.org/2000/svg" width="24" height="24" viewBox="128.333 140.052 113.844 109.02000000000001">
  <path
     d="M147.534 241.947L149.05 242.605L150.666 244.493L147.248 247.072L146.322 246.465L145.716 243.549L146.608 242.571L146.423 241.458L147.534 241.947ZM143.729 240.43L143.342 240.463L143.174 240.362L143.628 240.076L143.729 240.43ZM142.399 239.486H142.029L141.709 238.845L142.517 238.946L142.399 239.486ZM143.578 238.339L143.965 238.895L144.925 238.727L145.868 239.604L144.234 240.177L143.089 238.811L143.578 238.339ZM141.052 237.53L142.399 237.783H143.089L140.833 238.053L141.052 237.53ZM138.408 235.979L139.082 236.619L139.183 237.344L138.038 236.856L137.6 237.193L136.944 236.08L138.173 235.49L138.408 235.979ZM129.4 235.085L129.333 234.731L129.956 234.225L129.905 234.596L129.4 235.085ZM132.701 233.349L132.33 234.832L130.983 234.158L131.808 233.332L132.701 233.349Z"
     fill="black"
     id="path84" />
</svg>
