<?xml version="1.0" encoding="UTF-8" standalone="no"?>
<svg
   width="24"
   height="24"
   viewBox="28.333 29.7676 320.88199999999995 318.2674"
   version="1.1"
   id="svg1"
   sodipodi:docname="ia.svg"
   inkscape:version="1.4.3 (0d15f75042, 2025-12-25)"
   xmlns:inkscape="http://www.inkscape.org/namespaces/inkscape"
   xmlns:sodipodi="http://sodipodi.sourceforge.net/DTD/sodipodi-0.dtd"
   xmlns="http://www.w3.org/2000/svg"
   xmlns:svg="http://www.w3.org/2000/svg">
  <defs
     id="defs1" />
  <sodipodi:namedview
     id="namedview1"
     pagecolor="#ffffff"
     bordercolor="#000000"
     borderopacity="0.25"
     inkscape:showpageshadow="2"
     inkscape:pageopacity="0.0"
     inkscape:pagecheckerboard="0"
     inkscape:deskcolor="#d1d1d1"
     inkscape:zoom="31"
     inkscape:cx="12.016129"
     inkscape:cy="10.290323"
     inkscape:window-width="1920"
     inkscape:window-height="947"
     inkscape:window-x="1920"
     inkscape:window-y="32"
     inkscape:window-maximized="1"
     inkscape:current-layer="svg1" />
  <path
     d="m 320.05524,151.77327 v 3.04842 l 9.45011,6.06768 2.02596,7.75962 11.81154,8.78062 1.01225,4.37572 -1.68757,13.50641 -5.73658,5.06125 -1.35064,9.78704 -4.049,4.39031 -13.16218,6.06768 -15.18669,2.36289 -3.37514,12.83546 7.08867,6.40314 1.68612,9.1161 -7.08722,8.78062 -3.37368,11.4644 -12.15139,7.08868 1.68757,11.47898 -5.73658,-0.33547 -12.14847,-13.50641 -112.7216,3.3839 -86.734168,-2.69837 v -4.05483 l -4.050463,-4.72579 2.025961,-10.45798 -2.699822,-11.14351 1.687571,-7.08868 -3.375143,-2.36289 3.036754,-6.7532 -5.062715,-1.34189 3.038212,-8.44515 -4.050463,-1.34189 v -3.71937 l -5.061255,-1.00642 1.687571,-17.54665 -3.375143,-5.74679 v -5.7322 l -8.774788,-12.82088 -2.362891,-19.57407 -3.712074,-1.69195 -2.024502,-9.45157 -4.050463,-5.7322 9.111718,-24.29986 -1.687571,-5.7322 -4.049004,-1.69195 2.362891,-8.780618 -2.362891,-8.095092 129.594398,1.691947 122.17025,-1.356475 3.37368,9.451567 5.40111,2.698361 -4.3874,10.12251 5.40111,24.29987 3.37368,4.05483 15.18668,3.36931 z"
     fill="#000000"
     id="path76"
     style="stroke-width:14.5858" />
</svg>
