<svg xmlns="http://www.w3.org/2000/svg" width="24" height="24" viewBox="28.333 29.7676 320.88199999999995 318.2674">
  <path
     d="M49.0003 337.728V337.937L49.6482 338.353L49.7871 338.885L50.5969 339.487L50.6663 339.787L50.5506 340.713L50.1573 341.06L50.0647 341.731L49.7871 342.032L48.8847 342.448L47.8435 342.61L47.6121 343.49L48.0981 343.929L48.2137 344.554L47.7278 345.156L47.4965 345.942L46.6634 346.428L46.7791 347.215L46.3858 347.192L45.5529 346.266L37.8247 346.498L31.8782 346.313V346.035L31.6005 345.711L31.7394 344.994L31.5543 344.23L31.67 343.744L31.4386 343.582L31.6468 343.119L31.2997 343.027L31.508 342.448L31.2303 342.356V342.101L30.8833 342.032L30.999 340.829L30.7676 340.435V340.042L30.166 339.163L30.004 337.821L29.7495 337.705L29.6107 337.057L29.333 336.664L29.9577 334.998L29.842 334.605L29.5644 334.489L29.7264 333.887L29.5644 333.332L38.4494 333.448L46.8254 333.355L47.0567 334.003L47.427 334.188L47.1262 334.882L47.4965 336.548L47.7278 336.826L48.769 337.057L49.0003 337.728Z"
     fill="black"
     id="path76" />
</svg>
