<svg width="24" height="24" viewBox="28.333 29.768 320.882 318.267" xmlns="http://www.w3.org/2000/svg" xmlns:svg="http://www.w3.org/2000/svg"><path d="M320.055 151.773v3.049l9.45 6.067 2.026 7.76 11.812 8.78 1.012 4.376-1.687 13.507-5.737 5.061-1.35 9.787-4.05 4.39-13.162 6.068-15.187 2.363-3.375 12.835 7.089 6.404 1.686 9.116-7.087 8.78-3.374 11.465-12.151 7.088 1.687 11.48-5.736-.336-12.149-13.507-112.721 3.384-86.734-2.698v-4.055l-4.05-4.726 2.025-10.458-2.7-11.143 1.688-7.089-3.375-2.363 3.036-6.753-5.062-1.342 3.038-8.445-4.05-1.342v-3.72l-5.062-1.006 1.688-17.546-3.375-5.747v-5.732l-8.775-12.821-2.363-19.574-3.712-1.692-2.025-9.452-4.05-5.732 9.112-24.3-1.688-5.732-4.049-1.692 2.363-8.78-2.363-8.096 129.594 1.692 122.17-1.356 3.374 9.451 5.401 2.699-4.387 10.122 5.401 24.3 3.374 4.055 15.187 3.37z" style="stroke-width:14.5858"/></svg>