<svg xmlns="http://www.w3.org/2000/svg" width="24" height="24" viewBox="228.332 233.026 20.361 19.639"><path d="m246.56 243.145.133 7.52-6.693-.026-6.667-.267.267-5.52.4-1.013-.214-.267-.453-.133v-.56l.827-1.147.053-.427.96-1.706-.24-.48-.507-.507-.4-1.44.48-7.84 1.974.133-.16 2.934.666.96-.053.453.133.213-.133.134.8.56 1.04 1.706.24-.106.187.293.533-.053-.293 1.466-.134.08.214.854-.347.293.133.213-.133.4.533.294.694-.64.32.293.186.88.56.88v.453l.24.24.4.027.32.96.294.293.24-.373.746.107.294-.32 1.706.053-.106-.293.266-.347z"/></svg>