<?xml version="1.0" encoding="UTF-8" standalone="no"?>
<svg
   width="24"
   height="24"
   viewBox="229.465 228.332 118.07899999999998 120.18700000000001"
   version="1.1"
   id="svg1"
   sodipodi:docname="il.svg"
   inkscape:version="1.4.3 (0d15f75042, 2025-12-25)"
   xmlns:inkscape="http://www.inkscape.org/namespaces/inkscape"
   xmlns:sodipodi="http://sodipodi.sourceforge.net/DTD/sodipodi-0.dtd"
   xmlns="http://www.w3.org/2000/svg"
   xmlns:svg="http://www.w3.org/2000/svg">
  <defs
     id="defs1" />
  <sodipodi:namedview
     id="namedview1"
     pagecolor="#ffffff"
     bordercolor="#000000"
     borderopacity="0.25"
     inkscape:showpageshadow="2"
     inkscape:pageopacity="0.0"
     inkscape:pagecheckerboard="0"
     inkscape:deskcolor="#d1d1d1"
     inkscape:zoom="31"
     inkscape:cx="12.016129"
     inkscape:cy="12"
     inkscape:window-width="1920"
     inkscape:window-height="947"
     inkscape:window-x="1920"
     inkscape:window-y="32"
     inkscape:window-maximized="1"
     inkscape:current-layer="svg1" />
  <path
     d="m 316.13748,229.62938 v 5.58687 l 4.85572,10.87794 0.14512,51.00743 -1.61858,0.58604 0.59162,2.50042 -1.47346,1.9088 2.50042,3.52738 0.44092,3.9683 -2.64553,4.40922 0.29022,1.32276 -1.9088,0.88185 -1.76369,3.82318 -1.32276,-0.58603 -1.02696,1.61857 1.32277,1.32277 -1.61858,1.61299 1.17765,0.29581 -1.61857,0.58603 v 3.38227 h -0.88184 l 0.88184,1.46788 h -0.88184 l 0.88184,1.32835 -1.9088,2.79064 1.17207,3.08646 -6.61383,2.20461 0.58603,6.46871 -1.32276,0.44093 -8.08171,-3.38227 -3.08646,3.38227 0.88185,1.9088 h -0.73674 l -1.76368,-2.20461 -0.73673,0.29581 0.59161,1.32276 -2.05949,-1.17765 -1.76369,-4.55433 0.88184,-2.64554 -0.88184,-2.94134 v -3.08645 l -6.90964,-6.17291 -3.23157,-1.32277 -3.97388,-4.40922 -0.14511,-2.50043 3.23715,-6.46872 0.73114,-4.70503 -4.70502,-2.34972 -2.64554,1.61858 -1.17207,-0.73674 -1.76369,-7.93659 -9.55517,-9.70587 -1.76369,-6.17291 -0.29581,-5.43618 0.58604,-2.05949 1.76369,-0.73674 -0.14512,-3.96829 3.9683,-2.0595 3.67807,-6.31802 -0.44092,-3.08646 -1.91438,-2.50042 1.17765,-3.82318 5.43618,-0.29023 4.11899,-2.0595 4.26411,-6.3236 0.58604,-5.73199 -3.82319,-3.08645 -0.29581,-2.50042 -3.08645,-3.23157 z"
     fill="#000000"
     id="path80"
     style="stroke-width:5.58129" />
</svg>
