<svg xmlns="http://www.w3.org/2000/svg" width="24" height="24" viewBox="229.465 228.332 118.07899999999998 120.18700000000001">
  <path
     d="M345.544 229.464V230.465L346.414 232.414L346.44 241.553L346.15 241.658L346.256 242.106L345.992 242.448L346.44 243.08L346.519 243.791L346.045 244.581L346.097 244.818L345.755 244.976L345.439 245.661L345.202 245.556L345.018 245.846L345.255 246.083L344.965 246.372L345.176 246.425L344.886 246.53V247.136H344.728L344.886 247.399H344.728L344.886 247.637L344.544 248.137L344.754 248.69L343.569 249.085L343.674 250.244L343.437 250.323L341.989 249.717L341.436 250.323L341.594 250.665H341.462L341.146 250.27L341.014 250.323L341.12 250.56L340.751 250.349L340.435 249.533L340.593 249.059L340.435 248.532V247.979L339.197 246.873L338.618 246.636L337.906 245.846L337.88 245.398L338.46 244.239L338.591 243.396L337.748 242.975L337.274 243.265L337.064 243.133L336.748 241.711L335.036 239.972L334.72 238.866L334.667 237.892L334.772 237.523L335.088 237.391L335.062 236.68L335.773 236.311L336.432 235.179L336.353 234.626L336.01 234.178L336.221 233.493L337.195 233.441L337.933 233.072L338.697 231.939L338.802 230.912L338.117 230.359L338.064 229.911L337.511 229.332L345.544 229.464Z"
     fill="black"
     id="path80" />
</svg>
