<svg width="24" height="24" viewBox="229.465 228.332 118.079 120.187" xmlns="http://www.w3.org/2000/svg" xmlns:svg="http://www.w3.org/2000/svg"><path d="M316.137 229.63v5.586l4.856 10.878.145 51.008-1.618.586.591 2.5-1.473 1.909 2.5 3.527.441 3.969-2.645 4.409.29 1.323-1.909.881-1.764 3.824-1.322-.586-1.027 1.618 1.322 1.323-1.618 1.613 1.178.296-1.619.586v3.382h-.882l.882 1.468h-.882l.882 1.328-1.909 2.79 1.172 3.087-6.614 2.205.586 6.469-1.322.44-8.082-3.382-3.086 3.383.881 1.908h-.736l-1.764-2.204-.737.296.592 1.322-2.06-1.177-1.763-4.555.882-2.645-.882-2.942v-3.086l-6.91-6.173-3.232-1.323-3.973-4.409-.146-2.5 3.238-6.469.73-4.705-4.704-2.35-2.646 1.619-1.172-.737-1.764-7.937-9.555-9.705-1.763-6.173-.296-5.437.586-2.059 1.763-.737-.145-3.968 3.969-2.06 3.678-6.318-.441-3.086-1.915-2.5 1.178-3.824 5.436-.29 4.12-2.06 4.263-6.323.586-5.732-3.823-3.086-.296-2.5-3.086-3.232z" style="stroke-width:5.58129"/></svg>