<svg width="24" height="24" viewBox="228.622 228.332 220.802 219.459" xmlns="http://www.w3.org/2000/svg" xmlns:svg="http://www.w3.org/2000/svg"><path d="m409.733 231.112.547 144.688-2.443 1.897 2.443 4.617-2.443 3.793 3.803 1.093-.546 5.153h-5.978l-10.307 5.7-3.535-2.165-8.41.815 1.628 8.956-4.35 5.154-3.257.546-2.71 8.142-4.886 2.443-2.71-1.082-3.536 5.968-1.082 8.41-5.164 3.803-9.224-5.967-1.083-5.164-4.617-1.897 2.979 2.175-4.34 2.71-1.628-2.442.268 4.34-2.71 1.36-.269 6.246-2.989 1.082-1.628 3.535-1.36-1.36.277-1.629-5.431-1.36-1.629-4.072-8.688 4.072-4.618 7.328-1.628-2.71-11.4-5.969-6.514 1.35-1.628-2.978.268 4.34-1.629 3.256h-2.164v-3.803l-5.432.546-4.885-1.896-.815 1.35.815 3.803-1.907 2.443-6.236-1.629 2.979-1.082-3.525-3.535 3.525-.814v-8.143l2.989-1.36-2.71-1.082 4.07-3.525-2.442-3.536 2.442-3.793 1.629 1.083 1.628-2.175.815 1.092 3.803-7.06-.279-1.907 5.164-1.628-.278-4.34 7.06-10.038-1.628-6.792.814-4.618-5.432-8.957 2.721-4.885-.546-6.514 3.803-1.896 2.979-131.114 2.989 2.978 1.36-1.35.268 2.979 5.432 1.092 10.039-2.72 8.153-4.34 84.96.268z" style="stroke-width:10.3069"/></svg>