<svg xmlns="http://www.w3.org/2000/svg" width="24" height="24" viewBox="228.622 228.332 220.80199999999996 219.459">
  <path
     d="M447.239 229.622L447.292 243.66L447.055 243.844L447.292 244.292L447.055 244.66L447.424 244.766L447.371 245.266H446.791L445.791 245.819L445.448 245.609L444.632 245.688L444.79 246.557L444.368 247.057L444.052 247.11L443.789 247.9L443.315 248.137L443.052 248.032L442.709 248.611L442.604 249.427L442.103 249.796L441.208 249.217L441.103 248.716L440.655 248.532L440.944 248.743L440.523 249.006L440.365 248.769L440.391 249.19L440.128 249.322L440.102 249.928L439.812 250.033L439.654 250.376L439.522 250.244L439.549 250.086L439.022 249.954L438.864 249.559L438.021 249.954L437.573 250.665L437.415 250.402L436.309 249.823L435.677 249.954L435.519 249.665L435.545 250.086L435.387 250.402H435.177V250.033L434.65 250.086L434.176 249.902L434.097 250.033L434.176 250.402L433.991 250.639L433.386 250.481L433.675 250.376L433.333 250.033L433.675 249.954V249.164L433.965 249.032L433.702 248.927L434.097 248.585L433.86 248.242L434.097 247.874L434.255 247.979L434.413 247.768L434.492 247.874L434.861 247.189L434.834 247.004L435.335 246.846L435.308 246.425L435.993 245.451L435.835 244.792L435.914 244.344L435.387 243.475L435.651 243.001L435.598 242.369L435.967 242.185L436.256 229.464L436.546 229.753L436.678 229.622L436.704 229.911L437.231 230.017L438.205 229.753L438.996 229.332L447.239 229.358V229.622Z"
     fill="black"
     id="path78" />
</svg>
