<?xml version="1.0" encoding="UTF-8" standalone="no"?>
<svg
   width="24"
   height="24"
   viewBox="228.622 228.332 220.80199999999996 219.459"
   version="1.1"
   id="svg1"
   sodipodi:docname="in.svg"
   inkscape:version="1.4.3 (0d15f75042, 2025-12-25)"
   xmlns:inkscape="http://www.inkscape.org/namespaces/inkscape"
   xmlns:sodipodi="http://sodipodi.sourceforge.net/DTD/sodipodi-0.dtd"
   xmlns="http://www.w3.org/2000/svg"
   xmlns:svg="http://www.w3.org/2000/svg">
  <defs
     id="defs1" />
  <sodipodi:namedview
     id="namedview1"
     pagecolor="#ffffff"
     bordercolor="#000000"
     borderopacity="0.25"
     inkscape:showpageshadow="2"
     inkscape:pageopacity="0.0"
     inkscape:pagecheckerboard="0"
     inkscape:deskcolor="#d1d1d1"
     inkscape:zoom="31"
     inkscape:cx="12.016129"
     inkscape:cy="12"
     inkscape:window-width="1920"
     inkscape:window-height="947"
     inkscape:window-x="1920"
     inkscape:window-y="32"
     inkscape:window-maximized="1"
     inkscape:current-layer="svg1" />
  <path
     d="m 409.73337,231.11213 0.54626,144.68802 -2.44273,1.89647 2.44273,4.61748 -2.44273,3.79293 3.80324,1.09253 -0.54626,5.15344 h -5.978 l -10.30688,5.69971 -3.53526,-2.16445 -8.41042,0.81425 1.62849,8.95668 -4.3495,5.15344 -3.25698,0.54627 -2.71071,8.14243 -4.88546,2.44273 -2.71071,-1.08222 -3.53526,5.96769 -1.08223,8.41041 -5.16374,3.80324 -9.22466,-5.96767 -1.08222,-5.16376 -4.61748,-1.89647 2.97868,2.17475 -4.3392,2.71072 -1.62849,-2.44274 0.26798,4.3392 -2.71071,1.36051 -0.26798,6.24597 -2.98899,1.08222 -1.62849,3.53526 -1.36051,-1.3605 0.2783,-1.62849 -5.43174,-1.36051 -1.62849,-4.07122 -8.68869,4.07122 -4.61748,7.32819 -1.62849,-2.71071 -11.39941,-5.96768 -6.51395,1.3502 -1.62849,-2.97868 0.26798,4.3392 -1.62849,3.25697 h -2.16445 v -3.80325 l -5.43172,0.54628 -4.88547,-1.89648 -0.81424,1.3502 0.81424,3.80324 -1.90677,2.44273 -6.23566,-1.62848 2.97869,-1.08223 -3.52496,-3.53526 3.52496,-0.81424 v -8.14244 l 2.98899,-1.36051 -2.71071,-1.08222 4.07122,-3.52495 -2.44273,-3.53526 2.44273,-3.79294 1.62849,1.08223 1.62849,-2.17476 0.81423,1.09253 3.80325,-7.06021 -0.2783,-1.90676 5.16375,-1.6285 -0.27828,-4.3392 7.06021,-10.0389 -1.62849,-6.79224 0.81425,-4.61748 -5.43173,-8.95668 2.72102,-4.88546 -0.54627,-6.51396 3.80325,-1.89646 2.97868,-131.11386 2.989,2.97869 1.36051,-1.3502 0.26797,2.97869 5.43173,1.09252 10.03891,-2.72101 8.15274,-4.3392 84.95964,0.26798 z"
     fill="#000000"
     id="path78"
     style="stroke-width:10.3069" />
</svg>
