<?xml version="1.0" encoding="UTF-8" standalone="no"?>
<svg
   width="24"
   height="24"
   viewBox="228.333 234.179 114.22799999999998 112.785"
   version="1.1"
   id="svg1"
   sodipodi:docname="ky.svg"
   inkscape:version="1.4.3 (0d15f75042, 2025-12-25)"
   xmlns:inkscape="http://www.inkscape.org/namespaces/inkscape"
   xmlns:sodipodi="http://sodipodi.sourceforge.net/DTD/sodipodi-0.dtd"
   xmlns="http://www.w3.org/2000/svg"
   xmlns:svg="http://www.w3.org/2000/svg">
  <defs
     id="defs1" />
  <sodipodi:namedview
     id="namedview1"
     pagecolor="#ffffff"
     bordercolor="#000000"
     borderopacity="0.25"
     inkscape:showpageshadow="2"
     inkscape:pageopacity="0.0"
     inkscape:pagecheckerboard="0"
     inkscape:deskcolor="#d1d1d1"
     inkscape:zoom="31"
     inkscape:cx="12.016129"
     inkscape:cy="12"
     inkscape:window-width="1920"
     inkscape:window-height="947"
     inkscape:window-x="1920"
     inkscape:window-y="32"
     inkscape:window-maximized="1"
     inkscape:current-layer="svg1" />
  <path
     d="m 230.2276,313.25142 h -1.27648 v -1.26588 h 1.27648 z m 72.35116,-45.04734 2.97667,-0.42372 1.81143,1.37181 1.27648,3.69171 5.21182,1.16524 2.12922,2.10804 2.76481,-1.26588 3.19384,1.89617 2.34108,-0.3125 1.7002,-1.79553 2.12922,-0.52966 0.95868,3.06142 3.29447,2.74362 0.21716,3.26799 -0.95868,1.58367 3.72349,6.22347 4.04128,4.43323 2.55295,0.63559 -5.74148,4.74573 -4.68217,2.74362 -2.77011,4.22137 -2.76481,1.05402 -0.95868,1.89617 -9.04125,3.16735 -61.07476,-2.0074 -3.50633,-1.15995 0.42372,3.59108 -20.74667,-1.05932 0.95868,-2.42583 2.22986,1.15995 1.27647,-2.84427 0.32309,-4.0095 -0.64088,-2.11333 1.7055,-1.89618 2.76481,-0.63559 5.74678,3.06142 0.84745,-1.15995 -0.84745,-3.16735 0.21186,-1.58366 6.1705,-1.57838 -0.95868,-3.16735 1.91736,-2.53176 1.27648,0.42372 0.63559,-0.95339 -0.21187,-1.68431 1.81143,1.15995 1.7002,-0.52965 0.42373,1.37181 0.74681,-0.52436 v -2.11334 l 0.74682,1.26589 2.33579,-0.6303 4.04658,2.84426 1.48833,-2.21396 3.0879,-1.26589 2.65888,2.6377 1.48834,-1.68961 v -1.68431 l 1.17054,-0.52966 -0.10593,-1.26588 h 1.59427 l -0.52966,-0.94808 1.38241,0.73622 0.42372,1.68961 2.87604,1.6896 1.80613,-0.95338 1.48834,-4.53386 2.66417,-0.63559 1.17055,-2.74363 2.44701,-1.68431 -0.42902,-3.06142 2.76481,-0.42372 0.95868,0.95338 3.61756,-1.79554 1.70549,0.3178 0.63559,-2.11333 -1.3824,-0.41843 0.74681,-1.05402 -0.74681,-1.47774 2.02329,-1.68961 z"
     fill="#000000"
     id="path72"
     style="stroke-width:5.29657" />
</svg>
