<svg xmlns="http://www.w3.org/2000/svg" width="24" height="24" viewBox="228.333 234.179 114.22799999999998 112.785">
  <path
     d="M229.574 344.764H229.333V344.525H229.574V344.764ZM243.234 336.259L243.796 336.179L244.138 336.438L244.379 337.135L245.363 337.355L245.765 337.753L246.287 337.514L246.89 337.872L247.332 337.813L247.653 337.474L248.055 337.374L248.236 337.952L248.858 338.47L248.899 339.087L248.718 339.386L249.421 340.561L250.184 341.398L250.666 341.518L249.582 342.414L248.698 342.932L248.175 343.729L247.653 343.928L247.472 344.286L245.765 344.884L234.234 344.505L233.572 344.286L233.652 344.964L229.735 344.764L229.916 344.306L230.337 344.525L230.578 343.988L230.639 343.231L230.518 342.832L230.84 342.474L231.362 342.354L232.447 342.932L232.607 342.713L232.447 342.115L232.487 341.816L233.652 341.518L233.471 340.92L233.833 340.442L234.074 340.522L234.194 340.342L234.154 340.024L234.496 340.243L234.817 340.143L234.897 340.402L235.038 340.303V339.904L235.179 340.143L235.62 340.024L236.384 340.561L236.665 340.143L237.248 339.904L237.75 340.402L238.031 340.083V339.765L238.252 339.665L238.232 339.426H238.533L238.433 339.247L238.694 339.386L238.774 339.705L239.317 340.024L239.658 339.844L239.939 338.988L240.442 338.868L240.663 338.35L241.125 338.032L241.044 337.454L241.566 337.374L241.747 337.554L242.43 337.215L242.752 337.275L242.872 336.876L242.611 336.797L242.752 336.598L242.611 336.319L242.993 336L243.234 336.259Z"
     fill="black"
     id="path72" />
</svg>
