<svg width="24" height="24" viewBox="228.333 234.179 114.228 112.785" xmlns="http://www.w3.org/2000/svg" xmlns:svg="http://www.w3.org/2000/svg"><path d="M230.228 313.251h-1.277v-1.265h1.277zm72.35-45.047 2.977-.424 1.812 1.372 1.276 3.692 5.212 1.165 2.13 2.108 2.764-1.266 3.194 1.896 2.341-.312 1.7-1.796 2.13-.53.958 3.062 3.295 2.744.217 3.268-.959 1.583 3.724 6.224 4.04 4.433 2.554.636-5.742 4.745-4.682 2.744-2.77 4.221-2.765 1.054-.958 1.897-9.042 3.167-61.074-2.007-3.507-1.16.424 3.59-20.747-1.059.959-2.425 2.23 1.16 1.276-2.845.323-4.01-.64-2.113 1.705-1.896 2.765-.635 5.747 3.061.847-1.16-.847-3.167.212-1.584 6.17-1.578-.959-3.168 1.918-2.531 1.276.423.636-.953-.212-1.684 1.811 1.16 1.7-.53.424 1.372.747-.525v-2.113l.747 1.266 2.336-.63 4.046 2.844 1.489-2.214 3.087-1.266 2.66 2.638 1.488-1.69v-1.684l1.17-.53-.106-1.266h1.595l-.53-.948 1.382.736.424 1.69 2.876 1.69 1.806-.954 1.489-4.534 2.664-.635 1.17-2.744 2.447-1.684-.429-3.062 2.765-.423.959.953 3.617-1.795 1.706.317.635-2.113-1.382-.418.747-1.054-.747-1.478 2.023-1.69z" style="stroke-width:5.29657"/></svg>