<svg xmlns="http://www.w3.org/2000/svg" width="24" height="24" viewBox="328.333 329.668 24.333 22.282"><path d="M341.956 349.109h.167l.12.048h-.143zm0 0h-.047zm1.217-.071-.095.071-.334.095h-.072zm1.003.071h-.215l-.215-.094.239.023zm.501-.094-.239.094.119-.165zm-.692-.759-.024.071.024-.166h.071zm1.789.071v-.095l.215-.165.096.094zm.454-.355-.096.095-.023-.048.095-.047zm2.935-.972-.119.047.214-.166V347zm-3.77-.024.381.119.048.142-.429-.142zm4.152-.166.167-.237-.096.19zm.525-.569-.024.048.024-.071zm-11.645.948h-.167l-.812-.521.454-.261.859.285zm11.812-1.161-.096.047.239-.355-.024.095zm-2.1-.356v.143l-.119-.143-.12.143.072-.308zm.382-.189.238-.071v.26l-.262-.165zm.238-.545v-.071l.167-.024v.095zm-.214.047h-.024l.238-.308-.095.166zm2.099.427-.167.213.167-.782-.262-.569.262.308.024.356zm-2.529-1.446v.023l-.048-.023.048-.048zm.835.189.167.143-.167.118-.119-.142-.406.024.692-.498-.286.284zm-17.897 1.66-.573.047-.525.237-.19-.379.047-.142.358-.071.167-.285-.143-.427.334-.403.048-.9-.143-.474.191-.474-.144-.451.692-1.138.167-.64-.167-.284.287-.142-.215-.261.048-.403-.215-.071-.286-.569.095-.261-.406-.474.096-.189-.382-.332-.024-.948-.835-.996.095-4.717h11.383l.024.19.358.237-.358.711.405.237-.405.261.286.402v.498l.74.759-.453.711-.263.024v.616l-1.026.877-.286 1.209-.382.332.119.426-.119.569-.477.095.31.948-.334.308 7.779-.094-.43 1.469.215.522.525.569.454 1.043.191.118-.263.166v-.119l-.477.095-.143-.308-.979-.142-.31-.427-.549-.118-.883.829-.119.308.215.309.978.26.644-.142.43-.45.382.189.214-.308v.308l.263-.189-.143-.095h.167l.095.095-.286.498-.31-.072-.191.19.095.285.477-.024-.071.142.215.237.286-.095.119-.545.358-.308.239.142.215-.047-.334.332.334.142-.239.095.095.142.144-.095-.096.142h.263l-.167.237.143.214-.287.118-.31-.308-.191.332-.214.142.023.213h.263l.143.261-.883-.355.358.403-.573-.048.311.498.668.261-.024.308h.764l-.144.142.43.071.119.166.215-.166.358.356-.143.189.453.071.119.166-.334.095.311.024-.215.308-.096-.19.024.261-.095-.095-.119.237.047.19-.525-.474v.19l-.191.094-.429.593.525-1.114-.096.118-.095-.237v.309l-.239.189-.453-.735.143-.047h-.62l-.096-.403-.262.118h-.573l.31-.213-.071-.284-.287-.048.096-.189h-.191l-.024.142-.286-.048-.716-.379-.12.071-.191-.26-.119.308.74.403v.45l-.048-.095.143.237-.334.095.048.237h.143l-.262.379-.525.309-.072-.83-.143.142-.215-.332-.191.308-.262-.545-.143.332-.478-.095.072.403-.167-.071-.096.498-.023-.142-.43.284-.191-.071.119-.213-.238-.095-.167.284-.525-.213-.048-.237-.262.166-.86-.285-.143-.165-.071-.238.191.095.286-.284.024.166.215.023.071.403.119-.071v-.332l-.596-.592.095-.664h-.095l-.119.616-.549-.189v-.19l-.573.119v-.522h-.334v-.474l-.907.142.024-.497h-.525l-.644.45v-.166l-.263.047.12.309.31-.119-.167.142.143.332.31-.071-.143.19-1.05.237-1.623-.308-2.052-.83z"/></svg>