<svg xmlns="http://www.w3.org/2000/svg" width="24" height="24" viewBox="129.667 133.599 314.567 313.879">
  <path
     d="M150.157 444.479L150.464 445.339L149.911 445.478L148.943 445.247L150.034 445.047L150.172 444.755L149.834 445.047L150.08 444.571L149.988 444.371L150.157 444.479ZM147.745 444.648L147.699 444.694L147.438 444.463L147.699 444.156L147.745 444.648ZM146.931 443.833L146.885 444.048L147.116 443.863L147.208 444.063L147.008 444.186L147.346 444.294L147.392 444.694L146.501 444.74L145.933 445.047L145.564 444.74L146.041 444.601L146.563 443.971L146.931 443.833ZM150.249 443.202L150.126 443.233L150.372 442.434L150.464 442.603L150.249 443.202ZM145.303 433.424L145.595 433.347L145.611 433.763H145.319L145.733 434.101L145.933 434.577L145.611 434.331V434.577L146.087 434.854L145.933 434.885L145.995 435.023L146.317 435.069L146.425 435.223V434.946L146.732 434.746L146.885 435.177L146.286 435.577L145.303 435.946L145.211 436.145L145.411 436.038L145.488 436.238L145.058 436.453L145.211 436.73L144.812 436.684L144.827 437.268L144.597 437.099L144.689 437.268L144.413 437.176L144.32 437.268L144.536 437.406L144.367 437.468L144.413 437.652L144.674 437.606L144.597 437.806L144.812 437.867L144.827 438.129L145.365 437.99L145.181 437.56L146.041 438.175L146.885 439.805L146.609 439.835L146.747 439.805L146.563 439.436L146.471 439.835H146.286L146.732 440.251L147.146 440.389L147.239 441.296L147.392 441.45L147.945 441.803L148.652 441.911L148.36 442.034L148.851 441.957L150.08 441.434L150.249 441.25L150.08 440.558L150.264 440.512L149.988 440.327L149.834 440.681L149.619 439.528L149.25 439.42L149.158 439.697L148.759 439.374L148.897 439.159H149.266L149.834 439.513L150.264 440.035L150.633 441.065L150.372 440.942L150.295 441.404H150.587L150.541 442.311L149.22 442.434L148.713 442.818L148.744 442.526L148.022 442.772L147.868 442.603L147.392 443.202L146.378 443.433L146.594 443.064L146.563 442.311L146.732 441.957L146.609 441.849L146.563 442.034L146.225 441.803V442.234H146.087L145.933 442.557L145.733 442.464L145.488 442.68L145.518 442.956L145.181 442.664L144.92 443.418L144.413 443.587L144.213 443.571L144.413 443.418L144.305 443.202L144.213 443.418L143.998 443.341L144.075 443.479L143.952 443.587L143.89 442.464L143.568 442.357L143.998 441.434L143.66 441.957H143.399L143.307 442.126L142.8 441.588L142.708 440.758L142.539 440.681L142.447 439.805L134.875 439.651L134.829 439.805L134.599 439.835V439.651L130.836 439.42L130.667 439.236L132.187 434.239L142.892 434.716L143.46 434.331L143.798 433.855L144.167 433.824L144.966 433.332L145.303 433.424Z"
     fill="black"
     id="path64" />
</svg>
