<?xml version="1.0" encoding="UTF-8" standalone="no"?>
<svg
   width="24"
   height="24"
   viewBox="129.667 133.599 314.567 313.879"
   version="1.1"
   id="svg1"
   sodipodi:docname="ma.svg"
   inkscape:version="1.4.3 (0d15f75042, 2025-12-25)"
   xmlns:inkscape="http://www.inkscape.org/namespaces/inkscape"
   xmlns:sodipodi="http://sodipodi.sourceforge.net/DTD/sodipodi-0.dtd"
   xmlns="http://www.w3.org/2000/svg"
   xmlns:svg="http://www.w3.org/2000/svg">
  <defs
     id="defs1" />
  <sodipodi:namedview
     id="namedview1"
     pagecolor="#ffffff"
     bordercolor="#000000"
     borderopacity="0.25"
     inkscape:showpageshadow="2"
     inkscape:pageopacity="0.0"
     inkscape:pagecheckerboard="0"
     inkscape:deskcolor="#d1d1d1"
     inkscape:zoom="31"
     inkscape:cx="12.016129"
     inkscape:cy="7.8709677"
     inkscape:window-width="1920"
     inkscape:window-height="947"
     inkscape:window-x="1920"
     inkscape:window-y="32"
     inkscape:window-maximized="1"
     inkscape:current-layer="svg1" />
  <path
     d="m 436.17542,370.18163 4.81877,13.49884 -8.68007,2.18178 -15.19403,-3.62585 17.12468,-3.13926 2.1661,-4.58332 -5.30536,4.58332 3.86129,-7.47145 -1.44406,-3.13926 z m -37.85952,2.65268 -0.72203,0.72203 -4.09674,-3.62585 4.09674,-4.81877 z m -12.77681,-12.7925 -0.72203,3.37471 3.62585,-2.90382 1.44406,3.13926 -3.13926,1.93065 5.30535,1.6952 0.72204,6.27853 -13.98543,0.72203 -8.91551,4.81877 -5.79194,-4.81877 7.48714,-2.18179 8.19348,-9.88868 z m 52.08039,-9.90438 -1.93065,0.48659 3.8613,-12.54136 1.44406,2.65267 z m -77.634,-153.47863 4.58332,-1.20861 0.25115,6.52966 h -4.58333 l 6.49828,5.30536 3.13926,7.47145 -5.05421,-3.8613 v 3.8613 l 7.47144,4.34788 -2.41723,0.48658 0.97318,2.1661 5.05421,0.72203 1.6952,2.41723 v -4.34788 l 4.81877,-3.13926 2.40154,6.76511 -9.4021,6.27854 -15.42948,5.79194 -1.44407,3.12356 3.13928,-1.6795 1.20861,3.13926 -6.74942,3.37471 2.40153,4.34788 -6.26282,-0.72203 0.23545,9.16665 -3.61016,-2.65268 1.44406,2.65268 -4.33219,-1.44406 -1.45975,1.44406 3.3904,2.1661 -2.65268,0.97317 0.72203,2.88812 4.09675,-0.72203 -1.20862,3.13926 3.37471,0.95748 0.23545,4.11243 8.44462,-2.18178 -2.88813,-6.74942 13.49883,9.65323 13.2477,25.585 -4.33219,0.4709 2.1661,-0.4709 -2.88813,-5.79194 -1.44406,6.26284 h -2.90382 l 7.00056,6.52966 6.49828,2.16609 1.45976,14.23657 2.40154,2.41724 8.68006,5.54079 11.0973,1.69521 -4.58332,1.93065 7.70688,-1.20863 19.29078,-8.20917 2.65268,-2.88813 -2.65268,-10.86185 2.88813,-0.72203 -4.33219,-2.90382 -2.41723,5.5565 -3.37471,-18.09786 -5.79194,-1.6952 -1.44407,4.34788 -6.26283,-5.06991 2.16609,-3.37471 H 422.19 l 8.91551,5.5565 6.74942,8.19348 5.79194,16.16721 -4.09674,-1.93065 -1.20862,7.25171 h 4.58333 l -0.72203,14.23656 -20.73485,1.93065 -7.95803,6.02738 0.48659,-4.58332 -11.33274,3.86129 -2.41723,-2.65268 -7.47145,9.4021 -15.91608,3.62585 3.39041,-5.79194 -0.48659,-11.81933 2.65268,-5.55651 -1.93065,-1.6952 -0.72203,2.90384 -5.30536,-3.62586 v 6.76512 h -2.16609 l -2.41723,5.06991 -3.13926,-1.45976 -3.8456,3.39041 0.47089,4.33219 -5.28966,-4.58333 -4.09674,11.83502 -7.95804,2.65268 -3.13926,-0.25115 3.13926,-2.40154 -1.6952,-3.3904 -1.44406,3.3904 -3.37471,-1.20861 1.20862,2.16609 -1.93065,1.6952 -0.97317,-17.62697 -5.05422,-1.6795 6.74942,-14.48771 -5.30536,8.20917 h -4.09674 l -1.44406,2.65268 -7.95803,-8.44462 -1.44407,-13.02794 -2.65268,-1.20862 -1.44406,-13.74998 -118.85253,-2.41722 -0.72203,2.41722 -3.61016,0.4709 v -2.88812 l -59.06526,-3.62585 -2.65267,-2.88812 23.8584,-78.43452 168.02912,7.48714 8.91551,-6.04308 5.30536,-7.47145 5.79194,-0.48658 12.54136,-7.72259 z"
     fill="#000000"
     id="path64"
     style="stroke-width:15.6964" />
</svg>
