<svg width="24" height="24" viewBox="129.667 133.599 314.567 313.879" xmlns="http://www.w3.org/2000/svg" xmlns:svg="http://www.w3.org/2000/svg"><path d="m436.175 370.182 4.82 13.498-8.68 2.182-15.195-3.626 17.125-3.139 2.166-4.583-5.305 4.583 3.86-7.471-1.443-3.14zm-37.86 2.652-.721.722-4.097-3.626 4.097-4.818zm-12.776-12.792-.722 3.375 3.626-2.904 1.444 3.139-3.14 1.93 5.306 1.696.722 6.278-13.985.722-8.916 4.82-5.792-4.82 7.487-2.181 8.194-9.89zm52.08-9.905-1.93.487 3.861-12.541 1.444 2.652zM359.985 196.66l4.584-1.209.25 6.53h-4.582l6.498 5.305 3.14 7.472-5.055-3.862v3.862l7.471 4.348-2.417.486.973 2.166 5.055.722 1.695 2.417v-4.347l4.819-3.14 2.401 6.765-9.402 6.279-15.43 5.792-1.444 3.123 3.14-1.679 1.208 3.14-6.75 3.374 2.402 4.348-6.262-.722.235 9.166-3.61-2.652 1.444 2.652-4.332-1.444-1.46 1.444 3.39 2.167-2.652.973.722 2.888 4.096-.722-1.208 3.14 3.375.957.235 4.112 8.445-2.182-2.888-6.75 13.498 9.654 13.248 25.585-4.332.47 2.166-.47-2.888-5.792-1.444 6.263h-2.904l7 6.53 6.499 2.166 1.46 14.236 2.401 2.417 8.68 5.541 11.097 1.695-4.583 1.931 7.707-1.209 19.29-8.209 2.653-2.888-2.652-10.862 2.888-.722-4.332-2.904-2.417 5.557-3.375-18.098-5.792-1.695-1.444 4.348-6.263-5.07 2.166-3.375h5.792l8.916 5.557 6.749 8.193 5.792 16.167-4.097-1.93-1.208 7.251h4.583l-.722 14.237-20.735 1.93-7.958 6.028.487-4.583-11.333 3.861-2.417-2.653-7.472 9.402-15.916 3.626 3.39-5.792-.486-11.819 2.653-5.557-1.931-1.695-.722 2.904-5.306-3.626v6.765h-2.166l-2.417 5.07-3.14-1.46-3.845 3.391.471 4.332-5.29-4.583-4.096 11.835-7.958 2.653-3.14-.252 3.14-2.401-1.695-3.39-1.445 3.39-3.374-1.209 1.208 2.166-1.93 1.696-.973-17.627-5.055-1.68 6.75-14.488-5.306 8.21H330.1l-1.444 2.652-7.958-8.444-1.444-13.028-2.653-1.209-1.444-13.75-118.853-2.417-.722 2.417-3.61.47V294.4l-59.065-3.626-2.653-2.888 23.859-78.435 168.029 7.487 8.915-6.043 5.306-7.471 5.791-.487 12.542-7.722z" style="stroke-width:15.6964"/></svg>