<svg xmlns="http://www.w3.org/2000/svg" width="24" height="24" viewBox="29.5879 28.333 418.1021 419.192">
  <path
     d="M46.0897 445.286L46.0158 445.525L45.8129 445.415L46.0343 445.286L45.9051 444.974L46.0897 445.286ZM46.0158 444.221H45.7759L45.6651 444.11L45.9051 444.019L46.0158 444.221ZM49.7067 444.974L50.0205 444.202L50.4449 443.376L49.9835 444.753L49.7067 444.974ZM50.5557 443.082L50.4634 443.137L50.611 442.457H50.6663L50.5557 443.082ZM30.5879 434.668L46.9939 434.778L47.4737 442.512L50.4634 442.457L50.3342 442.512L50.3526 442.659H50.0205L50.2419 442.769L50.2234 443.027L50.4449 443.1L50.3526 443.265L50.0942 443.761L49.9097 443.835L49.9835 443.651L49.7251 443.761L49.5775 444.515L49.2085 444.717L49.0793 445.084L47.9166 445.286L47.8059 445.47L47.1415 445.451L46.7539 445.69L46.8094 445.304L46.6063 445.341L47.2707 444.57L46.7539 444.717L47.1599 444.349L47.0493 444.331L46.3665 444.459L46.4034 444.11L46.9201 443.872L46.5326 443.651L46.7539 442.769L46.2373 443.761L46.0343 443.394L46.2557 443.137L46.2373 443.027L46.0897 443.1L45.9051 443.394V443.872L45.0377 442.88L44.9639 443.376L44.4657 442.439L44.6502 442.255L44.7794 442.457L44.8347 442.126L45.1669 441.814L45.0562 441.741L44.6502 441.888L44.8163 441.667L44.6686 441.502L45.2591 441.428V441.63L45.8129 441.796L46.1819 441.557L46.2373 441.281L45.9235 441.63L45.6651 441.502L45.5914 441.281L45.2777 441.318L45.4806 441.116L45.2591 441.171L45.1669 440.877L45.0377 441.061L44.9454 440.565L44.6686 440.877V440.455L44.5394 441.043L44.3365 441.116L44.6686 440.161L45.1485 440.565L45.4622 440.547L45.4806 440.308L45.2961 440.455L45.1485 440.308L45.4806 439.922L45.2777 439.812V439.683L45.1485 439.793V439.536L44.8347 439.352L44.4287 439.701L44.4657 440.014L44.3181 439.922L44.4657 439.04L44.8347 439.224L45.1669 439.187V438.856L45.6651 438.342L45.1485 438.452L44.9639 438.985L44.7055 438.25L45.1485 437.258L45.4069 436.964L46.7355 436.909L45.9051 436.762L46.2926 436.266L46.7355 436.358L46.4957 436.046L46.7539 435.605L45.9235 436.321L46.2557 435.495L46.0158 435.715L45.5914 435.752L45.4069 436.156L45.6651 436.376L44.9639 436.964L44.8347 436.266L44.7055 436.872L44.8163 437.093L44.6502 437.277L44.4657 436.762L44.0411 436.781L44.3918 437.019L44.2073 437.277L43.9121 437.258L44.0411 437.607L43.6906 437.277L43.8751 437.607L44.1519 437.736L43.9674 437.92L43.2477 437.497L43.0446 437.607L43.6906 438.232L43.8198 438.14L44.0227 438.801L43.5614 438.673L44.0781 439.077L43.8013 439.224L43.3953 438.728L43.2661 438.838L43.8751 439.61L43.3953 439.426L43.709 439.812L43.3953 439.904L43.4506 440.161H43.709L43.3769 440.675L43.5798 440.932V441.998L44.1519 442.769L44.2073 443.137L43.8751 443.21L42.9523 442.31L42.7309 441.171L42.7678 442.016L43.0631 442.751L43.5798 443.082L43.8198 443.449H44.1889L44.1519 443.835L44.4657 444.331L44.5394 444.974L44.0411 444.643L43.8198 444.019L43.8013 444.459L43.5983 444.312L43.5614 444.515L43.0446 443.835H42.3249L42.0666 443.1L41.8082 442.88L41.9927 443.449L41.9743 443.596L41.7529 443.523L41.0515 442.365L40.8486 442.769L40.7194 442.457L40.5163 442.935L40.1103 442.971L39.9627 442.457L40.1103 441.906L40.4057 441.796L40.3503 441.63L40.6086 441.52L40.7378 441.171L41.1623 440.932L41.1254 440.418L41.679 439.904L41.0331 439.224L40.7194 439.591L40.0919 439.297L39.9074 438.912L39.0585 438.691L38.7633 438.25L39.0215 437.92L38.9662 437.717L38.5233 437.387L37.6375 437.019L37.6745 436.634L37.3975 436.468L37.5637 436.156H37.3238L37.2499 435.899L37.1577 436.027L37.047 435.752L37.2499 435.642L37.1762 435.495L36.6225 435.513L35.8105 434.907L35.6075 434.888L35.1646 435.293L34.4079 435.384L34.5371 435.513L34.2973 435.605L34.4079 435.715L34.2234 435.899H33.7067L32.8947 435.605L32.9685 435.384L32.8209 435.201L32.6364 435.642L31.8797 436.321L31.4922 436.156L31.2338 436.248L30.2926 437.221L29.333 437.809L29.4622 434.668H30.5879Z"
     fill="black"
     id="path66" />
</svg>
