<?xml version="1.0" encoding="UTF-8" standalone="no"?>
<svg
   width="24"
   height="24"
   viewBox="29.5879 28.333 418.1021 419.192"
   version="1.1"
   id="svg1"
   sodipodi:docname="md.svg"
   inkscape:version="1.4.3 (0d15f75042, 2025-12-25)"
   xmlns:inkscape="http://www.inkscape.org/namespaces/inkscape"
   xmlns:sodipodi="http://sodipodi.sourceforge.net/DTD/sodipodi-0.dtd"
   xmlns="http://www.w3.org/2000/svg"
   xmlns:svg="http://www.w3.org/2000/svg">
  <defs
     id="defs1" />
  <sodipodi:namedview
     id="namedview1"
     pagecolor="#ffffff"
     bordercolor="#000000"
     borderopacity="0.25"
     inkscape:showpageshadow="2"
     inkscape:pageopacity="0.0"
     inkscape:pagecheckerboard="0"
     inkscape:deskcolor="#d1d1d1"
     inkscape:zoom="31"
     inkscape:cx="12.016129"
     inkscape:cy="9.7741935"
     inkscape:window-width="1920"
     inkscape:window-height="947"
     inkscape:window-x="1920"
     inkscape:window-y="32"
     inkscape:window-maximized="1"
     inkscape:current-layer="svg1" />
  <path
     d="m 357.15844,337.31719 -1.43818,4.65122 -3.94868,-2.14073 4.30871,-2.51049 -2.51439,-6.07189 z m -1.43818,-20.72615 h -4.66874 l -2.1563,-2.16019 4.67068,-1.77096 z m 71.82922,14.65426 6.10692,-15.02402 8.25932,-16.07493 -8.97939,26.79803 z m 16.52253,-36.82053 -1.79626,1.07037 2.87247,-13.2336 h 1.0762 z M 55.475297,130.6785 l 319.279923,2.14073 9.33747,150.51268 58.18306,-1.07037 -2.51438,1.07037 0.35808,2.86079 h -6.46305 l 4.3087,2.14073 -0.36003,5.02098 4.31065,1.42066 -1.79627,3.2111 -5.02876,9.65273 -3.59059,1.44013 1.43623,-3.58085 -5.02876,2.14072 -2.87247,14.67373 -7.18117,3.93115 -2.51438,7.14225 -22.6275,3.93116 -2.15436,3.58085 -12.93,-0.36976 -7.54315,4.65122 1.0801,-7.51201 -3.95256,0.72006 12.93,-15.00456 -10.05754,2.86079 7.90124,-7.16171 -2.15241,-0.3503 -13.28808,2.49103 0.71811,-6.79195 10.05559,-4.63176 -7.5412,-4.30091 4.30675,-17.16475 -10.05364,19.30547 -3.95061,-7.14224 4.3087,-5.00152 -0.35809,-2.14073 -2.87246,1.42066 -3.59254,5.72159 v 9.30243 l -16.88061,-19.30547 -1.43624,9.65273 -9.69555,-18.23511 3.59058,-3.58085 2.51439,3.93115 1.0762,-6.44165 6.465,-6.07188 -2.15435,-1.42067 -7.90124,2.8608 3.2325,-4.30092 -2.87441,-3.21109 11.49182,-1.44013 v 3.93115 l 10.77759,3.23056 7.18118,-4.65122 1.07814,-5.37128 -6.10691,6.79194 -5.02877,-2.49102 -1.43428,-4.30092 -6.10497,0.72006 3.94867,-3.93116 -4.31065,1.07037 -1.79432,-5.72159 -2.51438,3.58086 -1.79627,-9.65274 -5.38685,6.07188 v -8.21261 l -2.51438,11.44317 -3.94867,1.42066 6.46305,-18.58541 9.33941,7.86231 6.10497,-0.3503 0.35809,-4.65122 -3.59059,2.86079 -2.87247,-2.86079 6.46306,-7.51201 -3.94867,-2.14073 v -2.51049 l -2.51439,2.14073 v -5.00152 l -6.10691,-3.58086 -7.90123,6.79195 0.72006,6.09135 -2.87247,-1.79043 2.87247,-17.16475 7.18117,3.58085 6.465,-0.72006 v -6.44165 l 9.69555,-10.00304 -10.05364,2.14073 -3.59253,10.3728 -5.02876,-14.30396 8.62129,-19.30547 5.02877,-5.72159 25.85611,-1.07036 -16.16056,-2.86079 7.54121,-9.65274 8.61935,1.79042 -4.66679,-6.07188 5.02487,-8.58238 -16.16055,13.9342 6.465,-16.07492 -4.66873,4.28145 -8.25932,0.72007 -3.59059,7.86231 5.02487,4.28146 -13.64617,11.44316 -2.51438,-13.58389 -2.51438,11.79346 2.15629,4.30092 -3.2325,3.58086 -3.59058,-10.0225 -8.26321,0.36976 6.82503,4.63176 -3.59059,5.02098 -5.74493,-0.36976 2.51049,6.79194 -6.82114,-6.42218 3.59058,6.42218 5.38685,2.51049 -3.59058,3.58086 -14.0062,-8.23207 -3.95257,2.14072 12.57192,12.16323 2.51438,-1.79042 3.94867,12.86383 -8.97744,-2.49103 10.05559,7.86231 -5.38685,2.86079 -7.90124,-9.65274 -2.51438,2.14073 11.85185,15.02402 -9.33747,-3.58085 6.10497,7.51201 -6.10497,1.79043 1.07621,5.00152 h 5.02876 l -6.46305,10.00304 3.94867,5.00152 v 20.7456 l 11.13373,15.00457 1.07815,7.16171 -6.465,1.42066 -17.95876,-17.51505 -4.30871,-22.16627 0.71812,16.44469 5.74688,14.30395 10.05559,6.44165 4.67068,7.14225 h 7.18312 l -0.72007,7.51201 6.10692,9.65274 1.43429,12.51353 -9.6975,-6.44164 -4.30676,-12.14377 -0.36003,8.56291 -3.95062,-2.86079 -0.71812,3.95062 -10.05753,-13.2336 h -14.0062 l -5.02682,-14.30396 -5.02877,-4.28145 3.59059,11.0734 -0.35809,2.86079 -4.3087,-1.42066 -13.65006,-22.53604 -3.94867,7.86232 -2.51439,-6.07189 -3.95256,9.30244 -7.90123,0.7006 -2.87247,-10.00304 2.87247,-10.7231 5.74882,-2.14073 -1.07814,-3.23056 5.02682,-2.14072 2.51438,-6.79195 8.26126,-4.65122 -0.71811,-10.00304 10.7737,-10.00304 -12.56997,-13.2336 -6.10497,7.14225 -12.21188,-5.72158 -3.59059,-7.49255 -16.52058,-4.30092 -5.74494,-8.58237 5.02488,-6.42219 -1.07621,-3.95062 -8.61935,-6.42218 -17.2387,-7.16171 0.72006,-7.49255 -5.39074,-3.23056 3.23444,-6.07188 h -4.66873 l -1.43818,-5.00152 -1.79432,2.49103 -2.15435,-5.35182 3.94867,-2.14073 -1.43429,-2.86079 -10.77565,0.3503 -15.80247,-11.79347 -3.95061,-0.36976 -8.61936,7.88177 -14.72626,1.77097 2.51438,2.51049 -4.66679,1.79043 2.15241,2.14072 -3.59059,3.58086 h -10.05558 l -15.80247,-5.72158 1.43623,-4.30092 -2.872468,-3.5614 -3.590581,8.58238 -14.726266,13.21413 -7.541203,-3.21109 -5.028766,1.79043 -18.316852,18.93571 -18.674937,11.44317 2.514383,-61.12753 z"
     fill="#000000"
     id="path66"
     style="stroke-width:19.4612" />
</svg>
