<svg width="24" height="24" viewBox="29.588 28.333 418.102 419.192" xmlns="http://www.w3.org/2000/svg" xmlns:svg="http://www.w3.org/2000/svg"><path d="m357.158 337.317-1.438 4.651-3.948-2.14 4.308-2.51-2.514-6.073zm-1.438-20.726h-4.668l-2.157-2.16 4.67-1.771zm71.83 14.654 6.106-15.024 8.26-16.075-8.98 26.798zm16.522-36.82-1.796 1.07 2.872-13.233h1.076zM55.475 130.679l319.28 2.14 9.338 150.513 58.183-1.07-2.515 1.07.358 2.86h-6.463l4.31 2.141-.36 5.021 4.31 1.421-1.797 3.211-5.028 9.653-3.59 1.44 1.435-3.58-5.028 2.14-2.873 14.674-7.181 3.93-2.514 7.143-22.628 3.931-2.154 3.581-12.93-.37-7.543 4.651 1.08-7.512-3.953.72 12.93-15.004-10.057 2.86 7.9-7.16-2.152-.351-13.288 2.49.718-6.791 10.056-4.632-7.541-4.3 4.307-17.166-10.054 19.306-3.95-7.142 4.308-5.002-.358-2.14-2.873 1.42-3.592 5.722v9.302l-16.88-19.305-1.437 9.652-9.695-18.235 3.59-3.58 2.514 3.93 1.077-6.441 6.465-6.072-2.155-1.42-7.9 2.86 3.232-4.3-2.875-3.212 11.492-1.44v3.931l10.778 3.23 7.18-4.65 1.079-5.372-6.107 6.792-5.029-2.49-1.434-4.302-6.105.72 3.949-3.93-4.311 1.07-1.794-5.722-2.515 3.58-1.796-9.652-5.387 6.072V243.3l-2.514 11.443-3.949 1.421 6.463-18.585 9.34 7.862 6.105-.35.358-4.652-3.591 2.861-2.872-2.86 6.463-7.513-3.949-2.14v-2.51l-2.514 2.14v-5.002l-6.107-3.58-7.902 6.792.72 6.09-2.872-1.79 2.872-17.164 7.182 3.58 6.465-.72v-6.441l9.695-10.003-10.053 2.14-3.593 10.373-5.029-14.304 8.622-19.305 5.028-5.722 25.856-1.07-16.16-2.86 7.541-9.654 8.62 1.79-4.667-6.071 5.025-8.582-16.161 13.934 6.465-16.075-4.669 4.281-8.26.72-3.59 7.863 5.025 4.281-13.646 11.443-2.514-13.584-2.515 11.794 2.157 4.3-3.233 3.582-3.59-10.023-8.264.37 6.825 4.632-3.59 5.02-5.745-.37 2.51 6.793-6.82-6.422 3.59 6.422 5.387 2.51-3.591 3.581-14.006-8.232-3.953 2.14 12.572 12.164 2.515-1.79 3.948 12.864-8.977-2.492 10.055 7.863-5.387 2.86-7.9-9.652-2.515 2.14 11.852 15.025-9.338-3.581 6.105 7.512-6.105 1.79 1.076 5.002h5.03l-6.464 10.003 3.949 5.001v20.746l11.134 15.004 1.078 7.162-6.465 1.42-17.959-17.514-4.309-22.167.718 16.445 5.747 14.304 10.056 6.442 4.67 7.142h7.184l-.72 7.512 6.106 9.653 1.435 12.513-9.698-6.441-4.306-12.144-.36 8.563-3.951-2.861-.718 3.95-10.058-13.233h-14.006l-5.027-14.304-5.029-4.281 3.591 11.073-.358 2.86-4.309-1.42-13.65-22.536-3.948 7.862-2.515-6.071-3.952 9.302-7.902.7-2.872-10.002 2.872-10.724 5.75-2.14-1.079-3.23 5.027-2.142 2.514-6.792 8.261-4.65-.718-10.004 10.774-10.003-12.57-13.233-6.105 7.142-12.212-5.722-3.59-7.492-16.52-4.301-5.746-8.583 5.025-6.422-1.076-3.95-8.62-6.423-17.238-7.161.72-7.493-5.39-3.23 3.234-6.072h-4.67l-1.437-5.002-1.795 2.491-2.154-5.352 3.949-2.14-1.435-2.861-10.775.35-15.803-11.793-3.95-.37-8.62 7.882-14.726 1.77 2.514 2.511-4.666 1.79 2.152 2.141-3.59 3.581H116.17l-15.803-5.721 1.437-4.301-2.873-3.562-3.59 8.583-14.727 13.214-7.541-3.211-5.029 1.79-18.317 18.936-18.675 11.443 2.515-61.127z" style="stroke-width:19.4612"/></svg>