<?xml version="1.0" encoding="UTF-8" standalone="no"?>
<svg
   width="24"
   height="24"
   viewBox="328.332 328.797 121.27500000000003 120.577"
   version="1.1"
   id="svg1"
   sodipodi:docname="me.svg"
   inkscape:version="1.4.3 (0d15f75042, 2025-12-25)"
   xmlns:inkscape="http://www.inkscape.org/namespaces/inkscape"
   xmlns:sodipodi="http://sodipodi.sourceforge.net/DTD/sodipodi-0.dtd"
   xmlns="http://www.w3.org/2000/svg"
   xmlns:svg="http://www.w3.org/2000/svg">
  <defs
     id="defs1" />
  <sodipodi:namedview
     id="namedview1"
     pagecolor="#ffffff"
     bordercolor="#000000"
     borderopacity="0.25"
     inkscape:showpageshadow="2"
     inkscape:pageopacity="0.0"
     inkscape:pagecheckerboard="0"
     inkscape:deskcolor="#d1d1d1"
     inkscape:zoom="31"
     inkscape:cx="12.016129"
     inkscape:cy="12"
     inkscape:window-width="1920"
     inkscape:window-height="947"
     inkscape:window-x="1920"
     inkscape:window-y="32"
     inkscape:window-maximized="1"
     inkscape:current-layer="svg1" />
  <path
     d="m 393.20949,423.37011 -1.46421,-0.58795 -0.28832,-1.60554 2.18784,0.87626 z m 3.65205,-5.55722 -0.72928,0.58229 0.72928,1.46421 H 395.256 l 0.72928,-3.21674 z m 8.33301,-2.1935 h -2.33483 l 0.5823,1.60555 -0.87627,0.58795 -2.04651,-2.1935 1.31723,-3.06975 1.75253,-0.5823 2.04651,2.48182 z m -14.76084,-80.40163 1.16458,1.17024 7.16277,-3.65771 1.75818,0.73494 2.34048,-2.05216 5.69856,3.80469 3.79903,3.79903 0.87627,32.60275 -0.72928,5.40458 4.24,2.63445 3.36373,0.72928 v 1.46421 l -1.46421,1.31158 1.46421,3.06975 -0.58795,3.21675 2.63445,2.78144 1.17024,-1.17024 2.19349,0.58229 2.48181,5.41023 -0.4353,0.87627 -1.17024,-0.29397 v 1.6112 l -1.6112,-0.58795 0.87627,2.78144 1.75818,-2.04651 0.58229,1.60555 -0.4353,-1.75253 1.75253,1.89951 -3.94602,4.82229 -1.75819,-0.14698 -0.28832,0.73493 -0.73493,-2.48747 -1.60555,0.44096 1.02326,2.04651 -1.02326,1.02325 -0.72928,-1.75818 -0.14698,1.46421 -2.34048,-1.02325 -0.58229,3.21674 -1.46421,-1.02325 -1.02326,1.89952 -0.14698,-2.77579 -1.31723,1.89952 v -1.89952 l -0.72928,0.43531 -1.31722,4.97493 -0.14134,-2.48747 -0.58794,2.34048 -0.72928,-2.48746 -1.17024,0.72928 1.17024,1.90517 -1.6112,2.18784 -1.16459,-4.23435 -0.88192,-0.58794 -0.4353,1.02325 -0.44096,-1.89952 -0.28832,1.60555 -1.6112,-1.60555 0.29397,2.19349 -1.75253,-0.58794 -1.02891,1.90517 -0.28832,-2.48747 h -1.02325 l 0.43531,2.6288 -0.43531,-0.58229 -1.6112,0.29397 0.73494,4.6753 -4.09301,-2.34047 -1.6112,0.29397 0.29397,-1.45856 2.19349,-1.17024 -0.87626,-0.87627 -1.6112,1.02326 1.31722,-3.65771 -1.02325,-0.87626 v 2.48746 l -3.6577,1.60555 1.02325,2.6288 -2.48181,5.11626 0.14699,2.19349 -2.78143,1.6112 v 1.45856 l -1.45856,0.44096 0.72928,-2.1935 -1.89952,1.75254 0.58229,-0.87627 h -1.60554 v -2.19349 l -2.63445,6.13951 -0.72928,-1.75253 v 1.75253 l 0.29397,-5.11626 -1.31723,2.04651 -0.14698,3.6577 v -1.02325 l -1.17024,-0.29398 0.44096,-1.75253 -0.44096,-0.87626 0.44096,-1.89952 -2.6288,3.79903 0.43531,1.60555 0.72928,-0.58229 -1.16459,2.48181 -0.14699,-8.18602 -2.0465,2.19349 0.14133,0.58795 0.88192,-0.73494 0.87627,6.87445 -0.87627,1.17024 -1.02325,-4.68096 v 1.6112 l -2.34048,1.89952 1.02325,-2.78144 -1.89951,2.1935 1.60554,-2.77579 -1.17024,0.58229 0.58795,-0.72928 -4.09301,2.48747 -1.17024,2.77578 -1.02325,0.29398 1.60554,0.87626 v 1.46421 l -2.6288,0.87627 -0.72927,1.89952 0.87626,0.4353 -4.24,3.21675 -2.92277,7.01578 -1.17023,-0.58229 -0.73494,0.72928 -1.31157,-2.48182 0.28832,-2.19349 -2.77578,-4.23999 -0.87627,-52.92081 1.89952,-1.17024 1.75253,3.21674 1.75819,-5.26324 1.89951,1.02325 1.45856,-0.43531 -1.60554,-2.78144 2.63445,-4.09301 3.65205,-1.60554 v -2.19349 l 2.92277,-3.51072 -0.87627,-1.45856 0.14699,-2.63445 1.17024,-1.75253 -0.58795,-2.04651 2.04651,-3.79903 2.19349,-1.89952 1.02325,-7.75071 14.91348,-20.61204 3.36373,0.72928 0.43531,4.38698 z"
     fill="#000000"
     id="path68"
     style="stroke-width:5.65333" />
</svg>
