<svg width="24" height="24" viewBox="328.332 328.797 121.275 120.577" xmlns="http://www.w3.org/2000/svg" xmlns:svg="http://www.w3.org/2000/svg"><path d="m393.21 423.37-1.465-.588-.288-1.605 2.188.876zm3.652-5.557-.73.582.73 1.464h-1.606l.73-3.216zm8.333-2.194h-2.335l.582 1.606-.876.588-2.047-2.194 1.317-3.07 1.753-.582 2.047 2.482zm-14.761-80.401 1.164 1.17 7.163-3.658 1.758.735 2.34-2.052 5.7 3.805 3.798 3.799.877 32.603-.73 5.404 4.24 2.635 3.364.729v1.464l-1.464 1.312 1.464 3.07-.588 3.216 2.635 2.782 1.17-1.17 2.193.582 2.482 5.41-.435.876-1.17-.294v1.611l-1.612-.588.877 2.782 1.758-2.047L428 401l-.435-1.753 1.752 1.9-3.946 4.822-1.758-.147-.288.735-.735-2.487-1.606.44 1.024 2.047-1.024 1.023-.729-1.758-.147 1.464-2.34-1.023-.583 3.217-1.464-1.023-1.023 1.9-.147-2.777-1.317 1.9v-1.9l-.73.436-1.317 4.975-.141-2.488-.588 2.34-.73-2.487-1.17.73 1.17 1.905-1.61 2.187-1.165-4.234-.882-.588-.435 1.023-.441-1.9-.289 1.606-1.611-1.605.294 2.193-1.753-.588-1.028 1.906-.289-2.488h-1.023l.435 2.629-.435-.582-1.611.294.735 4.675-4.093-2.34-1.611.293.293-1.458 2.194-1.17-.876-.877-1.611 1.024 1.317-3.658-1.024-.876v2.487l-3.657 1.606 1.023 2.628-2.482 5.117.147 2.193-2.781 1.611v1.459l-1.459.44.73-2.193-1.9 1.753.582-.876h-1.605v-2.194l-2.635 6.14-.729-1.753v1.753l.294-5.117-1.317 2.047-.147 3.658v-1.024l-1.17-.294.44-1.752-.44-.876.44-1.9-2.628 3.8.435 1.605.73-.583-1.165 2.482-.147-8.186-2.047 2.194.142.588.881-.735.877 6.874-.877 1.17-1.023-4.68v1.61l-2.34 1.9 1.023-2.781-1.9 2.193 1.606-2.776-1.17.583.588-.73-4.093 2.488-1.17 2.776-1.024.294 1.606.876v1.464l-2.629.876-.73 1.9.877.435-4.24 3.217-2.923 7.016-1.17-.583-.735.73-1.312-2.482.289-2.194-2.776-4.24-.876-52.92 1.9-1.17 1.752 3.216 1.758-5.263 1.9 1.023 1.458-.435-1.606-2.782 2.635-4.093 3.652-1.605v-2.194l2.923-3.51-.877-1.459.147-2.634 1.17-1.753-.587-2.046 2.046-3.8 2.194-1.899 1.023-7.75 14.913-20.613 3.364.73.436 4.387z" style="stroke-width:5.65333"/></svg>