<svg xmlns="http://www.w3.org/2000/svg" width="24" height="24" viewBox="328.332 328.797 121.27500000000003 120.577">
  <path
     d="M441.22 346.063L440.961 345.959L440.91 345.675L441.297 345.83L441.22 346.063ZM441.866 345.08L441.737 345.183L441.866 345.442H441.582L441.711 344.873L441.866 345.08ZM443.34 344.692H442.927L443.03 344.976L442.875 345.08L442.513 344.692L442.746 344.149L443.056 344.046L443.418 344.485L443.34 344.692ZM440.729 330.47L440.935 330.677L442.202 330.03L442.513 330.16L442.927 329.797L443.935 330.47L444.607 331.142L444.762 336.909L444.633 337.865L445.383 338.331L445.978 338.46V338.719L445.719 338.951L445.978 339.494L445.874 340.063L446.34 340.555L446.547 340.348L446.935 340.451L447.374 341.408L447.297 341.563L447.09 341.511V341.796L446.805 341.692L446.96 342.184L447.271 341.822L447.374 342.106L447.297 341.796L447.607 342.132L446.909 342.985L446.598 342.959L446.547 343.089L446.417 342.649L446.133 342.727L446.314 343.089L446.133 343.27L446.004 342.959L445.978 343.218L445.564 343.037L445.461 343.606L445.202 343.425L445.021 343.761L444.995 343.27L444.762 343.606V343.27L444.633 343.347L444.4 344.227L444.375 343.787L444.271 344.201L444.142 343.761L443.935 343.89L444.142 344.227L443.857 344.614L443.651 343.865L443.495 343.761L443.418 343.942L443.34 343.606L443.289 343.89L443.004 343.606L443.056 343.994L442.746 343.89L442.564 344.227L442.513 343.787H442.332L442.409 344.252L442.332 344.149L442.047 344.201L442.177 345.028L441.453 344.614L441.168 344.666L441.22 344.408L441.608 344.201L441.453 344.046L441.168 344.227L441.401 343.58L441.22 343.425V343.865L440.573 344.149L440.754 344.614L440.315 345.519L440.341 345.907L439.849 346.192V346.45L439.591 346.528L439.72 346.14L439.384 346.45L439.487 346.295H439.203V345.907L438.737 346.993L438.608 346.683V346.993L438.66 346.088L438.427 346.45L438.401 347.097V346.916L438.194 346.864L438.272 346.554L438.194 346.399L438.272 346.063L437.807 346.735L437.884 347.019L438.013 346.916L437.807 347.355L437.781 345.907L437.419 346.295L437.444 346.399L437.6 346.269L437.755 347.485L437.6 347.692L437.419 346.864V347.149L437.005 347.485L437.186 346.993L436.85 347.381L437.134 346.89L436.927 346.993L437.031 346.864L436.307 347.304L436.1 347.795L435.919 347.847L436.203 348.002V348.261L435.738 348.416L435.609 348.752L435.764 348.829L435.014 349.398L434.497 350.639L434.29 350.536L434.16 350.665L433.928 350.226L433.979 349.838L433.488 349.088L433.333 339.727L433.669 339.52L433.979 340.089L434.29 339.158L434.626 339.339L434.884 339.262L434.6 338.77L435.066 338.046L435.712 337.762V337.374L436.229 336.753L436.074 336.495L436.1 336.029L436.307 335.719L436.203 335.357L436.565 334.685L436.953 334.349L437.134 332.978L439.772 329.332L440.367 329.461L440.444 330.237L440.729 330.47Z"
     fill="black"
     id="path68" />
</svg>
