<svg xmlns="http://www.w3.org/2000/svg" width="24" height="24" viewBox="228.333 229.836 224.732 221.72699999999998">
  <path
     d="M249.081 449.563V449.08V449.563ZM241.192 438.696H240.709V438.213H241.192V438.696ZM242.185 436.737V436.281V435.771V436.737ZM244.627 435.771L245.163 436.281H245.646L246.129 436.737H246.639L248.142 437.703V438.696V438.213L247.605 438.696L248.142 439.206V441.191L247.605 441.701V442.184L246.639 442.694V443.66L247.605 444.116V443.66H248.142V442.694H248.598L249.081 442.184L250.074 442.694V443.15L251.066 446.102L250.583 447.604V448.114V447.604H250.074L249.564 448.114V448.57L249.081 449.08V449.563V450.073L248.142 451.065H244.627H238.697L239.207 450.556L239.717 449.08L240.2 447.604V446.102V445.619V445.136V445.619L239.207 444.116L239.717 443.15V442.184L240.2 441.191V440.199L240.709 439.689V439.206L241.192 438.696V439.206L242.185 438.213L241.702 439.206L242.185 439.689V438.696V439.689L242.695 438.696V437.703L243.661 437.247L243.151 436.737L243.661 436.281V435.771H244.627ZM245.163 435.771V436.281L244.627 435.771H245.163ZM247.605 434.752V435.235L246.639 434.752H247.149H247.605ZM246.129 434.269L245.646 433.759H246.129V434.269ZM246.129 433.759H245.646V433.249V432.793H246.129L245.646 433.249L246.129 433.759ZM239.207 433.249V432.793V433.249ZM234.297 430.835L234.753 431.318L234.297 431.801H234.753L235.263 431.318L234.753 431.801L235.263 431.318H236.282L236.738 431.801L237.275 432.793L237.731 433.249L238.214 432.793L238.697 433.249H239.207L240.709 432.257H242.185L243.661 431.801V433.249H244.117H244.627H245.163L245.646 433.759V434.269H246.129V434.752H246.639V435.235L245.163 434.752L244.627 435.235V434.752L244.117 435.771L243.661 434.752H242.185L241.702 435.235H241.192H240.2V435.771H239.717L239.207 436.737V436.281V435.771V435.235L238.697 435.771V436.281H238.214V435.235V436.281L236.738 438.213H236.282V437.247H235.772L236.282 436.281L235.263 435.771V435.235L234.297 434.752H233.25L232.794 434.269L230.326 433.249L229.816 432.793H229.333L230.836 431.801H232.284L232.794 430.835H233.25L234.297 430.325V430.835ZM236.282 429.332L235.772 429.815L235.263 430.325L234.753 431.318L234.297 430.835H234.753V430.325V430.835L234.297 430.325L235.263 429.332H236.282Z"
     fill="black"
     id="path62" />
</svg>
