<svg width="24" height="24" viewBox="228.333 229.836 224.732 221.727" xmlns="http://www.w3.org/2000/svg" xmlns:svg="http://www.w3.org/2000/svg"><path d="M429.447 434.274v-4.827zm-78.83-108.588h-4.827v-4.826h4.826zm9.922-19.575v-9.653zm24.401-9.653 5.356 5.096h4.827l4.826 4.557h5.096l15.019 9.652v9.923-4.826l-5.366 4.826 5.366 5.096v19.835l-5.366 5.096v4.826l-9.653 5.097v9.652l9.653 4.557v-4.557h5.366v-9.652h4.556l4.827-5.097 9.922 5.097v4.556l9.913 29.498-4.827 15.008v5.097-5.097h-5.086l-5.096 5.097v4.556l-4.826 5.096v9.923l-9.383 9.912h-94.379l5.097-5.086 5.096-14.749 4.826-14.749v-24.661 4.826l-9.922-15.018 5.096-9.653v-9.653l4.826-9.922v-9.912l5.086-5.097v-4.826l4.826-5.096v5.096l9.923-9.922-4.826 9.922 4.826 4.826v-9.922 9.922l5.096-9.922v-9.923l9.653-4.556-5.096-5.096 5.096-4.557v-5.096zm5.356 0v5.096l-5.356-5.096zm24.402-10.182v4.826l-9.653-4.826h5.096zm-14.749-4.827-4.826-5.096h4.826zm0-5.096h-4.826v-9.652h4.826l-4.826 4.556zm-69.167-5.096v-4.556zm-49.063-24.122 4.556 4.827-4.556 4.826h4.556l5.096-4.826-5.096 4.826 5.096-4.826h10.183l4.556 4.826 5.366 9.913 4.557 4.556 4.826-4.556 4.826 4.556h5.097l15.008-9.912h14.749l14.749-4.557v14.47h15.008l4.827 5.095v5.096h4.826v4.827h5.096v4.826l-14.749-4.826-5.356 4.826v-4.826l-5.096 10.182-4.556-10.182h-14.749l-4.826 4.826h-15.009v5.356h-4.826l-5.096 9.653v-15.009l-5.097 5.356v5.096h-4.826v-10.452 10.452L306.11 320.86h-4.556v-9.653h-5.096l5.096-9.653-10.183-5.096v-5.356l-9.652-4.826h-10.462l-4.557-4.827-24.661-10.192-5.096-4.556h-4.827l15.019-9.913h14.469l5.096-9.653h4.557l10.462-5.096zm19.835-15.018-5.096 4.826-5.087 5.096-5.096 9.923-4.556-4.827h4.556v-5.096 5.096l-4.556-5.096 9.652-9.922z" style="stroke-width:9.99242"/></svg>