<?xml version="1.0" encoding="UTF-8" standalone="no"?>
<svg
   width="24"
   height="24"
   viewBox="228.333 229.836 224.732 221.72699999999998"
   version="1.1"
   id="svg1"
   sodipodi:docname="mi.svg"
   inkscape:version="1.4.3 (0d15f75042, 2025-12-25)"
   xmlns:inkscape="http://www.inkscape.org/namespaces/inkscape"
   xmlns:sodipodi="http://sodipodi.sourceforge.net/DTD/sodipodi-0.dtd"
   xmlns="http://www.w3.org/2000/svg"
   xmlns:svg="http://www.w3.org/2000/svg">
  <defs
     id="defs1" />
  <sodipodi:namedview
     id="namedview1"
     pagecolor="#ffffff"
     bordercolor="#000000"
     borderopacity="0.25"
     inkscape:showpageshadow="2"
     inkscape:pageopacity="0.0"
     inkscape:pagecheckerboard="0"
     inkscape:deskcolor="#d1d1d1"
     inkscape:zoom="31"
     inkscape:cx="12.016129"
     inkscape:cy="12"
     inkscape:window-width="1920"
     inkscape:window-height="947"
     inkscape:window-x="1920"
     inkscape:window-y="32"
     inkscape:window-maximized="1"
     inkscape:current-layer="svg1" />
  <path
     d="m 429.44668,434.27352 v -4.82634 z m -78.8302,-108.58763 h -4.82634 v -4.82634 h 4.82634 z m 9.92247,-19.57515 v -4.55654 -5.09614 z m 24.40149,-9.65268 5.35593,5.09614 h 4.82634 l 4.82634,4.55654 h 5.09614 l 15.0186,9.65268 v 9.92247 -4.82634 l -5.36593,4.82634 5.36593,5.09613 v 19.83496 l -5.36593,5.09613 v 4.82634 l -9.65267,5.09614 v 9.65267 l 9.65267,4.55655 v -4.55655 h 5.36593 v -9.65267 h 4.55655 l 4.82634,-5.09614 9.92247,5.09614 v 4.55654 l 9.91248,29.49762 -4.82634,15.00862 v 5.09613 -5.09613 h -5.08614 l -5.09613,5.09613 v 4.55655 l -4.82634,5.09613 v 4.82634 5.09613 l -9.38289,9.91248 h -35.12335 -59.25505 l 5.09613,-5.08614 5.09614,-14.74881 4.82633,-14.74881 v -15.00862 -4.82634 -4.82633 4.82633 l -9.92247,-15.0186 5.09614,-9.65268 v -9.65268 l 4.82633,-9.92247 v -9.91248 l 5.08615,-5.09614 v -4.82634 l 4.82634,-5.09613 v 5.09613 l 9.92247,-9.92247 -4.82634,9.92247 4.82634,4.82634 v -9.92247 9.92247 l 5.09613,-9.92247 v -9.92247 l 9.65268,-4.55655 -5.09613,-5.09613 5.09613,-4.55654 v -5.09614 z m 5.35593,0 v 5.09614 l -5.35593,-5.09614 z m 24.40149,-10.18227 v 4.82634 l -9.65267,-4.82634 h 5.09613 z m -14.74881,-4.82634 -4.82634,-5.09614 h 4.82634 z m 0,-5.09614 h -4.82634 v -5.09613 -4.55654 h 4.82634 l -4.82634,4.55654 z m -69.16753,-5.09613 v -4.55654 z m -49.06278,-24.1217 4.55654,4.82634 -4.55654,4.82633 h 4.55654 l 5.09614,-4.82633 -5.09614,4.82633 5.09614,-4.82633 h 10.18227 l 4.55655,4.82633 5.36593,9.91249 4.55654,4.55654 4.82634,-4.55654 4.82634,4.55654 h 5.09613 l 15.00862,-9.91248 h 14.74881 l 14.74881,-4.55655 v 14.46903 h 4.55654 5.09614 5.35593 l 4.82634,5.09613 v 5.09614 h 4.82634 v 4.82634 h 5.09614 v 4.82634 l -14.74882,-4.82634 -5.35593,4.82634 v -4.82634 l -5.09614,10.18227 -4.55654,-10.18227 h -14.74881 l -4.82634,4.82634 h -5.09613 -9.91249 v 5.35593 h -4.82633 l -5.09614,9.65268 v -4.55654 -5.09614 -5.35593 l -5.09613,5.35593 v 5.09614 h -4.82634 v -10.45207 10.45207 l -14.74881,19.30535 h -4.55655 v -9.65268 h -5.09613 l 5.09613,-9.65267 -10.18227,-5.09614 v -5.35593 l -9.65268,-4.82634 h -10.46206 l -4.55655,-4.82634 -24.66129,-10.19227 -5.09613,-4.55654 h -4.82634 l 15.0186,-9.91249 H 261.604 l 5.09613,-9.65267 h 4.55655 l 10.46206,-5.09614 z m 19.83495,-15.01861 -5.09613,4.82634 -5.08614,5.09613 -5.09614,9.92248 -4.55654,-4.82634 h 4.55654 v -5.09614 5.09614 l -4.55654,-5.09614 9.65268,-9.92247 z"
     fill="#000000"
     id="path62"
     style="stroke-width:9.99242" />
</svg>
