<svg xmlns="http://www.w3.org/2000/svg" width="24" height="24" viewBox="329.799 329.667 116.44 122.99800000000005">
  <path
     d="M335.355 431.07L336.04 430.728L336.382 431.123H336.698V431.439L336.935 431.65L338.7 432.018L338.99 432.414L339.622 432.387L339.753 432.176L340.228 432.045L340.939 432.124L341.676 432.387L341.544 432.677L342.045 432.73L342.361 433.493L342.519 433.414L342.572 433.125L343.072 433.046L343.283 433.441L343.888 433.625L343.994 433.941L344.257 434.073H345.047L345.969 433.414L346.311 433.967L347.786 433.757L348.313 434.178L348.629 434.073L349.182 434.152L346.18 435.627L344.547 437.47L343.098 438.629L342.782 439.156H342.624V441.263L341.597 441.948L341.044 442.711L341.123 443.159L341.465 443.185L341.676 443.686L341.465 444.239V444.739L341.334 444.976L341.465 445.477L341.307 446.056L341.913 446.636L342.414 446.767L342.651 447.136L343.177 447.268L344.336 448.558L345.047 448.769L345.311 449.19L345.469 450.639L338.542 450.665L331.694 450.507L331.958 443.923L331.747 443.607L331.378 443.423L331.009 442.843L331.747 441.974L331.852 440.841L331.378 439.051L331.457 438.023L331.325 437.76L331.378 435.548L330.799 433.599V432.176L330.93 431.755L330.667 430.438L335.276 430.596L335.355 431.07ZM335.803 429.332L336.172 429.358L336.224 429.569L336.119 429.911L335.803 430.069V429.332Z"
     fill="black"
     id="path60" />
</svg>
