<?xml version="1.0" encoding="UTF-8" standalone="no"?>
<svg
   width="24"
   height="24"
   viewBox="329.799 329.667 116.44 122.99800000000005"
   version="1.1"
   id="svg1"
   sodipodi:docname="mn.svg"
   inkscape:version="1.4.3 (0d15f75042, 2025-12-25)"
   xmlns:inkscape="http://www.inkscape.org/namespaces/inkscape"
   xmlns:sodipodi="http://sodipodi.sourceforge.net/DTD/sodipodi-0.dtd"
   xmlns="http://www.w3.org/2000/svg"
   xmlns:svg="http://www.w3.org/2000/svg">
  <defs
     id="defs1" />
  <sodipodi:namedview
     id="namedview1"
     pagecolor="#ffffff"
     bordercolor="#000000"
     borderopacity="0.25"
     inkscape:showpageshadow="2"
     inkscape:pageopacity="0.0"
     inkscape:pagecheckerboard="0"
     inkscape:deskcolor="#d1d1d1"
     inkscape:zoom="31"
     inkscape:cx="12.016129"
     inkscape:cy="12"
     inkscape:window-width="1920"
     inkscape:window-height="947"
     inkscape:window-x="1920"
     inkscape:window-y="32"
     inkscape:window-maximized="1"
     inkscape:current-layer="svg1" />
  <path
     d="m 361.77779,339.89241 3.93374,-1.964 1.964,2.26837 h 1.81469 v 1.81468 l 1.36101,1.21171 10.13585,2.11331 1.66538,2.27411 3.62938,-0.15506 0.75229,-1.2117 2.72778,-0.7523 4.08305,0.45368 4.23236,1.51032 -0.75803,1.66538 2.87708,0.30437 1.81469,4.38167 0.90735,-0.45368 0.30436,-1.65963 2.87134,-0.45367 1.21171,2.26836 3.47433,1.05665 0.60872,1.81469 1.51033,0.75804 h 4.53672 l 5.29476,-3.78444 1.964,3.17571 8.47047,-1.20596 3.02639,2.41767 1.81469,-0.60298 3.17571,0.45367 -17.23955,8.47046 -9.37781,10.58378 -8.32116,6.65578 -1.81469,3.02638 h -0.90734 v 12.09985 l -5.89774,3.93374 -3.17571,4.38167 0.45367,2.57272 1.964,0.14932 1.21171,2.87709 -1.21171,3.1757 v 2.87134 l -0.75229,1.36102 0.75229,2.87709 -0.90734,3.32501 3.48007,3.33076 2.87708,0.7523 1.36102,2.11905 3.02066,0.75804 6.65577,7.40807 4.08305,1.21171 1.51607,2.41766 0.90735,8.32115 -39.77961,0.14931 -39.32593,-0.90733 1.51607,-37.80986 -1.2117,-1.81469 -2.11906,-1.05667 -2.11905,-3.33075 4.23811,-4.99039 0.60298,-6.50647 -2.72204,-10.27941 0.45368,-5.90348 -0.75804,-1.51033 0.30436,-12.70283 -3.32501,-11.1925 v -8.17184 l 0.75229,-2.41768 -1.51033,-7.56312 26.46805,0.90735 z m 2.57272,-9.98079 2.11905,0.14931 0.29862,1.21171 -0.60298,1.964 -1.81469,0.90734 z"
     fill="#000000"
     id="path60"
     style="stroke-width:5.74269" />
</svg>
