<svg width="24" height="24" viewBox="329.799 329.667 116.44 122.998" xmlns="http://www.w3.org/2000/svg" xmlns:svg="http://www.w3.org/2000/svg"><path d="m361.778 339.892 3.934-1.964 1.964 2.269h1.814v1.814l1.361 1.212 10.136 2.113 1.665 2.275 3.63-.155.752-1.212 2.728-.752 4.083.453 4.232 1.51-.758 1.666 2.877.304 1.815 4.382.907-.454.305-1.66 2.871-.453 1.212 2.268 3.474 1.057.609 1.815 1.51.758h4.537l5.295-3.785 1.964 3.176 8.47-1.206 3.027 2.418 1.814-.603 3.176.453-17.24 8.47-9.377 10.585-8.322 6.655-1.814 3.027h-.908v12.1l-5.897 3.933-3.176 4.382.454 2.573 1.964.15 1.211 2.876-1.211 3.176v2.871l-.753 1.361.753 2.877-.908 3.325 3.48 3.331 2.877.752 1.361 2.12 3.021.757 6.656 7.409 4.083 1.211 1.516 2.418.907 8.321-39.78.15-39.325-.908 1.516-37.81-1.212-1.815-2.119-1.056-2.119-3.33 4.238-4.991.603-6.507-2.722-10.28.454-5.903-.758-1.51.304-12.703-3.325-11.192v-8.172l.752-2.418-1.51-7.563 26.468.907zm2.573-9.98 2.119.149.298 1.212-.603 1.964-1.814.907z" style="stroke-width:5.74269"/></svg>