<?xml version="1.0" encoding="UTF-8" standalone="no"?>
<svg
   width="24"
   height="24"
   viewBox="41.642 27.0 511.02299999999997 523.532"
   version="1.1"
   id="svg1"
   sodipodi:docname="mo.svg"
   inkscape:version="1.4.3 (0d15f75042, 2025-12-25)"
   xmlns:inkscape="http://www.inkscape.org/namespaces/inkscape"
   xmlns:sodipodi="http://sodipodi.sourceforge.net/DTD/sodipodi-0.dtd"
   xmlns="http://www.w3.org/2000/svg"
   xmlns:svg="http://www.w3.org/2000/svg">
  <defs
     id="defs1" />
  <sodipodi:namedview
     id="namedview1"
     pagecolor="#ffffff"
     bordercolor="#000000"
     borderopacity="0.25"
     inkscape:showpageshadow="2"
     inkscape:pageopacity="0.0"
     inkscape:pagecheckerboard="0"
     inkscape:deskcolor="#d1d1d1"
     inkscape:zoom="31"
     inkscape:cx="12.016129"
     inkscape:cy="12"
     inkscape:window-width="1920"
     inkscape:window-height="947"
     inkscape:window-x="1920"
     inkscape:window-y="32"
     inkscape:window-maximized="1"
     inkscape:current-layer="svg1" />
  <path
     d="m 370.59339,89.361677 -6.67625,19.934983 5.00773,30.46954 6.67626,14.96214 43.39457,43.75227 6.12226,27.13251 6.67408,11.07983 6.12226,-0.54526 8.34477,-7.19753 23.36799,13.84979 -18.36243,47.63457 1.11453,12.19218 18.35806,19.38971 15.02321,6.08519 31.15659,27.69959 v 12.17037 l 8.34477,14.96214 -8.34477,13.30452 12.79633,21.04733 7.23243,4.42757 -2.22469,-7.19753 4.44938,-1.65761 6.12227,10.51275 h 4.44938 l -0.55617,21.61441 -6.12227,17.71029 -12.79415,-4.97284 -7.7886,17.16502 -2.2247,-9.96749 h -5.00773 l 3.33922,16.61975 -8.34696,5.53992 6.1179,6.63045 -11.12564,1.11235 6.67626,11.64691 -8.90095,14.39506 -51.7437,0.54527 5.00774,-12.73745 18.91642,-16.61975 0.55617,-8.30988 -7.7886,-12.17037 -355.51441,-7.21934 13.35251,-261.44486 -17.2479,-6.65226 -3.89539,-17.16502 -15.577199,-16.05268 11.127809,-17.7321 h 8.34478 v -8.85514 l -5.56391,-7.21934 -11.127815,2.76995 L 68.489031,114.83657 64.59364,93.789249 51.24113,85.479372 49.016438,65.544392 44.564875,61.11682 45.121047,56.12217 176.42364,65.544392 h 171.91412 z"
     fill="#000000"
     id="path56"
     style="stroke-width:21.8107" />
</svg>
