<svg width="24" height="24" viewBox="41.642 27 511.023 523.532" xmlns="http://www.w3.org/2000/svg" xmlns:svg="http://www.w3.org/2000/svg"><path d="m370.593 89.362-6.676 19.935 5.008 30.47 6.676 14.961 43.395 43.753 6.122 27.132 6.674 11.08 6.122-.545 8.345-7.198 23.368 13.85-18.362 47.635 1.114 12.192 18.358 19.39 15.023 6.085 31.157 27.7v12.17l8.345 14.962-8.345 13.304 12.796 21.048 7.233 4.427-2.225-7.197 4.45-1.658 6.122 10.513h4.45l-.557 21.614-6.122 17.71-12.794-4.972-7.79 17.165-2.224-9.968h-5.007l3.339 16.62-8.347 5.54 6.118 6.63-11.126 1.113 6.676 11.647-8.9 14.395-51.744.545 5.007-12.738 18.917-16.62.556-8.31-7.789-12.17-355.514-7.219 13.352-261.445-17.247-6.652-3.896-17.165-15.577-16.053 11.128-17.732h8.345v-8.855l-5.564-7.22-11.128 2.77-23.366-17.164-3.895-21.048-13.353-8.31-2.225-19.935-4.451-4.427.556-4.995 131.303 9.422h171.914z" style="stroke-width:21.8107"/></svg>