<svg xmlns="http://www.w3.org/2000/svg" width="24" height="24" viewBox="41.642 27.0 511.02299999999997 523.532">
  <path
     d="M42.9481 530.856L42.642 531.77L42.8716 533.167L43.1777 533.853L45.1673 535.859L45.448 537.103L45.754 537.611L46.0347 537.586L46.4173 537.256L47.4887 537.891L46.6468 540.075L46.6979 540.634L47.5396 541.523L48.2284 541.802L49.6569 543.072V543.63L50.0395 544.316L49.6569 544.926L50.2436 545.891L50.5752 546.094L50.4732 545.764L50.6772 545.688L50.9579 546.17H51.1619L51.1364 547.161L50.8557 547.973L50.2691 547.745L49.912 548.532L49.81 548.075H49.5804L49.7335 548.837L49.3508 549.091L49.6313 549.395L49.1212 549.446L49.4273 549.98L49.0192 550.64L46.6468 550.665L46.8764 550.081L47.7437 549.319L47.7692 548.938L47.4121 548.38L31.1121 548.049L31.7243 536.062L30.9335 535.757L30.7549 534.97L30.0407 534.234L30.5509 533.421H30.9335V533.015L30.6784 532.684L30.1682 532.811L29.0969 532.024L28.9183 531.059L28.3061 530.678L28.2041 529.764L28 529.561L28.0255 529.332L34.0456 529.764H41.9277L42.9481 530.856Z"
     fill="black"
     id="path56" />
</svg>
