<?xml version="1.0" encoding="UTF-8" standalone="no"?>
<svg
   width="24"
   height="24"
   viewBox="428.332 428.413 24.733000000000004 24.625999999999976"
   version="1.1"
   id="svg1"
   sodipodi:docname="ms.svg"
   inkscape:version="1.4.3 (0d15f75042, 2025-12-25)"
   xmlns:inkscape="http://www.inkscape.org/namespaces/inkscape"
   xmlns:sodipodi="http://sodipodi.sourceforge.net/DTD/sodipodi-0.dtd"
   xmlns="http://www.w3.org/2000/svg"
   xmlns:svg="http://www.w3.org/2000/svg">
  <defs
     id="defs1" />
  <sodipodi:namedview
     id="namedview1"
     pagecolor="#ffffff"
     bordercolor="#000000"
     borderopacity="0.25"
     inkscape:showpageshadow="2"
     inkscape:pageopacity="0.0"
     inkscape:pagecheckerboard="0"
     inkscape:deskcolor="#d1d1d1"
     inkscape:zoom="31"
     inkscape:cx="12.016129"
     inkscape:cy="12"
     inkscape:window-width="1920"
     inkscape:window-height="947"
     inkscape:window-x="1920"
     inkscape:window-y="32"
     inkscape:window-maximized="1"
     inkscape:current-layer="svg1" />
  <path
     d="m 444.72301,452.8599 h -0.0302 l 0.21043,-0.0907 z m 2.31249,-0.0907 -0.18021,0.0907 -0.0604,-0.12088 z m -2.73335,-0.0907 -0.11977,0.21043 -0.27087,-0.14999 0.39064,-0.11977 z m 2.25205,0.0907 -0.93015,-0.0907 v -0.0593 h 0.26976 z m 0.75106,-24.11555 h 0.69061 l 0.36042,0.41975 -1.56144,15.2562 0.36042,7.71876 -0.29998,0.24066 -0.54062,-0.42087 -0.6604,0.21043 -0.75105,-0.48018 -0.24065,0.14999 0.48018,0.0593 -1.62188,0.48131 -0.38952,-0.3302 -0.14999,0.18021 0.18021,0.18021 -0.4813,0.29997 -0.0896,0.26976 h -0.5104 l -0.45109,-1.32079 -0.57084,-0.57085 -0.20932,-0.60107 0.44997,-1.53122 -8.25828,-0.21043 0.3593,-0.21043 -0.33019,-1.08125 0.54062,-0.14999 0.18021,-0.63017 -0.18021,-0.42086 0.42086,-0.36042 0.42086,-1.29168 1.1708,-0.89993 -0.0907,-0.60107 0.33132,-0.0604 0.56972,-0.87082 -0.90104,-0.75106 0.0907,-0.51041 -0.29997,-0.39064 0.41974,-0.29997 -0.36042,-0.36042 0.39064,-0.78128 -0.39064,-0.26975 v -0.63129 l 0.36042,-0.26976 -0.11977,-0.57085 -0.29997,-0.21043 0.29997,-0.74993 -0.45108,-0.51153 0.24065,-0.0593 0.0907,-0.3011 -0.33132,-0.17909 0.78128,-0.66151 -0.0604,-0.36042 0.0907,-0.23953 -0.21043,-0.3302 0.93127,-0.33131 -0.27088,-0.48019 0.3011,-0.26975 0.26975,-0.39064 h 0.14999 l 0.0604,-0.42086 h 0.36042 l 0.39064,-0.24065 0.11977,-1.501 0.33019,-0.0302 0.14999,-0.48018 0.75106,-0.48131 -0.14999,-0.44996 z"
     fill="#000000"
     id="path58"
     style="stroke-width:1.11931" />
</svg>
