<svg width="24" height="24" viewBox="428.332 428.413 24.733 24.626" xmlns="http://www.w3.org/2000/svg" xmlns:svg="http://www.w3.org/2000/svg"><path d="M444.723 452.86h-.03l.21-.09zm2.312-.09-.18.09-.06-.121zm-2.733-.092-.12.21-.27-.15.39-.119zm2.252.091-.93-.09v-.06h.27zm.751-24.115h.69l.361.42-1.561 15.256.36 7.718-.3.241-.54-.42-.66.21-.752-.48-.24.15.48.059-1.622.481-.39-.33-.15.18.18.18-.48.3-.09.27h-.51l-.452-1.32-.57-.572-.21-.6.45-1.532-8.258-.21.359-.21-.33-1.082.54-.15.18-.63-.18-.421.421-.36.421-1.292 1.171-.9-.09-.601.33-.06.57-.871-.9-.751.09-.51-.3-.392.42-.3-.36-.36.39-.781-.39-.27v-.631l.36-.27-.12-.57-.3-.211.3-.75-.451-.512.24-.059.091-.301-.331-.18.781-.66-.06-.361.09-.24-.21-.33.931-.331-.27-.48.3-.27.27-.39h.15l.06-.422h.361l.39-.24.12-1.501.33-.03.15-.48.752-.482-.15-.45z" style="stroke-width:1.11931"/></svg>