<svg xmlns="http://www.w3.org/2000/svg" width="24" height="24" viewBox="428.332 428.413 24.733000000000004 24.625999999999976">
  <path
     d="M444.125 451.039H444.098L444.286 450.958L444.125 451.039ZM446.191 450.958L446.03 451.039L445.976 450.931L446.191 450.958ZM443.749 450.877L443.642 451.065L443.4 450.931L443.749 450.824V450.877ZM445.761 450.958L444.93 450.877V450.824H445.171L445.761 450.958ZM446.432 429.413H447.049L447.371 429.788L445.976 443.418L446.298 450.314L446.03 450.529L445.547 450.153L444.957 450.341L444.286 449.912L444.071 450.046L444.5 450.099L443.051 450.529L442.703 450.234L442.569 450.395L442.73 450.556L442.3 450.824L442.22 451.065H441.764L441.361 449.885L440.851 449.375L440.664 448.838L441.066 447.47L433.688 447.282L434.009 447.094L433.714 446.128L434.197 445.994L434.358 445.431L434.197 445.055L434.573 444.733L434.949 443.579L435.995 442.775L435.914 442.238L436.21 442.184L436.719 441.406L435.914 440.735L435.995 440.279L435.727 439.93L436.102 439.662L435.78 439.34L436.129 438.642L435.78 438.401V437.837L436.102 437.596L435.995 437.086L435.727 436.898L435.995 436.228L435.592 435.771L435.807 435.718L435.888 435.449L435.592 435.289L436.29 434.698L436.236 434.376L436.317 434.162L436.129 433.867L436.961 433.571L436.719 433.142L436.988 432.901L437.229 432.552H437.363L437.417 432.176H437.739L438.088 431.961L438.195 430.62L438.49 430.593L438.624 430.164L439.295 429.734L439.161 429.332L446.432 429.413Z"
     fill="black"
     id="path58" />
</svg>
