<svg xmlns="http://www.w3.org/2000/svg" width="24" height="24" viewBox="131.535 129.667 415.716 416.26099999999997">
  <path
     d="M148.891 541.565L149.032 543.681L143.568 543.928H137.964L137.946 545.057L137.453 544.458L137.241 544.705L137.312 544.916L136.096 544.846L135.814 545.057L135.214 544.969L135.108 545.251L134.862 545.04L134.615 544.352L134.192 544.105V543.752L133.787 543.064L133.716 542.411L133.416 542.2L132.888 542.641L132.535 542.411L132.57 541.988L132.817 541.706L132.676 541.141L133.064 540.013H132.676L132.535 539.801L132.394 539.907L131.601 538.601L131.019 538.143L131.178 538.072L131.09 537.896L131.108 537.578L130.667 536.873L130.843 534.668L139.656 535.074L148.38 534.809L148.891 541.565Z"
     fill="black"
     id="path54" />
</svg>
