<svg width="24" height="24" viewBox="131.535 129.667 415.716 416.261" xmlns="http://www.w3.org/2000/svg" xmlns:svg="http://www.w3.org/2000/svg"><path d="m539.872 373.397 3.126 46.918-121.154 5.477H297.585l-.399 25.033-10.931-13.281-4.7 5.476 1.573 4.679-26.962-1.552-6.253 4.678-13.304-1.95-2.35 6.252-5.455-4.679-5.477-15.255-9.379-5.476v-7.828l-8.98-15.255-1.574-14.479-6.652-4.678-11.708 9.778-7.827-5.1.776-9.38 5.477-6.252-3.127-12.528 8.604-25.011h-8.604l-3.126-4.701-3.126 2.35-17.584-28.958-12.905-10.155 3.526-1.574-1.951-3.903.399-7.051-9.778-15.632 3.902-48.892 195.412 9.002 193.44-5.876z" style="stroke-width:22.1732"/></svg>