<svg xmlns="http://www.w3.org/2000/svg" width="24" height="24" viewBox="336.209 328.333 307.58700000000005 317.84499999999997">
  <path
     d="M344.782 643.947L344.675 644.178L344.551 644.142L344.604 644.053L344.782 643.947ZM345.031 643.2L344.942 643.431L344.906 643.449L344.977 643.236L345.031 643.2ZM346.186 642.187L345.76 642.382L345.493 642.631L345.635 642.471L345.92 642.24L346.186 642.187ZM348.142 641.796H348.089L347.857 641.636L348.053 641.689L348.142 641.796ZM347.751 641.636H347.431L346.773 641.796L347.235 641.636L347.626 641.6L347.751 641.636ZM348.177 641.884L348.444 641.333L348.906 640.836L348.48 641.369L348.177 641.884ZM349.066 640.747L349.191 640.516H349.297L349.066 640.676V640.747ZM349.582 640.32L349.333 640.48L349.422 640.356L349.92 640.089L349.582 640.32ZM350.471 640L350.009 640.124L350.542 639.787L350.595 639.004L350.471 638.382L350.666 638.933L350.577 639.662L350.471 640ZM350.24 638.258L350.151 638.222L349.973 637.938L350.151 637.956L350.24 638.258ZM349.76 636.818L349.973 637.369L350.471 638.364L349.973 637.689L350.044 637.671L349.724 636.871L349.546 636.16L349.76 636.818ZM349.333 636.16H349.457L349.493 636.302H349.333L349.262 636.16H349.333ZM339.413 636.302L349.191 636.16V636.391L349.333 636.516V636.587L349.457 636.693V636.516L349.777 637.529L349.351 636.871L349.493 637.28L348.835 636.853L349.155 637.298L348.906 637.404L348.604 637.138L348.764 637.511L348.177 637.173L348.569 637.529L347.911 637.796L347.662 637.671L347.591 637.28L347.662 636.978L347.52 636.871L347.484 637.44L347.662 637.796L347.591 637.956L348.302 637.831L348.693 637.991L348.64 637.867L349.191 637.831V638.382H349.031L349.262 638.649L348.995 638.684L349.262 638.809L349.333 638.098L349.457 637.991L349.617 638.116L349.546 637.956H349.724L349.689 637.831L349.973 638.258V638.809L349.724 639.004L349.617 638.809L349.297 639.502L348.995 639.698L348.515 639.538L348.48 639.698L348.337 639.36L348.177 639.573L347.946 639.271L348.213 639.147L347.786 639.2L347.911 639.573L346.809 639.2L347.04 639.502L348.213 639.929L347.751 640.249L348.017 640.213L348.053 640.391L347.52 640.782L346.773 640.32L347.093 640.818L347.591 641.031L347.875 640.782L348.089 640.942L348.017 640.782L348.213 640.818L348.302 640.516L348.284 640.907L348.604 640.782L348.515 640.64L348.729 640.818L348.177 641.493L347.911 641.262L347.875 641.6L347.751 641.333L347.52 641.458L347.715 641.529H347.235L346.773 641.689L346.666 641.458V641.689L346.24 642.044L346.062 641.956L346.222 641.796L345.955 641.493L346.08 641.813L345.92 641.92L346.08 642.187L345.689 642.347L345.244 642.773L344.782 643.911L344.817 643.431L344.675 643.164L344.746 643.716L344.515 644.053L343.697 643.876L343.235 644.142L340.586 641.387L337.866 641.262L337.849 640.907L337.511 640.409L337.209 640.551V640.32L334.044 640.053L332.284 640.604L329.333 640.516L329.457 639.787L329.991 639.698L330.151 639.271L330.453 639.004L331.395 638.916L332.213 638.382L332.64 638.293L332.906 637.831L333.102 637.938L333.511 637.529L333.689 637.831L334.542 637.28L334.897 637.44L335.324 636.853L335.751 636.747L335.875 636L339.413 636.302Z"
     fill="black"
     id="path40" />
</svg>
