<?xml version="1.0" encoding="UTF-8" standalone="no"?>
<svg
   width="24"
   height="24"
   viewBox="336.209 328.333 307.58700000000005 317.84499999999997"
   version="1.1"
   id="svg1"
   sodipodi:docname="nc.svg"
   inkscape:version="1.4.3 (0d15f75042, 2025-12-25)"
   xmlns:inkscape="http://www.inkscape.org/namespaces/inkscape"
   xmlns:sodipodi="http://sodipodi.sourceforge.net/DTD/sodipodi-0.dtd"
   xmlns="http://www.w3.org/2000/svg"
   xmlns:svg="http://www.w3.org/2000/svg">
  <defs
     id="defs1" />
  <sodipodi:namedview
     id="namedview1"
     pagecolor="#ffffff"
     bordercolor="#000000"
     borderopacity="0.25"
     inkscape:showpageshadow="2"
     inkscape:pageopacity="0.0"
     inkscape:pagecheckerboard="0"
     inkscape:deskcolor="#d1d1d1"
     inkscape:zoom="31"
     inkscape:cx="12.016129"
     inkscape:cy="8.8387097"
     inkscape:window-width="1920"
     inkscape:window-height="947"
     inkscape:window-x="1920"
     inkscape:window-y="32"
     inkscape:window-maximized="1"
     inkscape:current-layer="svg1" />
  <path
     d="m 560.19833,543.88184 -1.57051,3.39053 -1.82003,-0.52839 0.77792,-1.3063 z m 3.65473,-10.9642 -1.30631,3.39053 -0.5284,0.2642 1.04212,-3.12634 z m 16.95268,-14.86845 -6.25268,2.86214 -3.91893,3.65473 2.08423,-2.34842 4.18312,-3.39054 z m 28.70946,-5.73896 h -0.77791 l -3.40522,-2.34842 2.87682,0.77792 z m -5.73896,-2.34842 h -4.69684 l -9.65789,2.34842 6.78107,-2.34842 5.73896,-0.5284 z m 6.25268,3.64005 3.91893,-8.08738 6.78107,-7.29479 -6.25267,7.82319 z m 13.04842,-16.68848 1.83471,-3.39053 h 1.55583 l -3.39054,2.34842 z m 7.57367,-6.26735 -3.65474,2.34842 1.30631,-1.82002 7.30947,-3.91893 z m 13.04842,-4.69684 -6.78107,1.82002 7.82318,-4.94636 0.77792,-11.49259 -1.82003,-9.1295 2.86214,8.08738 -1.30631,10.7 z m -3.39054,-25.56846 -1.30631,-0.52839 -2.61262,-4.16845 2.61262,0.2642 z m -7.04526,-21.1358 3.12633,8.08738 7.30947,14.60425 -7.30947,-9.9074 1.04212,-0.2642 -4.69685,-11.74211 -2.61262,-10.43581 z m -6.26736,-9.65789 h 1.82003 l 0.5284,2.08423 h -2.34843 l -1.04211,-2.08423 z m -145.6022,2.08423 143.51798,-2.08423 v 3.39054 l 2.08421,1.8347 v 1.04212 l 1.82004,1.55583 v -2.59795 l 4.69685,14.86845 -6.25268,-9.65788 2.08422,6.00315 -9.65788,-6.26735 4.69684,6.53155 -3.65473,1.55583 -4.43265,-3.90425 2.34843,5.47476 -8.61578,-4.96105 5.75364,5.22524 -9.65789,3.91893 -3.65474,-1.8347 -1.04211,-5.73896 1.04211,-4.43265 -2.08422,-1.5705 -0.5284,8.35157 2.61262,5.22524 -1.04211,2.34843 10.43581,-1.83471 5.73895,2.34842 -0.77791,-1.82002 8.08738,-0.5284 v 8.08738 h -2.34842 l 3.39053,3.91893 -3.91893,0.51372 3.91893,1.83471 1.04211,-10.43581 1.82003,-1.57051 2.34842,1.83471 -1.04211,-2.34842 h 2.61262 l -0.51372,-1.83471 4.16845,6.26735 v 8.08739 l -3.65473,2.86214 -1.57051,-2.86214 -4.69684,10.1716 -4.43265,2.87682 -7.04527,-2.34842 -0.51371,2.34842 -2.09891,-4.96104 -2.34842,3.12633 -3.39054,-4.43264 3.91894,-1.82003 -6.26736,0.77791 1.83471,5.47476 -16.17476,-5.47476 3.39053,4.43265 17.21688,6.26735 -6.78108,4.69685 3.90426,-0.5284 0.52839,2.61262 -7.82318,5.73896 -10.9642,-6.78107 4.69685,7.30947 7.30946,3.12633 4.16845,-3.65473 3.14102,2.34842 -1.05679,-2.34842 2.87682,0.5284 1.30631,-4.43265 -0.2642,5.73896 4.69684,-1.83471 -1.30631,-2.08422 3.14102,2.61262 -8.10206,9.90741 -3.90425,-3.39054 -0.5284,4.96104 -1.82003,-3.91893 -3.39053,1.83471 2.86214,1.04211 h -7.04527 l -6.78107,2.34842 -1.57051,-3.39053 v 3.39053 l -6.25267,5.21057 -2.61262,-1.29164 2.34842,-2.34842 -3.91893,-4.44732 1.83471,4.69684 -2.34843,1.57051 2.34843,3.91893 -5.73896,2.34842 -6.53155,6.25268 -6.78107,16.70315 0.51371,-7.04527 -2.08422,-3.91893 1.04211,8.10206 -3.39053,4.94637 -12.00631,-2.59794 -6.78107,3.90425 -38.88108,-40.4369 -39.92318,-1.83471 -0.24952,-5.21056 -4.96104,-7.30947 -4.43265,2.08423 v -3.39054 l -46.45475,-3.91893 -25.83265,8.08738 -43.31371,-1.29163 1.82002,-10.7 7.83786,-1.30631 2.34842,-6.26735 4.43265,-3.91893 13.82634,-1.29163 12.00631,-7.83786 6.26735,-1.30632 3.90427,-6.78107 2.8768,1.57051 6.00316,-6.00315 2.61262,4.43265 12.52003,-8.08738 5.21056,2.34842 6.26735,-8.61577 6.26736,-1.55583 1.82002,-10.9642 z"
     fill="#000000"
     id="path40"
     style="stroke-width:14.6776" />
</svg>
