<svg width="24" height="24" viewBox="336.209 328.333 307.587 317.845" xmlns="http://www.w3.org/2000/svg" xmlns:svg="http://www.w3.org/2000/svg"><path d="m560.198 543.882-1.57 3.39-1.82-.528.778-1.306zm3.655-10.964-1.306 3.39-.529.264 1.042-3.126zm16.953-14.869-6.253 2.862-3.919 3.655 2.084-2.348 4.183-3.39zm28.71-5.739h-.779l-3.405-2.348 2.877.778zm-5.74-2.348h-4.697l-9.657 2.348 6.78-2.348 5.74-.529zm6.253 3.64 3.919-8.088 6.78-7.294-6.252 7.823zm13.048-16.689 1.835-3.39h1.556l-3.39 2.348zm7.574-6.267-3.655 2.348 1.307-1.82 7.31-3.919zm13.048-4.697-6.78 1.82 7.823-4.946.777-11.493-1.82-9.13 2.863 8.088-1.307 10.7zm-3.39-25.568-1.306-.529-2.613-4.168 2.613.264zm-7.045-21.136 3.126 8.087 7.31 14.605-7.31-9.908 1.042-.264-4.697-11.742-2.612-10.436zm-6.268-9.658h1.82l.529 2.084h-2.349l-1.042-2.084zm-145.602 2.084 143.518-2.084v3.39l2.084 1.835v1.042l1.82 1.556v-2.598l4.697 14.869-6.253-9.658 2.085 6.003-9.658-6.267 4.697 6.531-3.655 1.556-4.433-3.904 2.349 5.475-8.616-4.962 5.754 5.226-9.658 3.919-3.655-1.835-1.042-5.739 1.042-4.433-2.084-1.57-.529 8.351 2.613 5.226-1.042 2.348 10.436-1.835 5.739 2.349-.778-1.82 8.087-.529v8.088h-2.348l3.39 3.919-3.919.513 3.92 1.835 1.041-10.436 1.82-1.57 2.349 1.835-1.042-2.349h2.612l-.513-1.835 4.168 6.268v8.087l-3.655 2.862-1.57-2.862-4.697 10.172-4.433 2.877-7.045-2.349-.514 2.349-2.099-4.962-2.348 3.127-3.39-4.433 3.918-1.82-6.267.778 1.835 5.475-16.175-5.475 3.39 4.433 17.217 6.267-6.78 4.697 3.903-.528.529 2.612-7.823 5.74-10.964-6.782 4.696 7.31 7.31 3.126 4.168-3.655 3.141 2.349-1.056-2.349 2.876.528 1.307-4.432-.265 5.739 4.697-1.835-1.306-2.084 3.141 2.612-8.102 9.908-3.904-3.39-.529 4.96-1.82-3.919-3.39 1.835 2.862 1.042h-7.045l-6.781 2.349-1.571-3.39v3.39l-6.253 5.21-2.612-1.291 2.348-2.349-3.919-4.447 1.835 4.697-2.349 1.57 2.349 3.92-5.74 2.348-6.53 6.252-6.782 16.703.514-7.045-2.084-3.919 1.042 8.102-3.39 4.947-12.007-2.598-6.781 3.904-38.881-40.437-39.923-1.835-.25-5.21-4.96-7.31-4.433 2.085v-3.391l-46.455-3.919-25.833 8.087-43.314-1.291 1.82-10.7 7.838-1.306 2.349-6.268 4.432-3.919 13.827-1.291 12.006-7.838 6.267-1.307 3.905-6.78 2.876 1.57 6.004-6.003 2.612 4.432 12.52-8.087 5.21 2.348 6.268-8.615 6.268-1.556 1.82-10.964z" style="stroke-width:14.6776"/></svg>