<svg xmlns="http://www.w3.org/2000/svg" width="24" height="24" viewBox="242.008 232.333 303.8449999999999 309.56600000000003">
  <path
     d="M245.416 538.414L245.57 538.442L245.681 539.108L246.154 539.899V540.412L246.293 540.44L246.28 540.551L246.419 540.634L246.377 540.87L246.53 540.911L246.447 541.092L246.558 541.175L246.6 542.16L246.878 542.59L246.99 543.02L247.282 543.131L247.379 543.561L247.56 543.659L242.089 543.853L236.521 543.811L236.577 541.702L233.333 541.564L233.528 537.332L237.83 537.485H242.228L243.008 537.901L243.259 537.721L244.15 537.651L244.414 537.873L245.096 538.067L245.208 538.345L245.416 538.414Z"
     fill="black"
     id="path52" />
</svg>
