<svg width="24" height="24" viewBox="242.008 232.333 303.845 309.566" xmlns="http://www.w3.org/2000/svg" xmlns:svg="http://www.w3.org/2000/svg"><path d="m501.509 339.956 3.333.607 2.403 14.417 10.24 17.123v11.106l3.009.606-.282 2.403 3.01 1.796-.91 5.11 3.312.887-1.796 3.918 2.402 1.797.91 21.323 6.018 9.308 2.424 9.309 6.321 2.403 2.1 9.308 3.918 2.122-118.434 4.2-120.535-.91 1.213-45.655-70.225-2.987 4.22-91.613 93.13 3.312h95.206l16.885 9.005 5.434-3.896 19.288-1.516 5.715 4.806 14.763 4.2 2.425 6.018z" style="stroke-width:21.6477"/></svg>