<svg xmlns="http://www.w3.org/2000/svg" width="24" height="24" viewBox="442.2 433.667 110.46499999999997 118.065">
  <path
     d="M443.44 529.759L444.294 543.599L444.134 544.985L445.067 546.212V546.905L445.574 547.545L445.494 547.732L445.787 547.679V547.812L445.2 549.199L444.507 549.145L443.627 549.732H443.2L442.854 550.239L442.24 550.665L435.227 550.425L434.694 549.572L434.667 549.199L434.907 548.452L435.174 548.159L435.387 546.105L435.6 545.785L435.68 543.652L436.08 543.225L436.24 542.319L436.8 541.785L436.96 540.985L437.467 540.239L437.36 539.999L437.734 539.199L437.814 537.732L438.16 537.252L438.934 537.199L439.947 536.345L440.374 535.812L440.454 535.359L440.72 535.225L440.214 533.972L440.934 532.692L440.8 531.839L441.52 530.132L441.307 529.945L442.054 529.412L442.934 529.812L443.36 529.332L443.44 529.759Z"
     fill="black"
     id="path48" />
</svg>
