<svg width="24" height="24" viewBox="442.2 433.667 110.465 118.065" xmlns="http://www.w3.org/2000/svg" xmlns:svg="http://www.w3.org/2000/svg"><path d="m515.058 436.53 4.684 75.92-.878 7.603 5.118 6.73v3.802l2.782 3.511-.44 1.026 1.608-.29v.729l-3.22 7.608-3.801-.296-4.828 3.22h-2.342l-1.898 2.781-3.368 2.337-38.47-1.317-2.924-4.679-.148-2.046 1.316-4.098 1.465-1.607 1.169-11.267 1.168-1.755.439-11.701 2.194-2.342.878-4.97 3.072-2.93.877-4.388 2.781-4.092-.587-1.317 2.052-4.388.439-8.047 1.898-2.633 4.246-.291 5.557-4.685 2.342-2.924.439-2.485 1.459-.735-2.776-6.873 3.95-7.022-.735-4.679 3.95-9.363-1.17-1.026 4.099-2.924 4.827 2.194 2.337-2.633z" style="stroke-width:5.48553"/></svg>