<?xml version="1.0" encoding="UTF-8" standalone="no"?>
<svg
   width="24"
   height="24"
   viewBox="442.2 433.667 110.46499999999997 118.065"
   version="1.1"
   id="svg1"
   sodipodi:docname="nh.svg"
   inkscape:version="1.4.3 (0d15f75042, 2025-12-25)"
   xmlns:inkscape="http://www.inkscape.org/namespaces/inkscape"
   xmlns:sodipodi="http://sodipodi.sourceforge.net/DTD/sodipodi-0.dtd"
   xmlns="http://www.w3.org/2000/svg"
   xmlns:svg="http://www.w3.org/2000/svg">
  <defs
     id="defs1" />
  <sodipodi:namedview
     id="namedview1"
     pagecolor="#ffffff"
     bordercolor="#000000"
     borderopacity="0.25"
     inkscape:showpageshadow="2"
     inkscape:pageopacity="0.0"
     inkscape:pagecheckerboard="0"
     inkscape:deskcolor="#d1d1d1"
     inkscape:zoom="31"
     inkscape:cx="12.016129"
     inkscape:cy="12"
     inkscape:window-width="1920"
     inkscape:window-height="947"
     inkscape:window-x="1920"
     inkscape:window-y="32"
     inkscape:window-maximized="1"
     inkscape:current-layer="svg1" />
  <path
     d="m 515.0575,436.53043 4.68465,75.91971 -0.87769,7.60295 5.118,6.73074 v 3.80147 l 2.78116,3.51074 -0.43884,1.02579 1.60726,-0.29073 v 0.72958 l -3.22001,7.60842 -3.80147,-0.29622 -4.82726,3.22001 h -2.34232 l -1.89799,2.78116 -3.36812,2.33684 -38.47001,-1.31653 -2.92379,-4.67915 -0.14811,-2.04611 1.31653,-4.09769 1.46464,-1.60726 1.16841,-11.26727 1.16842,-1.75537 0.43884,-11.70063 2.19422,-2.34232 0.87768,-4.96989 3.0719,-2.92927 0.87768,-4.38843 2.78116,-4.0922 -0.58695,-1.31653 2.05159,-4.38842 0.43884,-8.04727 1.89799,-2.63305 4.2458,-0.29074 5.55684,-4.68464 2.34232,-2.92379 0.43885,-2.48494 1.45915,-0.73506 -2.77568,-6.87337 3.94958,-7.02147 -0.73506,-4.67916 3.94958,-9.3638 -1.16842,-1.02579 4.09769,-2.92379 4.82727,2.19421 2.33683,-2.63305 z"
     fill="#000000"
     id="path48"
     style="stroke-width:5.48553" />
</svg>
