<svg xmlns="http://www.w3.org/2000/svg" width="24" height="24" viewBox="33.667 33.667 618.9979999999999 618.1189999999999">
  <path
     d="M42.6831 646.425H42.2435L41.9591 646.243L42.4763 646.425L42.6831 645.959H43.0969L42.6831 646.425ZM43.5882 645.106L43.3297 645.313L44.4415 643.27L44.2089 644.201L43.5882 645.106ZM45.1397 634.219L44.907 634.866L44.2089 635.305V634.866L43.7693 635.564L43.3297 636.417V637.09L43.7693 637.296H44.2089L45.1397 637.736L45.3207 637.529L45.1397 637.09L45.3207 637.529V638.667L44.907 640.425V640.891L44.6226 643.063H44.4415L44.907 641.123L44.6226 640.606V641.123L44.2089 641.305L44.4415 641.537L44.2089 641.744L44.4415 641.977L44.0019 643.063V643.787L42.8901 645.106L43.0969 645.545L42.6831 645.106H42.4763V645.726V645.959H41.9591V646.425H42.2435L42.4763 646.864L41.5454 647.278L41.7522 646.864V646.657L41.3126 647.278H40.8989L40.6403 647.536H41.3126L40.6403 648.209L40.4334 648.907H40.0197L40.4334 649.114L39.787 649.786V649.967L39.0889 650.484L38.6493 650.665V649.786L39.0889 649.114L38.8819 648.441H38.2355L37.9769 648.209L37.3563 648.441L37.1235 647.976L36.6322 647.278H36.1926L35.9858 646.864L35.7789 647.097L34.667 645.726V645.545H34.8481V645.106L34.667 644.64L35.5462 642.856L36.1926 642.649L37.3563 642.416L37.7701 641.977L37.5631 641.537H37.7701L38.8819 640.606L40.0197 639.986L40.2007 639.753L38.6493 637.943L38.4682 637.529H38.2355L37.7701 636.417L37.1235 636.185V634.633L37.3563 634.219H37.7701L37.9769 633.547L37.5631 632.616L38.2355 631.97L38.8819 631.297L39.3215 629.953L39.787 629.513L40.4334 629.332L45.7603 632.409L45.5534 633.107L45.1397 634.219Z"
     fill="black"
     id="path46" />
</svg>
