<?xml version="1.0" encoding="UTF-8" standalone="no"?>
<svg
   width="24"
   height="24"
   viewBox="33.667 33.667 618.9979999999999 618.1189999999999"
   version="1.1"
   id="svg1"
   sodipodi:docname="nj.svg"
   inkscape:version="1.4.3 (0d15f75042, 2025-12-25)"
   xmlns:inkscape="http://www.inkscape.org/namespaces/inkscape"
   xmlns:sodipodi="http://sodipodi.sourceforge.net/DTD/sodipodi-0.dtd"
   xmlns="http://www.w3.org/2000/svg"
   xmlns:svg="http://www.w3.org/2000/svg">
  <defs
     id="defs1" />
  <sodipodi:namedview
     id="namedview1"
     pagecolor="#ffffff"
     bordercolor="#000000"
     borderopacity="0.25"
     inkscape:showpageshadow="2"
     inkscape:pageopacity="0.0"
     inkscape:pagecheckerboard="0"
     inkscape:deskcolor="#d1d1d1"
     inkscape:zoom="31"
     inkscape:cx="12.016129"
     inkscape:cy="12"
     inkscape:window-width="1920"
     inkscape:window-height="947"
     inkscape:window-x="1920"
     inkscape:window-y="32"
     inkscape:window-maximized="1"
     inkscape:current-layer="svg1" />
  <path
     d="m 414.49603,528.35586 h -12.69784 l -8.21489,-5.25707 14.93932,5.25707 5.97341,-13.46041 h 11.95261 z m 26.1438,-38.09929 -7.46677,5.97919 32.11433,-59.01203 -6.71865,26.89193 z m 44.81506,-314.47084 -6.72154,18.68859 -20.16461,12.68051 v -12.68051 l -12.69784,20.16172 -12.69784,24.63889 v 19.4396 l 12.69784,5.9503 h 12.69784 l 26.88615,12.7094 5.22818,-5.9792 -5.22818,-12.6805 5.22818,12.6805 v 32.87112 l -11.94972,50.7798 v 13.4604 l -8.21489,62.73819 h -5.23107 l 13.44596,-56.03687 -8.21489,-14.93354 v 14.93354 l -11.94972,5.25707 6.71865,6.70131 -6.71865,5.9792 6.71865,6.7302 -12.69784,31.36909 v 20.91273 l -32.11432,38.0993 5.97341,12.68051 -11.95261,-12.68051 h -5.97341 v 17.90869 6.7302 H 393.5833 v 13.4604 h 8.21489 l 6.72443,12.68051 -26.88903,11.95838 5.97341,-11.95838 v -5.97919 l -12.69785,17.93757 h -11.94971 l -7.46965,7.45233 h 19.41936 l -19.41937,19.4396 -5.97631,20.16172 h -11.94972 l 11.94972,5.97919 -18.67125,19.41071 v 5.22818 l -20.16461,14.93354 -12.69783,5.22818 v -25.3899 l 12.69783,-19.41071 -5.97919,-19.43961 h -18.67126 l -7.46965,-6.70131 -17.92603,6.70131 -6.72442,-13.43151 -14.19119,-20.16172 h -12.69784 l -5.97342,-11.95838 -5.9763,6.7302 -32.11722,-39.60131 v -5.22818 h 5.23107 v -12.68051 l -5.23107,-13.46042 25.39568,-51.53081 18.67126,-5.97919 33.61345,-6.7302 11.95261,-12.68051 -5.97919,-12.7094 h 5.97919 l 32.11433,-26.89192 32.86533,-17.90869 5.22819,-6.7302 -44.81217,-52.28182 -5.23107,-11.95839 h -6.72154 l -13.44307,-32.1201 -18.67703,-6.70132 v -44.82949 l 6.72442,-11.95839 h 11.95261 l 5.97342,-19.41071 -11.95261,-26.89192 19.42226,-18.6597 18.67126,-19.439589 12.69784,-38.82142 13.44596,-12.709394 18.67125,-5.228182 153.86743,88.879095 -5.9763,20.16172 z"
     fill="#000000"
     id="path46"
     style="stroke-width:28.885" />
</svg>
