<svg width="24" height="24" viewBox="33.667 33.667 618.998 618.119" xmlns="http://www.w3.org/2000/svg" xmlns:svg="http://www.w3.org/2000/svg"><path d="M414.496 528.356h-12.698l-8.215-5.257 14.94 5.257 5.973-13.46h11.953zm26.144-38.1-7.467 5.98 32.114-59.012-6.718 26.892zm44.815-314.47-6.722 18.688-20.164 12.68v-12.68l-12.698 20.162-12.698 24.639v19.44l12.698 5.95h12.698l26.886 12.71 5.228-5.98-5.228-12.68 5.228 12.68v32.871l-11.95 50.78v13.46l-8.215 62.739h-5.23l13.445-56.037-8.215-14.934v14.934l-11.95 5.257 6.72 6.701-6.72 5.98 6.72 6.73-12.698 31.369v20.912l-32.115 38.1 5.974 12.68-11.953-12.68h-5.973v24.638h-14.94v13.46h8.215l6.725 12.681-26.89 11.959 5.974-11.959v-5.979l-12.698 17.938h-11.95l-7.47 7.452h19.42l-19.42 19.44-5.976 20.161h-11.95l11.95 5.98-18.67 19.41v5.228L310.677 645.6l-12.698 5.228v-25.39l12.698-19.41-5.98-19.44h-18.67l-7.47-6.701-17.927 6.701-6.724-13.432-14.191-20.161h-12.698l-5.973-11.959-5.977 6.73-32.117-39.6v-5.229h5.231v-12.68l-5.23-13.46 25.395-51.532 18.671-5.979 33.613-6.73 11.953-12.68-5.98-12.71h5.98l32.114-26.892 32.866-17.909 5.228-6.73-44.812-52.282-5.231-11.958h-6.722l-13.443-32.12-18.677-6.701v-44.83l6.724-11.958h11.953l5.974-19.411-11.953-26.892 19.422-18.66 18.671-19.44 12.698-38.82 13.446-12.71 18.671-5.228 153.868 88.879-5.976 20.162z" style="stroke-width:28.885"/></svg>