<svg xmlns="http://www.w3.org/2000/svg" width="24" height="24" viewBox="228.333 230.564 421.845 419.10800000000006">
  <path
     d="M244.664 647.672V647.874L244.177 648.178L244.36 647.713L244.664 647.672ZM246.935 647.571L246.489 647.733L246.043 647.773L246.671 647.632L246.935 647.571ZM247.178 647.632L246.793 647.713V647.672L248.172 647.167L247.178 647.632ZM249.592 645.852L248.578 646.702H249.044L249.409 646.236L249.774 646.257L249.794 646.115L249.977 646.317L250.666 646.054L248.314 647.167L248.557 647.025L245.617 647.773L245.982 647.854L245.049 647.976L245.516 647.773L245.313 647.632L245.11 647.713L245.171 647.854L244.826 647.935L244.725 647.672L245.049 647.207L245.516 647.167V647.005L245.576 647.066L245.617 646.803L245.799 647.025L245.88 646.742L246.246 646.762L246.347 646.56L246.55 646.742L246.448 646.56L246.955 646.702L247.239 646.499L248.578 646.418L249.328 645.812L249.592 645.852ZM250.24 645.387L250.18 645.347L250.423 645.246L250.281 645.387H250.24ZM231.848 638.774L231.685 638.977L231.564 638.876L231.584 638.653L231.848 638.774ZM238.986 635.559L238.844 635.68L239.026 635.418V635.539L238.986 635.559ZM239.391 634.487L239.452 634.528L239.209 634.588L239.249 634.528L239.391 634.487ZM239.817 634.265L239.696 634.366L239.533 634.528L239.493 634.366L239.817 634.265ZM242.595 632H246.448V632.202L246.428 633.416L246.631 634.022L246.529 634.77L246.246 635.418L246.448 636.408L246.306 637.035L246.347 637.177L246.631 636.995L246.732 637.258L246.793 640.129L246.164 642.495L246.043 645.387L246.246 645.63L245.576 646.054L245.799 646.418L245.333 646.863L245.374 647.025L245.049 647.066L244.826 647.43L245.171 646.317L245.009 645.266L244.867 645.448L245.069 646.418L242.92 645.124L242.798 644.882L242.129 644.619L241.946 644.234L241.926 643.466L241.439 643.264L241.216 642.819L229.333 642.354L229.394 641.403L231.097 640.392L231.422 639.907L231.848 639.684L231.746 638.977L231.888 638.714L231.422 638.512L231.442 637.864L233.308 637.541L234.95 637.784L235.376 638.148L235.964 638.006L236.998 638.228L237.08 638.026L237.668 637.925L238.438 637.258L238.844 637.298L239.067 637.056L239.087 636.793L239.026 636.853L238.824 636.105L238.986 635.923L239.026 636.105L239.452 635.559L239.067 635.64L239.29 635.377L239.067 635.276L238.824 635.438L238.682 635.094L240 634.224L240.405 633.476L241.561 632.506L242.595 632Z"
     fill="black"
     id="path42" />
</svg>
