<?xml version="1.0" encoding="UTF-8" standalone="no"?>
<svg
   width="24"
   height="24"
   viewBox="228.333 230.564 421.845 419.10800000000006"
   version="1.1"
   id="svg1"
   sodipodi:docname="ny.svg"
   inkscape:version="1.4.3 (0d15f75042, 2025-12-25)"
   xmlns:inkscape="http://www.inkscape.org/namespaces/inkscape"
   xmlns:sodipodi="http://sodipodi.sourceforge.net/DTD/sodipodi-0.dtd"
   xmlns="http://www.w3.org/2000/svg"
   xmlns:svg="http://www.w3.org/2000/svg">
  <defs
     id="defs1" />
  <sodipodi:namedview
     id="namedview1"
     pagecolor="#ffffff"
     bordercolor="#000000"
     borderopacity="0.25"
     inkscape:showpageshadow="2"
     inkscape:pageopacity="0.0"
     inkscape:pagecheckerboard="0"
     inkscape:deskcolor="#d1d1d1"
     inkscape:zoom="31"
     inkscape:cx="12.016129"
     inkscape:cy="12.709677"
     inkscape:window-width="1920"
     inkscape:window-height="947"
     inkscape:window-x="1920"
     inkscape:window-y="32"
     inkscape:window-maximized="1"
     inkscape:current-layer="svg1" />
  <path
     d="m 525.37139,580.11517 v 3.72932 l -8.99099,5.61244 3.37855,-8.58482 z m 41.92714,-1.86466 -8.23404,2.99084 -8.23404,0.73848 11.59412,-2.60314 z m 4.48627,1.12618 -7.10787,1.49542 v -0.75694 l 25.45908,-9.3233 z m 44.56721,-32.86232 -18.72045,15.69268 h 8.60328 l 6.73863,-8.60328 6.73862,0.3877 0.36924,-2.6216 3.37854,3.72932 12.7203,-4.8555 -43.42257,20.54818 4.48626,-2.6216 -54.27821,13.80956 6.73863,1.49542 -17.22503,2.25236 8.62174,-3.74778 -3.74777,-2.60314 -3.74779,1.49542 1.12618,2.60314 -6.36937,1.49542 -1.86466,-4.8555 5.98167,-8.58482 8.62174,-0.73848 v -2.99084 l 1.10772,1.12618 0.75694,-4.8555 3.36009,4.09856 1.49542,-5.22474 6.75707,0.36924 1.86466,-3.72932 3.74779,3.36008 -1.88312,-3.36008 9.36022,2.6216 5.2432,-3.74778 24.72059,-1.49542 13.84649,-11.18796 z m 11.96336,-8.58482 -1.10772,-0.73848 4.48627,-1.86466 -2.6216,2.60314 z M 288.76269,415.8405 l -3.0093,3.74778 -2.2339,-1.86466 0.36924,-4.11702 z m 131.78159,-59.35525 -2.6216,2.23389 3.36008,-4.83703 v 2.2339 z m 7.4771,-19.79124 1.12618,0.75694 -4.48626,1.10772 0.73848,-1.10772 z m 7.8648,-4.09856 -2.2339,1.86466 -3.0093,2.99084 -0.73848,-2.99084 z m 51.28738,-41.81638 h 71.13399 v 3.72932 l -0.36924,22.41284 3.74779,11.18796 -1.88312,13.80956 -5.22475,11.96336 3.72933,18.27735 -2.6216,11.57566 0.75694,2.6216 5.2432,-3.36008 1.86465,4.8555 1.12618,53.00434 -11.61258,43.68104 -2.23389,53.39203 3.74778,4.48626 -12.36952,7.82788 4.11702,6.72016 -8.60328,8.21558 0.75694,2.99084 -6.00014,0.75694 -4.11702,6.72016 6.36938,-20.54818 -2.99085,-19.40354 -2.62159,3.36008 3.72932,17.90812 -39.67479,-23.8898 -2.25236,-4.4678 -12.35107,-4.85549 -3.37854,-7.10787 -0.36924,-14.17879 -8.99098,-3.72932 -4.11702,-8.21558 -219.38367,-8.58482 1.12618,-17.55734 31.44075,-18.66506 6.00014,-8.95406 7.8648,-4.11702 -1.88312,-13.05262 2.6216,-4.8555 -8.60328,-3.72932 0.36924,-11.96336 34.45005,-5.96322 30.31456,4.48626 7.8648,6.72016 10.85565,-2.6216 19.08968,4.09856 1.51388,-3.72932 10.85565,-1.86466 14.21572,-12.31414 7.49556,0.73848 4.11702,-4.4678 0.36924,-4.8555 -1.12618,1.10772 -3.72932,-13.80956 2.99084,-3.36008 0.73848,3.36008 7.8648,-10.08023 -7.10786,1.49542 4.11702,-4.8555 -4.11702,-1.86466 -4.48626,2.99084 -2.6216,-6.35092 24.33289,-16.06192 7.4771,-13.80956 21.34204,-17.90812 z"
     fill="#000000"
     id="path42"
     style="stroke-width:18.462" />
</svg>
