<svg width="24" height="24" viewBox="228.333 230.564 421.845 419.108" xmlns="http://www.w3.org/2000/svg" xmlns:svg="http://www.w3.org/2000/svg"><path d="M525.371 580.115v3.73l-8.99 5.612 3.378-8.585zm41.928-1.864-8.235 2.99-8.234.739 11.595-2.603zm4.486 1.126-7.108 1.495v-.757l25.459-9.323zm44.567-32.863-18.72 15.693h8.603l6.738-8.603 6.74.387.368-2.621 3.379 3.73 12.72-4.856-43.422 20.548 4.486-2.622-54.278 13.81 6.738 1.495-17.225 2.253 8.622-3.748-3.748-2.603-3.748 1.495 1.127 2.603-6.37 1.496-1.864-4.856 5.981-8.585 8.622-.738V567.8l1.108 1.126.757-4.855 3.36 4.098 1.495-5.224 6.757.369 1.865-3.73 3.748 3.36-1.883-3.36 9.36 2.622 5.243-3.748 24.72-1.495 13.847-11.188zm11.963-8.584-1.107-.739 4.486-1.865-2.622 2.604zM288.763 415.84l-3.01 3.748-2.234-1.864.37-4.117zm131.781-59.355-2.621 2.234 3.36-4.837v2.234zm7.477-19.791 1.127.757-4.487 1.108.739-1.108zm7.865-4.099-2.234 1.865-3.009 2.991-.738-2.99zm51.288-41.816h71.134v3.73l-.37 22.412 3.748 11.188-1.883 13.81-5.225 11.963 3.73 18.277-2.622 11.576.757 2.622 5.243-3.36 1.865 4.855 1.126 53.004-11.613 43.682-2.234 53.392 3.748 4.486-12.37 7.828 4.118 6.72-8.604 8.215.757 2.991-6 .757-4.117 6.72 6.37-20.548-2.991-19.403-2.622 3.36 3.73 17.908-39.675-23.89-2.253-4.468-12.35-4.855-3.38-7.108-.368-14.179-8.991-3.73-4.117-8.215-219.384-8.585 1.126-17.557 31.44-18.665 6-8.954 7.866-4.117-1.883-13.053 2.621-4.855-8.603-3.73.37-11.963 34.45-5.963 30.314 4.486 7.865 6.72 10.855-2.621 19.09 4.098 1.514-3.73 10.855-1.864 14.216-12.314 7.496.739 4.117-4.468.369-4.856-1.126 1.108-3.73-13.81 2.991-3.36.739 3.36 7.865-10.08-7.108 1.496 4.117-4.856-4.117-1.864-4.487 2.99-2.621-6.35 24.333-16.062 7.477-13.81 21.342-17.908z" style="stroke-width:18.462"/></svg>