<svg width="24" height="24" viewBox="34.787 29.667 715.745 722.998" xmlns="http://www.w3.org/2000/svg" xmlns:svg="http://www.w3.org/2000/svg"><path d="m720.8 300.52-22.662 12.283 10.385 19.82-3.778 21.71 3.778 12.283-18.883 47.207-1.892 30.243h-7.556l1.892 10.358-10.39 19.852 4.723 10.39-4.724 19.82-52.877 46.277-21.718 10.391-8.498-12.283h-7.556l-14.165 12.283-3.775 14.142h-15.108l-11.33 19.852v14.143l-10.391 2.855 7.555 9.428 2.836 18.89-10.391-1.893-10.388 16.067-7.552-22.673-8.499-5.677-8.498 3.784-23.61 42.493 5.666 33.994-17.94 4.714-6.61 28.351-41.55 5.644-15.104-22.641-19.832-11.354-12.277-31.139-19.832 6.606-18.883 19.82-23.61 1.892-8.499-11.32-24.546-10.392-16.054 5.644-3.778 8.499H234.49l-23.606-26.426-16.055-3.784-16.997 1.892-19.829-10.39-14.165-38.71-22.66-17.926-26.443 4.714-14.162-14.175-16.054 9.461L81.517 91.84l198.299-1.892 55.715 21.711 14.166 16.068 15.105.93 5.667-10.392 22.664 16.068-52.884 8.499 19.832 7.536 18.886-8.5 27.385 8.5-11.33-12.25 19.828 16.034 14.166 2.822 62.322-22.64 43.435 1.891 56.659-46.277 122.754-52.884z" style="stroke-width:33.1976"/></svg>