<?xml version="1.0" encoding="UTF-8" standalone="no"?>
<svg
   width="24"
   height="24"
   viewBox="34.787 29.667 715.745 722.9979999999999"
   version="1.1"
   id="svg1"
   sodipodi:docname="oh.svg"
   inkscape:version="1.4.3 (0d15f75042, 2025-12-25)"
   xmlns:inkscape="http://www.inkscape.org/namespaces/inkscape"
   xmlns:sodipodi="http://sodipodi.sourceforge.net/DTD/sodipodi-0.dtd"
   xmlns="http://www.w3.org/2000/svg"
   xmlns:svg="http://www.w3.org/2000/svg">
  <defs
     id="defs1" />
  <sodipodi:namedview
     id="namedview1"
     pagecolor="#ffffff"
     bordercolor="#000000"
     borderopacity="0.25"
     inkscape:showpageshadow="2"
     inkscape:pageopacity="0.0"
     inkscape:pagecheckerboard="0"
     inkscape:deskcolor="#d1d1d1"
     inkscape:zoom="31"
     inkscape:cx="12.016129"
     inkscape:cy="12"
     inkscape:window-width="1920"
     inkscape:window-height="947"
     inkscape:window-x="1920"
     inkscape:window-y="32"
     inkscape:window-maximized="1"
     inkscape:current-layer="svg1" />
  <path
     d="m 720.79912,300.52006 -22.66065,12.2831 10.38419,19.81894 -3.77788,21.71121 3.77788,12.28309 -18.88277,47.20693 -1.89226,30.24298 h -7.55576 l 1.89226,10.35764 -10.39084,19.85214 4.72401,10.39084 -4.72401,19.81894 -52.87707,46.2774 -21.71785,10.39083 -8.49857,-12.28309 h -7.55577 l -14.1654,12.28309 -3.77456,14.14216 h -15.10821 l -11.33032,19.85214 v 14.14216 l -10.39084,2.85499 7.55576,9.42811 2.83508,18.88941 -10.39084,-1.89226 -10.38752,16.06762 -7.55244,-22.67393 -8.49858,-5.67678 -8.49857,3.78452 -23.61011,42.49287 5.66683,33.9943 -17.93996,4.71406 -6.60964,28.35071 -41.55006,5.64359 -15.10489,-22.64074 -19.83223,-11.35356 -12.27645,-31.13931 -19.83223,6.60631 -18.88277,19.81894 -23.6101,1.89227 -8.49858,-11.32037 -24.54627,-10.39084 -16.05434,5.64359 -3.77788,8.49857 h -10.38752 l -23.60679,-26.42526 -16.05434,-3.78452 -16.99715,1.89226 -19.8289,-10.39083 -14.1654,-38.70836 -22.66065,-17.92668 -26.441862,4.71405 -14.16208,-14.17535 -16.054336,9.4613 16.997146,-513.699037 198.298992,-1.892261 55.71546,21.711208 14.1654,16.06762 15.10489,0.92953 5.66682,-10.39084 22.66398,16.06762 -52.88372,8.49857 19.83223,7.53585 18.88609,-8.49857 27.38467,8.49857 -11.33033,-12.2499 19.8289,16.03442 14.1654,2.8218 62.32178,-22.64074 43.43569,1.89226 56.65827,-46.277398 122.75462,-52.883712 z"
     fill="#000000"
     id="path36"
     style="stroke-width:33.1976" />
</svg>
