<svg xmlns="http://www.w3.org/2000/svg" width="24" height="24" viewBox="34.787 29.667 715.745 722.9979999999999">
  <path
     d="M50.4359 737.268L49.7533 737.638L50.0661 738.235L49.9523 738.889L50.0661 739.259L49.4973 740.681L49.4403 741.592H49.2127L49.2697 741.904L48.9567 742.502L49.099 742.815L48.9567 743.412L47.3639 744.806L46.7097 745.119L46.4537 744.749H46.2261L45.7994 745.119L45.6857 745.545H45.2306L44.8893 746.143V746.569L44.5763 746.655L44.8039 746.939L44.8893 747.508L44.5763 747.451L44.2634 747.935L44.0359 747.252L43.7799 747.081L43.5239 747.195L42.8127 748.475L42.9834 749.499L42.443 749.641L42.2439 750.495L40.9923 750.665L40.5373 749.983L39.9399 749.641L39.5701 748.703L38.9727 748.902L38.4039 749.499L37.6927 749.556L37.4367 749.215L36.6973 748.902L36.2137 749.072L36.0999 749.328H35.787L35.0759 748.532L34.5923 748.418L34.0803 748.475L33.483 748.162L33.0563 746.996L32.3737 746.456L31.5772 746.598L31.1506 746.171L30.667 746.456L31.179 730.982L37.1523 730.925L38.8306 731.579L39.2573 732.063L39.7123 732.091L39.883 731.778L40.5657 732.262L38.9727 732.518L39.5701 732.745L40.139 732.489L40.9639 732.745L40.6226 732.376L41.2199 732.859L41.6466 732.944L43.5239 732.262L44.8323 732.319L46.539 730.925L50.2367 729.332L50.4359 737.268Z"
     fill="black"
     id="path36" />
</svg>
