<svg width="24" height="24" viewBox="128.333 135.625 618.696 611.445" xmlns="http://www.w3.org/2000/svg" xmlns:svg="http://www.w3.org/2000/svg"><path d="m724.07 341.668 15.458 97.911 2.367 150.104-28.52-8.899-8.3-8.299-17.825-8.898-10.096 8.898h-10.125l-7.73-7.73-12.463 8.928-11.893-1.797-23.757 11.865-4.164 4.763-19.023-12.464-.57-4.164-11.295 4.164-12.492-8.898-10.695 7.7-4.735 13.063-5.361-16.029-16.029 7.13-14.86-15.43-14.858 11.266h-5.933l-2.395-11.265-9.498-1.797-1.198-10.667h-17.825l-10.695 5.932-7.13-7.729-9.498 2.396-33.283-8.898-.57-7.73-12.493-13.033-3.565 8.3-18.424-1.199-16.028-17.797h-7.13l2.367-167.33-210.34-7.7 2.368-43.323 294.731 8.899 292.336-4.164z" style="stroke-width:28.5206"/></svg>