<?xml version="1.0" encoding="UTF-8" standalone="no"?>
<svg
   width="24"
   height="24"
   viewBox="128.333 135.625 618.696 611.445"
   version="1.1"
   id="svg1"
   sodipodi:docname="ok.svg"
   inkscape:version="1.4.3 (0d15f75042, 2025-12-25)"
   xmlns:inkscape="http://www.inkscape.org/namespaces/inkscape"
   xmlns:sodipodi="http://sodipodi.sourceforge.net/DTD/sodipodi-0.dtd"
   xmlns="http://www.w3.org/2000/svg"
   xmlns:svg="http://www.w3.org/2000/svg">
  <defs
     id="defs1" />
  <sodipodi:namedview
     id="namedview1"
     pagecolor="#ffffff"
     bordercolor="#000000"
     borderopacity="0.25"
     inkscape:showpageshadow="2"
     inkscape:pageopacity="0.0"
     inkscape:pagecheckerboard="0"
     inkscape:deskcolor="#d1d1d1"
     inkscape:zoom="31"
     inkscape:cx="12.016129"
     inkscape:cy="12"
     inkscape:window-width="1920"
     inkscape:window-height="947"
     inkscape:window-x="1920"
     inkscape:window-y="32"
     inkscape:window-maximized="1"
     inkscape:current-layer="svg1" />
  <path
     d="m 724.07013,341.66817 15.45813,97.91106 2.36721,150.10366 -28.52055,-8.89841 -8.29948,-8.29948 -17.82535,-8.89841 -10.09627,8.89841 h -10.1248 l -7.72907,-7.72907 -12.46348,8.92693 -11.89307,-1.79679 -23.75762,11.86455 -4.164,4.76293 -19.02321,-12.46348 -0.57041,-4.164 -11.29414,4.164 -12.492,-8.89841 -10.69521,7.70054 -4.73441,13.06242 -5.36186,-16.02855 -16.02855,7.13014 -14.85921,-15.42962 -14.85921,11.26561 h -5.93227 l -2.39573,-11.26561 -9.49734,-1.7968 -1.19787,-10.66668 h -17.82534 l -10.69521,5.93227 -7.13014,-7.72907 -9.49734,2.39573 -33.28348,-8.89842 -0.57041,-7.72906 -12.49201,-13.0339 -3.56507,8.29948 -18.42427,-1.19786 -16.02855,-17.79682 h -7.13014 l 2.36721,-167.33008 -210.33908,-7.70055 2.36721,-43.32272 294.73138,8.89841 292.33566,-4.164 z"
     fill="#000000"
     id="path34"
     style="stroke-width:28.5206" />
</svg>
