<svg xmlns="http://www.w3.org/2000/svg" width="24" height="24" viewBox="128.333 135.625 618.696 611.445">
  <path
     d="M150.041 736.374L150.583 739.807L150.666 745.07L149.666 744.758L149.375 744.467L148.75 744.155L148.396 744.467H148.041L147.77 744.196L147.333 744.509L146.916 744.446L146.083 744.862L145.937 745.029L145.27 744.592L145.25 744.446L144.854 744.592L144.416 744.28L144.041 744.55L143.875 745.008L143.687 744.446L143.125 744.696L142.604 744.155L142.083 744.55H141.875L141.791 744.155L141.458 744.092L141.416 743.718H140.791L140.416 743.926L140.166 743.655L139.833 743.739L138.666 743.427L138.646 743.156L138.208 742.699L138.083 742.99L137.437 742.948L136.875 742.324H136.625L136.708 736.457L129.333 736.187L129.416 734.668L139.75 734.98L150 734.834L150.041 736.374Z"
     fill="black"
     id="path34" />
</svg>
