<svg xmlns="http://www.w3.org/2000/svg" width="24" height="24" viewBox="230.017 228.333 519.578 511.40600000000006">
  <path
     d="M233.481 732.218H233.7L234.261 732.655L234.604 734.152L235.789 734.526L236.974 733.965L238.284 734.059L238.627 734.339L239.282 734.308L239.968 733.965H240.966L242.62 733.248L243.867 733.154L244.085 732.936L249.512 732.78L249.855 733.372L250.386 733.622L250.666 734.277L249.793 736.367V736.772L249.325 737.396L248.92 738.674L248.982 739.08L249.544 739.111L249.793 739.454L249.575 739.704L249.668 740.016L249.45 740.733L249.793 747.439L240.218 747.595L230.144 747.376L229.77 746.94L229.614 746.097L229.738 745.006L229.333 744.289L229.738 743.54L229.988 742.479L230.113 742.386L230.144 742.667L230.393 742.199L230.581 742.355L230.487 741.949L230.113 742.324L230.456 741.388L230.612 741.076L230.83 741.17L230.674 741.045L230.487 741.17L230.799 738.986L230.924 738.55L231.048 738.612L230.892 738.425L231.017 737.832H231.142L231.017 737.739V737.053L231.298 735.867L231.267 735.213L231.485 734.932L231.36 734.807L231.423 734.433L231.485 734.682L231.641 734.62L231.423 734.339L231.641 733.934L231.485 733.996L231.36 733.653L231.391 732.998L231.547 732.686L231.423 732L231.859 732.218L231.891 732.437L231.953 732.312L231.766 732.125L231.984 732.094L232.171 732.156L232.67 732L232.92 732.312L233.169 732.343L233.481 732.218Z"
     fill="black"
     id="path32" />
</svg>
