<?xml version="1.0" encoding="UTF-8" standalone="no"?>
<svg
   width="24"
   height="24"
   viewBox="230.017 228.333 519.578 511.40600000000006"
   version="1.1"
   id="svg1"
   sodipodi:docname="or.svg"
   inkscape:version="1.4.3 (0d15f75042, 2025-12-25)"
   xmlns:inkscape="http://www.inkscape.org/namespaces/inkscape"
   xmlns:sodipodi="http://sodipodi.sourceforge.net/DTD/sodipodi-0.dtd"
   xmlns="http://www.w3.org/2000/svg"
   xmlns:svg="http://www.w3.org/2000/svg">
  <defs
     id="defs1" />
  <sodipodi:namedview
     id="namedview1"
     pagecolor="#ffffff"
     bordercolor="#000000"
     borderopacity="0.25"
     inkscape:showpageshadow="2"
     inkscape:pageopacity="0.0"
     inkscape:pagecheckerboard="0"
     inkscape:deskcolor="#d1d1d1"
     inkscape:zoom="31"
     inkscape:cx="12.016129"
     inkscape:cy="12"
     inkscape:window-width="1920"
     inkscape:window-height="947"
     inkscape:window-x="1920"
     inkscape:window-y="32"
     inkscape:window-maximized="1"
     inkscape:current-layer="svg1" />
  <path
     d="m 332.84773,301.53002 h 5.27328 l 13.50826,10.52248 8.25906,36.0461 28.53349,9.00551 28.53349,-13.50826 31.54335,2.26341 8.25906,6.74209 15.77167,-0.74644 16.51813,-8.25906 h 24.03073 l 39.82649,-17.26457 30.02639,-2.26342 5.2492,-5.24919 130.67616,-3.75631 8.25906,14.2547 12.78589,6.01973 6.74209,15.77167 -21.02087,50.32489 v 9.75195 l -11.26893,15.02523 -9.75195,30.77283 1.49289,9.77603 13.53234,0.74645 5.99565,8.25906 -5.2492,6.01972 2.23933,7.51262 -5.2492,17.26457 8.25907,161.47306 -230.55542,3.75631 -242.57078,-5.27328 -9.00551,-10.4984 -3.75631,-20.2985 2.98579,-26.27008 -9.75196,-17.26457 9.75196,-18.03509 6.01972,-25.5477 3.00986,-2.23934 0.74645,6.76617 5.99564,-11.26892 4.52683,3.7563 -2.26341,-9.77603 -9.00551,9.02959 8.25906,-22.53785 3.75631,-7.51261 5.2492,2.26341 -3.75631,-3.00986 -4.50275,3.00986 7.51261,-52.5883 3.00986,-10.4984 2.98579,1.49289 -3.75631,-4.50275 3.00986,-14.27879 h 3.00986 l -3.00986,-2.23933 v -16.51813 l 6.76617,-28.55756 -0.74644,-15.7476 5.24919,-6.76617 -3.00986,-3.00986 1.51697,-9.00551 1.49289,5.99565 3.75631,-1.4929 -5.2492,-6.76617 5.2492,-9.75195 -3.75631,1.49289 -3.00986,-8.25906 0.74645,-15.77167 3.75631,-7.51262 -2.98579,-16.51812 10.4984,5.2492 0.77053,5.27328 1.49289,-3.00986 -4.50276,-4.50276 5.2492,-0.74644 4.50276,1.49289 12.01536,-3.75631 6.01973,7.51262 5.99564,0.74644 z"
     fill="#000000"
     id="path32"
     style="stroke-width:24.0789" />
</svg>
