<svg width="24" height="24" viewBox="230.017 228.333 519.578 511.406" xmlns="http://www.w3.org/2000/svg" xmlns:svg="http://www.w3.org/2000/svg"><path d="M332.848 301.53h5.273l13.508 10.523 8.26 36.046 28.533 9.005 28.533-13.508 31.544 2.263 8.259 6.742 15.771-.746 16.519-8.26h24.03l39.827-17.264 30.026-2.263 5.25-5.25 130.675-3.756 8.26 14.255 12.785 6.02 6.743 15.771-21.021 50.325v9.752l-11.27 15.026-9.751 30.772 1.493 9.776 13.532.747 5.996 8.259-5.25 6.02 2.24 7.512-5.25 17.265 8.26 161.473-230.556 3.756-242.57-5.273-9.006-10.498-3.756-20.299 2.985-26.27-9.752-17.265 9.752-18.035 6.02-25.547 3.01-2.24.746 6.766 5.996-11.269 4.527 3.757-2.263-9.776-9.006 9.03 8.26-22.539 3.755-7.512 5.25 2.263-3.757-3.01-4.502 3.01 7.512-52.588 3.01-10.498 2.986 1.492-3.757-4.502 3.01-14.28h3.01l-3.01-2.238v-16.52l6.767-28.557-.747-15.748 5.25-6.766-3.01-3.01 1.516-9.005 1.493 5.995 3.757-1.492-5.25-6.767 5.25-9.752-3.757 1.493-3.01-8.259.747-15.771 3.756-7.513-2.986-16.518 10.499 5.249.77 5.273 1.493-3.01-4.503-4.502 5.25-.747 4.502 1.493 12.016-3.756 6.02 7.512 5.995.747z" style="stroke-width:24.0789"/></svg>