<svg xmlns="http://www.w3.org/2000/svg" width="24" height="24" viewBox="344.553 328.333 402.938 419.23099999999994">
  <path
     d="M350.593 737.613L350.299 737.736L349.737 738.714L349.076 739.375L349.37 739.962L349.223 740.329L348.905 740.525V740.818L348.929 741.405L349.345 741.454L349.541 742.139H349.737L350.666 743.265L349.296 744.292L349.223 744.635L348.146 745.075L347.535 744.953L347.143 745.149L346.899 745.564H345.553L329.333 745.491L329.651 734.604L330.728 734.139L331.241 733.748L331.07 733.993L332.367 733.332V734.604H348.195L348.489 734.849L348.562 735.118L349.125 735.363L349.272 736.488L349.541 736.928L350.446 737.197L350.593 737.613Z"
     fill="black"
     id="path30" />
</svg>
