<svg width="24" height="24" viewBox="344.553 328.333 402.938 419.231" xmlns="http://www.w3.org/2000/svg" xmlns:svg="http://www.w3.org/2000/svg"><path d="m751.365 502.379-5.698 2.384-10.894 18.958-12.813 12.812 5.699 11.379-2.85 7.114-6.164 3.799v5.68l.466 11.378 8.063.95 3.8 13.278h3.799l18.007 21.826-26.556 19.907-1.415 6.649-20.876 8.529-11.844-2.365-7.598 3.8-4.73 8.043h-26.09l-314.407-1.415 6.164-211.032 20.876-9.014 9.944-7.579-3.315 4.75 25.141-12.813v24.656h306.809l5.699 4.749 1.415 5.214 10.913 4.75 2.85 21.806 5.214 8.53 17.542 5.213z" style="stroke-width:19.3839"/></svg>