<svg xmlns="http://www.w3.org/2000/svg" width="24" height="24" viewBox="436.44 432.333 314.07700000000006 319.93199999999996">
  <path
     d="M438.262 750.212L437.732 750.265L437.52 750.08L437.44 749.788L437.599 749.258L438.05 749.02V748.411L438.368 748.517V749.285L438.686 749.921L438.262 750.212ZM441.494 742.74L441.362 742.581L441.388 741.733L441.706 741.415L441.494 741.203L441.786 739.984L442.157 740.196V740.912L441.918 742.289L441.494 742.74ZM444.33 741.839L444.409 742.077L443.826 741.892L443.164 742.687L442.819 742.581L442.369 742.978L442.21 742.872L442.316 742.369L443.058 741.945L442.766 741.309L443.058 740.7V740.196L443.588 739.56L443.8 738.686L444.674 737.944L444.409 739.216L444.33 741.839ZM446.423 741.495L445.31 742.554L445.045 741.733L445.151 741.309L444.86 739.322L444.913 738.288L445.151 737.52L446.317 737.944L446.105 739.216L446.317 739.56L446.423 741.495ZM441.839 732.273L442.554 732.406L442.448 734.632L442.819 735.029L443.8 735.797L444.33 736.725L444.25 737.467L443.8 737.838L443.217 737.97L443.058 737.361L443.482 735.797L443.217 735.665L443.058 736.46L442.581 736.195L442.21 735.877L441.918 734.764L441.574 734.128V735.957L441.971 736.407L442.13 736.698L441.706 737.546L441.388 737.228L440.991 737.096L440.54 737.52L440.991 737.758L441.282 738.686L441.176 739.136L440.567 740.037L440.964 740.912L440.991 742.131L440.964 742.581L439.825 744.992L439.64 745.072L438.792 744.78L437.97 744.833L434.896 745.92L433.333 746.211L433.545 744.462L433.783 743.932L433.995 743.826L434.207 741.415L434.181 729.465L441.627 729.332L441.839 732.273Z"
     fill="black"
     id="path28" />
</svg>
