<svg width="24" height="24" viewBox="436.44 432.333 314.077 319.932" xmlns="http://www.w3.org/2000/svg" xmlns:svg="http://www.w3.org/2000/svg"><path d="m569.19 748.82-7.967.796-3.186-2.78-1.203-4.39 2.39-7.966 6.779-3.577v-9.154l4.78 1.594v11.543l4.78 9.56zm48.578-112.309-1.984-2.39.39-12.745 4.78-4.78-3.186-3.187 4.389-18.322 5.576 3.187v10.761l-3.592 20.698zm42.626-13.542 1.188 3.577-8.763-2.78-9.95 11.949-5.186-1.594-6.763 5.968-2.39-1.594 1.593-7.56 11.153-6.373-4.39-9.56 4.39-9.153v-7.575l7.966-9.56 3.186-13.136 13.137-11.153-3.983 19.119zm31.46-5.17-16.73 15.917-3.983-12.34 1.593-6.373-4.373-29.866.796-15.542 3.577-11.543 17.526 6.373-3.186 19.119 3.186 5.17zm-68.9-138.612 10.746 1.999-1.593 33.458 5.576 5.967 14.745 11.543 7.966 13.949-1.202 11.152-6.764 5.577-8.763 1.984-2.39-9.154 6.374-23.508-3.984-1.984-2.39 11.95-7.169-3.984-5.576-4.78-4.39-16.728-5.17-9.56v27.491l5.967 6.764 2.39 4.374-6.373 12.746-4.78-4.78-5.967-1.984-6.778 6.373 6.778 3.577 4.374 13.949-1.593 6.763-9.153 13.543 5.967 13.151.405 18.323-.405 6.763-17.12 36.239-2.78 1.202-12.747-4.388-12.355.796-46.204 16.338-23.492 4.374 3.186-26.288 3.577-7.966 3.187-1.594 3.186-36.238-.39-179.615 111.917-1.999z" style="stroke-width:15.0305"/></svg>