<?xml version="1.0" encoding="UTF-8" standalone="no"?>
<svg
   width="24"
   height="24"
   viewBox="436.44 432.333 314.07700000000006 319.93199999999996"
   version="1.1"
   id="svg1"
   sodipodi:docname="ri.svg"
   inkscape:version="1.4.3 (0d15f75042, 2025-12-25)"
   xmlns:inkscape="http://www.inkscape.org/namespaces/inkscape"
   xmlns:sodipodi="http://sodipodi.sourceforge.net/DTD/sodipodi-0.dtd"
   xmlns="http://www.w3.org/2000/svg"
   xmlns:svg="http://www.w3.org/2000/svg">
  <defs
     id="defs1" />
  <sodipodi:namedview
     id="namedview1"
     pagecolor="#ffffff"
     bordercolor="#000000"
     borderopacity="0.25"
     inkscape:showpageshadow="2"
     inkscape:pageopacity="0.0"
     inkscape:pagecheckerboard="0"
     inkscape:deskcolor="#d1d1d1"
     inkscape:zoom="31"
     inkscape:cx="12.016129"
     inkscape:cy="12"
     inkscape:window-width="1920"
     inkscape:window-height="947"
     inkscape:window-x="1920"
     inkscape:window-y="32"
     inkscape:window-maximized="1"
     inkscape:current-layer="svg1" />
  <path
     d="m 569.18916,748.81939 -7.96618,0.79662 -3.18647,-2.78065 -1.20244,-4.38892 2.38985,-7.96617 6.77877,-3.57727 v -9.15359 l 4.77971,1.59324 v 11.54344 l 4.7797,9.55941 z m 48.57866,-112.3081 -1.98402,-2.38985 0.39079,-12.74589 4.77971,-4.77971 -3.18647,-3.18647 4.38891,-18.32221 5.57633,3.18647 v 10.76186 l -3.59229,20.69703 z m 42.62658,-13.5425 1.18741,3.57726 -8.76279,-2.78064 -9.95021,11.94926 -5.18553,-1.59323 -6.76375,5.96712 -2.38985,-1.59324 1.59325,-7.56035 11.15265,-6.37295 -4.38892,-9.55941 4.38892,-9.15359 v -7.57539 l 7.96617,-9.55941 3.18648,-13.13668 13.13667,-11.15265 -3.98309,19.11883 z m 31.45889,-5.1705 -16.72897,15.91732 -3.98309,-12.34006 1.59323,-6.37294 -4.37387,-29.86566 0.7966,-15.54156 3.57727,-11.54345 17.52559,6.37295 -3.18646,19.11883 3.18646,5.1705 z m -68.89993,-138.61152 10.74682,1.99906 -1.59323,33.45795 5.57632,5.96712 14.74495,11.54345 7.96618,13.94832 -1.20244,11.15265 -6.76374,5.57633 -8.7628,1.98403 -2.38985,-9.15359 6.37294,-23.50774 -3.98309,-1.98403 -2.38985,11.94926 -7.16956,-3.98309 -5.57633,-4.7797 -4.38891,-16.72898 -5.1705,-9.55941 v 27.49083 l 5.96711,6.76374 2.38986,4.37388 -6.37294,12.74589 -4.77971,-4.77971 -5.96712,-1.98403 -6.77876,6.37294 6.77876,3.57727 4.37389,13.94833 -1.59323,6.76373 -9.1536,13.54251 5.96711,13.15171 0.40584,18.32221 -0.40584,6.76374 -17.11977,36.2386 -2.78063,1.20244 -12.74589,-4.38891 -12.35509,0.79661 -46.20385,16.33819 -23.4927,4.37388 3.18647,-26.28839 3.57726,-7.96618 3.18647,-1.59324 3.18647,-36.2386 -0.3908,-179.61479 111.9173,-1.99906 z"
     fill="#000000"
     id="path28"
     style="stroke-width:15.0305" />
</svg>
