<svg width="24" height="24" viewBox="27 37.119 823.472 814.346" xmlns="http://www.w3.org/2000/svg" xmlns:svg="http://www.w3.org/2000/svg"><path d="M712.603 568.544v-7.597l3.384-3.395v3.395zM200.365 122.258l220.621 10.992 1.688 17.748 19.442-9.31 24.51 30.42.848 27.899 190.19 5.075L843.628 387.67l-5.075 1.68 5.075 6.757-32.12 14.386-29.587 27.026-32.121 47.36-8.454 40.572-5.072-16.067-9.297-3.394 12.679-26.186-5.916 6.757-11.832 22.823 19.438 23.664-5.919 8.47-8.45-5.076v8.438l-10.989-6.757 7.607 10.151-12.679 9.278-3.381 10.151-17.748 4.235-5.076-9.31-10.985 5.075-6.763 16.067 3.379 4.235 6.762-4.235-3.378 4.235-40.574 32.942-14.37-8.437 2.534-10.992h-9.297l3.378 14.386h-6.76l17.752 8.438-1.691 7.597-12.68 10.15-12.678 1.682 2.534 7.63-28.739 8.437-14.366-11.832 9.297 13.545-21.136 16.035-5.916-10.151-5.069 11.864-26.208-17.748 1.694 9.278h-24.514l-.844 5.076 35.5 3.394-19.44 4.203 22.82 6.756-15.216 14.386 19.445-12.673-5.92 17.748-29.582 12.673-3.382-39.731h-4.225v32.134l-13.526-11.832-5.072-27.058-12.68-10.151 11.833 45.646 19.445 21.143-24.514 21.142 7.603-19.461-1.687-8.438-17.751 43.934-19.44-10.992h-12.681l-14.37-21.11 5.072-26.218-11.832-33.814-35.505-29.58v-23.664l-16.06-37.177-3.38-22.824-42.261-24.537-1.694-10.991-12.68-10.119 1.692-9.31-14.37-11.832-1.69-22.823-21.134-21.143-19.442-7.597-16.06-33.815-50.716-38.89-5.916-17.748-19.442-24.505-21.132-58.319-31.274-8.47-20.29-23.664-31.273-21.11 8.453-22.823 33.812-35.528 61.704-13.514 10.988-10.991 42.266-9.31 6.763-8.438z" style="stroke-width:32.3278"/></svg>