<?xml version="1.0" encoding="UTF-8" standalone="no"?>
<svg
   width="24"
   height="24"
   viewBox="27.0 37.1189 823.472 814.3461"
   version="1.1"
   id="svg1"
   sodipodi:docname="sc.svg"
   inkscape:version="1.4.3 (0d15f75042, 2025-12-25)"
   xmlns:inkscape="http://www.inkscape.org/namespaces/inkscape"
   xmlns:sodipodi="http://sodipodi.sourceforge.net/DTD/sodipodi-0.dtd"
   xmlns="http://www.w3.org/2000/svg"
   xmlns:svg="http://www.w3.org/2000/svg">
  <defs
     id="defs1" />
  <sodipodi:namedview
     id="namedview1"
     pagecolor="#ffffff"
     bordercolor="#000000"
     borderopacity="0.25"
     inkscape:showpageshadow="2"
     inkscape:pageopacity="0.0"
     inkscape:pagecheckerboard="0"
     inkscape:deskcolor="#d1d1d1"
     inkscape:zoom="31"
     inkscape:cx="12.016129"
     inkscape:cy="12"
     inkscape:window-width="1920"
     inkscape:window-height="947"
     inkscape:window-x="1920"
     inkscape:window-y="32"
     inkscape:window-maximized="1"
     inkscape:current-layer="svg1" />
  <path
     d="m 712.60264,568.54388 v -7.59703 l 3.38473,-3.39442 v 3.39442 z m -512.23735,-446.28539 220.62113,10.99146 1.68751,17.74796 19.44194,-9.31041 24.51095,30.42047 0.84699,27.8989 190.19096,5.07546 185.96248,182.58746 -5.07547,1.68105 5.07547,6.75651 -32.12091,14.38588 -29.58641,27.02604 -32.12091,47.36024 -8.45372,40.5714 -5.07224,-16.06692 -9.29747,-3.39442 12.67896,-26.18552 -5.91599,6.75651 -11.83197,22.82343 19.43871,23.66396 -5.91922,8.46988 -8.45049,-5.07546 v 8.43756 l -10.98822,-6.75652 7.60673,10.15093 -12.67897,9.27809 -3.38149,10.15093 -17.74796,4.23494 -5.07547,-9.31041 -10.98499,5.07547 -6.76298,16.06692 3.37826,4.23494 6.76298,-4.23494 -3.37826,4.23494 -40.57463,32.94204 -14.36971,-8.43756 2.5345,-10.99146 h -9.29748 l 3.37826,14.38588 h -6.75975 l 17.7512,8.43756 -1.69074,7.59703 -12.67897,10.15093 -12.67896,1.68105 2.5345,7.62936 -28.73943,8.43756 -14.36647,-11.83198 9.29747,13.54535 -21.13592,16.0346 -5.91599,-10.15093 -5.069,11.8643 -26.20815,-17.74797 1.69398,9.27809 h -24.51418 l -0.84376,5.07546 35.49917,3.39442 -19.43871,4.20262 22.8202,6.75651 -15.2167,14.38587 19.44518,-12.6725 -5.91923,17.74797 -29.58317,12.6725 -3.38149,-39.73088 h -4.22525 v 32.13384 l -13.52595,-11.83197 -5.07223,-27.05838 -12.67897,-10.15093 11.83198,45.64686 19.44517,21.14239 -24.51417,21.14239 7.6035,-19.46134 -1.68751,-8.43756 -17.7512,43.93349 -19.43871,-10.99145 h -12.6822 l -14.36971,-21.11006 5.07223,-26.21786 -11.83198,-33.81488 -35.50563,-29.57995 v -23.66395 l -16.06046,-37.17698 -3.37825,-22.82343 -42.26215,-24.53681 -1.69397,-10.99146 -12.67897,-10.1186 1.69075,-9.31041 -14.36971,-11.83198 -1.69075,-22.82343 -21.13269,-21.14238 -19.44194,-7.59704 -16.06046,-33.81489 -50.71586,-38.89035 -5.91599,-17.74797 -19.44194,-24.50448 -21.13269,-58.31936 -31.273925,-8.46989 -20.288932,-23.66395 -31.273922,-21.11006 8.453722,-22.82343 33.811654,-35.52827 61.704093,-13.51302 10.98822,-10.99145 42.26537,-9.31041 6.76298,-8.43756 z"
     fill="#000000"
     id="path26"
     style="stroke-width:32.3278" />
</svg>
