<svg xmlns="http://www.w3.org/2000/svg" width="24" height="24" viewBox="27.0 37.1189 823.472 814.3461">
  <path
     d="M48.9961 843.242V843.007L49.1008 842.902V843.007L48.9961 843.242ZM33.151 829.437L39.9755 829.777L40.0277 830.326L40.6291 830.038L41.3873 830.979L41.4135 831.842L47.2967 831.999L53.0491 837.647L52.8921 837.699L53.0491 837.908L52.0555 838.353L51.1403 839.189L50.1467 840.654L49.8852 841.909L49.7283 841.412L49.4407 841.307L49.8329 840.497L49.6499 840.706L49.2839 841.412L49.8852 842.144L49.7021 842.406L49.4407 842.249V842.51L49.1008 842.301L49.3361 842.615L48.9439 842.902L48.8393 843.216L48.2903 843.347L48.1333 843.059L47.7935 843.216L47.5843 843.713L47.6888 843.844L47.898 843.713L47.7935 843.844L46.5384 844.863L46.0939 844.602L46.1723 844.262H45.8847L45.9892 844.707H45.7801L46.3292 844.968L46.2769 845.203L45.8847 845.517L45.4925 845.569L45.5709 845.805L44.6819 846.066L44.2375 845.7L44.5251 846.119L43.8713 846.615L43.6883 846.301L43.5315 846.668L42.7208 846.119L42.7732 846.406H42.0149L41.9888 846.563L43.0869 846.668L42.4856 846.798L43.1915 847.007L42.7208 847.452L43.3223 847.06L43.1392 847.609L42.2241 848.001L42.1195 846.772H41.9888V847.766L41.5704 847.4L41.4135 846.563L41.0213 846.249L41.3873 847.661L41.9888 848.315L41.2305 848.969L41.4657 848.367L41.4135 848.106L40.8644 849.465L40.2631 849.125H39.8708L39.4263 848.472L39.5832 847.661L39.2172 846.615L38.1189 845.7V844.968L37.6221 843.818L37.5176 843.112L36.2103 842.353L36.1579 842.013L35.7657 841.7L35.818 841.412L35.3735 841.046L35.3212 840.34L34.6675 839.686L34.0661 839.451L33.5693 838.405L32.0005 837.202L31.8175 836.653L31.2161 835.895L30.5624 834.091L29.595 833.829L28.9674 833.097L28 832.444L28.2615 831.738L29.3074 830.639L31.2161 830.221L31.556 829.881L32.8634 829.593L33.0726 829.332L33.151 829.437Z"
     fill="black"
     id="path26" />
</svg>
