<svg width="24" height="24" viewBox="339.969 328.333 511.565 522.624" xmlns="http://www.w3.org/2000/svg" xmlns:svg="http://www.w3.org/2000/svg"><path d="m707.306 787.819-1.117-14.593 1.117-1.116 1.676-.559 10.1 49.337zm6.167-31.394-6.167 14.01 6.167-19.619 7.843-11.776-5.609 11.776zm12.893-28.602 1.675-.559v3.934l-5.584 7.842zm7.284-5.05-5.609 6.167 3.934-6.167 14.01-6.168zm16.826-11.194 3.35-2.258-6.166 2.817zm59.413-45.403-12.334 11.751 9.542-10.076v-1.675zM594.064 344.392l.583 88.574 14.568 8.4h8.4l1.676-2.233 8.984 9.518 21.293 3.375 3.375 5.05 15.127-5.05 7.284 11.217 9.542-4.492 8.959 7.843 8.984-5.609 2.233 8.984 8.401-10.66 5.609 3.934 5.609-2.258 12.334 7.284 15.126-8.96 5.05 1.676 7.843-3.35 8.425 1.675 4.468-5.05 33.652 17.384 13.451-1.675 4.468 72.306 9.542 8.4v9.543l15.685 24.11-8.401 21.852 3.375 22.993-8.425 11.217 3.374 6.143-7.842 2.258-26.927 17.385 1.7-6.75 10.076-3.91V654.4l-14.568 2.792 2.234-10.659-5.05 3.934-6.726-1.676 5.609 14.01 3.933 3.375-11.217 7.284v5.608l-10.1 10.077-20.736 10.1v.559l8.425-2.817-19.642 12.334 8.983-9.517-8.983 3.909 3.375-2.234-2.234-2.234-7.308 2.234-1.676-3.933-1.675-.559 2.234 4.492-.559 2.234-2.792 2.816 1.117-5.05-7.284-2.234 6.167 8.96-2.816 3.374 5.608.559-8.959 5.05-5.609-5.609.559 9.518-5.05 5.05-2.234 1.117 1.675-7.842-1.675 7.842-2.234-5.05-6.75 3.933 1.7 6.726 5.05-5.05-6.75 12.892-14.01-1.675 11.776 8.96-7.284 17.942-4.492 1.7 2.259-6.75-5.05 5.609-6.168-7.843 5.05 7.843-5.05 1.141h13.451l-4.492 12.31 3.375 4.492-3.375 3.375 11.776 32.51 5.05.56-1.116 3.908 1.675-1.675 2.234 2.816-7.843 3.91-1.117 5.05-12.892-10.1-21.877-1.118-27.46-12.334-11.218-1.117-5.584-18.501-10.1-11.776-2.793-25.227-13.475-6.726-10.076-16.801-8.401-8.425-16.268-38.679-22.435-21.293-4.467 1.117-3.934-9.518-29.136-1.7-6.75-2.792-3.35 4.492-11.218 1.117-6.725 23.551-11.776 12.893-9.518-2.258-43.17-29.136-18.501-46.545-16.826-10.634-45.404-48.78-2.234-7.842 139.586 5.61 6.168-207.984z" style="stroke-width:24.28"/></svg>