<?xml version="1.0" encoding="UTF-8" standalone="no"?>
<svg
   width="24"
   height="24"
   viewBox="339.969 328.333 511.565 522.624"
   version="1.1"
   id="svg1"
   sodipodi:docname="tx.svg"
   inkscape:version="1.4.3 (0d15f75042, 2025-12-25)"
   xmlns:inkscape="http://www.inkscape.org/namespaces/inkscape"
   xmlns:sodipodi="http://sodipodi.sourceforge.net/DTD/sodipodi-0.dtd"
   xmlns="http://www.w3.org/2000/svg"
   xmlns:svg="http://www.w3.org/2000/svg">
  <defs
     id="defs1" />
  <sodipodi:namedview
     id="namedview1"
     pagecolor="#ffffff"
     bordercolor="#000000"
     borderopacity="0.25"
     inkscape:showpageshadow="2"
     inkscape:pageopacity="0.0"
     inkscape:pagecheckerboard="0"
     inkscape:deskcolor="#d1d1d1"
     inkscape:zoom="31"
     inkscape:cx="12.016129"
     inkscape:cy="13.741935"
     inkscape:window-width="1920"
     inkscape:window-height="947"
     inkscape:window-x="1920"
     inkscape:window-y="32"
     inkscape:window-maximized="1"
     inkscape:current-layer="svg1" />
  <path
     d="m 707.30619,787.81877 -1.11688,-14.59231 1.11688,-1.11688 1.67532,-0.55844 10.1005,49.33706 z m 6.16713,-31.3941 -6.16713,14.00958 6.16713,-19.61828 7.84246,-11.77582 -5.60869,11.77582 z m 12.89271,-28.6019 1.67532,-0.55844 v 3.93336 l -5.58441,7.84246 z m 7.28401,-5.05025 -5.60869,6.16713 3.93337,-6.16713 14.00959,-6.16714 z m 16.82608,-11.19311 3.35065,-2.25804 -6.16714,2.81649 z m 59.41328,-45.40369 -12.33427,11.75155 9.54206,-10.07622 v -1.67533 z m -215.82536,-321.78349 0.58272,88.57362 14.56803,8.4009 h 8.4009 l 1.67532,-2.23377 8.98362,9.51778 21.2936,3.37493 3.37493,5.05025 15.12647,-5.05025 7.28402,11.21738 9.54206,-4.49181 8.95933,7.84246 8.98362,-5.60869 2.23377,8.98361 8.40089,-10.65894 5.60869,3.93337 5.6087,-2.25804 12.33426,7.28401 15.12647,-8.95934 5.05025,1.67533 7.84246,-3.35065 8.42518,1.67532 4.46752,-5.05025 33.65215,17.38452 13.45115,-1.67533 4.46753,72.30599 9.54206,8.4009 v 9.54206 l 15.68491,24.11009 -8.4009,21.85204 3.37493,22.99321 -8.42518,11.21738 3.37493,6.14285 -7.84246,2.25805 -26.92657,17.38451 1.6996,-6.74985 10.07622,-3.90909 v -1.11688 l -14.56803,2.7922 2.23377,-10.65894 -5.05025,3.93337 -6.72558,-1.67532 5.6087,14.00959 3.93336,3.37492 -11.21738,7.28402 v 5.60869 l -10.1005,10.07622 -20.73516,10.1005 v 0.55844 l 8.42518,-2.81649 -19.64256,12.33427 8.98361,-9.51778 -8.98361,3.90909 3.37492,-2.23377 -2.23376,-2.23376 -7.3083,2.23376 -1.67532,-3.93336 -1.67532,-0.55845 2.23375,4.49181 -0.55844,2.23377 -2.7922,2.81648 1.11689,-5.05025 -7.28402,-2.23376 6.16713,8.95934 -2.81648,3.37492 5.60869,0.55845 -8.95934,5.05025 -5.60869,-5.6087 0.55844,9.51778 -5.05025,5.05025 -2.23376,1.11689 1.67532,-7.84246 -1.67532,7.84246 -2.23377,-5.05025 -6.74986,3.93336 1.69961,6.72558 5.05025,-5.05025 -6.74986,12.8927 -14.00958,-1.67532 11.77581,8.95934 -7.284,17.94295 -4.49181,1.69961 2.25804,-6.74986 -5.05025,5.6087 -6.16714,-7.84246 5.05025,7.84246 -5.05025,1.14116 h 13.45116 l -4.49181,12.30998 3.37493,4.49181 -3.37493,3.37492 11.77581,32.51099 5.05025,0.55844 -1.11688,3.90909 1.67532,-1.67532 2.23378,2.81648 -7.84246,3.90909 -1.11688,5.05025 -12.8927,-10.1005 -21.87634,-1.11688 -27.46073,-12.33427 -11.21739,-1.11689 -5.5844,-18.50138 -10.10051,-11.77583 -2.79221,-25.22698 -13.47542,-6.72556 -10.07621,-16.8018 -8.40091,-8.42517 -16.26763,-38.67812 -22.43476,-21.2936 -4.46754,1.11688 -3.93337,-9.51778 -29.13604,-1.6996 -6.74986,-2.79221 -3.35064,4.49181 -11.21739,1.11688 -6.72557,23.55165 -11.77583,12.8927 -9.51777,-2.25804 -43.16993,-29.13606 -18.5014,-46.54485 -16.82607,-10.63467 -45.40371,-48.77862 -2.23376,-7.84246 139.586,5.6087 6.16715,-207.98291 z"
     fill="#000000"
     id="path20"
     style="stroke-width:24.28" />
</svg>
