<svg xmlns="http://www.w3.org/2000/svg" width="24" height="24" viewBox="339.969 328.333 511.565 522.624">
  <path
     d="M344.594 847.595L344.548 846.994L344.594 846.948L344.663 846.925L345.079 848.957L344.594 847.595ZM344.848 846.302L344.594 846.879L344.848 846.071L345.171 845.586L344.94 846.071L344.848 846.302ZM345.379 845.124L345.448 845.101V845.263L345.218 845.586L345.379 845.124ZM345.679 844.916L345.448 845.17L345.61 844.916L346.187 844.662L345.679 844.916ZM346.372 844.455L346.51 844.362L346.256 844.478L346.372 844.455ZM348.819 842.585L348.311 843.069L348.704 842.654V842.585H348.819ZM339.93 829.332L339.954 832.98L340.554 833.326H340.9L340.969 833.234L341.339 833.626L342.216 833.765L342.355 833.973L342.978 833.765L343.278 834.227L343.671 834.042L344.04 834.365L344.41 834.134L344.502 834.504L344.848 834.065L345.079 834.227L345.31 834.134L345.818 834.434L346.441 834.065L346.649 834.134L346.972 833.996L347.319 834.065L347.503 833.857L348.889 834.573L349.443 834.504L349.627 837.482L350.02 837.828V838.221L350.666 839.214L350.32 840.114L350.459 841.061L350.112 841.523L350.251 841.776L349.928 841.869L348.819 842.585L348.889 842.307L349.304 842.146V842.1L348.704 842.215L348.796 841.776L348.588 841.938L348.311 841.869L348.542 842.446L348.704 842.585L348.242 842.885V843.116L347.826 843.531L346.972 843.947V843.97L347.319 843.854L346.51 844.362L346.88 843.97L346.51 844.131L346.649 844.039L346.557 843.947L346.256 844.039L346.187 843.877L346.118 843.854L346.21 844.039L346.187 844.131L346.072 844.247L346.118 844.039L345.818 843.947L346.072 844.316L345.956 844.455L346.187 844.478L345.818 844.686L345.587 844.455L345.61 844.847L345.402 845.055L345.31 845.101L345.379 844.778L345.31 845.101L345.218 844.893L344.94 845.055L345.01 845.332L345.218 845.124L344.94 845.655L344.363 845.586L344.848 845.955L344.548 846.694L344.363 846.764L344.456 846.486L344.248 846.717L343.994 846.394L344.202 846.717L343.994 846.764H344.548L344.363 847.271L344.502 847.456L344.363 847.595L344.848 848.934L345.056 848.957L345.01 849.118L345.079 849.049L345.171 849.165L344.848 849.326L344.802 849.534L344.271 849.118L343.37 849.072L342.239 848.564L341.777 848.518L341.547 847.756L341.131 847.271L341.016 846.232L340.461 845.955L340.046 845.263L339.7 844.916L339.03 843.323L338.106 842.446L337.922 842.492L337.76 842.1L336.56 842.03L336.282 841.915L336.144 842.1L335.682 842.146L335.405 843.116L334.92 843.647L334.528 843.554L332.75 842.354L331.988 840.437L331.295 839.999L329.425 837.99L329.333 837.667L335.082 837.898L335.336 829.332H339.93Z"
     fill="black"
     id="path20" />
</svg>
