<?xml version="1.0" encoding="UTF-8" standalone="no"?>
<svg
   width="24"
   height="24"
   viewBox="432.792 431.0 419.873 405.22400000000005"
   version="1.1"
   id="svg1"
   sodipodi:docname="ut.svg"
   inkscape:version="1.4.3 (0d15f75042, 2025-12-25)"
   xmlns:inkscape="http://www.inkscape.org/namespaces/inkscape"
   xmlns:sodipodi="http://sodipodi.sourceforge.net/DTD/sodipodi-0.dtd"
   xmlns="http://www.w3.org/2000/svg"
   xmlns:svg="http://www.w3.org/2000/svg">
  <defs
     id="defs1" />
  <sodipodi:namedview
     id="namedview1"
     pagecolor="#ffffff"
     bordercolor="#000000"
     borderopacity="0.25"
     inkscape:showpageshadow="2"
     inkscape:pageopacity="0.0"
     inkscape:pagecheckerboard="0"
     inkscape:deskcolor="#d1d1d1"
     inkscape:zoom="31"
     inkscape:cx="12.016129"
     inkscape:cy="14"
     inkscape:window-width="1920"
     inkscape:window-height="947"
     inkscape:window-x="1920"
     inkscape:window-y="32"
     inkscape:window-maximized="1"
     inkscape:current-layer="svg1" />
  <path
     d="m 581.56555,512.37092 -0.55681,-2.72646 0.55681,-0.55682 1.09442,1.65124 z m 22.92531,10.36823 -4.3585,-7.64177 v -8.7362 l 4.3585,8.19859 z m -9.27381,-21.29327 -4.3777,-3.28328 2.72646,-1.07522 z m -80.83379,-71.54079 159.47873,1.63204 v 80.83379 l 123.42033,-1.63204 8.19858,324.94799 -162.762,2.72646 -162.7428,-2.72646 11.46266,-406.8762 z m 48.05867,30.02947 -9.83062,2.74566 2.72646,3.26407 -2.72646,2.72646 4.3777,16.39716 -4.3777,3.82089 2.72646,1.09442 3.82088,-4.91531 4.3777,4.91531 3.82089,7.10416 0.55681,14.74593 8.17938,5.45292 4.91531,8.73619 3.28327,-8.73619 5.45292,19.12362 3.82088,1.63203 9.83062,-7.10415 3.84009,-8.19858 12.00026,-7.64177 -10.92504,-8.17938 -9.2738,-16.39717 -3.82089,-0.53761 4.91531,-5.47212 8.73619,0.55681 2.72646,-4.37769 h -13.6515 v -4.3585 l -7.10416,-1.09442 2.72646,18.00999 -4.35849,2.74567 -5.47212,-18.0292 -7.64177,-1.09443 -5.45292,-5.45292 2.18885,-11.48185 -4.91531,-3.82089 z"
     fill="#000000"
     id="path18"
     style="stroke-width:19.2004" />
</svg>
