<svg xmlns="http://www.w3.org/2000/svg" width="24" height="24" viewBox="432.792 431.0 419.873 405.22400000000005">
  <path
     d="M437.291 833.684L437.262 833.542L437.291 833.513L437.348 833.599L437.291 833.684ZM438.485 834.224L438.258 833.826V833.371L438.485 833.798V834.224ZM438.002 833.115L437.774 832.944L437.916 832.888L438.002 833.115ZM433.792 829.389L442.098 829.474V833.684L448.526 833.599L448.953 850.523L440.476 850.665L432 850.523L432.597 829.332L433.792 829.389ZM436.295 830.953L435.783 831.096L435.925 831.266L435.783 831.408L436.011 832.262L435.783 832.461L435.925 832.518L436.124 832.262L436.352 832.518L436.551 832.888L436.58 833.656L437.006 833.94L437.262 834.395L437.433 833.94L437.717 834.936L437.916 835.021L438.428 834.651L438.628 834.224L439.253 833.826L438.684 833.4L438.201 832.546L438.002 832.518L438.258 832.233L438.713 832.262L438.855 832.034H438.144V831.807L437.774 831.75L437.916 832.688L437.689 832.831L437.404 831.892L437.006 831.835L436.722 831.551L436.836 830.953L436.58 830.754L436.295 830.953Z"
     fill="black"
     id="path18" />
</svg>
