<svg width="24" height="24" viewBox="432.792 431 419.873 405.224" xmlns="http://www.w3.org/2000/svg" xmlns:svg="http://www.w3.org/2000/svg"><path d="m581.566 512.37-.557-2.726.557-.556 1.094 1.65zm22.925 10.37-4.359-7.643v-8.736l4.359 8.199zm-9.274-21.294-4.378-3.283 2.727-1.076zm-80.834-71.54 159.479 1.631v80.834l123.42-1.632 8.199 324.948-162.762 2.726-162.743-2.726L491.44 428.81zm48.059 30.029-9.83 2.745 2.726 3.264-2.727 2.727 4.378 16.397-4.378 3.82 2.727 1.095 3.82-4.915 4.378 4.915 3.821 7.104.557 14.746 8.18 5.453 4.915 8.736 3.283-8.736 5.453 19.124 3.82 1.632 9.831-7.104 3.84-8.199 12-7.642-10.924-8.179-9.274-16.397-3.821-.538 4.915-5.472 8.737.557 2.726-4.378h-13.651v-4.358l-7.105-1.095 2.727 18.01-4.359 2.746-5.472-18.03-7.642-1.094-5.452-5.453 2.188-11.481-4.915-3.821z" style="stroke-width:19.2004"/></svg>