<svg width="24" height="24" viewBox="137.395 128.333 809.687 818.81" xmlns="http://www.w3.org/2000/svg" xmlns:svg="http://www.w3.org/2000/svg"><path d="M888.507 704.68v4.642h-.761l-3.12-3.081zm8.483-78.82h-4.603l5.402-9.282v6.961zm8.521-19.325-.76-1.56 5.401-6.162-1.56.76zm25.488-63.376-15.445 45.573-5.402 4.641-4.641-6.962-3.88 5.44 3.88 1.522-8.521 6.2-5.402 33.248-3.081-5.44-5.402 9.283-6.2-20.885 7.722-35.53 10.841-8.521 1.522-15.445 11.602-3.88-6.961-7.723 9.282-12.363 25.525-2.32zm9.282 1.521-3.082 2.321h-3.88l14.684-20.846zM697.617 397.842l11.564-20.884 16.244 2.32 10.804 10.081-4.641 11.565 21.645 9.282 20.884 17.765v18.564l-9.282 5.402-1.56 7.722-6.162-.761-6.961 28.607-5.402-3.88 8.483 7.722-6.924 3.12 30.89-6.962 2.32 6.961-5.402 2.32 11.603 13.125 20.086 7.722 13.124-.76 6.961 15.444 27.047 13.162v10.804l-9.244-3.88 3.843 26.286-15.445-7.722-3.88 6.2-42.492-52.572-11.603-9.282-6.961 1.56 18.564 9.282 40.171 52.534 23.205 7.722-9.282 5.44 14.684 2.32-1.56 22.407-13.885-15.483-3.119 14.684 6.962 4.641-8.484 3.12-32.487-31.689-1.521 2.32 26.248 29.368 14.684 3.843 7.76 10.042-2.32 4.641 6.162.8-3.842 10.803-10.043 3.88-23.205-28.607-8.483 3.88-12.363-16.243-7.76 10.804-6.962-10.804-3.081 5.402-20.086-7.723-1.56 5.402 18.564 3.88 5.402-3.119 5.402 6.962 22.444 9.282 6.163-3.843 2.32 16.967 17.766 10.841-5.402 11.603 14.684-3.88 7.722 3.88-1.522-11.603 31.688 3.843 14.684 44.85-12.363-23.205v23.205l-7.76-5.402 1.56 5.402-196.33 2.32H481.202l-344.728-20.884 52.573-14.684 6.923-11.602 19.325-3.843 20.124-27.808 33.21-17.042 36.329-29.368 2.32 20.124 33.248 20.847 20.847-14.684 13.923 10.841 34.008-7.76 2.32-10.804 10.804 3.88 20.885-9.281 6.961 5.401 15.445-10.803 6.962-13.162-5.402-7.723 47.133-69.577 14.683-40.171 10.842 4.641 2.32 11.603 20.847 6.961 27.846-51.812 12.363 6.962 41.731-44.052 7.723-34.008z" style="stroke-width:38.041"/></svg>