<?xml version="1.0" encoding="UTF-8" standalone="no"?>
<svg
   width="24"
   height="24"
   viewBox="137.395 128.333 809.687 818.8100000000001"
   version="1.1"
   id="svg1"
   sodipodi:docname="va.svg"
   inkscape:version="1.4.3 (0d15f75042, 2025-12-25)"
   xmlns:inkscape="http://www.inkscape.org/namespaces/inkscape"
   xmlns:sodipodi="http://sodipodi.sourceforge.net/DTD/sodipodi-0.dtd"
   xmlns="http://www.w3.org/2000/svg"
   xmlns:svg="http://www.w3.org/2000/svg">
  <defs
     id="defs1" />
  <sodipodi:namedview
     id="namedview1"
     pagecolor="#ffffff"
     bordercolor="#000000"
     borderopacity="0.25"
     inkscape:showpageshadow="2"
     inkscape:pageopacity="0.0"
     inkscape:pagecheckerboard="0"
     inkscape:deskcolor="#d1d1d1"
     inkscape:zoom="31"
     inkscape:cx="12.016129"
     inkscape:cy="12"
     inkscape:window-width="1920"
     inkscape:window-height="947"
     inkscape:window-x="1920"
     inkscape:window-y="32"
     inkscape:window-maximized="1"
     inkscape:current-layer="svg1" />
  <path
     d="m 888.5067,704.68094 v 4.641 h -0.76081 l -3.11936,-3.08132 z m 8.48316,-78.82096 h -4.60297 l 5.40183,-9.282 v 6.9615 z m 8.52117,-19.32482 -0.76081,-1.55969 5.40182,-6.16264 -1.55968,0.76082 z m 25.48748,-63.37631 -15.44465,45.57312 -5.40183,4.641 -4.641,-6.9615 -3.88018,5.43986 3.88018,1.52164 -8.52117,6.20068 -5.40183,33.24784 -3.08133,-5.43987 -5.40182,9.28201 -6.20068,-20.88451 7.72232,-35.5303 10.84169,-8.52118 1.52164,-15.44465 11.6025,-3.88018 -6.9615,-7.72232 9.282,-12.36333 25.52552,-2.3205 z m 9.28201,1.52164 -3.08132,2.3205 h -3.88019 l 14.68383,-20.84647 z m -242.66355,-146.83827 11.56447,-20.8845 16.2435,2.3205 10.80365,10.08086 -4.641,11.56447 21.64533,9.282 20.8845,17.76515 v 18.56401 l -9.282,5.40182 -1.55968,7.72232 -6.16264,-0.76082 -6.96151,28.60683 -5.40182,-3.88018 8.48315,7.72232 -6.92347,3.11937 30.8893,-6.96151 2.3205,6.96151 -5.40183,2.3205 11.60251,13.12414 20.08565,7.72233 13.12414,-0.76082 6.96151,15.44464 27.04715,13.16219 v 10.80364 l -9.24396,-3.88018 3.84214,26.28633 -15.44465,-7.72232 -3.88018,6.20068 -42.4918,-52.57266 -11.60251,-9.282 -6.9615,1.55968 18.56401,9.282 40.1713,52.53462 23.20501,7.72233 -9.28201,5.43986 14.68383,2.3205 -1.55968,22.40615 -13.88497,-15.48269 -3.11936,14.68383 6.9615,4.641 -8.48314,3.11936 -32.48701,-31.68815 -1.52164,2.3205 26.24829,29.36765 14.68381,3.84214 7.76037,10.04283 -2.3205,4.641 6.16264,0.79886 -3.84214,10.80365 -10.04283,3.88018 -23.20501,-28.60683 -8.48314,3.88018 -12.36333,-16.24351 -7.76036,10.80363 -6.9615,-10.80363 -3.08132,5.40182 -20.08565,-7.72232 -1.55968,5.40182 18.564,3.88018 5.40183,-3.11936 5.40182,6.96149 22.4442,9.28202 6.16264,-3.84214 2.3205,16.96628 17.76515,10.84169 -5.40183,11.6025 14.68382,-3.88018 7.72234,3.88018 -1.52165,-11.6025 31.68815,3.84214 14.68383,44.85034 -12.36333,-23.20501 v 23.20501 l -7.76036,-5.40182 1.55968,5.40182 -196.32961,2.3205 H 481.20171 l -344.72755,-20.88451 52.57266,-14.68382 6.92346,-11.60251 19.32483,-3.84214 20.12369,-27.80797 33.2098,-17.04237 36.32916,-29.36765 2.32049,20.12369 33.24784,20.84645 20.84647,-14.68381 13.923,10.84168 34.00867,-7.76036 2.32049,-10.80366 10.80364,3.8802 20.88451,-9.28201 6.9615,5.40181 15.44465,-10.80363 6.9615,-13.16219 -5.40182,-7.72232 47.13281,-69.577 14.68383,-40.17129 10.84168,4.641 2.3205,11.6025 20.84647,6.9615 27.84602,-51.81184 12.36332,6.9615 41.73098,-44.05148 7.72232,-34.00864 z"
     fill="#000000"
     id="path14"
     style="stroke-width:38.041" />
</svg>
