<svg xmlns="http://www.w3.org/2000/svg" width="24" height="24" viewBox="137.395 128.333 809.687 818.8100000000001">
  <path
     d="M149.102 944.96V945.082H149.082L149 945.001L149.102 944.96ZM149.325 942.888H149.204L149.346 942.644V942.827L149.325 942.888ZM149.549 942.38L149.529 942.339L149.671 942.177L149.63 942.197L149.549 942.38ZM150.219 940.714L149.813 941.912L149.671 942.034L149.549 941.851L149.447 941.994L149.549 942.034L149.325 942.197L149.183 943.071L149.102 942.928L148.96 943.172L148.797 942.623L149 941.689L149.285 941.465L149.325 941.059L149.63 940.957L149.447 940.754L149.691 940.429L150.362 940.368L150.219 940.714ZM150.463 940.754L150.382 940.815H150.28L150.666 940.267L150.463 940.754ZM144.084 936.894L144.388 936.345L144.815 936.406L145.099 936.671L144.977 936.975L145.546 937.219L146.095 937.686V938.174L145.851 938.316L145.81 938.519L145.648 938.499L145.465 939.251L145.323 939.149L145.546 939.352L145.364 939.434L146.176 939.251L146.237 939.434L146.095 939.495L146.4 939.84L146.928 940.043L147.273 940.023L147.456 940.429L148.167 940.775V941.059L147.924 940.957L148.025 941.648L147.619 941.445L147.517 941.608L146.4 940.226L146.095 939.982L145.912 940.023L146.4 940.267L147.456 941.648L148.066 941.851L147.822 941.994L148.208 942.055L148.167 942.644L147.802 942.237L147.72 942.623L147.903 942.745L147.68 942.827L146.826 941.994L146.786 942.055L147.476 942.827L147.862 942.928L148.066 943.192L148.005 943.314L148.167 943.335L148.066 943.619L147.802 943.721L147.192 942.969L146.969 943.071L146.644 942.644L146.44 942.928L146.257 942.644L146.176 942.786L145.648 942.583L145.607 942.725L146.095 942.827L146.237 942.745L146.379 942.928L146.969 943.172L147.131 943.071L147.192 943.517L147.659 943.802L147.517 944.107L147.903 944.005L148.106 944.107L148.066 943.802L148.899 943.903L149.285 945.082L148.96 944.472V945.082L148.756 944.94L148.797 945.082L143.636 945.143H138.395L129.333 944.594L130.715 944.208L130.897 943.903L131.405 943.802L131.934 943.071L132.807 942.623L133.762 941.851L133.823 942.38L134.697 942.928L135.245 942.542L135.611 942.827L136.505 942.623L136.566 942.339L136.85 942.441L137.399 942.197L137.582 942.339L137.988 942.055L138.171 941.709L138.029 941.506L139.268 939.677L139.654 938.621L139.939 938.743L140 939.048L140.548 939.231L141.28 937.869L141.605 938.052L142.702 936.894L142.905 936L144.084 936.894Z"
     fill="black"
     id="path14" />
</svg>
