<?xml version="1.0" encoding="UTF-8" standalone="no"?>
<svg
   width="24"
   height="24"
   viewBox="33.8192 33.3125 911.0058 919.3525"
   version="1.1"
   id="svg1"
   sodipodi:docname="vt.svg"
   inkscape:version="1.4.3 (0d15f75042, 2025-12-25)"
   xmlns:inkscape="http://www.inkscape.org/namespaces/inkscape"
   xmlns:sodipodi="http://sodipodi.sourceforge.net/DTD/sodipodi-0.dtd"
   xmlns="http://www.w3.org/2000/svg"
   xmlns:svg="http://www.w3.org/2000/svg">
  <defs
     id="defs1" />
  <sodipodi:namedview
     id="namedview1"
     pagecolor="#ffffff"
     bordercolor="#000000"
     borderopacity="0.25"
     inkscape:showpageshadow="2"
     inkscape:pageopacity="0.0"
     inkscape:pagecheckerboard="0"
     inkscape:deskcolor="#d1d1d1"
     inkscape:zoom="31"
     inkscape:cx="12.016129"
     inkscape:cy="8.3548387"
     inkscape:window-width="1920"
     inkscape:window-height="947"
     inkscape:window-x="1920"
     inkscape:window-y="32"
     inkscape:window-maximized="1"
     inkscape:current-layer="svg1" />
  <path
     d="m 750.81043,214.00036 -11.29677,3.38862 -2.25766,20.33165 -21.4626,28.25253 -50.82913,39.51964 -33.88609,2.24495 -18.07399,24.86392 -2.25766,67.77217 -19.2007,42.90826 5.64627,9.06453 -22.58931,36.13103 -10.16583,38.41835 -25.98216,27.10887 -7.90393,42.90825 -14.68537,22.57661 -4.51956,99.41331 -9.03488,19.18799 -12.42349,96.0247 -13.55444,13.55443 -9.03911,38.41835 3.38862,18.04434 21.4626,40.66331 -227.03678,-10.16583 -10.16582,-22.57661 14.68537,-292.56399 -18.07399,-28.21017 h -12.42348 l -18.07399,21.43296 -3.38861,-15.7994 19.2007,-67.77216 -19.2007,-110.68043 15.8121,-54.21774 15.81632,-18.08669 -2.26189,-46.29688 12.42772,-35.02974 -23.72026,-68.91582 13.55443,-64.38356 -12.42772,-27.10887 12.42772,-33.886088 -2.26189,-24.821558 513.94179,-4.532264 -7.90816,15.799388 6.77721,30.497476 -28.23981,37.274696 -6.77723,24.86392 25.98216,56.46269 z"
     fill="#000000"
     id="path16"
     style="stroke-width:42.3576" />
</svg>
