<svg xmlns="http://www.w3.org/2000/svg" width="24" height="24" viewBox="33.8192 33.3125 911.0058 919.3525">
  <path
     d="M46.8992 933.412L46.6325 933.492L46.5792 933.972L46.0725 934.639L44.8725 935.572L44.0725 935.625L43.6458 936.212L43.5925 937.812L43.1392 938.825L43.2725 939.039L42.7392 939.892L42.4992 940.799L41.8858 941.439L41.6992 942.452L41.3525 942.985L41.2458 945.332L41.0325 945.785L40.7392 948.052L40.4192 948.372L40.2058 949.279L40.2858 949.705L40.7925 950.665L35.4325 950.425L35.1925 949.892L35.5392 942.985L35.1125 942.319H34.8192L34.3925 942.825L34.3125 942.452L34.7658 940.852L34.3125 938.239L34.6858 936.959L35.0592 936.532L35.0058 935.439L35.2992 934.612L34.7392 932.985L35.0592 931.465L34.7658 930.825L35.0592 930.025L35.0058 929.439L47.1392 929.332L46.9525 929.705L47.1125 930.425L46.4458 931.305L46.2858 931.892L46.8992 933.225V933.412Z"
     fill="black"
     id="path16" />
</svg>
