<svg width="24" height="24" viewBox="33.819 33.313 911.006 919.352" xmlns="http://www.w3.org/2000/svg" xmlns:svg="http://www.w3.org/2000/svg"><path d="m750.81 214-11.296 3.389-2.258 20.332-21.463 28.252-50.829 39.52-33.886 2.245-18.074 24.864-2.257 67.772-19.201 42.908 5.646 9.065-22.59 36.13-10.165 38.419-25.982 27.109-7.904 42.908-14.685 22.577-4.52 99.413-9.035 19.188-12.423 96.025-13.555 13.554-9.039 38.419 3.389 18.044 21.462 40.663-227.037-10.166-10.165-22.576 14.685-292.564-18.074-28.21h-12.423l-18.074 21.433-3.39-15.8 19.202-67.772-19.201-110.68 15.812-54.218 15.816-18.087-2.262-46.297 12.428-35.03-23.72-68.915 13.554-64.384-12.427-27.109 12.427-33.886-2.262-24.821 513.942-4.533-7.908 15.8 6.777 30.497-28.24 37.275-6.777 24.864 25.982 56.463z" style="stroke-width:42.3576"/></svg>