<svg xmlns="http://www.w3.org/2000/svg" width="24" height="24" viewBox="229.565 228.333 716.644 720.674">
  <path
     d="M231.139 943.41L231.012 943.346L231.097 943.115L231.182 943.283L231.139 943.41ZM234.624 940.843L234.496 940.717L234.624 940.632L234.709 940.717L234.624 940.843ZM234.199 940.632L234.029 940.422L234.241 940.17L234.199 940.296V940.632ZM235.389 939.749L235.559 939.875L235.261 940.043L235.368 939.833L235.304 939.791L235.134 940.043L235.176 939.581L235.304 939.37L235.389 939.749ZM235.24 938.991V939.118L235.006 938.991L235.091 938.571L235.24 938.991ZM234.815 937.224L234.709 937.371L234.688 936.993L234.709 937.056L234.815 937.224ZM235.049 935.857L235.24 936.277L235.006 936.193L234.688 936.509L235.049 936.677L235.134 937.435L235.24 937.098L235.559 937.371L235.516 937.792L235.304 937.477H235.091L234.964 936.824H234.815L234.581 936.509L234.836 935.899L235.049 935.857ZM234.369 935.583L234.411 935.773L234.135 935.52L234.284 935.183L234.369 935.583ZM234.815 935.268L234.688 935.162L234.709 935.036L234.836 935.183L234.815 935.268ZM233.986 935.352L234.029 935.604L233.604 935.457L233.519 935.036L233.731 934.973L233.986 935.352ZM234.369 934.594L234.624 934.805L234.454 935.036L234.241 934.636L234.326 935.036L234.156 935.057L234.029 934.91L233.986 935.036L233.944 934.847L234.156 934.594H234.369ZM235.006 934.847L234.751 934.594V934.51L234.943 934.721L235.006 934.847ZM233.901 933.5L233.774 933.542V933.458H233.944L233.901 933.5ZM249.625 933.332L250.114 943.641L250.411 944.062L250.539 944.441L250.411 944.693L250.666 945.072L244.759 945.303L244.504 945.492L243.208 945.619L242.953 945.829L242.167 945.976L241.36 946.376L240.255 946.418L239.49 946.755L238.81 946.839L238.47 946.502L237.025 946.418L235.686 947.007L234.411 946.671L234.241 945.366L233.774 944.735L233.391 944.504L232.881 944.609L232.499 944.188H232.053L231.819 944.02L231.352 944.209L230.948 943.957L230.693 944.083L230.884 942.673L231.097 943.662L231.224 943.473L231.437 943.536L231.182 943.346L231.245 943.031L231.139 942.736L231.309 942.842L231.352 942.442L231.5 942.568L231.692 942.547L231.352 942.295L230.799 942.316L230.693 941.6L230.948 941.895V941.642L231.564 941.432L231.097 941.306L230.82 941.011L230.565 941.474V940.464L230.268 939.791L230.204 938.655L229.439 937.245L229.333 936.635L229.567 935.962L229.397 935.709L231.437 936.677L233.221 936.93L233.604 936.677L233.476 936.803L233.816 937.224L234.135 936.993L234.241 937.435L234.369 937.245L234.241 936.951L234.539 936.867L234.496 937.098L234.943 937.897L234.411 938.655V938.024L234.326 938.276L234.241 938.108L234.284 938.402L233.391 939.917L233.646 939.959L234.284 939.623L233.689 939.875L233.519 939.791L233.986 938.991L234.496 938.739L234.879 938.024L235.049 938.15L234.943 937.645L235.134 937.792L235.304 938.402L235.091 938.444L234.964 938.655L234.815 938.465L234.964 939.076L234.709 938.781L234.688 938.907L234.836 939.076L234.709 939.286L235.049 939.076L235.176 939.328L235.006 940.338L234.688 940.17L234.836 939.875V939.749L234.581 940.001L234.454 940.675L234.369 939.791L233.901 940.632L233.646 940.759L233.604 940.801H233.774L233.604 940.969L233.986 940.632L233.774 941.011L233.986 940.801L234.071 941.137L234.199 940.717V940.843L234.284 940.717L234.539 940.969L234.964 940.548L235.091 940.127L235.368 940.338L235.644 939.959L235.431 939.118L235.622 939.139L235.644 939.013L235.389 938.781L235.495 938.234L235.75 937.666L236.069 937.35L235.644 937.098L235.622 936.572L235.431 936.509L235.368 936.803L235.644 937.224L235.261 936.93L235.24 936.509H235.559V936.256L235.176 935.962L235.091 935.709L234.879 935.836L234.815 935.73L234.751 935.457L234.943 935.394L235.091 935.604V935.478L235.304 935.604L235.091 935.099L235.368 935.225L235.431 935.162L235.304 934.468L235.091 934.363L234.836 934.51L234.688 933.795L234.539 933.711L234.709 933.627L234.688 933.5L242.422 933.542L249.625 933.332Z"
     fill="black"
     id="path12" />
</svg>
