<svg width="24" height="24" viewBox="229.565 228.333 716.644 720.674" xmlns="http://www.w3.org/2000/svg" xmlns:svg="http://www.w3.org/2000/svg"><path d="m294.586 695.937-4.204-2.118 2.814-7.647 2.813 5.561zm115.36-84.973-4.236-4.17 4.237-2.814 2.813 2.813zm-14.068-6.984-5.627-6.952 7.018-8.341-1.39 4.17zm39.392-29.23 5.627 4.171-9.864 5.562 3.542-6.952-2.119-1.39-5.627 8.342 1.39-15.294 4.237-6.984zm-4.932-25.09v4.203l-7.746-4.204 2.813-13.903zm-14.069-58.492-3.509 4.866-.695-12.513.695 2.086zm7.746-45.25 6.323 13.902-7.746-2.78-10.527 10.46 11.95 5.56 2.814 25.092 3.509-11.155 10.56 9.037-1.424 13.936-7.018-10.427h-7.05l-4.205-21.616h-4.932l-7.746-10.427 8.441-20.193zm-22.51-9.07 1.39 6.289-9.135-8.375 4.932-11.156zm14.764-10.428-4.204-3.509.695-4.17 4.204 4.865zm-27.441 2.78 1.423 8.342-14.068-4.866-2.814-13.936 7.017-2.085zm12.678-25.09 8.44 6.984-5.627 7.646-7.05-13.24 2.813 13.24-5.627.696-4.204-4.866-1.423 4.17-1.39-6.256 7.017-8.375zm21.086 8.374-8.441-8.375v-2.78l6.355 6.984zm-36.578-44.588-4.204 1.39v-2.78h5.627zm520.497-5.562 16.187 341.25 9.831 13.936 4.238 12.546-4.238 8.341 8.442 12.546-195.535 7.647-8.44 6.256-42.9 4.204-8.442 6.951-26.018 4.866-26.714 13.241-36.577 1.39-25.324 11.156-22.509 2.78-11.255-11.155-47.832-2.78-44.324 19.497-42.205-11.123-5.627-43.198-15.46-20.887-12.677-7.647-16.882 3.476-12.645-13.936H324.84l-7.746-5.561-15.458 6.256-13.374-8.342-8.44 4.171 6.322-46.674 7.05 32.738 4.205-6.256 7.05 2.085-8.44-6.29 2.085-10.426-3.51-9.765 5.628 3.508 1.424-13.24 4.899 4.17 6.355-.695-11.254-8.341-18.306.695-3.509-23.701 8.441 9.765v-8.375l20.391-6.952-15.458-4.17-9.17-9.766-8.44 15.327v-33.433l-9.832-22.278-2.119-37.604-25.323-46.674-3.509-20.192 7.746-22.278-5.627-8.375 67.528 32.043 59.054 8.375 12.679-8.375-4.238 4.17 11.255 13.937 10.56-7.647 3.509 14.631 4.237-6.29-4.237-9.731 9.864-2.78-1.423 7.646 14.796 26.448-17.61 25.092v-20.888l-2.814 8.342-2.813-5.561 1.423 9.732-29.56 50.15 8.44 1.39 21.12-11.122-19.696 8.341-5.627-2.78 15.459-26.482 16.882-8.342 12.678-23.668 5.627 4.171-3.509-16.716 6.323 4.866 5.627 20.192-7.05 1.39-4.205 6.985-4.932-6.29 4.932 20.226-8.44-9.765-.696 4.17 4.9 5.595-4.205 6.951 11.255-6.951 4.204 8.342-5.627 33.433-10.527-5.561 4.9-9.766v-4.17l-8.442 8.341-4.204 22.311-2.813-29.262-15.492 27.839-8.441 4.204-1.39 1.39h5.627l-5.627 5.561 12.645-11.155-7.018 12.545 7.018-6.951 2.813 11.122 4.237-13.903v4.171l2.814-4.17 8.441 8.341 14.068-13.936 4.204-13.936 9.17 6.985 9.136-12.546-7.05-27.839 6.322.695.728-4.17-8.441-7.68 3.509-18.107 8.44-18.802 10.56-10.46-14.068-8.342-.728-17.412-6.323-2.085-2.085 9.732 9.136 13.936-12.678-9.732-.695-13.936h10.56v-8.375l-12.679-9.732-2.814-8.375-7.017 4.204-2.119-3.509-2.118-9.037 6.355-2.085 4.9 6.951v-4.17l7.05 4.17-7.05-16.716 9.169 4.17 2.085-2.085-4.204-22.973-7.05-3.475-8.442 4.866-4.899-23.668-4.932-2.78 5.627-2.781-.695-4.204 256.012 1.39z" style="stroke-width:33.1021"/></svg>