<?xml version="1.0" encoding="UTF-8" standalone="no"?>
<svg
   width="24"
   height="24"
   viewBox="229.565 228.333 716.644 720.674"
   version="1.1"
   id="svg1"
   sodipodi:docname="wa.svg"
   inkscape:version="1.4.3 (0d15f75042, 2025-12-25)"
   xmlns:inkscape="http://www.inkscape.org/namespaces/inkscape"
   xmlns:sodipodi="http://sodipodi.sourceforge.net/DTD/sodipodi-0.dtd"
   xmlns="http://www.w3.org/2000/svg"
   xmlns:svg="http://www.w3.org/2000/svg">
  <defs
     id="defs1" />
  <sodipodi:namedview
     id="namedview1"
     pagecolor="#ffffff"
     bordercolor="#000000"
     borderopacity="0.25"
     inkscape:showpageshadow="2"
     inkscape:pageopacity="0.0"
     inkscape:pagecheckerboard="0"
     inkscape:deskcolor="#d1d1d1"
     inkscape:zoom="31"
     inkscape:cx="12.016129"
     inkscape:cy="12"
     inkscape:window-width="1920"
     inkscape:window-height="947"
     inkscape:window-x="1920"
     inkscape:window-y="32"
     inkscape:window-maximized="1"
     inkscape:current-layer="svg1" />
  <path
     d="m 294.58587,695.93734 -4.20397,-2.11853 2.81368,-7.64658 2.81368,5.56115 z m 115.3608,-84.97308 -4.23706,-4.17087 4.23706,-2.81367 2.81368,2.81367 z m -14.06839,-6.98454 -5.62735,-6.95144 7.01764,-8.34173 -1.39029,4.17086 z m 39.3915,-29.22915 5.62735,4.17086 -9.86442,5.56115 3.54192,-6.95144 -2.11853,-1.39029 -5.62736,8.34173 1.39029,-15.29316 4.23707,-6.98454 z m -4.93221,-25.09139 v 4.20397 l -7.74589,-4.20397 2.81367,-13.90289 z m -14.0684,-58.49141 -3.50882,4.86602 -0.69514,-12.51259 0.69514,2.08542 z m 7.7459,-45.25056 6.3225,13.90287 -7.74589,-2.78057 -10.52647,10.46026 11.94986,5.56115 2.81367,25.09139 3.50883,-11.1554 10.55956,9.03688 -1.42339,13.93598 -7.01764,-10.42716 h -7.05075 l -4.20396,-21.61567 h -4.93222 l -7.74589,-10.42717 8.44104,-20.19227 z m -22.50943,-9.06998 1.39029,6.2894 -9.13618,-8.37482 4.93221,-11.15541 z m 14.76353,-10.42716 -4.20396,-3.50882 0.69514,-4.17087 4.20397,4.86602 z m -27.44163,2.78058 1.42339,8.34172 -14.06839,-4.866 -2.81368,-13.93599 7.01764,-2.08542 z m 12.6781,-25.09139 8.44103,6.98454 -5.62735,7.64658 -7.05075,-13.24084 2.81368,13.24084 -5.62736,0.69515 -4.20396,-4.86601 -1.42339,4.17086 -1.39029,-6.25629 7.01764,-8.37483 z m 21.08604,8.37483 -8.44104,-8.37483 v -2.78058 l 6.3556,6.98454 z m -36.57782,-44.58853 -4.20397,1.39029 v -2.78058 h 5.62736 z m 520.49738,-5.56115 16.18692,341.24952 9.83133,13.93598 4.23706,12.54569 -4.23706,8.34173 8.44102,12.5457 -195.53409,7.64658 -8.44102,6.2563 -42.90032,4.20397 -8.44103,6.95144 -26.01825,4.86601 -26.71339,13.24084 -36.57782,1.39029 -25.3231,11.1554 -22.50943,2.78058 -11.25471,-11.15541 -47.83253,-2.78057 -44.32371,19.49713 -42.20517,-11.1223 -5.62736,-43.19824 -15.45868,-20.88742 -12.6781,-7.64659 -16.88207,3.47572 -12.645,-13.93598 h -14.76354 l -7.74589,-5.56115 -15.45868,6.2563 -13.37324,-8.34173 -8.44104,4.17086 6.3225,-46.67395 7.05075,32.73797 4.20397,-6.2563 7.05074,2.08544 -8.44103,-6.2894 2.08543,-10.42716 -3.50882,-9.76512 5.62735,3.50882 1.42339,-13.24084 4.89911,4.17087 6.35561,-0.69515 -11.25472,-8.34173 -18.30546,0.69515 -3.50882,-23.7011 8.44104,9.76511 v -8.37483 l 20.39089,-6.95144 -15.45868,-4.17086 -9.16928,-9.76512 -8.44104,15.32627 v -33.43312 l -9.83132,-22.27771 -2.11853,-37.60398 -25.32311,-46.67396 -3.50882,-20.19227 7.74589,-22.27772 -5.62736,-8.37483 67.52828,32.04283 59.05414,8.37483 12.67811,-8.37483 -4.23707,4.17087 11.25471,13.93598 10.55957,-7.64658 3.50882,14.63112 4.23707,-6.2894 -4.23707,-9.73201 9.86443,-2.78058 -1.42339,7.64659 14.79663,26.44857 -17.61031,25.09139 v -20.88742 l -2.81368,8.34173 -2.81368,-5.56116 1.42339,9.73202 -29.56017,50.14968 8.44103,1.39029 21.11914,-11.12231 -19.69575,8.34173 -5.62735,-2.78058 15.45868,-26.48167 16.88207,-8.34173 12.6781,-23.668 5.62736,4.17086 -3.50883,-16.71656 6.3225,4.86601 5.62736,20.19228 -7.05075,1.39029 -4.20396,6.98454 -4.93222,-6.2894 4.93222,20.22538 -8.44104,-9.76511 -0.69514,4.17086 4.89911,5.59425 -4.20397,6.95144 11.25472,-6.95144 4.20396,8.34173 -5.62735,33.43312 -10.52647,-5.56115 4.89911,-9.76512 v -4.17087 l -8.44104,8.34173 -4.20396,22.31082 -2.81368,-29.26226 -15.49178,27.83887 -8.44104,4.20396 -1.39028,1.39029 h 5.62735 l -5.62735,5.56115 12.645,-11.1554 -7.01765,12.54569 7.01765,-6.95144 2.81367,11.1223 4.23707,-13.90288 v 4.17087 l 2.81368,-4.17087 8.44104,8.34173 14.06839,-13.93598 4.20396,-13.93598 9.16928,6.98454 9.13618,-12.54569 -7.05074,-27.83887 6.3225,0.69515 0.72824,-4.17087 -8.44103,-7.67968 3.50882,-18.10685 8.44104,-18.80199 10.55956,-10.46027 -14.06839,-8.34172 -0.72824,-17.41171 -6.3225,-2.08543 -2.08544,9.73202 9.13618,13.93598 -12.6781,-9.73202 -0.69514,-13.93598 h 10.55956 v -8.37483 l -12.6781,-9.73202 -2.81368,-8.37483 -7.01764,4.20397 -2.11854,-3.50882 -2.11853,-9.03687 6.3556,-2.08544 4.89911,6.95144 v -4.17086 l 7.05075,4.17086 -7.05075,-16.71656 9.16928,4.17087 2.08544,-2.08543 -4.20397,-22.97286 -7.05075,-3.47572 -8.44103,4.86601 -4.89911,-23.668 -4.93221,-2.78058 5.62735,-2.78057 -0.69514,-4.20397 256.01161,1.39029 z"
     fill="#000000"
     id="path12"
     style="stroke-width:33.1021" />
</svg>
