<?xml version="1.0" encoding="UTF-8" standalone="no"?>
<svg
   width="24"
   height="24"
   viewBox="429.667 429.747 522.998 522.252"
   version="1.1"
   id="svg1"
   sodipodi:docname="wi.svg"
   inkscape:version="1.4.3 (0d15f75042, 2025-12-25)"
   xmlns:inkscape="http://www.inkscape.org/namespaces/inkscape"
   xmlns:sodipodi="http://sodipodi.sourceforge.net/DTD/sodipodi-0.dtd"
   xmlns="http://www.w3.org/2000/svg"
   xmlns:svg="http://www.w3.org/2000/svg">
  <defs
     id="defs1" />
  <sodipodi:namedview
     id="namedview1"
     pagecolor="#ffffff"
     bordercolor="#000000"
     borderopacity="0.25"
     inkscape:showpageshadow="2"
     inkscape:pageopacity="0.0"
     inkscape:pagecheckerboard="0"
     inkscape:deskcolor="#d1d1d1"
     inkscape:zoom="31"
     inkscape:cx="12.016129"
     inkscape:cy="12"
     inkscape:window-width="1920"
     inkscape:window-height="947"
     inkscape:window-x="1920"
     inkscape:window-y="32"
     inkscape:window-maximized="1"
     inkscape:current-layer="svg1" />
  <path
     d="m 916.67,630.13849 h 3.87693 l 1.28423,4.53116 -5.16116,1.28423 0.65423,11.63079 -4.53116,-1.28424 4.53116,4.50693 -11.00079,14.87772 0.65423,4.50693 -12.28501,14.87771 -5.8154,-7.75385 0.65423,-8.40809 8.40809,-10.34656 1.93847,-13.56925 9.69232,-3.87693 z m 7.75385,-13.56926 6.46963,0.65424 -0.65423,7.09962 h -8.40809 z m -301.11622,-151.20022 -5.81539,2.59269 16.16194,-12.93925 1.28424,3.87693 z m 14.22348,-16.79195 v 3.22269 l -8.40809,-1.93846 10.34656,-3.87693 z m -20.66887,-1.30847 3.87692,5.8154 -14.22348,32.32389 12.28502,-3.24693 1.93846,-7.09962 14.19926,10.97655 12.93925,1.30847 1.93846,5.81539 12.26079,3.2227 8.40809,20.03887 79.47704,21.32311 21.97734,11.63079 23.89158,1.28423 27.79273,7.75386 7.75386,8.40809 -1.28423,9.03809 17.44618,4.53116 7.09962,7.09963 0.65424,21.97734 -5.8154,13.56925 16.13772,-1.30846 -3.2227,21.97734 10.34656,9.03809 -3.87693,12.93925 -15.50772,9.03809 -15.50771,38.76929 5.16116,3.87693 5.16116,-1.28424 12.93925,-12.93925 14.19925,-21.3231 10.34656,-4.50693 9.03809,9.03809 -15.50772,54.277 5.18539,14.22348 -11.63078,11.63079 -7.12386,18.73041 3.24693,26.48427 -15.50772,50.40008 1.28423,27.1385 10.97656,27.13851 -0.63,32.95389 H 625.90033 l -3.87693,-16.13771 -25.85427,-6.46963 -6.4454,-9.69232 -6.46962,-41.36199 6.46962,-17.44618 -9.06232,-6.44539 -3.2227,-11.63079 v -29.7312 l -3.22269,-21.97734 -9.06232,-10.32232 -20.01465,-5.8154 -12.28502,-11.00078 -10.34655,-20.66888 -12.91502,-11.63079 -14.85349,-5.16116 -8.40809,-12.28502 -15.50771,-3.22269 -17.44618,-16.16195 5.81539,-20.03888 -3.87693,-16.79195 3.87693,-5.81539 v -18.73041 l 9.03809,-14.22349 -6.44539,-16.79194 -10.34656,-0.65424 v -14.85348 l 14.22349,-23.26157 23.26157,-12.93925 h 5.81539 l 5.8154,-5.16117 1.28423,-65.90779 h 5.16116 l 9.69232,-12.28502 10.34656,10.34656 13.56925,-1.28423 29.7312,-9.06233 15.50771,-11.63078 7.75386,3.24693 11.63079,-9.06233 6.44539,-3.22269 z m 9.03809,2.5927 -5.8154,-2.5927 1.93847,-2.56846 3.87693,2.56846 z m -19.38465,-5.81539 -2.59269,-1.28424 2.59269,-3.24692 1.93847,1.93846 z m 41.36199,-4.53116 -5.1854,1.93846 5.1854,-9.03809 v 4.53116 z"
     fill="#000000"
     id="path8"
     style="stroke-width:24.2308" />
</svg>
