<svg xmlns="http://www.w3.org/2000/svg" width="24" height="24" viewBox="429.667 429.747 522.998 522.252">
  <path
     d="M449.867 937.492H450.027L450.08 937.679L449.867 937.732L449.894 938.212L449.707 938.159L449.894 938.345L449.44 938.959L449.467 939.145L448.96 939.759L448.72 939.439L448.747 939.092L449.094 938.665L449.174 938.105L449.574 937.945L449.867 937.492ZM450.187 936.932L450.454 936.959L450.427 937.252H450.08L450.187 936.932ZM437.76 930.692L437.52 930.799L438.187 930.265L438.24 930.425L437.76 930.692ZM438.347 929.999V930.132L438 930.052L438.427 929.892L438.347 929.999ZM437.494 929.945L437.654 930.185L437.067 931.519L437.574 931.385L437.654 931.092L438.24 931.545L438.774 931.599L438.854 931.839L439.36 931.972L439.707 932.799L442.987 933.679L443.894 934.159L444.88 934.212L446.027 934.532L446.347 934.879L446.294 935.252L447.014 935.439L447.307 935.732L447.334 936.639L447.094 937.199L447.76 937.145L447.627 938.052L448.054 938.425L447.894 938.959L447.254 939.332L446.614 940.932L446.827 941.092L447.04 941.039L447.574 940.505L448.16 939.625L448.587 939.439L448.96 939.812L448.32 942.052L448.534 942.639L448.054 943.119L447.76 943.892L447.894 944.985L447.254 947.065L447.307 948.185L447.76 949.305L447.734 950.665H437.867L437.707 949.999L436.64 949.732L436.374 949.332L436.107 947.625L436.374 946.905L436 946.639L435.867 946.159V944.932L435.734 944.025L435.36 943.599L434.534 943.359L434.027 942.905L433.6 942.052L433.067 941.572L432.454 941.359L432.107 940.852L431.467 940.719L430.747 940.052L430.987 939.225L430.827 938.532L430.987 938.292V937.519L431.36 936.932L431.094 936.239L430.667 936.212V935.599L431.254 934.639L432.214 934.105H432.454L432.694 933.892L432.747 931.172H432.96L433.36 930.665L433.787 931.092L434.347 931.039L435.574 930.665L436.214 930.185L436.534 930.319L437.014 929.945L437.28 929.812L437.494 929.945ZM437.867 930.052L437.627 929.945L437.707 929.839L437.867 929.945V930.052ZM437.067 929.812L436.96 929.759L437.067 929.625L437.147 929.705L437.067 929.812ZM438.774 929.625L438.56 929.705L438.774 929.332V929.519V929.625Z"
     fill="black"
     id="path8" />
</svg>
