<svg width="24" height="24" viewBox="429.667 429.747 522.998 522.252" xmlns="http://www.w3.org/2000/svg" xmlns:svg="http://www.w3.org/2000/svg"><path d="M916.67 630.138h3.877l1.284 4.532-5.161 1.284.654 11.63-4.53-1.284 4.53 4.507-11 14.878.654 4.507-12.285 14.878-5.816-7.754.654-8.408 8.409-10.347 1.938-13.569 9.692-3.877zm7.754-13.569 6.47.654-.655 7.1h-8.408zm-301.116-151.2-5.816 2.593 16.162-12.94 1.284 3.877zm14.223-16.792v3.223l-8.408-1.939 10.347-3.877zm-20.669-1.308 3.877 5.815-14.223 32.324 12.285-3.247 1.938-7.1 14.2 10.977 12.939 1.308 1.938 5.816 12.26 3.222 8.409 20.04 79.477 21.322 21.977 11.631 23.892 1.284 27.793 7.754 7.754 8.408-1.285 9.038 17.447 4.532 7.1 7.1.653 21.977-5.815 13.569 16.138-1.309-3.223 21.978 10.347 9.038-3.877 12.94-15.508 9.037-15.508 38.77 5.161 3.876 5.162-1.284 12.939-12.94 14.199-21.322 10.347-4.507 9.038 9.038-15.508 54.277 5.185 14.223-11.63 11.631-7.124 18.73 3.247 26.485-15.508 50.4 1.284 27.138 10.977 27.139-.63 32.954H625.9l-3.877-16.138-25.854-6.47-6.445-9.692-6.47-41.362 6.47-17.446-9.063-6.445-3.222-11.631v-29.731l-3.223-21.978-9.062-10.322-20.015-5.815-12.285-11.001-10.347-20.669-12.915-11.63-14.853-5.162-8.408-12.285-15.508-3.223-17.446-16.162 5.815-20.039-3.877-16.791 3.877-5.816v-18.73l9.038-14.224-6.445-16.792-10.346-.654V584.27l14.223-23.262 23.262-12.94h5.815l5.815-5.16L501.84 477H507l9.693-12.285 10.347 10.346 13.569-1.284 29.731-9.062 15.508-11.631 7.754 3.247 11.63-9.062 6.446-3.223zm9.038 2.592-5.815-2.592 1.938-2.569 3.877 2.569zm-19.384-5.815-2.593-1.284 2.593-3.247 1.938 1.938zm41.362-4.531-5.186 1.938 5.186-9.038v4.531z" style="stroke-width:24.2308"/></svg>