<svg xmlns="http://www.w3.org/2000/svg" width="24" height="24" viewBox="332.632 328.333 619.0920000000001 613.9089999999999">
  <path
     d="M343.16 935.827L343.114 938.685L343.974 938.128L344.74 937.245L344.996 937.175L345.391 937.314L346.019 936.687L346.158 936.315L346.321 936.431L346.274 936.64L346.576 936.757L347.529 936.873L347.645 936.733L347.576 936.571L347.715 936.501L347.645 936.362L348.273 936.269L348.714 935.873L349.597 936.478L350.155 936.385L350.225 936.571L350.039 936.64L350.132 936.943L350.225 936.757L350.271 937.035L350.527 936.989L350.341 937.291L350.597 937.431L350.666 937.942L350.271 939.011L348.133 937.314L347.785 938.36L347.715 938.941L347.041 939.894L346.623 940.242H346.321L345.809 941.009L345.252 940.707L344.02 943.078L343.021 942.752L342.881 942.287L342.44 942.148L341.743 943.914L341.255 944.402L340.86 945.401L339.953 946.447L339.558 947.168L339.884 947.516L339.488 947.795L339.535 948.097L338.861 948.585L338.489 948.33L337.56 948.841L337.095 948.585L336.932 949.12L335.375 949.515L334.841 948.98L333.934 949.724L333.47 949.677L332.679 949.213L332.052 948.213L332.168 947.842L331.494 947.656L330.727 946.982L329.96 945.541L330.007 945.332L329.333 944.333L329.612 943.821L329.589 942.845L330.681 942.752L330.936 941.939L331.355 941.823L331.285 940.893L331.982 939.685L332.215 939.569L332.47 939.754L332.656 940.405L332.982 939.987L333.237 940.08L333.028 939.266L333.353 939.127V938.755L333.632 938.244H334.05L334.236 937.849L334.562 937.5H334.794L335.003 937.849L335.631 937.547L337.118 936.315L337.35 935.827L337.188 935.548L337.49 934.99V934.688L337.699 934.642L337.792 933.829L338.373 932.481L338.257 932.109L338.373 931.667L338.117 930.877L338.745 930.668L338.675 935.827H343.16Z"
     fill="black"
     id="path10" />
</svg>
