<svg width="24" height="24" viewBox="332.632 328.333 619.092 613.909" xmlns="http://www.w3.org/2000/svg" xmlns:svg="http://www.w3.org/2000/svg"><path d="m732.644 510.23-1.317 81.807 24.617-15.944 21.925-25.275 7.328-2.003 11.307 3.978 17.975-17.947 3.98-10.648 4.665 3.32-1.345 5.983 8.644 3.349 27.278 3.32 3.32-4.007-1.974-4.637 3.979-2.004-2.004-3.978 17.976-2.662 12.623-11.336 25.275 17.318 15.972-2.662 2.003 5.324-5.324 1.975 2.662 8.673 2.662-5.324 1.317 7.957 7.328-1.316-5.324 8.644 7.328 4.007 1.975 14.627-11.307 30.6-61.198-48.576-9.96 29.941-2.004 16.63-19.293 27.28-11.965 9.96h-8.644l-14.656 21.955-15.943-8.645-35.265 67.868-28.595-9.332-4.007-13.31-12.623-3.979-19.951 50.55-13.969 13.969-11.306 28.595-25.962 29.94-11.306 20.638 9.33 9.961-11.334 7.986 1.345 8.645-19.292 13.968-10.648-7.299-26.592 14.627-13.31-7.328-4.666 15.314-44.567 11.306-15.285-15.313-25.962 21.296-13.282-1.346-22.641-13.281-17.947-28.624 3.32-10.62-19.292-5.323-21.955-19.293-21.954-41.247 1.345-5.982-19.293-28.596 7.986-14.655-.658-27.937 31.257-2.662 7.3-23.271 11.993-3.32-2.004-26.62 19.951-34.578 6.67-3.32 7.298 5.295 5.325 18.634 9.33-11.965 7.3 2.662-5.982-23.3 9.302-3.978V594.04l7.986-14.626h11.965l5.324-11.307 9.332-9.99h6.64l5.983 9.99 17.976-8.644 42.563-35.265 6.641-13.968-4.637-7.986 8.644-15.972v-8.645l5.983-1.317 2.662-23.27 16.63-38.586-3.32-10.648 3.32-12.652-7.327-22.612 17.975-5.983-2.003 147.67z" style="stroke-width:28.6239"/></svg>