<?xml version="1.0" encoding="UTF-8" standalone="no"?>
<svg
   width="24"
   height="24"
   viewBox="332.632 328.333 619.0920000000001 613.9089999999999"
   version="1.1"
   id="svg1"
   sodipodi:docname="wv.svg"
   inkscape:version="1.4.3 (0d15f75042, 2025-12-25)"
   xmlns:inkscape="http://www.inkscape.org/namespaces/inkscape"
   xmlns:sodipodi="http://sodipodi.sourceforge.net/DTD/sodipodi-0.dtd"
   xmlns="http://www.w3.org/2000/svg"
   xmlns:svg="http://www.w3.org/2000/svg">
  <defs
     id="defs1" />
  <sodipodi:namedview
     id="namedview1"
     pagecolor="#ffffff"
     bordercolor="#000000"
     borderopacity="0.25"
     inkscape:showpageshadow="2"
     inkscape:pageopacity="0.0"
     inkscape:pagecheckerboard="0"
     inkscape:deskcolor="#d1d1d1"
     inkscape:zoom="31"
     inkscape:cx="12.016129"
     inkscape:cy="12.225806"
     inkscape:window-width="1920"
     inkscape:window-height="947"
     inkscape:window-x="1920"
     inkscape:window-y="32"
     inkscape:window-maximized="1"
     inkscape:current-layer="svg1" />
  <path
     d="m 732.64377,510.22977 -1.31671,81.80705 24.61654,-15.94351 21.92589,-25.27488 7.32771,-2.00367 11.30644,3.97872 17.97579,-17.94718 3.97872,-10.64807 4.66569,3.32037 -1.34531,5.98239 8.64441,3.34899 27.27855,3.32037 3.32037,-4.00734 -1.97504,-4.63707 3.97872,-2.00367 -2.00368,-3.97872 17.9758,-2.66202 12.62313,-11.33506 25.27489,17.31745 15.97212,-2.66203 2.00367,5.32405 -5.32404,1.97505 2.66201,8.67303 2.66203,-5.32404 1.31669,7.95744 7.32772,-1.31671 -5.32404,8.64442 7.32772,4.00734 1.97504,14.62681 -11.30643,30.59892 -61.19785,-48.57472 -9.96112,29.94058 -2.00366,16.63047 -19.2925,27.27855 -11.96479,9.96112 h -8.64441 l -14.65542,21.95451 -15.9435,-8.64441 -35.26462,67.86722 -28.59525,-9.33139 -4.00734,-13.3101 -12.62313,-3.97872 -19.95085,50.54977 -13.96846,13.96845 -11.30642,28.59526 -25.96187,29.94057 -11.30642,20.63782 9.33139,9.96112 -11.33507,7.98606 1.34534,8.64441 -19.2925,13.96845 -10.6481,-7.29909 -26.59158,14.62681 -13.3101,-7.32772 -4.66569,15.31378 -44.56738,11.30642 -15.28516,-15.31376 -25.96185,21.29616 -13.28148,-1.34533 -22.64149,-13.28148 -17.94718,-28.62388 3.32038,-10.61945 -19.2925,-5.32404 -21.95451,-19.2925 -21.95452,-41.24701 1.34532,-5.98239 -19.29249,-28.59525 7.98607,-14.65543 -0.65836,-27.9369 31.25728,-2.66203 7.29909,-23.27121 11.9934,-3.32037 -2.00367,-26.62021 19.95085,-34.57764 6.66935,-3.32038 7.2991,5.29542 5.32404,18.63415 9.33139,-11.96478 7.29908,2.66202 -5.98239,-23.29984 9.30276,-3.97872 v -10.64808 l 7.98606,-14.6268 h 11.96479 l 5.32404,-11.30644 9.33139,-9.98973 h 6.64073 l 5.98239,9.98973 17.97581,-8.64441 42.5637,-35.26461 6.64074,-13.96846 -4.63707,-7.98607 8.64443,-15.97211 v -8.64441 l 5.98237,-1.31671 2.66203,-23.27121 16.63047,-38.58499 -3.32037,-10.64808 3.32037,-12.65175 -7.32772,-22.61287 17.9758,-5.98239 -2.00367,147.67059 z"
     fill="#000000"
     id="path10"
     style="stroke-width:28.6239" />
</svg>
